<?xml version="1.0" encoding="UTF-8"?><svg id="Layer_2" xmlns="http://www.w3.org/2000/svg" width="790.63" height="571.6" viewBox="0 0 790.63 571.6"><defs><style>.cls-1{fill:#fdb831;}.cls-1,.cls-2,.cls-3,.cls-4{stroke-width:0px;}.cls-3{fill:#fff;}.cls-4{fill:#231f20;}</style></defs><g id="Layer_9"><path class="cls-1" d="M782.66,8.31c-182.92-2.13-365.82-3.73-548.73-4.79-76.08-.44-152.18-.79-228.28-1.05,9.74,104.42,9.34,185.2,6.89,241.36-5.98,137-6.88,152.94-6.88,152.94-1.37,24.28-3.35,56.58-3.16,100.72.12,29.42,1.16,53.74,2.08,70.38,258.66-.42,517.31-.84,775.97-1.25,5.85-111.84,8.72-229.28,7.63-351.84-.63-70.67-2.54-139.52-5.53-206.46Z"/><path class="cls-3" d="M441.23,233.79c-16.62-14.09-53.48-41.47-108.33-52.21-47.99-9.39-87.4-1.66-108.04,3.93-10.23,16.4-24.14,43.82-28.58,80.04-8.84,72.12,26.34,126.47,37.1,141.84,25.81-4.7,59.55-14.02,95.45-33.28,16.78-9,50.48-27.47,82.87-63.94,14.93-16.8,25.3-32.61,32.11-44.26-1.84-1.9-4.76-5.48-6.22-10.75-2.98-10.76,2.59-19.76,3.63-21.38Z"/><path class="cls-3" d="M460.79,236.02c3.06-6.7,6.76-16.66,8.33-29.14,3.81-30.26-7.6-53.71-13.04-64.51-12.83-25.5-31.25-40.56-41.72-47.87,5.47.62,13.32,1.74,22.58,3.93,46.16,10.9,76.46,36.22,86.79,45.54,23.46,21.15,37.25,43.89,45.09,59.81-10.48.1-23.51,1.3-37.92,5.27-31.49,8.67-52.88,25.92-64.18,36.67-1.98-3.24-3.96-6.47-5.93-9.71Z"/><path class="cls-3" d="M584.57,330.86c-5.91-10.74-14.54-23.44-27.12-35.62-35.32-34.17-78.02-41.2-95.58-43.04-.9,3.06-1.8,6.11-2.7,9.17,2.83,6.89,6.41,16.5,9.66,28.21,13.57,48.82,8.91,89.1,7.42,100.12-5.54,41.03-20.5,71.96-31.19,90.22,8.01-2.24,19.22-5.93,31.92-12.03,45.87-22.07,70.68-56.37,78.59-68.2,17.35-25.95,25.21-51.16,29-68.84Z"/><path class="cls-2" d="M466.07,227.78c.71.42,6.68,4.04,9.33,11.25,4.14,11.29-1.29,27.49-12.93,31.51-.6.21-8.95,2.95-15.27-1.68-12.37-9.05-7.53-39.36,4.71-43.74,5.76-2.06,12.71,1.79,14.16,2.65Z"/><g id="Layer_8"><path class="cls-4" d="M391.76,489.73c-110.01,0-199.51-89.5-199.51-199.51s89.5-199.51,199.51-199.51,199.51,89.5,199.51,199.51-89.5,199.51-199.51,199.51ZM391.76,95.72c-107.25,0-194.51,87.25-194.51,194.51s87.25,194.51,194.51,194.51,194.51-87.25,194.51-194.51-87.25-194.51-194.51-194.51Z"/><path class="cls-4" d="M456.37,274.29c-11.87,0-21.53-11.74-21.53-26.16s9.66-26.16,21.53-26.16,21.53,11.74,21.53,26.16-9.66,26.16-21.53,26.16ZM456.37,226.97c-9.11,0-16.53,9.49-16.53,21.16s7.42,21.16,16.53,21.16,16.53-9.49,16.53-21.16-7.42-21.16-16.53-21.16Z"/><path class="cls-4" d="M468.5,228.34l-4.87-1.13c3.69-15.89,6.12-40.63-3.32-68.31-11.5-33.74-34.61-53.54-47.37-62.33l2.84-4.12c13.26,9.15,37.29,29.73,49.26,64.84,9.82,28.8,7.3,54.54,3.45,71.06Z"/><path class="cls-4" d="M439.62,235.7c-23.42-19.72-62.64-44.97-116.47-53.3-32.58-5.04-65.42-3.18-97.63,5.53l-1.31-4.83c32.89-8.9,66.43-10.79,99.7-5.64,54.97,8.51,95.02,34.29,118.93,54.42l-3.22,3.83Z"/><path class="cls-4" d="M447.22,481.19l-4.31-2.53c17.41-29.69,28.42-63.42,31.85-97.55,3.71-36.94-1.35-74.86-14.62-109.69l4.67-1.78c13.55,35.55,18.71,74.26,14.92,111.97-3.5,34.84-14.74,69.27-32.51,99.57Z"/><path class="cls-4" d="M582.39,332.08c-8.42-15.12-23.91-36.73-49.89-53.78-17.46-11.46-36.82-19.12-57.54-22.77l.87-4.92c21.39,3.77,41.38,11.68,59.42,23.52,21.23,13.94,39.05,33.14,51.51,55.53l-4.37,2.43Z"/><path class="cls-4" d="M233.83,409.86l-.88-4.92c50.43-8.99,98.01-30.13,137.58-61.13,28.08-22,52.03-48.65,71.17-79.22l4.24,2.65c-19.45,31.05-43.78,58.14-72.33,80.5-40.22,31.5-88.55,52.98-139.79,62.12Z"/><path class="cls-4" d="M476.95,240.99l-3.1-3.92c11.34-8.98,23.77-16.44,36.96-22.17,18.3-7.96,37.78-12.54,57.9-13.61l.27,4.99c-19.52,1.04-38.42,5.48-56.17,13.2-12.79,5.56-24.85,12.8-35.85,21.51Z"/><path class="cls-4" d="M780.15,11.01c3.3,72.27,6.38,144.54,5.39,216.9s-3.1,144.51-4.73,216.76c-.92,40.65-1.83,81.3-2.75,121.95-.07,3.22,4.93,3.22,5,0,1.63-72.43,3.27-144.86,4.9-217.28,1.63-72.16,3.81-144.29,1.95-216.46-1.05-40.64-2.91-81.25-4.76-121.86-.15-3.2-5.15-3.22-5,0h0Z"/><path class="cls-4" d="M769.03,565.96c-99.05-1.63-198.1-2.59-297.16-2.88-98.55-.29-197.11.09-295.66,1.12-55.59.58-111.18,1.38-166.77,2.39-3.21.06-3.22,5.06,0,5,99.04-1.79,198.1-2.92,297.16-3.37s197.11-.24,295.66.63c55.59.49,111.18,1.2,166.77,2.11,3.22.05,3.22-4.95,0-5h0Z"/><path class="cls-4" d="M3.15,2.46c1.43,36.48,2.87,72.97,4.3,109.45,1.41,35.95,3.08,71.9,2.9,107.88-.35,72.23-6.2,144.26-8.96,216.4-1.55,40.61-2.1,81.27-.17,121.88.15,3.2,5.15,3.22,5,0-3.43-72.14,1.02-144.3,4.84-216.33,1.92-36.23,3.67-72.48,4.17-108.76.49-35.97-.85-71.87-2.26-107.8-1.61-40.91-3.22-81.81-4.83-122.72-.13-3.21-5.13-3.22-5,0h0Z"/><path class="cls-4" d="M776.38,1.92c-99.54.22-199.08.23-298.63.01-99.18-.22-198.36-.71-297.54-1.16C124.53.51,68.84.26,13.14,0c-3.22-.01-3.22,4.99,0,5,99.15.45,198.31.92,297.46,1.36,99.39.44,198.79.7,298.18.73,55.87.01,111.73-.05,167.6-.17,3.22,0,3.22-5.01,0-5h0Z"/></g></g></svg>