<?xml version="1.0" encoding="UTF-8"?><svg id="Layer_2" xmlns="http://www.w3.org/2000/svg" width="792.87" height="573.06" viewBox="0 0 792.87 573.06"><defs><style>.cls-1{fill:#fdb831;}.cls-1,.cls-2{stroke-width:0px;}.cls-2{fill:#231f20;}</style></defs><g id="Layer_9"><g id="Layer_8"><path class="cls-1" d="M9.18,2.8c2.14,65.7,3.6,132.5,4.33,200.35,1.33,124.41.09,245.43-3.31,362.86l22.27,4.16c249.58-.99,499.16-1.98,748.74-2.97,1.24-48.93,8.51-334.94,8.51-334.94h0c-.09-1.34-5.15-64.84-7.35-117.75-1.04-25.09-1.97-60.51-1.23-103.55C523.82,8.24,266.5,5.52,9.18,2.8Z"/><path class="cls-2" d="M6.42,2.41c-.87,18.01,0,36.03.63,54.02s1.22,36.71,1.73,55.06c1.02,36.71,1.76,73.43,2.23,110.15.94,73.44.79,146.9-.45,220.34-.7,41.22-1.74,82.43-3.12,123.63-.11,3.22,4.89,3.21,5,0,2.46-73.41,3.84-146.86,4.13-220.31.28-73.45-.52-146.9-2.42-220.33-.53-20.6-1.15-41.21-1.86-61.81-.69-20.24-1.84-40.52-.87-60.77.16-3.22-4.85-3.21-5,0h0Z"/><path class="cls-2" d="M780.88,8.07c-99.53-.72-199.06-1.44-298.59-2.15s-198.05-1.43-297.07-2.14c-55.86-.4-111.72-.81-167.58-1.21-3.22-.02-3.22,4.98,0,5,99.53.72,199.06,1.44,298.59,2.15,99.02.71,198.05,1.43,297.07,2.14,55.86.4,111.72.81,167.58,1.21,3.22.02,3.22-4.98,0-5h0Z"/><path class="cls-2" d="M781.28,20.78c-7.25,70.55,2.62,141.16,5.71,211.64,1.54,35.28.5,70.56-.43,105.84s-2.04,71.85-3.3,107.76c-1.41,40.27-3.01,80.53-4.81,120.79-.14,3.22,4.86,3.21,5,0,3.21-71.8,5.8-143.64,7.76-215.48.96-35.33,2.35-70.72,1.26-106.06s-4.25-70.66-6.47-105.98c-2.49-39.45-3.76-79.11.29-118.51.33-3.2-4.67-3.17-5,0h0Z"/><path class="cls-2" d="M766.31,567.03c-96.84.51-193.68.83-290.52.97-96.35.13-192.69.08-289.04-.16-54.35-.14-108.7-.33-163.05-.59-3.22-.02-3.22,4.98,0,5,96.84.45,193.68.72,290.52.8,96.35.08,192.69-.03,289.04-.33,54.35-.17,108.7-.4,163.05-.68,3.22-.02,3.22-5.02,0-5h0Z"/><path class="cls-2" d="M170.26,268.32c-1.48-3.42-2.07-7.02-1.89-10.74.29-5.61,2.24-10.56,5.84-14.93,2.77-3.42,6.37-5.07,10.68-5.49,3.25-.24,5.67,1.24,7.73,3.48.71.77.71,1.83.12,2.6s-1.77,1-2.71.53c-.47-.29-.83-.65-1.24-.94-2.71-2.07-5.43-1.24-8.08.06-1.36.59-2.42,1.53-3.25,2.66-4.78,6.02-5.9,12.8-3.42,20.06.83,2.36,2.18,4.48,4.07,6.31,3.48,3.19,8.97,2.3,11.03-2.24.88-1.83,1.53-5.07,1.42-7.26-1.83.12-3.54.59-5.31.83-1,.18-2.01.47-3.07.47-1.3-.06-2.18-.77-2.36-1.83-.12-1.18.47-1.83,1.89-2.24,3.42-.94,6.9-1.3,10.33-1.83,1.18-.18,2.12.47,2.42,1.71.77,2.89.47,5.78-.24,8.61-.77,3.19-2.36,6.02-4.96,8.02-2.06,1.59-4.48,2.36-7.14,2.06-6.08-.77-9.62-4.6-11.86-9.91Z"/><path class="cls-2" d="M207.07,273.45c-.35-1.65-.18-3.36-.24-5.07-.18-4.37-.53-8.67-.71-13.04-.12-3.25-.18-6.49.06-9.74.06-.94.06-1.95.06-2.95,0-.94.47-1.59,1.42-1.83,3.19-.94,6.43-1.83,9.74-1.53,4.54.47,8.56,2.12,11.03,6.2,1.24,2.06,1.53,4.48.83,6.84-1,3.48-3.3,5.9-6.73,7.2l-2.18.88c2.06,2.6,4.25,5.02,6.61,7.32.83.83,1.53,1.71,2.3,2.6.71.89.65,2.12-.06,2.77-.83.77-2.07.83-2.95-.12-1.59-1.53-3.19-3.13-4.66-4.72-2.12-2.36-4.13-4.78-6.02-7.2-1.59-.12-3.07.18-4.66,0l.53,9.74c.06.77.06,1.53,0,2.3-.06,1.3-.88,2.18-2.07,2.24-1.06.12-2.06-.71-2.3-1.89ZM218.58,256.46c1.95-.41,3.66-1.18,5.02-2.6,1.59-1.59,2.18-3.48,1.48-5.66-.71-2.3-2.71-3.19-4.72-4.01-2.07-.88-4.31-.77-6.43-.41-1.24.18-2.54.18-3.54.89-.29,4.07.18,8.08.24,12.04.47.24.94.24,1.36.29,2.24.18,4.43-.12,6.61-.53Z"/><path class="cls-2" d="M247.07,273.04c-2.01-.94-3.36-2.71-4.31-4.66-1.53-3.01-2.36-6.25-2.6-9.62l-.83-12.51c-.06-1.12-.06-2.24,0-3.36.06-.77.47-1.42,1-1.95.35-.35.77-.53,1.18-.53.59,0,1.24.35,1.59.94.41.65.47,1.24.41,3.48.35,2.95.35,6.43,1,13.98.24,2.54.89,5.02,1.95,7.32.77,1.71,1.89,3.07,3.72,3.66.41.18.88.24,1.3.24,2.24,0,3.19-.47,3.95-1.42,1.77-2.24,2.6-4.9,3.13-7.61.83-3.84.94-11.92,1.36-15.81.18-1.65.29-3.36.24-5.07,0-1.12.83-2.01,1.77-2.07.94-.12,1.89.65,2.18,1.65.18.41.18.89.18,1.36s0,.88-.06,1.36c-.24,4.84-.65,13.81-1.42,18.59-.59,3.3-1.65,6.43-3.54,9.2-1.77,2.71-4.01,4.01-7.79,4.01-1.36,0-2.89-.41-4.43-1.18Z"/><path class="cls-2" d="M275.1,272.39c0-1.24-.06-2.42-.12-3.66-.12-4.72.06-9.38.41-14.04.24-3.36.53-6.73.89-10.09.06-.83.18-1.65.24-2.48.18-1.24.83-2.12,1.83-2.36,1-.29,1.95.06,2.77,1.12,2.01,2.6,3.54,5.49,5.19,8.32,2.77,4.72,5.55,9.56,8.5,14.16.35.59.83,1.18,1.36,1.95.53-2.48.41-4.78.65-7.08.12-1.53.29-3.13.24-4.66-.06-3.07.35-6.14.35-9.15,0-.24-.12-.53-.18-.77-.24-1.06.06-2.01.88-2.48.77-.53,1.83-.41,2.66.29.88.77,1.36,1.65,1.3,2.95-.12,3.07-.35,6.2-.41,9.26-.06,5.37-.59,10.74-1.3,16.05-.12,1.12-.06,2.24-.65,3.25-1.06,1.77-2.95,1.89-4.19.29-1.42-1.89-2.42-3.95-3.6-5.96-3.66-6.02-7.26-12.16-10.68-18.29-.12-.29-.29-.47-.59-.94-.12.94-.18,1.71-.24,2.42-.3,4.37-.65,8.73-.77,13.1-.12,2.48.06,5.02.06,7.55,0,.59.06,1.18-.12,1.77-.41,1.24-1.53,2.12-2.66,1.95s-1.89-1.12-1.83-2.48Z"/><path class="cls-2" d="M316.87,274.34c-1.53-9.26-1.89-19.53-1.89-28.5v-2.07c-1.12-.65-2.01-1.36-1.95-2.66,0-1.24.77-2.01,2.01-1.95,1.65,0,5.72-.65,6.67-.65,10.56,0,19.77,6.25,19.77,15.81,0,10.33-6.31,14.04-15.4,18.88-2.48,1.3-3.72.83-5.72,2.48-.41.29-.83.47-1.24.47-.94,0-2.06-.65-2.24-1.83ZM337.23,254.33c0-7.67-7.43-11.74-15.11-11.74-.94,0-1.95.12-2.95.35,0,8.32.59,20.18,1.48,27.5,9.2-2.54,16.58-7.61,16.58-16.11Z"/><path class="cls-2" d="M353.86,271.86c-.12-2.71-.41-5.31-.41-7.97,0-3.54-.18-8.08-.06-11.62.12-2.18.35-4.31.3-6.43-.06-1.59-.12-3.19-.06-4.78.06-1.53.88-2.54,2.18-2.6,1.48-.06,2.6,1,2.71,2.54.06.41.06.83.06,1.24-.06,1-.24,2.01-.3,3.07-.12,1-.18,2.07-.18,3.07-.06,1.06-.06,2.07-.12,3.13-.12,5.19-.12,11.39.06,16.58.12,1.06-.06,2.18.41,3.3,1.95-.18,3.84-.41,5.72-.59,1-.06,2.06-.24,3.07-.24.35,0,.71,0,1.06.06,1.48.18,2.12.89,2.12,2.01s-.83,1.95-2.18,2.06c-2.77.24-5.61.71-8.44.71-.77-.06-1.59.18-2.42.06-1.95-.24-3.36-1.59-3.54-3.6Z"/><path class="cls-2" d="M395.69,266.19h-12.27c-.53,2.36-.94,4.13-1.3,5.72-.47,2.48-2.18,3.95-3.78,3.13-1.77-1-.65-3.19.35-7.32,2.42-10.21,5.37-22.54,8.73-26.85,1.12-1.42,2.42-1.89,4.01-1.42,1.12.29,1.89.24,3.95.12.94,0,1.83,0,2.77.06,2.12.06,4.19.12,6.2-.41,1.12-.29,2.01.18,2.36,1.12.29,1.18-.18,2.12-1.36,2.6-.94.29-1.77.47-2.66.47-1,.06-2.01.06-3.01.06s-2.01.06-3.01.06h-.65c-.59-.06-.89,0-1.18.12.53,1.83,1,3.6,1.48,5.37.53,1.77,1,3.6,1.53,5.37,2.48.35,4.9.12,7.38-.06,1.83-.12,2.83.41,3.01,1.59.18,1.24-.65,2.01-2.6,2.42-.88.18-1.71.18-2.54.18-.29.06-.59.06-.94.06h-3.54c1,4.37,1.89,8.61,2.77,12.86,3.01,0,5.25-.18,7.73-.89l1.18-.35c1.42-.24,2.48.18,2.77,1.12.35,1-.12,1.89-1.42,2.6-1.71.83-8.38,2.01-10.92,1.65-3.89-.53-4.07-4.43-5.07-9.38ZM394.81,261.94c-1.12-6.25-2.54-12.39-4.43-18.35-2.36,4.9-3.72,10.09-5.07,15.28-.24,1-.53,2.01-.77,3.07h10.27Z"/><path class="cls-2" d="M419.47,268.32c-1.47-3.42-2.06-7.02-1.89-10.74.29-5.61,2.24-10.56,5.84-14.93,2.77-3.42,6.37-5.07,10.68-5.49,3.25-.24,5.66,1.24,7.73,3.48.71.77.71,1.83.12,2.6s-1.77,1-2.71.53c-.47-.29-.83-.65-1.24-.94-2.71-2.07-5.43-1.24-8.08.06-1.36.59-2.42,1.53-3.25,2.66-4.78,6.02-5.9,12.8-3.42,20.06.83,2.36,2.18,4.48,4.07,6.31,3.48,3.19,8.97,2.3,11.03-2.24.89-1.83,1.53-5.07,1.42-7.26-1.83.12-3.54.59-5.31.83-1,.18-2.01.47-3.07.47-1.3-.06-2.18-.77-2.36-1.83-.12-1.18.47-1.83,1.89-2.24,3.42-.94,6.9-1.3,10.33-1.83,1.18-.18,2.12.47,2.42,1.71.77,2.89.47,5.78-.24,8.61-.77,3.19-2.36,6.02-4.96,8.02-2.07,1.59-4.48,2.36-7.14,2.06-6.08-.77-9.62-4.6-11.86-9.91Z"/><path class="cls-2" d="M454.87,268.32c-1.47-3.42-2.06-7.02-1.89-10.74.29-5.61,2.24-10.56,5.84-14.93,2.77-3.42,6.37-5.07,10.68-5.49,3.25-.24,5.66,1.24,7.73,3.48.71.77.71,1.83.12,2.6s-1.77,1-2.71.53c-.47-.29-.83-.65-1.24-.94-2.71-2.07-5.43-1.24-8.08.06-1.36.59-2.42,1.53-3.25,2.66-4.78,6.02-5.9,12.8-3.42,20.06.83,2.36,2.18,4.48,4.07,6.31,3.48,3.19,8.97,2.3,11.03-2.24.89-1.83,1.53-5.07,1.42-7.26-1.83.12-3.54.59-5.31.83-1,.18-2.01.47-3.07.47-1.3-.06-2.18-.77-2.36-1.83-.12-1.18.47-1.83,1.89-2.24,3.42-.94,6.9-1.3,10.33-1.83,1.18-.18,2.12.47,2.42,1.71.77,2.89.47,5.78-.24,8.61-.77,3.19-2.36,6.02-4.96,8.02-2.07,1.59-4.48,2.36-7.14,2.06-6.08-.77-9.62-4.6-11.86-9.91Z"/><path class="cls-2" d="M492.75,273.51c-1.18-3.19-1.48-6.49-1.71-9.85-.24-4.31-.29-8.56-.18-12.86.06-1.89.24-5.02.18-8.14-1.65-1.48-1.48-2.54.29-3.66.94-.65,1.83-.89,2.95-.47.41.12.88,0,1.36-.06,2.95-.24,5.9-.59,8.85-.83.88-.06,1.77.06,2.66.24,1,.12,1.71,1,1.71,1.83.06.94-.65,1.89-1.71,2.01-2.24.18-4.48.18-6.73.35-1.71.12-3.36.35-5.19.53v11.98c1.71-.24,3.42-.53,5.13-.71,2.18-.18,4.37-.47,6.55-.35,1.3.06,2.01.83,2.07,1.95,0,1.12-.77,1.89-2.07,2.01-2.24.24-4.54.18-6.84.47-1.71.24-3.36.65-5.02.77.29,3.72.24,7.85,1.18,11.8.65,2.54,1.36,3.36,4.25,2.54,1.71-.47,3.36-1.12,5.07-1.65,1.3-.41,2.48-.06,2.83,1,.41,1.06-.12,2.3-1.36,2.83-2.66,1.06-5.25,2.18-8.14,2.42-2.3.12-5.31-1.89-6.14-4.13Z"/><path class="cls-2" d="M519.18,272.39c0-1.24-.06-2.42-.12-3.66-.12-4.72.06-9.38.41-14.04.24-3.36.53-6.73.89-10.09.06-.83.18-1.65.24-2.48.18-1.24.83-2.12,1.83-2.36,1-.29,1.95.06,2.77,1.12,2.01,2.6,3.54,5.49,5.19,8.32,2.77,4.72,5.55,9.56,8.5,14.16.35.59.83,1.18,1.36,1.95.53-2.48.41-4.78.65-7.08.12-1.53.29-3.13.24-4.66-.06-3.07.35-6.14.35-9.15,0-.24-.12-.53-.18-.77-.24-1.06.06-2.01.89-2.48.77-.53,1.83-.41,2.66.29.88.77,1.36,1.65,1.3,2.95-.12,3.07-.35,6.2-.41,9.26-.06,5.37-.59,10.74-1.3,16.05-.12,1.12-.06,2.24-.65,3.25-1.06,1.77-2.95,1.89-4.19.29-1.42-1.89-2.42-3.95-3.6-5.96-3.66-6.02-7.26-12.16-10.68-18.29-.12-.29-.29-.47-.59-.94-.12.94-.18,1.71-.24,2.42-.29,4.37-.65,8.73-.77,13.1-.12,2.48.06,5.02.06,7.55,0,.59.06,1.18-.12,1.77-.41,1.24-1.53,2.12-2.66,1.95s-1.89-1.12-1.83-2.48Z"/><path class="cls-2" d="M560.95,274.34c-1.53-9.26-1.89-19.53-1.89-28.5v-2.07c-1.12-.65-2.01-1.36-1.95-2.66,0-1.24.77-2.01,2.01-1.95,1.65,0,5.72-.65,6.67-.65,10.56,0,19.77,6.25,19.77,15.81,0,10.33-6.31,14.04-15.4,18.88-2.48,1.3-3.72.83-5.72,2.48-.41.29-.83.47-1.24.47-.94,0-2.07-.65-2.24-1.83ZM581.31,254.33c0-7.67-7.43-11.74-15.11-11.74-.94,0-1.95.12-2.95.35,0,8.32.59,20.18,1.47,27.5,9.21-2.54,16.58-7.61,16.58-16.11Z"/><path class="cls-2" d="M596.58,273.51c-1.18-3.19-1.48-6.49-1.71-9.85-.24-4.31-.29-8.56-.18-12.86.06-1.89.24-5.02.18-8.14-1.65-1.48-1.48-2.54.29-3.66.94-.65,1.83-.89,2.95-.47.41.12.88,0,1.36-.06,2.95-.24,5.9-.59,8.85-.83.88-.06,1.77.06,2.66.24,1,.12,1.71,1,1.71,1.83.06.94-.65,1.89-1.71,2.01-2.24.18-4.48.18-6.73.35-1.71.12-3.36.35-5.19.53v11.98c1.71-.24,3.42-.53,5.13-.71,2.18-.18,4.37-.47,6.55-.35,1.3.06,2.01.83,2.07,1.95,0,1.12-.77,1.89-2.07,2.01-2.24.24-4.54.18-6.84.47-1.71.24-3.36.65-5.02.77.3,3.72.24,7.85,1.18,11.8.65,2.54,1.36,3.36,4.25,2.54,1.71-.47,3.36-1.12,5.08-1.65,1.3-.41,2.48-.06,2.83,1,.41,1.06-.12,2.3-1.36,2.83-2.66,1.06-5.25,2.18-8.14,2.42-2.3.12-5.31-1.89-6.14-4.13Z"/><path class="cls-2" d="M279.91,340.12c-.24-1.77-.06-3.54-.24-5.31-.29-3.89-.06-7.79.18-11.68.12-2.01.3-4.01.35-5.96-.06-1,0-2.01.29-2.95.18-.83.65-1.42,1.48-1.65.83-.24,1.53.12,2.12.71,1.18,1.18,1.36,2.95.53,4.43-.12.18-.18.47-.24.71-.12,3.42-.41,6.84-.41,10.33s.29,6.67.47,9.97c.06,1.24-.18,2.36-1.24,3.07-1.42.89-3.07.06-3.3-1.65Z"/><path class="cls-2" d="M299.79,343.19c0-1.24-.06-2.42-.12-3.66-.12-4.72.06-9.38.41-14.04.24-3.36.53-6.73.89-10.09.06-.83.18-1.65.24-2.48.18-1.24.83-2.12,1.83-2.36,1-.29,1.95.06,2.77,1.12,2.01,2.6,3.54,5.49,5.19,8.32,2.77,4.72,5.55,9.56,8.5,14.16.35.59.83,1.18,1.36,1.95.53-2.48.41-4.78.65-7.08.12-1.53.29-3.13.24-4.66-.06-3.07.35-6.14.35-9.15,0-.24-.12-.53-.18-.77-.24-1.06.06-2.01.89-2.48.77-.53,1.83-.41,2.66.29.88.77,1.36,1.65,1.3,2.95-.12,3.07-.35,6.2-.41,9.26-.06,5.37-.59,10.74-1.3,16.05-.12,1.12-.06,2.24-.65,3.25-1.06,1.77-2.95,1.89-4.19.29-1.42-1.89-2.42-3.95-3.6-5.96-3.66-6.02-7.26-12.16-10.68-18.29-.12-.29-.29-.47-.59-.94-.12.94-.18,1.71-.24,2.42-.29,4.37-.65,8.73-.77,13.1-.12,2.48.06,5.02.06,7.55,0,.59.06,1.18-.12,1.77-.41,1.24-1.53,2.12-2.66,1.95s-1.89-1.12-1.83-2.48Z"/><path class="cls-2" d="M341.56,345.13c-1.53-9.26-1.89-19.53-1.89-28.5v-2.07c-1.12-.65-2.01-1.36-1.95-2.66,0-1.24.77-2.01,2.01-1.95,1.65,0,5.72-.65,6.67-.65,10.56,0,19.77,6.25,19.77,15.81,0,10.33-6.31,14.04-15.4,18.88-2.48,1.3-3.72.83-5.72,2.48-.41.29-.83.47-1.24.47-.94,0-2.06-.65-2.24-1.83ZM361.92,325.13c0-7.67-7.44-11.74-15.11-11.74-.94,0-1.95.12-2.95.35,0,8.32.59,20.18,1.47,27.5,9.21-2.54,16.58-7.61,16.58-16.11Z"/><path class="cls-2" d="M375.42,344.72c-.29-3.01-.18-6.08-.24-9.15-.18-3.84-.06-7.67.06-11.51.06-3.78.35-7.55.71-11.33,0-.35.12-.71.24-1,.41-1.06,1.24-1.59,2.24-1.42.89.12,1.65.83,1.71,1.89.06,1.3-.06,2.6-.06,3.89-.18,2.95-.3,5.96-.3,8.97.06,1.48-.12,3.01,0,4.6,5.25-.65,10.33-1.95,15.64-2.48.24-1,0-2.07.06-3.07.18-3.72.24-7.43.35-11.15,0-.65.12-1.3.35-1.95.41-1.06,1.24-1.59,2.18-1.48.94.18,1.65.94,1.71,2.01.12,1.42.18,2.83.06,4.25-.18,4.13-.12,8.32,0,12.45.06,3.07.12,9.15.35,12.21.12.77.06,1.53,0,2.3-.06,1.12-.83,2.01-1.83,2.24-.83.18-1.89-.41-2.42-1.3-.47-.77-.47-1.65-.47-2.48-.06-1.95-.18-6.9-.24-8.85,0-.24-.06-.47-.35-.77-5.07.53-10.09,1.65-15.22,2.48-.29.59-.24,1.18-.24,1.77l.18,8.02c0,.47,0,.94-.12,1.36-.29,1.06-1.3,1.77-2.3,1.65-1.12-.06-1.95-.94-2.07-2.18Z"/><path class="cls-2" d="M410.53,330.5c0-8.44,3.36-14.75,11.8-17.58.59-.24,1.06-.41,2.01-.41.71,0,1.42.29,2.12.88,6.79.24,12.69,7.91,12.69,15.28.06,9.44-5.61,16.46-15.11,16.46-7.32,0-13.45-6.37-13.51-14.63ZM434.9,328.55c-.24-6.08-4.07-9.68-7.97-10.62-.89-.24-1.95-.29-2.77-.83-7.02,1-9.21,7.43-9.21,12.27.06,7.67,5.07,11.51,10.21,11.51,6.08,0,9.91-6.43,9.74-12.33Z"/><path class="cls-2" d="M452.83,342.66c-.12-2.71-.41-5.31-.41-7.97,0-3.54-.18-8.08-.06-11.62.12-2.18.35-4.31.29-6.43-.06-1.59-.12-3.19-.06-4.78.06-1.53.88-2.54,2.18-2.6,1.48-.06,2.6,1,2.71,2.54.06.41.06.83.06,1.24-.06,1-.24,2.01-.29,3.07-.12,1-.18,2.07-.18,3.07-.06,1.06-.06,2.07-.12,3.13-.12,5.19-.12,11.39.06,16.58.12,1.06-.06,2.18.41,3.3,1.95-.18,3.84-.41,5.72-.59,1-.06,2.07-.24,3.07-.24.35,0,.71,0,1.06.06,1.47.18,2.12.89,2.12,2.01s-.83,1.95-2.18,2.06c-2.77.24-5.61.71-8.44.71-.77-.06-1.59.18-2.42.06-1.95-.24-3.36-1.59-3.54-3.6Z"/><path class="cls-2" d="M483.04,345.13c-1.53-9.26-1.89-19.53-1.89-28.5v-2.07c-1.12-.65-2.01-1.36-1.95-2.66,0-1.24.77-2.01,2.01-1.95,1.65,0,5.72-.65,6.67-.65,10.56,0,19.77,6.25,19.77,15.81,0,10.33-6.31,14.04-15.4,18.88-2.48,1.3-3.72.83-5.72,2.48-.41.29-.83.47-1.24.47-.94,0-2.07-.65-2.24-1.83ZM503.4,325.13c0-7.67-7.43-11.74-15.11-11.74-.94,0-1.95.12-2.95.35,0,8.32.59,20.18,1.48,27.5,9.2-2.54,16.58-7.61,16.58-16.11Z"/></g></g></svg>