<?xml version="1.0" encoding="UTF-8"?><svg id="Layer_2" xmlns="http://www.w3.org/2000/svg" width="2311.63" height="3997.74" viewBox="0 0 2311.63 3997.74"><defs><style>.cls-1{fill:#fff;stroke:#231f20;stroke-miterlimit:10;}.cls-2{opacity:.15;}.cls-3{fill:#231f20;stroke-width:0px;}</style></defs><g id="Layer_9"><g class="cls-2"><path class="cls-3" d="M62.43,0c1.82,1324.72,3.64,2649.44,5.46,3974.16"/><path class="cls-3" d="M62.43,0c1.82,1326.74,3.64,2653.48,5.46,3980.22"/><path class="cls-3" d="M134.26,0c1.62,1326.74,3.24,2653.48,4.85,3980.22"/><path class="cls-3" d="M206.88,0c1.62,1326.74,3.24,2653.48,4.85,3980.22"/><path class="cls-3" d="M280.78,0c1.62,1326.74,3.24,2653.48,4.85,3980.22"/><path class="cls-3" d="M349.44,0c1.62,1326.74,3.24,2653.48,4.85,3980.22"/><path class="cls-3" d="M424.89,0c1.62,1326.74,3.24,2653.48,4.85,3980.22"/><path class="cls-3" d="M492.48,0c1.62,1326.74,3.24,2653.48,4.85,3980.22"/><path class="cls-3" d="M567.76,0c1.62,1326.74,3.24,2653.48,4.85,3980.22"/><path class="cls-3" d="M632.86,0c1.82,1324.72,3.64,2649.44,5.46,3974.16"/><path class="cls-3" d="M632.86,0c1.82,1326.74,3.64,2653.48,5.46,3980.22"/><path class="cls-3" d="M704.69,0c1.62,1326.74,3.24,2653.48,4.85,3980.22"/><path class="cls-3" d="M777.31,0c1.62,1326.74,3.24,2653.48,4.85,3980.22"/><path class="cls-3" d="M851.2,0c1.62,1326.74,3.24,2653.48,4.85,3980.22"/><path class="cls-3" d="M919.87,0c1.62,1326.74,3.24,2653.48,4.85,3980.22"/><path class="cls-3" d="M995.31,0c1.62,1326.74,3.24,2653.48,4.85,3980.22"/><path class="cls-3" d="M1062.91,0c1.62,1326.74,3.24,2653.48,4.85,3980.22"/><path class="cls-3" d="M1138.18,0c1.62,1326.74,3.24,2653.48,4.85,3980.22"/><path class="cls-3" d="M1212.56,0c1.82,1324.72,3.64,2649.44,5.46,3974.16"/><path class="cls-3" d="M1212.56,0c1.82,1326.74,3.64,2653.48,5.46,3980.22"/><path class="cls-3" d="M1284.39,0c1.62,1326.74,3.24,2653.48,4.85,3980.22"/><path class="cls-3" d="M1357,0c1.62,1326.74,3.24,2653.48,4.85,3980.22"/><path class="cls-3" d="M1430.9,0c1.62,1326.74,3.24,2653.48,4.85,3980.22"/><path class="cls-3" d="M1499.57,0c1.62,1326.74,3.24,2653.48,4.85,3980.22"/><path class="cls-3" d="M1575.01,0c1.62,1326.74,3.24,2653.48,4.85,3980.22"/><path class="cls-3" d="M1642.6,0c1.62,1326.74,3.24,2653.48,4.85,3980.22"/><path class="cls-3" d="M1717.88,0c1.62,1326.74,3.24,2653.48,4.85,3980.22"/><path class="cls-3" d="M1790.59,0c1.82,1324.72,3.64,2649.44,5.46,3974.16"/><path class="cls-3" d="M1790.59,0c1.82,1326.74,3.64,2653.48,5.46,3980.22"/><path class="cls-3" d="M1862.42,0c1.62,1326.74,3.24,2653.48,4.85,3980.22"/><path class="cls-3" d="M1935.03,0c1.62,1326.74,3.24,2653.48,4.85,3980.22"/><path class="cls-3" d="M2008.93,0c1.62,1326.74,3.24,2653.48,4.85,3980.22"/><path class="cls-3" d="M2077.6,0c1.62,1326.74,3.24,2653.48,4.85,3980.22"/><path class="cls-3" d="M2153.04,0c1.62,1326.74,3.24,2653.48,4.85,3980.22"/><path class="cls-3" d="M2220.64,0c1.62,1326.74,3.24,2653.48,4.85,3980.22"/><path class="cls-3" d="M2295.91,0c1.62,1326.74,3.24,2653.48,4.85,3980.22"/></g><g class="cls-2"><path class="cls-1" d="M10.86,53.39l2300.76-3.24"/><path class="cls-1" d="M10.86,126.61l2300.76-3.24"/><path class="cls-1" d="M10.86,194.48l2300.76-3.24"/><path class="cls-1" d="M10.86,268.85l2300.76-3.24"/><path class="cls-1" d="M10.86,335.58l2300.76-3.24"/><path class="cls-1" d="M10.86,408.79l2300.76-3.24"/><path class="cls-1" d="M10.86,476.67l2300.76-3.24"/><path class="cls-1" d="M10.86,551.03l2300.76-3.24"/><path class="cls-1" d="M10.86,625.4l2300.76-3.24"/><path class="cls-1" d="M10.86,698.61l2300.76-3.24"/><path class="cls-1" d="M10.86,766.49l2300.76-3.24"/><path class="cls-1" d="M10.86,840.86l2300.76-3.24"/><path class="cls-1" d="M10.86,907.58l2300.76-3.24"/><path class="cls-1" d="M10.86,980.8l2300.76-3.24"/><path class="cls-1" d="M10.86,1048.67l2300.76-3.24"/><path class="cls-1" d="M10.86,1123.04l2300.76-3.24"/><path class="cls-1" d="M0,1203.53l2300.76-3.24"/><path class="cls-1" d="M0,1276.74l2300.76-3.24"/><path class="cls-1" d="M0,1344.62l2300.76-3.24"/><path class="cls-1" d="M0,1418.98l2300.76-3.24"/><path class="cls-1" d="M0,1485.71l2300.76-3.24"/><path class="cls-1" d="M0,1558.92l2300.76-3.24"/><path class="cls-1" d="M0,1626.8l2300.76-3.24"/><path class="cls-1" d="M0,1701.17l2300.76-3.24"/><path class="cls-1" d="M0,1775.53l2300.76-3.24"/><path class="cls-1" d="M0,1848.75l2300.76-3.24"/><path class="cls-1" d="M0,1916.63l2300.76-3.24"/><path class="cls-1" d="M0,1990.99l2300.76-3.24"/><path class="cls-1" d="M0,2057.72l2300.76-3.24"/><path class="cls-1" d="M0,2130.93l2300.76-3.24"/><path class="cls-1" d="M0,2198.81l2300.76-3.24"/><path class="cls-1" d="M0,2273.17l2300.76-3.24"/><path class="cls-1" d="M10.86,2355.59l2300.76-3.24"/><path class="cls-1" d="M10.86,2428.8l2300.76-3.24"/><path class="cls-1" d="M10.86,2496.68l2300.76-3.24"/><path class="cls-1" d="M10.86,2571.04l2300.76-3.24"/><path class="cls-1" d="M10.86,2637.77l2300.76-3.24"/><path class="cls-1" d="M10.86,2710.98l2300.76-3.24"/><path class="cls-1" d="M10.86,2778.86l2300.76-3.24"/><path class="cls-1" d="M10.86,2853.23l2300.76-3.24"/><path class="cls-1" d="M10.86,2927.59l2300.76-3.24"/><path class="cls-1" d="M10.86,3000.81l2300.76-3.24"/><path class="cls-1" d="M10.86,3068.68l2300.76-3.24"/><path class="cls-1" d="M10.86,3143.05l2300.76-3.24"/><path class="cls-1" d="M10.86,3209.78l2300.76-3.24"/><path class="cls-1" d="M10.86,3282.99l2300.76-3.24"/><path class="cls-1" d="M10.86,3350.87l2300.76-3.24"/><path class="cls-1" d="M10.86,3425.23l2300.76-3.24"/><path class="cls-1" d="M10.86,3499.6l2300.76-3.24"/><path class="cls-1" d="M10.86,3572.81l2300.76-3.24"/><path class="cls-1" d="M10.86,3640.69l2300.76-3.24"/><path class="cls-1" d="M10.86,3715.06l2300.76-3.24"/><path class="cls-1" d="M10.86,3781.78l2300.76-3.24"/><path class="cls-1" d="M10.86,3855l2300.76-3.24"/><path class="cls-1" d="M10.86,3922.87l2300.76-3.24"/><path class="cls-1" d="M10.86,3997.24l2300.76-3.24"/></g></g></svg>