<?xml version="1.0" encoding="UTF-8"?><svg id="Layer_2" xmlns="http://www.w3.org/2000/svg" width="781.32" height="572.69" viewBox="0 0 781.32 572.69"><defs><style>.cls-1{fill:#fdb831;}.cls-1,.cls-2,.cls-3{stroke-width:0px;}.cls-4{fill:none;stroke:#231f20;stroke-miterlimit:10;stroke-width:5px;}.cls-2{fill:#fff;}.cls-3{fill:#231f20;}</style></defs><g id="Layer_9"><path class="cls-1" d="M774.39,5.82c-139.93-2.35-279.87-3.45-419.81-3.28C237.21,2.68,119.85,3.7,2.5,5.61c4.3,93.72,6.09,176.61,6.64,246.27.57,71.27-.12,133.75-1.16,184.47-1.03,50.31-2.52,94.5-4,130.92,98.38-3.61,185.38-5.01,258.38-5.34,147.77-.67,221.65-1.01,277.85,3.49,23,1.84,70.16,6.1,134.72,4.76,42.98-.89,78.23-3.95,101.61-6.44-.72-185.97-1.44-371.94-2.16-557.91ZM417.25,288.31c.81,1.83.21,4.18-1.32,5.73-.07.72-.26,1.43-.57,2.08,1.95,1.27,2.57,3.91,1.87,6.04,4.98,1.9,4.59,10.41-1.3,9.67-3.33-.41-6.66-.82-10-1.15-9.57,1.1-19.19,1.15-28.83,1.15-2.95,0-4.69-2.38-4.87-4.82-.54,0-1.07-.03-1.61-.03-5.13-.03-6.17-6.38-3.12-8.94-.29-1.76.24-3.67,1.6-4.83-.35-2.17.55-4.58,2.69-5.52-.29-.1-.59-.19-.88-.3-4.96-1.77-4.6-10.51,1.33-9.82.53.06,1.06.13,1.58.19.13-1.69.98-3.38,2.41-4.31-1.33-.15-2.67-.29-4-.44-4.29-.48-5.79-5.02-4.18-7.81-1.56-3.64,1.01-8.73,5.51-6.86,2.03.84,4.46,1.1,6.93,1.15-.28-1.26-.13-2.62.45-3.75-.26-.5-.45-1.03-.55-1.58-4.32-.98-8.58-2.28-12.72-3.99-2.69-1.11-3.83-3.94-3.35-6.28-.87-2.93.97-6.8,4.68-6.77.45,0,.9.02,1.35.03-1.98-2.36-1.72-6.2,1.07-7.59.59-.88,1.49-1.6,2.72-1.97,3.74-1.13,7.53-1.7,11.33-1.9,9.61-1.55,19.18-1.03,28.54,1.9,4.11,1.29,4.28,6.04,2.09,8.46,3.7,1.89,4.65,7.77-.14,9.16,2.76,2.99,1.69,8.93-3.28,8.38-.64-.07-1.27-.14-1.91-.21-.6,1.7-1.95,3.13-3.89,3.39,1.73.6,3.43,1.28,5.09,2.06,3.69,1.74,3.01,8.57-1.19,9.14-1.05.14-2.11.27-3.16.39,3.25.82,6.47,1.77,9.63,2.91,4.25,1.54,4.98,7.75.58,9.44,1.96,2.14,1.86,5.92-.59,7.6Z"/><g id="Layer_8"><path class="cls-3" d="M0,5.61c3.35,73.04,5.48,146.14,6.37,219.26.89,73.11.54,146.24-1.05,219.35-.89,41.03-2.17,82.05-3.84,123.05-.13,3.22,4.87,3.21,5,0,2.97-73.06,4.71-146.17,5.21-219.29.5-73.12-.24-146.25-2.21-219.34-1.11-41.02-2.61-82.03-4.49-123.03C4.86,2.4-.14,2.39,0,5.61H0Z"/><path class="cls-3" d="M774.39,3.32c-99.52-1.4-199.05-2.36-298.57-2.88C376.79-.07,277.77-.14,178.75.24,122.89.44,67.04.8,11.18,1.29c-3.22.03-3.22,5.03,0,5,99.53-.87,199.06-1.3,298.58-1.29,99.02.02,198.04.48,297.06,1.38,55.86.51,111.71,1.16,167.56,1.94,3.22.05,3.22-4.95,0-5h0Z"/><path class="cls-3" d="M775.98,17.68c.31,71.21.41,142.42.28,213.63-.13,70.85-.47,141.69-1.04,212.53-.32,39.96-.71,79.93-1.17,119.89-.04,3.22,4.96,3.22,5,0,.82-71.2,1.42-142.41,1.79-213.62s.53-141.69.46-212.54c-.04-39.96-.15-79.93-.32-119.89-.01-3.22-5.01-3.22-5,0h0Z"/><path class="cls-3" d="M765.1,563.03c-48.8,6.72-98.21,4.88-147.27,2.82-49.08-2.07-98.16-3.75-147.27-4.86-98.35-2.21-196.75-2.34-295.1-.39-55.2,1.09-110.39,2.85-165.54,5.24-3.21.14-3.22,5.14,0,5,98.78-4.29,197.66-6.5,296.53-6.61,98.88-.1,197.76,1.89,296.55,5.99,54.48,2.26,109.21,5.09,163.43-2.37,3.17-.44,1.82-5.26-1.33-4.82h0Z"/></g><path class="cls-2" d="M447.87,83.49c45.01,13.68,73.31,39.91,85.78,53.08,12.36,13.05,35.13,40.66,46.76,82.45,18.12,65.13-3.59,118.84-8.79,130.91-4.31,10-35.6,79.38-114.93,107.74-53.3,19.06-99.41,9.28-115.44,5.12-61.44-15.91-95.8-56.6-105.77-69.34-8.9-11.38-43.88-58.68-41.76-127.56.52-16.8,3.97-58.78,31.91-101.52,6.2-9.48,45.66-67.79,122.88-84.83,45.57-10.06,82.96-1.04,99.37,3.95Z"/><path class="cls-3" d="M390.87,471.5c-21.21,0-38.75-3.31-50.24-6.28-56.93-14.75-91.55-50.33-107.11-70.22-13.38-17.11-44.29-63.95-42.29-129.18.79-25.55,7.03-64.13,32.32-102.81,10.47-16.02,50.4-69.56,124.43-85.9,41.88-9.25,77.84-2.93,100.63,3.99,41.73,12.68,70.27,36.23,86.87,53.75,15.58,16.45,36.44,44.28,47.35,83.5,17.08,61.39-.54,113.17-8.91,132.57-3.15,7.31-12.35,26.57-29.7,47.59-23.73,28.74-52.89,49.44-86.69,61.52-24.11,8.62-46.97,11.47-66.67,11.47ZM390.45,77.47c-12.84,0-26.75,1.28-41.41,4.52-72.19,15.93-111.11,68.14-121.32,83.76-25.95,39.7-30.88,79.83-31.5,100.23-1.96,63.6,28.18,109.26,41.23,125.94,15.17,19.4,48.92,54.09,104.43,68.46,21.62,5.6,65.18,12.39,113.97-5.06,76.07-27.2,107.87-93.39,113.48-106.38,8.16-18.92,25.34-69.39,8.68-129.25-10.64-38.23-30.98-65.37-46.17-81.4-16.18-17.08-44.01-40.04-84.69-52.4h0c-14.24-4.33-33.76-8.41-56.69-8.41Z"/><path class="cls-4" d="M392.97,315.86c1.23,50.95-1.77,101.95,1.93,152.77"/><path class="cls-4" d="M388.42,75.47c1.78,48.35.78,97.35,2.41,145.77"/><path class="cls-4" d="M425.64,77.08c20.12,17.18,70.47,64.92,88.99,144,29.04,124.01-44.52,221.21-55.01,234.61"/><path class="cls-4" d="M346.36,78.7c-20.79,18.25-72.14,68.34-87.02,147.48-24.34,129.51,70.06,224.64,81.69,235.98"/><path class="cls-4" d="M566.4,180.64c-116.41-.67-232.83-1.34-349.24-2.01"/><path class="cls-4" d="M571.26,350.52c-120.37.28-240.73.56-361.1.84"/><path class="cls-3" d="M337.53,283.3c-2.16-5.33-3.74-10.8-4.97-16.35-.29-1.3-.5-2.59-.86-3.89-.14-.65-.14-1.37.07-2.02.58-1.8,2.38-2.38,3.82-1.15.65.5,1.01,1.22,1.22,2.02.94,3.82,1.8,7.7,2.95,11.45.43,1.58,1.08,3.1,1.51,4.68.58-.14.58-.65.72-1.01,1.51-3.96,3.1-7.92,4.61-11.88.86-2.16,2.52-2.95,4.25-2.02.5.29.86.72,1.15,1.22l6.26,11.59c.36-3.67,1.15-5.83,1.58-8.28.36-2.23,1.08-4.46,1.66-6.7.43-1.94,1.73-2.74,3.38-2.38,1.37.29,2.09,1.73,1.73,3.53-.72,3.96-1.8,7.85-2.81,11.74-.72,2.52-1.44,5.11-2.09,7.7-.36,1.37-1.08,2.45-2.66,2.66-1.51.14-2.45-.72-3.17-2.02-1.22-2.16-2.3-4.46-3.38-6.77-.65-1.51-1.58-2.95-2.59-4.75-.79,2.16-1.51,4.03-2.23,5.9-1.01,2.59-2.02,5.18-3.53,7.42-.86,1.3-1.94,2.16-3.53,2.02-1.73-.14-2.45-1.3-3.1-2.74Z"/><path class="cls-3" d="M380.23,283.3c-2.16-5.33-3.74-10.8-4.97-16.35-.29-1.3-.5-2.59-.86-3.89-.14-.65-.14-1.37.07-2.02.58-1.8,2.38-2.38,3.82-1.15.65.5,1.01,1.22,1.22,2.02.94,3.82,1.8,7.7,2.95,11.45.43,1.58,1.08,3.1,1.51,4.68.58-.14.58-.65.72-1.01,1.51-3.96,3.1-7.92,4.61-11.88.86-2.16,2.52-2.95,4.25-2.02.5.29.86.72,1.15,1.22l6.26,11.59c.36-3.67,1.15-5.83,1.58-8.28.36-2.23,1.08-4.46,1.66-6.7.43-1.94,1.73-2.74,3.38-2.38,1.37.29,2.09,1.73,1.73,3.53-.72,3.96-1.8,7.85-2.81,11.74-.72,2.52-1.44,5.11-2.09,7.7-.36,1.37-1.08,2.45-2.66,2.66-1.51.14-2.45-.72-3.17-2.02-1.22-2.16-2.3-4.46-3.38-6.77-.65-1.51-1.58-2.95-2.59-4.75-.79,2.16-1.51,4.03-2.23,5.9-1.01,2.59-2.02,5.18-3.53,7.42-.86,1.3-1.94,2.16-3.53,2.02-1.73-.14-2.45-1.3-3.1-2.74Z"/><path class="cls-3" d="M422.92,283.3c-2.16-5.33-3.74-10.8-4.97-16.35-.29-1.3-.5-2.59-.86-3.89-.14-.65-.14-1.37.07-2.02.58-1.8,2.38-2.38,3.82-1.15.65.5,1.01,1.22,1.22,2.02.94,3.82,1.8,7.7,2.95,11.45.43,1.58,1.08,3.1,1.51,4.68.58-.14.58-.65.72-1.01,1.51-3.96,3.1-7.92,4.61-11.88.86-2.16,2.52-2.95,4.25-2.02.5.29.86.72,1.15,1.22l6.26,11.59c.36-3.67,1.15-5.83,1.58-8.28.36-2.23,1.08-4.46,1.66-6.7.43-1.94,1.73-2.74,3.38-2.38,1.37.29,2.09,1.73,1.73,3.53-.72,3.96-1.8,7.85-2.81,11.74-.72,2.52-1.44,5.11-2.09,7.7-.36,1.37-1.08,2.45-2.66,2.66-1.51.14-2.45-.72-3.17-2.02-1.22-2.16-2.3-4.46-3.38-6.77-.65-1.51-1.58-2.95-2.59-4.75-.79,2.16-1.51,4.03-2.23,5.9-1.01,2.59-2.02,5.18-3.53,7.42-.86,1.3-1.94,2.16-3.53,2.02-1.73-.14-2.45-1.3-3.1-2.74Z"/></g></svg>