<?xml version="1.0" encoding="UTF-8"?><svg id="Layer_2" xmlns="http://www.w3.org/2000/svg" width="785.03" height="576.47" viewBox="0 0 785.03 576.47"><defs><style>.cls-1{fill:#fdb831;}.cls-1,.cls-2,.cls-3{stroke-width:0px;}.cls-2{fill:#fff;}.cls-3{fill:#231f20;}</style></defs><g id="Layer_9"><path class="cls-1" d="M4.06,3.28c-.51,187.68-1.03,375.35-1.54,563.03,5.37,2.55,10.74,5.11,16.11,7.66,254.53-1.74,509.07-3.49,763.6-5.23-.12-187.27-.24-374.54-.36-561.82C522.6,5.71,263.33,4.5,4.06,3.28Z"/><path class="cls-2" d="M150.9,330.91c-9.83,6.83-19.12,15.53-21.84,27.91-5.8,26.34,21.86,52.51,37.52,66.97,53.92,49.78,119.06,62.16,147.22,67.16,29.13,5.17,77.82,13.27,138.44-2.5,56-14.57,94.85-42.41,115.39-59.57-15-14.84-37.34-34.87-67.17-54.68-32.04-21.28-98.19-59.23-190.64-70.48-39.92-4.86-111.25-7.97-158.93,25.19Z"/><path class="cls-2" d="M247.87,188.43c8.65,6.01,10.15,16.73,10.41,18.57,2.67,19.09-14.57,34.22-19.67,38.69-2.25,1.97-30.59,26.24-50.27,14.4-7.99-4.81-11.27-13.59-12.67-18.79.82-6.29,3.34-18.81,12.53-31.17,3.07-4.13,10.88-14.36,25.14-20.29,7.1-2.95,22.88-9.51,34.52-1.42Z"/><path class="cls-2" d="M453.29,210.7c-4.39,3.5-14.93,12.14-19.57,27.67-1.11,3.71-6.44,21.55,2.66,37.28,12.47,21.55,42.22,22.22,56.59,22.55,11.14.25,22.2.35,32.91-7.09,14.03-9.74,17.24-25.31,17.99-28.92,4.56-22.09-7.88-39.32-10.69-43-1.77-2.31-16.64-21.1-42.14-21.93-19.66-.64-33.19,9.8-37.76,13.44Z"/><g id="Layer_8"><path class="cls-3" d="M535.33,222.82c-9.04-19.28-31.6-30.28-52.41-27.73-22.03,2.7-41.49,18.42-50.1,38.7-4.65,10.96-6.38,23.73-2.42,35.18,3.76,10.85,12.31,19.26,22.44,24.36,11.66,5.87,24.9,7.4,37.8,7.39,10.89,0,22.07-1.03,32.19-5.34,4.86-2.07,9.39-4.99,13.05-8.81s6.61-8.88,8.35-14.13c3.52-10.63,2.82-22.26,1.37-33.19-.37-2.8-.79-5.58-1.24-8.37-.22-1.33-1.87-2.08-3.08-1.75-1.42.39-1.96,1.74-1.75,3.08,3.05,18.87,5.75,43.45-12.82,55.48-8.31,5.38-18.42,7.24-28.15,7.82-11.84.71-24.17.22-35.54-3.4-9.79-3.12-19.13-9.08-24.65-17.93s-6.3-20.63-3.55-30.99c5.25-19.78,21.76-36.5,41.57-41.79,18.49-4.93,39.93,1.73,51.03,17.73,1.37,1.97,2.55,4.05,3.57,6.22.57,1.22,2.33,1.53,3.42.9,1.25-.73,1.47-2.19.9-3.42h0Z"/><path class="cls-3" d="M483.93,229.74c-4.61,10.62-7.61,21.74-8.95,33.24-.16,1.34,1.26,2.5,2.5,2.5,1.48,0,2.34-1.15,2.5-2.5,1.23-10.54,4.04-20.97,8.27-30.71.54-1.24.37-2.68-.9-3.42-1.06-.62-2.88-.35-3.42.9h0Z"/><path class="cls-3" d="M256.52,194.19c-3.66-7.21-11.5-11.02-19.26-11.82-9.4-.97-18.82,2.66-27.35,6.18-4.29,1.77-8.35,3.82-12.03,6.69-3.19,2.49-5.92,5.43-8.38,8.64-4.93,6.43-8.4,13.8-11.51,21.24s-6.11,15.47-4.59,23.57,8.45,13.04,16.25,14.2,16.73-.27,24.57-2.51,15.98-5.94,23.02-10.66,14.05-10.77,18.8-18.04,6.53-16.72,4.62-25.46c-.48-2.21-1.24-4.31-2.15-6.37-.54-1.24-2.35-1.52-3.42-.9-1.27.75-1.44,2.18-.9,3.42,3.06,6.96,3.08,15.42-.03,22.37s-9.19,12.93-15.3,17.69-12.92,8.54-20.12,11.22-14.62,4.44-22.16,4.67c-6.27.19-13.67-.97-17-6.98s-.96-13.98,1.29-20.03c2.54-6.83,5.59-13.61,9.44-19.8s8.61-11.59,14.89-15.19c3.75-2.15,7.82-3.7,11.86-5.2s8.56-2.98,13.03-3.58c6.79-.91,14.37.35,19.38,5.38,1.13,1.13,2,2.4,2.73,3.83,1.46,2.87,5.77.34,4.32-2.52h0Z"/><path class="cls-3" d="M220.04,206.25c-5.1,2.54-8.97,7.03-11.01,12.31-.47,1.22.52,2.8,1.75,3.08,1.43.33,2.57-.44,3.08-1.75.06-.15.14-.31.18-.46-.07.24-.17.39-.02.06.12-.28.26-.55.39-.83.27-.54.58-1.08.9-1.59s.65-.97.99-1.44c.18-.25-.32.4-.03.05.11-.13.21-.26.32-.39.2-.23.4-.46.6-.69.39-.43.81-.84,1.24-1.24.22-.21.45-.41.69-.6.11-.09.21-.18.32-.26.45-.37-.45.33.02-.02.99-.72,2.02-1.37,3.11-1.92,1.17-.58,1.59-2.34.9-3.42-.77-1.2-2.17-1.52-3.42-.9h0Z"/><path class="cls-3" d="M320.11,159.26c-8.46-5.03-17.03-9.87-25.7-14.51-8.08-4.32-16.43-9.29-25.78-9.94-8.71-.61-17.23,2.74-24.54,7.22s-14.37,10.53-20.72,16.65c-7.31,7.04-13.93,14.77-19.85,23.02-.79,1.1-.19,2.78.9,3.42,1.26.74,2.63.2,3.42-.9,4.99-6.94,10.53-13.47,16.56-19.53s12.23-11.62,19.14-16.34,14.22-8.41,22.38-8.6c8.68-.21,16.4,4.25,23.84,8.19,9.41,4.98,18.69,10.21,27.84,15.65,2.77,1.65,5.29-2.67,2.52-4.32h0Z"/><path class="cls-3" d="M431.95,166.76c-25.17-6.07-51.05-9.24-76.94-9.4-7.38-.04-14.76.17-22.13.61-3.2.19-3.22,5.19,0,5,25.56-1.54,51.3-.18,76.54,4.21,7.11,1.24,14.19,2.71,21.21,4.4,3.13.75,4.46-4.07,1.33-4.82h0Z"/><path class="cls-3" d="M444.71,170.64c20.76-11.62,45.62-15.85,69.04-11.54,10.66,1.96,21.54,5.59,30.01,12.59,4.41,3.64,7.88,8.05,10.6,13.07,2.92,5.38,4.99,11.14,7.07,16.88,9.07,25.05,16.99,50.52,23.75,76.3,3.36,12.85,6.44,25.77,9.22,38.76,2.56,11.97,5.11,24.02,6.76,36.16,2.66,19.51,3.19,41.83-8.52,58.72-1.4,2.02-2.98,3.89-4.69,5.66-2.24,2.31,1.29,5.85,3.54,3.54,15.33-15.83,17.47-38.89,15.59-59.82-1.07-11.87-3.37-23.6-5.72-35.27-2.7-13.43-5.72-26.8-9.05-40.08-6.64-26.49-14.52-52.68-23.6-78.44-4.18-11.86-8.01-24.68-16.5-34.28-7.67-8.67-18.56-13.92-29.58-16.9-23.85-6.45-49.95-3.86-72.39,6.29-2.74,1.24-5.41,2.6-8.03,4.06-2.81,1.57-.29,5.89,2.52,4.32h0Z"/><path class="cls-3" d="M165.77,264.18c-13.14,18.04-23.6,37.97-30.96,59.04-3.77,10.79-6.77,22-7.28,33.47-.48,10.83,1.69,21.37,6.15,31.23,8.39,18.52,23.58,33.67,38.99,46.52s32.78,23.87,50.98,32.75c36.5,17.8,76.54,27.83,116.84,31.93,38.62,3.92,78.09,2.03,115.89-7.07,37.25-8.96,72.9-25.29,102.42-49.94,3.63-3.04,7.16-6.2,10.59-9.46,2.33-2.22-1.21-5.76-3.54-3.54-27.23,25.96-61.06,43.91-97.04,54.45-36.34,10.64-74.6,14.05-112.33,11.84s-78.82-10.55-115.27-25.73c-18.2-7.58-35.68-17.07-51.73-28.53s-31.47-24.9-42.88-40.96c-5.78-8.14-10.45-17.13-12.69-26.91-2.5-10.89-1.52-22.2,1.02-32.98,5.03-21.3,14.6-41.87,26.19-60.36,2.83-4.51,5.83-8.92,8.96-13.23,1.9-2.6-2.44-5.1-4.32-2.52h0Z"/><path class="cls-3" d="M135.78,343.52c22.14-22.4,54.55-29.94,84.73-34s60.42-4.31,90.47-1.19c30.09,3.12,59.81,9.77,88.43,19.54s56.17,22.78,81.9,38.72c25.62,15.87,49.41,34.67,70.6,56.1,2.65,2.68,5.26,5.4,7.83,8.16,2.2,2.36,5.73-1.18,3.54-3.54-20.99-22.53-44.75-42.42-70.48-59.33s-53.46-30.8-82.34-41.48c-28.81-10.66-58.79-18.02-89.25-21.98s-61.3-4.41-91.79-1.08-63.59,9.41-88.58,28.9c-3.03,2.36-5.89,4.92-8.59,7.65-2.26,2.29,1.27,5.83,3.54,3.54h0Z"/><path class="cls-3" d="M1.93,6.93c-.25,73.74-.5,147.48-.76,221.22s-.5,146.73-.75,220.09C.28,489.61.14,531,0,572.38c-.01,3.22,4.99,3.22,5,0,.25-73.74.5-147.48.76-221.22s.5-146.73.75-220.09c.14-41.38.28-82.77.42-124.15.01-3.22-4.99-3.22-5,0h0Z"/><path class="cls-3" d="M774.91,5.05c-98.5-.39-196.99-.79-295.49-1.31-97.99-.51-195.99-1.15-293.98-2.02C130.17,1.23,74.89.66,19.62,0c-3.22-.04-3.22,4.96,0,5,98.49,1.18,196.98,2.06,295.48,2.75,97.99.68,195.99,1.18,293.98,1.61,55.28.24,110.56.46,165.84.69,3.22.01,3.22-4.99,0-5h0Z"/><path class="cls-3" d="M780.03,12.99c-.04,72.47-.08,144.95-.11,217.42-.04,72.1-.08,144.21-.11,216.31-.02,40.67-.04,81.35-.06,122.02,0,3.22,5,3.22,5,0,.04-72.47.08-144.95.11-217.42.04-72.1.08-144.21.11-216.31.02-40.67.04-81.35.06-122.02,0-3.22-5-3.22-5,0h0Z"/><path class="cls-3" d="M770.95,567.07c-98.11.57-196.21,1.15-294.32,1.72-97.61.57-195.21,1.14-292.82,1.71-55.06.32-110.12.64-165.18.97-3.22.02-3.22,5.02,0,5,98.11-.57,196.21-1.15,294.32-1.72,97.61-.57,195.21-1.14,292.82-1.71,55.06-.32,110.12-.64,165.18-.97,3.22-.02,3.22-5.02,0-5h0Z"/><text/></g></g></svg>