<?xml version="1.0" encoding="UTF-8"?><svg id="Layer_2" xmlns="http://www.w3.org/2000/svg" width="790.63" height="572.81" viewBox="0 0 790.63 572.81"><defs><style>.cls-1{fill:#fdb831;}.cls-1,.cls-2,.cls-3,.cls-4{stroke-width:0px;}.cls-3{fill:#fff;}.cls-4{fill:#231f20;}</style></defs><g id="Layer_9"><path class="cls-1" d="M5.56,0c9.74,104.42,9.34,185.2,6.89,241.36-5.98,137-6.88,152.94-6.88,152.94-1.37,24.28-3.35,56.58-3.16,100.72.12,29.42,1.16,53.74,2.08,70.38,258.66-.42,517.31-.84,775.97-1.25,5.85-111.84,8.72-229.28,7.63-351.84-.63-70.67-2.54-139.52-5.53-206.46C599.65,3.71,416.74,2.11,233.84,1.05"/><path class="cls-4" d="M780.15,12.22c3.3,72.27,6.38,144.54,5.39,216.9s-3.1,144.51-4.73,216.76c-.92,40.65-1.83,81.3-2.75,121.95-.07,3.22,4.93,3.22,5,0,1.63-72.43,3.27-144.86,4.9-217.28,1.63-72.16,3.81-144.29,1.95-216.46-1.05-40.64-2.91-81.25-4.76-121.86-.15-3.2-5.15-3.22-5,0h0Z"/><path class="cls-4" d="M769.03,567.17c-99.05-1.63-198.1-2.59-297.16-2.88-98.55-.29-197.11.09-295.66,1.12-55.59.58-111.18,1.38-166.77,2.39-3.21.06-3.22,5.06,0,5,99.04-1.79,198.1-2.92,297.16-3.37,98.55-.45,197.11-.24,295.66.63,55.59.49,111.18,1.2,166.77,2.11,3.22.05,3.22-4.95,0-5h0Z"/><path class="cls-4" d="M3.15,3.67c1.43,36.48,2.87,72.97,4.3,109.45,1.41,35.95,3.08,71.9,2.9,107.88-.35,72.23-6.2,144.26-8.96,216.4-1.55,40.61-2.1,81.27-.17,121.88.15,3.2,5.15,3.22,5,0-3.43-72.14,1.02-144.3,4.84-216.33,1.92-36.23,3.67-72.48,4.17-108.76.49-35.97-.85-71.87-2.26-107.8-1.61-40.91-3.22-81.81-4.83-122.72-.13-3.21-5.13-3.22-5,0h0Z"/><path class="cls-4" d="M776.38,3.13c-99.54.22-199.08.23-298.63.01-99.18-.22-198.36-.71-297.54-1.16-55.69-.26-111.38-.51-167.07-.77-3.22-.01-3.22,4.99,0,5,99.15.45,198.31.92,297.46,1.36,99.39.44,198.79.7,298.18.73,55.87.01,111.73-.05,167.6-.17,3.22,0,3.22-5.01,0-5h0Z"/><path class="cls-3" d="M274.83,283.01c-9.26.39-10.52-9.65-23.5-13.55-17.64-5.3-38.5,6.27-50.02,18.91-22.17,24.32-13.9,57.21-13.06,60.3,6.59,24.49,25.61,36.92,33.7,42.23,20.8,13.66,41.67,14.75,50.39,14.71,1.17,6.8,1.96,14.51,1.94,22.97-.06,25.74-7.58,46.4-13.88,59.6,7.83,11.54,16.3,18.86,22.14,23.16,7.7,5.69,29.01,21.41,55.01,16.96,8.76-1.5,15.51-4.86,19.77-7.4,4.5-13.47,8.99-26.94,13.49-40.41,10.97,2.94,26.3,6.07,44.78,6.74,12.49.45,38.17,1.39,65.56-8.58,43.97-16.01,67.15-50.96,75.65-63.78,19.73-29.76,24.58-56.81,31.06-92.99.39-2.18,3.98-22.95,2.24-49.78-.97-14.89-2.85-20.54-4.99-24.86-8.1-16.39-24.59-23.43-32.32-26.11,4,14.57,8,29.14,12,43.71-30.89-21.24-61.78-42.47-92.67-63.71-14.41,8.29-28.82,16.59-43.24,24.88-6.68-4.24-17.59-10.03-32.09-13-7.16-1.47-30.45-5.92-54.69,5.09-14.37,6.53-23.12,15.78-31.49,24.63-21.49,22.73-23.79,39.76-35.78,40.27Z"/><path class="cls-2" d="M236.97,83.56c-2.27.14-14.89,1.15-22.65,11.33-8.23,10.78-7.63,27.45,2.34,40.17-21.45,12.23-42.91,24.46-64.36,36.68-1.93,2.06-4.14,4.9-5.93,8.63-4.61,9.6-3.44,18.78-2.7,22.65.74,26.06,2.93,54.64,7.36,85.24,7.8,53.82,20.65,100.55,34.17,139.12-7.19,2.47-19.75,7.66-31.28,17.8-7.3,6.41-12.35,13.19-13.84,15.24-2.66,3.66-4.67,6.98-6.12,9.57,1.89.84,4.86,2.09,8.63,3.24,7.49,2.29,13.81,2.92,19.42,3.24,10.32.59,28.31.72,51.14-.41-21.08,7.76-31.3,13.11-30.65,16.05.38,1.73,4.52,2.63,12.4,2.7,22.45-1.33,44.91-2.66,67.36-3.99l17.32-81.77c-2.34-3.33-4.67-6.65-7.01-9.98-8.03.71-22.83.93-39.37-5.66-7.42-2.96-28.17-11.24-39.91-33.44-1.61-3.04-17.07-33.49-.81-62.02,2.45-4.3,13.3-23.28,36.15-27.5,26.92-4.96,45.89,14.78,47.18,16.17,2.43-1.43,5.99-3.77,9.71-7.28,9.61-9.08,11.98-17.85,17.04-27.3,6.79-12.66,16.24-19.82,22.15-24.42,19.07-14.83,40.56-16.23,46.59-16.57,31.33-1.82,53.7,13.94,60.03,18.74,12.07-8.56,24.14-17.12,36.22-25.68,33.17,22.29,66.34,44.58,99.51,66.88-3.85-17.1-7.71-34.21-11.56-51.31,7.45,8.11,14.9,16.23,22.35,24.34,3.44,7.74,6.81,17.13,9.17,28.04,5.27,24.36,3.16,45.32.51,59.06,6.75-4.03,14.67-9.76,22.34-17.85,19.28-20.34,25.45-43.46,27.67-55.17,2.21.51,4.34.84,6.38,1.02,21.19,1.88,38.4-11.4,46.11-18.34-14.71-5.73-36.23-16.69-54.85-37.49,0,0-22.73-25.56-35-66.6-.02-.08-.04-.14-.05-.18-4.75-16.08-5.42-26.46-14.84-40.92-7.6-11.68-16.62-19.43-23.08-24.17-18.1-5.65-44.52-12.57-76.99-16.39-59.41-6.98-107.54,1.12-166.58,11.21-22.98,3.93-50.58,9.43-81.64,17.31Z"/><path class="cls-2" d="M370.8,480.48c-2.93,9.08-5.87,18.15-8.8,27.23,16.62,2.79,33.24,5.59,49.86,8.38-.07-5.01-.15-10.03-.22-15.04,3.52.18,8.77.49,15.14,1.02,18.56,1.56,28.81,3.56,37.78,4.59,10.17,1.17,24.83,1.82,43.46-.92-10.42-8.53-20.84-17.06-31.26-25.59-10.81,3.35-24.4,6.47-40.24,7.63-27.69,2.03-50.57-2.75-65.72-7.3Z"/><g id="Layer_8"><path class="cls-2" d="M589.47,270.93c-1.04,30.96-4.09,62.09-12.77,91.93-7.51,25.82-19.41,50.58-36.78,71.26-8.3,9.89-17.79,18.84-28.41,26.21-11.33,7.85-23.82,13.83-36.99,17.87-27.44,8.41-56.96,8.66-85,3.17-29.51-5.79-57.49-17.5-83.92-31.61-3.34-1.78-6.65-3.6-9.95-5.46-2.81-1.58-5.33,2.74-2.52,4.32,26.8,15.06,55.1,28.09,85.07,35.37,28.6,6.95,58.75,8.42,87.56,1.74,14.18-3.29,27.95-8.62,40.47-16.06,11.33-6.74,21.66-15.18,30.73-24.73,18.69-19.68,32.15-43.85,40.97-69.41,10.3-29.87,14.44-61.51,16.06-92.95.2-3.88.36-7.76.49-11.65.11-3.22-4.89-3.21-5,0h0Z"/><path class="cls-2" d="M274.12,413.34c-2.72,19.49-6.58,38.82-11.56,57.86-1.43,5.46-2.96,10.9-4.57,16.31-.92,3.09,3.9,4.41,4.82,1.33,5.62-18.86,10.14-38.05,13.51-57.44.97-5.56,1.84-11.14,2.62-16.73.19-1.34-.33-2.68-1.75-3.08-1.17-.32-2.89.4-3.08,1.75h0Z"/><path class="cls-2" d="M368.39,479.82c-4.63,13.83-9.04,27.73-13.22,41.7-.92,3.09,3.9,4.41,4.82,1.33,4.18-13.97,8.59-27.87,13.22-41.7,1.02-3.06-3.8-4.37-4.82-1.33h0Z"/><path class="cls-2" d="M355.55,519.13c-3.96,4.17-9.71,5.84-15.29,6.44-5.9.64-11.95.49-17.82-.3-11.81-1.59-23.23-5.86-33.25-12.3-5.67-3.65-10.83-8.02-15.38-12.99-2.18-2.38-5.71,1.17-3.54,3.54,17.24,18.79,43.71,29.52,69.21,27.14,7.14-.67,14.51-2.61,19.6-7.99,2.21-2.34-1.32-5.88-3.54-3.54h0Z"/><path class="cls-2" d="M276.6,281.24c-10.69-13.44-29.33-17.27-45.53-13.95s-30.13,14.62-38.28,29.08-11.02,31.71-8.06,48.01c3.12,17.18,13.42,32.21,27.14,42.77,13.97,10.75,31.5,16.94,49.12,17.3,2.17.04,4.33,0,6.49-.14,3.2-.2,3.22-5.2,0-5-16.57,1.04-33.23-3.43-47.21-12.34s-24.68-21.88-29.23-37.54c-4.24-14.59-2.99-30.82,3.15-44.71,6.14-13.9,17.27-25.94,31.9-30.89s31.65-3.61,43.08,6.79c1.41,1.28,2.7,2.68,3.89,4.17.84,1.06,2.66.88,3.54,0,1.04-1.04.84-2.48,0-3.54h0Z"/><path class="cls-2" d="M231.69,321.29c8.42,7.55,16.85,15.1,25.27,22.65l.51-3.93c-9.13,5.03-18.69,9.18-28.6,12.4-3.05.99-1.74,5.82,1.33,4.82,10.31-3.35,20.3-7.68,29.8-12.91,1.36-.75,1.69-2.86.51-3.93-8.42-7.55-16.85-15.1-25.27-22.65-2.39-2.14-5.94,1.38-3.54,3.54h0Z"/><path class="cls-2" d="M492.84,298.15c15.31-5.95,32.32-9.07,48.75-7.52,7.21.68,14.46,2.6,20.52,6.66,5.25,3.51,9.13,8.9,10.72,15.02,1.48,5.7.65,11.95-3.31,16.5-4.25,4.89-10.58,7.2-16.8,8.28-7.12,1.23-14.69.87-21.78-.42-7.6-1.39-14.97-3.94-21.75-7.65-6.24-3.41-12.91-7.77-16.68-13.97-2.94-4.85-3.6-11.61.63-15.97.84-.87,1.84-1.56,2.99-1.96,1.27-.45,2.12-1.71,1.75-3.08-.34-1.23-1.8-2.2-3.08-1.75-6.85,2.41-10.4,9.91-9.58,16.89.98,8.25,7.15,14.49,13.56,19.16,13.71,9.99,31.05,15.13,47.99,14.35,7.31-.34,14.97-1.89,21.16-5.97s10.31-10.69,10.58-18.27-2.79-14.44-7.47-19.9c-5.15-6.01-12.72-9.64-20.31-11.47-8.25-1.98-16.89-2.12-25.32-1.46-9.27.72-18.48,2.49-27.33,5.35-2.22.72-4.41,1.5-6.58,2.34-1.26.49-2.13,1.68-1.75,3.08.33,1.2,1.81,2.24,3.08,1.75h0Z"/><path class="cls-2" d="M546.08,301.3c.8,6.63.67,13.37-.52,19.94-.24,1.33.36,2.7,1.75,3.08,1.21.33,2.83-.41,3.08-1.75,1.28-7.03,1.56-14.18.7-21.27-.16-1.34-1.03-2.5-2.5-2.5-1.23,0-2.66,1.15-2.5,2.5h0Z"/><path class="cls-2" d="M563.01,341.84c1.62,1.62,3.24,3.24,4.85,4.85.45.45,1.13.73,1.77.73s1.35-.27,1.77-.73.76-1.1.73-1.77-.25-1.29-.73-1.77c-1.62-1.62-3.24-3.24-4.85-4.85-.45-.45-1.13-.73-1.77-.73s-1.35.27-1.77.73-.76,1.1-.73,1.77.25,1.29.73,1.77h0Z"/><path class="cls-2" d="M545.45,343.14c.71,2.46,1.42,4.91,2.13,7.37.36,1.26,1.78,2.17,3.08,1.75s2.14-1.73,1.75-3.08c-.71-2.46-1.42-4.91-2.13-7.37-.36-1.26-1.78-2.17-3.08-1.75s-2.14,1.73-1.75,3.08h0Z"/><path class="cls-2" d="M477.96,431.58c5.7-1.74,6.89-9.12,3.93-13.73-3.75-5.85-11.77-6.22-17.99-6.33-6.57-.11-13.36.44-19.46,3.01-3.05,1.28-5.95,3.06-8.27,5.44-2.48,2.54-4.06,6.37-1.9,9.62,1.95,2.92,5.74,3.81,9.03,4.01,4.5.27,9.09-.02,13.57-.46,1.34-.13,2.5-1.05,2.5-2.5,0-1.25-1.15-2.63-2.5-2.5-3.34.33-6.7.51-10.06.52-2.3,0-4.88.13-6.96-.79-.29-.13-.91-.5-.99-.57.04.03-.54-.61-.35-.34,0,0-.24-.4-.13-.16-.44-.97.18-1.95.78-2.69,1.59-1.97,3.9-3.42,6.15-4.51,4.65-2.26,9.99-2.92,15.1-3.06,2.69-.07,5.4-.03,8.09.18,2.42.19,4.95.61,7.07,1.88,1.88,1.13,2.82,2.68,2.9,4.51.04.96-.1,1.81-.41,2.4-.42.8-.7,1.03-1.41,1.25-3.07.94-1.76,5.77,1.33,4.82h0Z"/><path class="cls-2" d="M552.03,244.42c-14.84-5.05-31.27-5.08-46.13-.11-3.04,1.02-1.73,5.85,1.33,4.82,14.09-4.72,29.41-4.67,43.47.11,3.05,1.04,4.36-3.79,1.33-4.82h0Z"/><path class="cls-2" d="M378.01,288.96c-.11-.88-.07-1.48.08-2.04s.41-1.11.92-1.77c-.13.17.38-.4.5-.51.07-.07.69-.62.54-.5.57-.44,1.57-.99,1.99-1.15,2.76-1.07,5.63-.81,7.51,1.61,2,2.59,2.06,6.21.87,9.23-1.34,3.41-4.61,5.51-8.24,6.14-8.21,1.42-17.02-4.7-18.35-12.96-1.24-7.71,5.29-14.83,12.22-17.06,8.17-2.63,16.88,1.2,22.79,6.87,6.44,6.17,11.63,15.92,9.67,25.06-1.6,7.47-7.48,12.99-14.22,16.1-7.1,3.27-15.17,3.52-22.53,1.04-14.31-4.82-25.21-19.42-25.84-34.48-.63-15.05,9.77-28.06,23.42-33.45,6.79-2.68,14.28-3.68,21.36-2.17,8.85,1.89,16.32,7.55,22.23,14.23,11.72,13.25,17.91,32.95,11.16,49.95-5.47,13.79-19.17,22.97-33.35,26.01-7.2,1.54-14.83,1.51-21.97-.35-7.79-2.03-14.99-6.18-20.96-11.56-12.34-11.14-19.93-27.44-21.08-43.99-.69-9.92.66-20.32,5.09-29.31,3.36-6.83,8.51-12.61,14.83-16.84,12.73-8.53,29.24-11.17,44.06-7.45,16.36,4.1,29.78,16.03,38.29,30.29,4.39,7.36,7.57,15.38,9.51,23.72,2.22,9.52,3.06,19.76.77,29.34-4.02,16.76-16.73,30.64-32.31,37.59-18.12,8.09-39.86,6.83-57.89-.87-15.67-6.7-29.15-18.49-37.9-33.11s-12.39-31.39-8.99-47.84,12.57-31,25.9-40.56c6.42-4.6,13.63-7.87,21.36-9.48,1.32-.27,2.09-1.83,1.75-3.08-.38-1.37-1.75-2.02-3.08-1.75-17.81,3.69-32.89,15.9-42.08,31.35s-12.45,34.84-7.96,52.8,15.87,34.09,30.57,45.4c16.28,12.52,37.26,19.09,57.8,17.31,10.52-.91,20.89-3.96,29.92-9.49,8.11-4.97,15.11-11.74,20.28-19.73s8.47-17.86,8.9-27.74c.45-10.29-1.44-20.86-4.85-30.55-6.19-17.61-18.03-33.69-34.57-42.8-15.24-8.41-33.84-9.71-50.16-3.64-7.9,2.94-15.25,7.5-20.98,13.74-6.83,7.44-10.93,16.93-12.51,26.86-3.02,19.04,1.96,39.13,13.68,54.47,10.87,14.23,27.36,23.85,45.58,23.35,16.55-.46,33.18-8.41,42.67-22.2,11.26-16.35,8.71-38.11-1.29-54.41-5.38-8.77-13.04-16.76-22.33-21.37-7.73-3.83-16.37-4.79-24.83-3.23-16,2.95-30.93,15.26-34.29,31.59-3.56,17.3,5.86,35.49,20.66,44.5,7.51,4.57,16.35,6.55,25.06,5.17s17.08-6.15,22.17-13.42c12.11-17.31-3.19-42.32-21.83-46.92-4.66-1.15-9.66-1.11-14.16.64s-8.23,4.61-11.05,8.45c-2.63,3.58-4.15,8.18-3.72,12.64.49,5.07,3.08,9.77,6.91,13.1,7.14,6.19,19.67,8.03,26.59.38,5.68-6.28,5.44-18.44-3.28-21.97-6.91-2.79-16.98,2.72-15.99,10.81.16,1.34,1.03,2.5,2.5,2.5,1.22,0,2.67-1.15,2.5-2.5h0Z"/><path class="cls-2" d="M462.67,199.41c-10.77,8.19-21.79,16.05-33.04,23.55-2.66,1.78-.16,6.11,2.52,4.32,11.26-7.5,22.28-15.36,33.04-23.55,1.07-.82,1.64-2.15.9-3.42-.62-1.06-2.34-1.72-3.42-.9h0Z"/><path class="cls-2" d="M470.85,203.29c23.04,17.19,46.57,33.73,70.54,49.6,6.83,4.52,13.7,8.98,20.6,13.39,2.72,1.74,5.23-2.59,2.52-4.32-24.22-15.48-48.01-31.64-71.33-48.46-6.64-4.79-13.25-9.64-19.81-14.53-1.08-.81-2.79-.18-3.42.9-.75,1.28-.19,2.61.9,3.42h0Z"/><path class="cls-2" d="M550.37,221.79c3.08,14.19,6.15,28.38,9.23,42.57.68,3.14,5.5,1.81,4.82-1.33-3.08-14.19-6.15-28.38-9.23-42.57-.68-3.14-5.5-1.81-4.82,1.33h0Z"/><path class="cls-2" d="M555.11,223.69c6.81,5.59,13.74,11.05,20.43,16.79,2.87,2.46,5.66,5.12,7.62,8.38s2.94,6.74,3.56,10.36c.72,4.24.79,8.58.87,12.87.06,3.21,5.06,3.22,5,0-.16-8.1-.46-16.51-4.11-23.92s-10.98-12.57-17.3-17.76c-4.17-3.42-8.35-6.84-12.52-10.27-1.04-.86-2.51-1.02-3.54,0-.88.88-1.05,2.68,0,3.54h0Z"/><path class="cls-2" d="M213.08,117.53c.22,3.01.67,6,.98,9,.26,2.59.63,5.59.14,8.1-.04.2-.09.4-.16.59-.14.41.28-.46-.1.19-.24.41-.35.56-.51.75-.63.71-1.21,1.16-1.91,1.64-1.81,1.21-3.78,2.14-5.74,3.07-4.92,2.34-9.55,5.34-14.19,8.18-5.6,3.44-11.15,6.97-16.62,10.61-6.18,4.11-12.28,8.36-18.29,12.72-1.09.79-1.63,2.17-.9,3.42.63,1.08,2.32,1.69,3.42.9,11.07-8.04,22.44-15.66,34.09-22.83,4.91-3.02,9.8-6.21,15.01-8.69,3.69-1.76,8.35-3.76,10.18-7.7,1.33-2.87.96-6.58.7-9.64-.29-3.45-.86-6.86-1.1-10.32-.1-1.35-1.08-2.5-2.5-2.5-1.28,0-2.6,1.15-2.5,2.5h0Z"/><path class="cls-2" d="M146.19,188.2c-1.35,15.91-1.89,31.89-1.59,47.86.3,16.04,1.44,32.07,3.39,47.99s4.68,31.75,8.22,47.4,7.85,30.97,12.96,46.1,11.09,30.26,17.79,44.91c.81,1.78,1.64,3.56,2.48,5.33.58,1.22,2.33,1.54,3.42.9,1.25-.73,1.48-2.2.9-3.42-6.76-14.32-12.77-28.98-18-43.92s-9.74-30.27-13.44-45.73-6.57-30.81-8.67-46.42-3.41-31.62-3.91-47.5-.17-31.8.98-47.65c.14-1.95.3-3.91.46-5.86.11-1.35-1.23-2.5-2.5-2.5-1.45,0-2.39,1.15-2.5,2.5h0Z"/><path class="cls-2" d="M180.18,432.28c-13.31,11.49-26.62,22.97-39.92,34.46-1.5,1.3-.56,3.64,1.1,4.18,18.03,5.85,37.19,3.14,55.76,4.76,5.2.45,10.35,1.31,15.37,2.78l-.6-4.57c-6.02,4.41-12.04,8.83-18.06,13.24-2.02,1.48-1.31,4.45,1.26,4.66,18.86,1.5,37.85,1.13,56.64-1.09,1.34-.16,2.5-1.04,2.5-2.5,0-1.23-1.15-2.66-2.5-2.5-18.79,2.22-37.78,2.58-56.64,1.09l1.26,4.66c6.02-4.41,12.04-8.83,18.06-13.24,1.68-1.23,1.61-3.92-.6-4.57-18.19-5.32-37.27-2.5-55.87-4.41-5.18-.53-10.3-1.53-15.26-3.13l1.1,4.18c13.31-11.49,26.62-22.97,39.92-34.46,1.02-.88.91-2.63,0-3.54-1.01-1.01-2.51-.88-3.54,0h0Z"/><path class="cls-2" d="M250.97,85.68c36.01-10.36,72.58-18.94,109.68-24.34,36.6-5.33,73.79-7.49,110.73-4.97,18.58,1.26,37.07,3.73,55.29,7.56,15.71,3.3,32.42,7.52,44.77,18.39,11.51,10.13,17.2,24.68,21.59,38.98s8.37,29.51,14.86,43.55c12.99,28.16,33.37,52.82,58.47,71.01,3.07,2.23,6.22,4.35,9.43,6.37,2.73,1.72,5.24-2.6,2.52-4.32-26.48-16.73-48.18-40.58-62.57-68.38-7.24-13.99-11.76-28.74-16.16-43.8s-9.03-29.27-18.84-41.03c-10.49-12.57-25.96-18.99-41.44-23-17.51-4.53-35.57-7.3-53.55-9.13-37.29-3.8-74.98-2.58-112.14,2.01-37.44,4.63-74.39,12.58-110.75,22.55-4.41,1.21-8.81,2.45-13.2,3.71-3.09.89-1.77,5.71,1.33,4.82h0Z"/><path class="cls-2" d="M665.52,245.84c-9.06,4.73-19.02,7.77-29.19,8.83-1.34.14-2.5,1.05-2.5,2.5,0,1.24,1.15,2.64,2.5,2.5,11.1-1.15,21.82-4.34,31.71-9.51,2.85-1.49.33-5.81-2.52-4.32h0Z"/><path class="cls-2" d="M630.1,262.85c-5.65,20.77-13.34,42.1-29.83,56.82-4.21,3.75-8.92,6.89-14.03,9.28-1.22.57-1.53,2.33-.9,3.42.73,1.25,2.19,1.47,3.42.9,20.29-9.52,32.71-29.56,40.17-49.91,2.31-6.29,4.22-12.72,5.98-19.18.85-3.11-3.98-4.44-4.82-1.33h0Z"/><path class="cls-2" d="M478.15,487.23c9.54,6.89,19.07,13.78,28.61,20.67l.6-4.57c-15.53,2.1-31.32,1.49-46.89.06-7.8-.72-15.58-1.65-23.35-2.59-3.89-.47-7.78-.94-11.67-1.39-3.67-.42-7.42-1.05-11.12-1.16-3.43-.11-7.32,1.44-7.37,5.43-.03,2.14.73,4.42,1.15,6.5.45,2.19.89,4.38,1.34,6.57l3.08-3.08c-15.12-2.46-30.11-5.67-44.91-9.63-3.11-.83-4.44,3.99-1.33,4.82,14.8,3.96,29.79,7.17,44.91,9.63,1.92.31,3.48-1.09,3.08-3.08-.73-3.6-1.5-7.19-2.19-10.8-.06-.29-.15-.65-.11-.95.03-.21,0-.09-.05.02.15-.26.29-.21.6-.3,1.1-.31,2.47-.11,3.71.01,7.46.75,14.91,1.67,22.36,2.57,14.85,1.79,29.76,3.52,44.74,3.68,8.49.09,16.96-.38,25.37-1.51.95-.13,1.69-1.22,1.79-2.08.13-1.06-.35-1.88-1.19-2.49-9.54-6.89-19.07-13.78-28.61-20.67-1.1-.79-2.79-.19-3.42.9-.74,1.26-.2,2.63.9,3.42h0Z"/><path class="cls-2" d="M249.83,80.51c-8.11,1.1-15.99,3.67-23.23,7.5-3.37,1.78-7.02,3.77-9.51,6.73s-3.94,6.78-1.71,10.24c1.74,2.69,6.07.19,4.32-2.52-1.35-2.1,1.08-4.56,2.69-5.95,2.49-2.14,5.73-3.73,8.67-5.16,6.32-3.09,13.14-5.07,20.1-6.01,1.34-.18,2.07-1.9,1.75-3.08-.4-1.44-1.73-1.93-3.08-1.75h0Z"/><path class="cls-4" d="M347.93,217.48c17.97-4.43,37.19-5.58,55.13-.36,15.34,4.47,29.19,14.02,37.81,27.61,4.59,7.23,7.57,15.46,8.12,24.03.09,1.35,1.09,2.5,2.5,2.5,1.29,0,2.59-1.15,2.5-2.5-1.07-16.69-10.1-31.91-22.86-42.44-14.46-11.93-32.87-17.28-51.43-17.63-11.14-.21-22.3,1.31-33.1,3.97-3.12.77-1.8,5.59,1.33,4.82h0Z"/></g></g></svg>