<?xml version="1.0" encoding="UTF-8"?><svg id="Layer_2" xmlns="http://www.w3.org/2000/svg" width="786.84" height="590.41" viewBox="0 0 786.84 590.41"><defs><style>.cls-1{fill:#fdb831;}.cls-1,.cls-2{stroke-width:0px;}.cls-2{fill:#231f20;}</style></defs><g id="Layer_9"><g id="Layer_8"><path class="cls-1" d="M8.15,1.24c-.03,190.02-.05,380.04-.08,570.07,4.94,5.11,9.87,10.22,14.81,15.34,132.91-9.93,234.38-10.81,304.32-9.57l163.88,3.68h0c71.88,2.09,97.55,3.47,139.44,3.06,66.04-.65,119.23-5.21,152.77-8.79,1.14-186.87,2.27-373.75,3.41-560.62-3.92-2.05-7.84-4.11-11.75-6.16C519.36,5.91,263.75,3.58,8.15,1.24Z"/><path class="cls-2" d="M84.55,309.16c-1.5-3.48-2.1-7.14-1.92-10.92.3-5.7,2.28-10.74,5.94-15.18,2.82-3.48,6.48-5.16,10.86-5.58,3.3-.24,5.76,1.26,7.86,3.54.72.78.72,1.86.12,2.64-.6.78-1.8,1.02-2.76.54-.48-.3-.84-.66-1.26-.96-2.76-2.1-5.52-1.26-8.22.06-1.38.6-2.46,1.56-3.3,2.7-4.86,6.12-6,13.02-3.48,20.4.84,2.4,2.22,4.56,4.14,6.42,3.54,3.24,9.12,2.34,11.22-2.28.9-1.86,1.56-5.16,1.44-7.38-1.86.12-3.6.6-5.4.84-1.02.18-2.04.48-3.12.48-1.32-.06-2.22-.78-2.4-1.86-.12-1.2.48-1.86,1.92-2.28,3.48-.96,7.02-1.32,10.5-1.86,1.2-.18,2.16.48,2.46,1.74.78,2.94.48,5.88-.24,8.76-.78,3.24-2.4,6.12-5.04,8.16-2.1,1.62-4.56,2.4-7.26,2.1-6.18-.78-9.78-4.68-12.06-10.08Z"/><path class="cls-2" d="M121.99,314.38c-.36-1.68-.18-3.42-.24-5.16-.18-4.44-.54-8.82-.72-13.26-.12-3.3-.18-6.6.06-9.9.06-.96.06-1.98.06-3,0-.96.48-1.62,1.44-1.86,3.24-.96,6.54-1.86,9.9-1.56,4.62.48,8.7,2.16,11.22,6.3,1.26,2.1,1.56,4.56.84,6.96-1.02,3.54-3.36,6-6.84,7.32l-2.22.9c2.1,2.64,4.32,5.1,6.72,7.44.84.84,1.56,1.74,2.34,2.64.72.9.66,2.16-.06,2.82-.84.78-2.1.84-3-.12-1.62-1.56-3.24-3.18-4.74-4.8-2.16-2.4-4.2-4.86-6.12-7.32-1.62-.12-3.12.18-4.74,0l.54,9.9c.06.78.06,1.56,0,2.34-.06,1.32-.9,2.22-2.1,2.28-1.08.12-2.1-.72-2.34-1.92ZM133.69,297.1c1.98-.42,3.72-1.2,5.1-2.64,1.62-1.62,2.22-3.54,1.5-5.76-.72-2.34-2.76-3.24-4.8-4.08-2.1-.9-4.38-.78-6.54-.42-1.26.18-2.58.18-3.6.9-.3,4.14.18,8.22.24,12.24.48.24.96.24,1.38.3,2.28.18,4.5-.12,6.72-.54Z"/><path class="cls-2" d="M162.67,313.96c-2.04-.96-3.42-2.76-4.38-4.74-1.56-3.06-2.4-6.36-2.64-9.78l-.84-12.72c-.06-1.14-.06-2.28,0-3.42.06-.78.48-1.44,1.02-1.98.36-.36.78-.54,1.2-.54.6,0,1.26.36,1.62.96.42.66.48,1.26.42,3.54.36,3,.36,6.54,1.02,14.22.24,2.58.9,5.1,1.98,7.44.78,1.74,1.92,3.12,3.78,3.72.42.18.9.24,1.32.24,2.28,0,3.24-.48,4.02-1.44,1.8-2.28,2.64-4.98,3.18-7.74.84-3.9.96-12.12,1.38-16.08.18-1.68.3-3.42.24-5.16,0-1.14.84-2.04,1.8-2.1.96-.12,1.92.66,2.22,1.68.18.42.18.9.18,1.38s0,.9-.06,1.38c-.24,4.92-.66,14.04-1.44,18.9-.6,3.36-1.68,6.54-3.6,9.36-1.8,2.76-4.08,4.08-7.92,4.08-1.38,0-2.94-.42-4.5-1.2Z"/><path class="cls-2" d="M191.17,313.3c0-1.26-.06-2.46-.12-3.72-.12-4.8.06-9.54.42-14.28.24-3.42.54-6.84.9-10.26.06-.84.18-1.68.24-2.52.18-1.26.84-2.16,1.86-2.4,1.02-.3,1.98.06,2.82,1.14,2.04,2.64,3.6,5.58,5.28,8.46,2.82,4.8,5.64,9.72,8.64,14.4.36.6.84,1.2,1.38,1.98.54-2.52.42-4.86.66-7.2.12-1.56.3-3.18.24-4.74-.06-3.12.36-6.24.36-9.3,0-.24-.12-.54-.18-.78-.24-1.08.06-2.04.9-2.52.78-.54,1.86-.42,2.7.3.9.78,1.38,1.68,1.32,3-.12,3.12-.36,6.3-.42,9.42-.06,5.46-.6,10.92-1.32,16.32-.12,1.14-.06,2.28-.66,3.3-1.08,1.8-3,1.92-4.26.3-1.44-1.92-2.46-4.02-3.66-6.06-3.72-6.12-7.38-12.36-10.86-18.6-.12-.3-.3-.48-.6-.96-.12.96-.18,1.74-.24,2.46-.3,4.44-.66,8.88-.78,13.32-.12,2.52.06,5.1.06,7.68,0,.6.06,1.2-.12,1.8-.42,1.26-1.56,2.16-2.7,1.98s-1.92-1.14-1.86-2.52Z"/><path class="cls-2" d="M233.65,315.28c-1.56-9.42-1.92-19.86-1.92-28.98v-2.1c-1.14-.66-2.04-1.38-1.98-2.7,0-1.26.78-2.04,2.04-1.98,1.68,0,5.82-.66,6.78-.66,10.74,0,20.1,6.36,20.1,16.08,0,10.5-6.42,14.28-15.66,19.2-2.52,1.32-3.78.84-5.82,2.52-.42.3-.84.48-1.26.48-.96,0-2.1-.66-2.28-1.86ZM254.35,294.94c0-7.8-7.56-11.94-15.36-11.94-.96,0-1.98.12-3,.36,0,8.46.6,20.52,1.5,27.96,9.36-2.58,16.86-7.74,16.86-16.38Z"/><path class="cls-2" d="M271.27,312.76c-.12-2.76-.42-5.4-.42-8.1,0-3.6-.18-8.22-.06-11.82.12-2.22.36-4.38.3-6.54-.06-1.62-.12-3.24-.06-4.86.06-1.56.9-2.58,2.22-2.64,1.5-.06,2.64,1.02,2.76,2.58.06.42.06.84.06,1.26-.06,1.02-.24,2.04-.3,3.12-.12,1.02-.18,2.1-.18,3.12-.06,1.08-.06,2.1-.12,3.18-.12,5.28-.12,11.58.06,16.86.12,1.08-.06,2.22.42,3.36,1.98-.18,3.9-.42,5.82-.6,1.02-.06,2.1-.24,3.12-.24.36,0,.72,0,1.08.06,1.5.18,2.16.9,2.16,2.04s-.84,1.98-2.22,2.1c-2.82.24-5.7.72-8.58.72-.78-.06-1.62.18-2.46.06-1.98-.24-3.42-1.62-3.6-3.66Z"/><path class="cls-2" d="M313.81,307h-12.48c-.54,2.4-.96,4.2-1.32,5.82-.48,2.52-2.22,4.02-3.84,3.18-1.8-1.02-.66-3.24.36-7.44,2.46-10.38,5.46-22.92,8.88-27.3,1.14-1.44,2.46-1.92,4.08-1.44,1.14.3,1.92.24,4.02.12.96,0,1.86,0,2.82.06,2.16.06,4.26.12,6.3-.42,1.14-.3,2.04.18,2.4,1.14.3,1.2-.18,2.16-1.38,2.64-.96.3-1.8.48-2.7.48-1.02.06-2.04.06-3.06.06s-2.04.06-3.06.06h-.66c-.6-.06-.9,0-1.2.12.54,1.86,1.02,3.66,1.5,5.46.54,1.8,1.02,3.66,1.56,5.46,2.52.36,4.98.12,7.5-.06,1.86-.12,2.88.42,3.06,1.62.18,1.26-.66,2.04-2.64,2.46-.9.18-1.74.18-2.58.18-.3.06-.6.06-.96.06h-3.6c1.02,4.44,1.92,8.76,2.82,13.08,3.06,0,5.34-.18,7.86-.9l1.2-.36c1.44-.24,2.52.18,2.82,1.14.36,1.02-.12,1.92-1.44,2.64-1.74.84-8.52,2.04-11.1,1.68-3.96-.54-4.14-4.5-5.16-9.54ZM312.91,302.68c-1.14-6.36-2.58-12.6-4.5-18.66-2.4,4.98-3.78,10.26-5.16,15.54-.24,1.02-.54,2.04-.78,3.12h10.44Z"/><path class="cls-2" d="M337.99,309.16c-1.5-3.48-2.1-7.14-1.92-10.92.3-5.7,2.28-10.74,5.94-15.18,2.82-3.48,6.48-5.16,10.86-5.58,3.3-.24,5.76,1.26,7.86,3.54.72.78.72,1.86.12,2.64-.6.78-1.8,1.02-2.76.54-.48-.3-.84-.66-1.26-.96-2.76-2.1-5.52-1.26-8.22.06-1.38.6-2.46,1.56-3.3,2.7-4.86,6.12-6,13.02-3.48,20.4.84,2.4,2.22,4.56,4.14,6.42,3.54,3.24,9.12,2.34,11.22-2.28.9-1.86,1.56-5.16,1.44-7.38-1.86.12-3.6.6-5.4.84-1.02.18-2.04.48-3.12.48-1.32-.06-2.22-.78-2.4-1.86-.12-1.2.48-1.86,1.92-2.28,3.48-.96,7.02-1.32,10.5-1.86,1.2-.18,2.16.48,2.46,1.74.78,2.94.48,5.88-.24,8.76-.78,3.24-2.4,6.12-5.04,8.16-2.1,1.62-4.56,2.4-7.26,2.1-6.18-.78-9.78-4.68-12.06-10.08Z"/><path class="cls-2" d="M373.99,309.16c-1.5-3.48-2.1-7.14-1.92-10.92.3-5.7,2.28-10.74,5.94-15.18,2.82-3.48,6.48-5.16,10.86-5.58,3.3-.24,5.76,1.26,7.86,3.54.72.78.72,1.86.12,2.64-.6.78-1.8,1.02-2.76.54-.48-.3-.84-.66-1.26-.96-2.76-2.1-5.52-1.26-8.22.06-1.38.6-2.46,1.56-3.3,2.7-4.86,6.12-6,13.02-3.48,20.4.84,2.4,2.22,4.56,4.14,6.42,3.54,3.24,9.12,2.34,11.22-2.28.9-1.86,1.56-5.16,1.44-7.38-1.86.12-3.6.6-5.4.84-1.02.18-2.04.48-3.12.48-1.32-.06-2.22-.78-2.4-1.86-.12-1.2.48-1.86,1.92-2.28,3.48-.96,7.02-1.32,10.5-1.86,1.2-.18,2.16.48,2.46,1.74.78,2.94.48,5.88-.24,8.76-.78,3.24-2.4,6.12-5.04,8.16-2.1,1.62-4.56,2.4-7.26,2.1-6.18-.78-9.78-4.68-12.06-10.08Z"/><path class="cls-2" d="M412.51,314.44c-1.2-3.24-1.5-6.6-1.74-10.02-.24-4.38-.3-8.7-.18-13.08.06-1.92.24-5.1.18-8.28-1.68-1.5-1.5-2.58.3-3.72.96-.66,1.86-.9,3-.48.42.12.9,0,1.38-.06,3-.24,6-.6,9-.84.9-.06,1.8.06,2.7.24,1.02.12,1.74,1.02,1.74,1.86.06.96-.66,1.92-1.74,2.04-2.28.18-4.56.18-6.84.36-1.74.12-3.42.36-5.28.54v12.18c1.74-.24,3.48-.54,5.22-.72,2.22-.18,4.44-.48,6.66-.36,1.32.06,2.04.84,2.1,1.98,0,1.14-.78,1.92-2.1,2.04-2.28.24-4.62.18-6.96.48-1.74.24-3.42.66-5.1.78.3,3.78.24,7.98,1.2,12,.66,2.58,1.38,3.42,4.32,2.58,1.74-.48,3.42-1.14,5.16-1.68,1.32-.42,2.52-.06,2.88,1.02.42,1.08-.12,2.34-1.38,2.88-2.7,1.08-5.34,2.22-8.28,2.46-2.34.12-5.4-1.92-6.24-4.2Z"/><path class="cls-2" d="M439.39,313.3c0-1.26-.06-2.46-.12-3.72-.12-4.8.06-9.54.42-14.28.24-3.42.54-6.84.9-10.26.06-.84.18-1.68.24-2.52.18-1.26.84-2.16,1.86-2.4,1.02-.3,1.98.06,2.82,1.14,2.04,2.64,3.6,5.58,5.28,8.46,2.82,4.8,5.64,9.72,8.64,14.4.36.6.84,1.2,1.38,1.98.54-2.52.42-4.86.66-7.2.12-1.56.3-3.18.24-4.74-.06-3.12.36-6.24.36-9.3,0-.24-.12-.54-.18-.78-.24-1.08.06-2.04.9-2.52.78-.54,1.86-.42,2.7.3.9.78,1.38,1.68,1.32,3-.12,3.12-.36,6.3-.42,9.42-.06,5.46-.6,10.92-1.32,16.32-.12,1.14-.06,2.28-.66,3.3-1.08,1.8-3,1.92-4.26.3-1.44-1.92-2.46-4.02-3.66-6.06-3.72-6.12-7.38-12.36-10.86-18.6-.12-.3-.3-.48-.6-.96-.12.96-.18,1.74-.24,2.46-.3,4.44-.66,8.88-.78,13.32-.12,2.52.06,5.1.06,7.68,0,.6.06,1.2-.12,1.8-.42,1.26-1.56,2.16-2.7,1.98s-1.92-1.14-1.86-2.52Z"/><path class="cls-2" d="M481.87,315.28c-1.56-9.42-1.92-19.86-1.92-28.98v-2.1c-1.14-.66-2.04-1.38-1.98-2.7,0-1.26.78-2.04,2.04-1.98,1.68,0,5.82-.66,6.78-.66,10.74,0,20.1,6.36,20.1,16.08,0,10.5-6.42,14.28-15.66,19.2-2.52,1.32-3.78.84-5.82,2.52-.42.3-.84.48-1.26.48-.96,0-2.1-.66-2.28-1.86ZM502.57,294.94c0-7.8-7.56-11.94-15.36-11.94-.96,0-1.98.12-3,.36,0,8.46.6,20.52,1.5,27.96,9.36-2.58,16.86-7.74,16.86-16.38Z"/><path class="cls-2" d="M518.11,314.44c-1.2-3.24-1.5-6.6-1.74-10.02-.24-4.38-.3-8.7-.18-13.08.06-1.92.24-5.1.18-8.28-1.68-1.5-1.5-2.58.3-3.72.96-.66,1.86-.9,3-.48.42.12.9,0,1.38-.06,3-.24,6-.6,9-.84.9-.06,1.8.06,2.7.24,1.02.12,1.74,1.02,1.74,1.86.06.96-.66,1.92-1.74,2.04-2.28.18-4.56.18-6.84.36-1.74.12-3.42.36-5.28.54v12.18c1.74-.24,3.48-.54,5.22-.72,2.22-.18,4.44-.48,6.66-.36,1.32.06,2.04.84,2.1,1.98,0,1.14-.78,1.92-2.1,2.04-2.28.24-4.62.18-6.96.48-1.74.24-3.42.66-5.1.78.3,3.78.24,7.98,1.2,12,.66,2.58,1.38,3.42,4.32,2.58,1.74-.48,3.42-1.14,5.16-1.68,1.32-.42,2.52-.06,2.88,1.02.42,1.08-.12,2.34-1.38,2.88-2.7,1.08-5.34,2.22-8.28,2.46-2.34.12-5.4-1.92-6.24-4.2Z"/><path class="cls-2" d="M569.52,313.96c-2.04-.96-3.42-2.76-4.38-4.74-1.56-3.06-2.4-6.36-2.64-9.78l-.84-12.72c-.06-1.14-.06-2.28,0-3.42.06-.78.48-1.44,1.02-1.98.36-.36.78-.54,1.2-.54.6,0,1.26.36,1.62.96.42.66.48,1.26.42,3.54.36,3,.36,6.54,1.02,14.22.24,2.58.9,5.1,1.98,7.44.78,1.74,1.92,3.12,3.78,3.72.42.18.9.24,1.32.24,2.28,0,3.24-.48,4.02-1.44,1.8-2.28,2.64-4.98,3.18-7.74.84-3.9.96-12.12,1.38-16.08.18-1.68.3-3.42.24-5.16,0-1.14.84-2.04,1.8-2.1.96-.12,1.92.66,2.22,1.68.18.42.18.9.18,1.38s0,.9-.06,1.38c-.24,4.92-.66,14.04-1.44,18.9-.6,3.36-1.68,6.54-3.6,9.36-1.8,2.76-4.08,4.08-7.92,4.08-1.38,0-2.94-.42-4.5-1.2Z"/><path class="cls-2" d="M595.98,312.34c1.02-1.5,1.92-3.12,2.82-4.68,1.8-3.18,3.96-6.06,5.94-9.12-1.92-3.66-3.96-7.08-5.7-10.74-.42-.84-.72-1.74-1.2-2.58-.9-1.32-.6-2.7.54-3.3,1.08-.54,2.4.06,3,1.44.72,1.74,1.56,3.42,2.46,5.04,1.2,2.04,2.22,4.14,3.6,6.24.84-1.2,1.68-2.28,2.4-3.42,1.38-2.22,3.3-4.02,4.68-6.18.78-1.32,1.74-2.52,2.58-3.78.72-1.02,1.86-1.44,2.82-1.02,1.26.54,1.68,2.04.84,3.3-1.56,2.4-3.18,4.74-4.92,7.02-2.16,2.7-4.2,5.52-6,8.4,2.28,3.84,4.74,7.44,7.14,11.1.48.72.72,1.5.3,2.28-.66,1.44-2.46,1.62-3.48.3-1.02-1.26-1.92-2.64-2.88-4.02-1.26-1.92-2.52-3.78-3.66-5.94-1.2,1.86-2.34,3.66-3.54,5.34-1.44,1.98-2.4,4.26-3.84,6.24-.12.12-.18.3-.3.42-.84,1.2-2.16,1.56-3.18.96-1.08-.66-1.32-2.1-.42-3.3Z"/><path class="cls-2" d="M627.24,315.94c0-1.44.9-3.42,1.14-4.62,3.96-11.82,7.92-23.28,12.06-34.98.24-.54.48-.96,1.02-1.26.36-.18.72-.3,1.02-.3.96,0,1.38,1.02,1.38,2.22,0,.66-.12,1.38-.36,1.98-.18.48-1.56,4.26-5.16,14.94-7.08,21.18-7.44,23.1-8.22,23.58-.48.3-.9.36-1.44.24-1.08-.18-1.44-.9-1.44-1.8Z"/><path class="cls-2" d="M656.7,313.96c-2.04-.96-3.42-2.76-4.38-4.74-1.56-3.06-2.4-6.36-2.64-9.78l-.84-12.72c-.06-1.14-.06-2.28,0-3.42.06-.78.48-1.44,1.02-1.98.36-.36.78-.54,1.2-.54.6,0,1.26.36,1.62.96.42.66.48,1.26.42,3.54.36,3,.36,6.54,1.02,14.22.24,2.58.9,5.1,1.98,7.44.78,1.74,1.92,3.12,3.78,3.72.42.18.9.24,1.32.24,2.28,0,3.24-.48,4.02-1.44,1.8-2.28,2.64-4.98,3.18-7.74.84-3.9.96-12.12,1.38-16.08.18-1.68.3-3.42.24-5.16,0-1.14.84-2.04,1.8-2.1.96-.12,1.92.66,2.22,1.68.18.42.18.9.18,1.38s0,.9-.06,1.38c-.24,4.92-.66,14.04-1.44,18.9-.6,3.36-1.68,6.54-3.6,9.36-1.8,2.76-4.08,4.08-7.92,4.08-1.38,0-2.94-.42-4.5-1.2Z"/><path class="cls-2" d="M688.08,310.18c-.24-1.8-.06-3.6-.24-5.4-.3-3.96-.06-7.92.18-11.88.12-2.04.3-4.08.36-6.06-.06-1.02,0-2.04.3-3,.18-.84.66-1.44,1.5-1.68.84-.24,1.56.12,2.16.72,1.2,1.2,1.38,3,.54,4.5-.12.18-.18.48-.24.72-.12,3.48-.42,6.96-.42,10.5s.3,6.78.48,10.14c.06,1.26-.18,2.4-1.26,3.12-1.44.9-3.12.06-3.36-1.68Z"/><path class="cls-2" d="M781.02,15.66c-.38,73.04.09,146.08.37,219.12.28,72.95.94,145.92-.03,218.87-.54,40.9-1.66,81.79-3.75,122.63-.17,3.22,4.84,3.21,5,0,3.74-72.8,4.32-145.7,4.22-218.58-.11-73.04-.55-146.08-.8-219.11-.14-40.98-.22-81.95,0-122.93.02-3.22-4.98-3.22-5,0h0Z"/><path class="cls-2" d="M780.3,7.02c-101.1-.3-202.2-.57-303.3-.92-100.61-.36-201.22-.92-301.82-2.45C118.43,2.79,61.69,1.62,4.96,0c-3.22-.09-3.22,4.91,0,5,101.08,2.88,202.2,4.35,303.32,5.18,100.6.82,201.21,1.03,301.81,1.34,56.73.17,113.47.34,170.2.51,3.22,0,3.22-4.99,0-5h0Z"/><path class="cls-2" d="M4.19,16.88c.1,72.79-.05,145.59-.46,218.38-.4,72.42-1.06,144.84-1.96,217.25C1.26,493.36.67,534.21,0,575.05c-.05,3.22,4.95,3.22,5,0,1.19-72.78,2.13-145.57,2.82-218.36.68-72.42,1.12-144.84,1.3-217.26.1-40.85.13-81.71.07-122.56,0-3.22-5-3.22-5,0h0Z"/><path class="cls-2" d="M764.43,575.36c-48.66,4.41-97.49,6.87-146.35,7.32-48.25.45-96.38-1.67-144.56-3.82-96.85-4.34-193.76-3.45-290.63-.21-54.42,1.82-108.81,4.29-163.19,6.76-3.2.15-3.22,5.15,0,5,97.39-4.43,194.81-8.85,292.31-9.51,48.46-.33,96.92.29,145.35,2.27s96.24,4.61,144.45,4.6c54.29-.01,108.56-2.5,162.63-7.4,3.18-.29,3.21-5.29,0-5h0Z"/></g></g></svg>