<?xml version="1.0" encoding="UTF-8"?><svg id="Layer_2" xmlns="http://www.w3.org/2000/svg" width="786.82" height="573.06" viewBox="0 0 786.82 573.06"><defs><style>.cls-1{fill:#fdb831;}.cls-1,.cls-2,.cls-3{stroke-width:0px;}.cls-2{fill:#fff;}.cls-3{fill:#231f20;}</style></defs><g id="Layer_9"><path class="cls-1" d="M2.87,2.41c2.14,65.7,3.6,132.5,4.33,200.35,1.33,124.41.09,245.43-3.31,362.86l22.27,4.16c249.58-.99,499.16-1.98,748.74-2.97,1.24-48.93,8.51-334.94,8.51-334.94h0c-.09-1.34-5.15-64.84-7.35-117.75-1.04-25.09-1.97-60.51-1.23-103.55C517.51,7.85,260.19,5.13,2.87,2.41Z"/><path class="cls-2" d="M436.11,101.3c50.21,18.5,78.64,52.44,88.96,66.11,10.04,13.29,37.29,52.9,39.64,110.48,3.33,81.76-46.19,135.72-53.89,143.84-8.81,9.29-56.96,58.24-135.31,61.3-68.38,2.67-115.56-31.35-127.71-40.69-12.08-9.29-58.88-47.5-73.01-116.91-13.81-67.89,12.85-120.36,20.31-133.97,7.46-13.62,36.57-62.89,99.26-88.1,12-4.83,72.21-27.67,141.75-2.05Z"/><path class="cls-1" d="M245.78,186.98c-3.63-5.24,17.28-31.56,47.32-49.75,10.96-6.63,48.43-28.56,100.04-23.43,43.78,4.36,73.64,25.79,86.16,36.13,48.27,39.86,56.82,94.76,59.31,112.59,2.39,17.07,7.26,55.74-12.94,98.38-23.13,48.81-63.95,70.78-77.24,77.26-4.63-2.32-9.27-4.64-13.9-6.95.42-3.76.85-7.52,1.27-11.28,7.55-10.25,15.1-20.49,22.65-30.74-2.04-1.64-5.36-3.92-9.9-5.28-7.49-2.24-12.23-.17-14.03-2.98-1.78-2.76.95-7.66,2.9-11.16,1.89-3.39,4.09-5.78,5.66-7.28.58-2.5,1.29-6.99,0-12.13-3.54-14.06-19.65-23.31-24.27-20.22-1.96,1.3-.44,3.87-2.88,12.17-1.7,5.8-2.58,8.81-5.12,10.92-4.97,4.12-10.11-.34-18.6,2.59-.55.19-9.27,3.35-13.18,11.81-5.11,11.05,1.77,22.87,2.92,24.76,3.05,5.02,4.93,4.57,8.13,10.05.4.68,5.07,8.86,4.77,17.54-.58,17.17-20.25,27.89-22.54,29.09-5.25,2.77-16.68,7.48-41.97,3.03-39.66-6.98-66.68-28.26-73.83-34.16-30.48-25.16-43.3-54.35-47.19-64.05-7.51-18.75-10-35.45-10.87-46.78,6.85-5.21,13.12-7.9,17.3-9.34,5.93-2.05,9.62-3.26,12.94-1.62,4.85,2.4,4.04,8.46,7.28,15.37,6.57,14.02,23.76,18.63,26.7,19.42,9.56,2.56,27.56,3.91,34.79-5.66,4.15-5.5,5.14-15.13,5.66-20.22.6-5.89.06-8.96,2.43-12.94,3.42-5.75,9.55-7.78,10.52-8.09,7.94-2.51,11.54,2.22,18.61,1.62,10.72-.91,21.3-13.4,23.46-26.7,1.74-10.69-1.54-24.47-11.33-30.74-11.51-7.37-30.74-3.56-39.79,4.62-1.5,1.36-5.97,5.77-13.04,7.58-2.83.72-6.05,1.55-8.15-.02-3.79-2.84-.19-10.76.31-21.08.46-9.54-1.49-26.14-10.52-32.36-11.03-7.59-26.99,4.16-29.84.05Z"/><g id="Layer_8"><path class="cls-3" d="M367.88,485.67c-110.01,0-199.51-89.5-199.51-199.51s89.5-199.51,199.51-199.51,199.51,89.5,199.51,199.51-89.5,199.51-199.51,199.51ZM367.88,91.66c-107.25,0-194.51,87.25-194.51,194.51s87.25,194.51,194.51,194.51,194.51-87.25,194.51-194.51-87.25-194.51-194.51-194.51Z"/><path class="cls-3" d="M349.26,456.71c-11.81,0-23.39-2.92-32.5-5.21-55.52-13.97-86.76-55.85-92.45-64.1-16.02-23.2-25.82-50.89-28.34-80.08l-.12-1.36,1.08-.83c12.89-9.97,23.53-13.35,31.6-10.04,5.63,2.31,7.71,6.82,9.91,11.59,1.82,3.95,3.7,8.03,7.85,11.96,12.59,11.93,37.04,14.41,47.56,4.82,5.16-4.7,5.7-11.31,6.27-18.32.63-7.71,1.29-15.69,8.55-20.72,5.44-3.76,10.61-3.1,15.6-2.45,4.54.59,8.83,1.14,13.82-1.37,7.23-3.64,13.72-12.7,16.16-22.55,1.94-7.83,1.05-14.89-2.51-19.88-3.49-4.9-9.84-8.28-17.41-9.26-10.7-1.38-22.06,2.16-31.13,9.73l-.34.24c-8.88,5.17-14.77,6.27-18.52,3.49-3.57-2.65-3.05-7.13-2.4-12.8.55-4.73,1.23-10.62.2-17.99-.73-5.2-2.65-19.01-10.89-23.65-5.72-3.22-12.72-.97-17.83.68-4.31,1.39-7.72,2.48-9.66-.16h0c-.76-1.04-.98-2.41-.64-4.09,1.8-8.98,22.13-33.22,48.69-49.28,36.94-22.34,96.8-36.65,154.03-9.83,38.96,18.26,67.56,50.98,85,97.24,3.78,10.03,10.38,30.71,12.07,56.45,2.32,35.28-5.07,67.64-21.97,96.17-20.76,35.05-50.3,54.84-71.42,65.28l-.76.37-.83-.16c-9.56-1.88-15.11-5.33-16.49-10.27-1.29-4.61,1.32-8.21,8.3-17.86l1.79-2.47c8.22-11.4,13.58-19.29,13.04-20.7-.87-2.28-6.32-2.98-10.7-3.54-5.96-.77-12.12-1.56-13.61-6.31-1.21-3.83,1.69-6.74,4.49-9.55,2.63-2.64,5.61-5.62,6.35-9.83,1.33-7.57-4.91-17.06-11.75-22.53-4.33-3.45-7.74-4.42-9.08-3.86-1.1.46-1.34,3.3-1.58,6.05-.4,4.74-.96,11.22-6.34,15.45-4.33,3.4-9.03,3.16-13.17,2.94-3.89-.21-7.56-.4-11.28,2.04-5.64,3.7-8.37,11.41-8.58,17.41-.27,7.78,3.94,12.73,8.4,17.96,4.52,5.3,9.19,10.79,9.79,19.39,1.22,17.42-16,31.01-17.97,32.5-9.24,7-19.85,9.28-30.29,9.28ZM201.07,308.25c1.87,19.73,8.18,48.54,27.35,76.3,5.52,7.99,35.77,48.56,89.56,62.09,16.24,4.09,40.78,10.26,58.55-3.21,1.75-1.32,17.04-13.37,16-28.17-.49-6.96-4.43-11.6-8.61-16.5-4.88-5.73-9.93-11.66-9.59-21.38.23-6.75,3.21-16.42,10.83-21.42,5.09-3.34,9.97-3.08,14.28-2.85,3.89.2,6.96.37,9.81-1.88,3.67-2.89,4.07-7.49,4.45-11.95.36-4.23.73-8.6,4.62-10.23,3.51-1.47,8.66.19,14.14,4.56,7.75,6.19,15.31,17.37,13.56,27.3-1.01,5.76-4.74,9.5-7.73,12.5-1.75,1.76-3.56,3.57-3.27,4.52.54,1.7,5.71,2.37,9.48,2.85,6.29.81,12.8,1.65,14.74,6.71,1.31,3.42.21,6.18-13.65,25.41l-1.79,2.48c-6.21,8.59-8.15,11.41-7.54,13.59.78,2.78,4.96,5.09,11.81,6.55,20.46-10.23,48.69-29.39,68.57-62.96,37.1-62.64,16.66-129.35,9.52-148.31-16.97-45-44.71-76.79-82.45-94.48-55.44-25.98-113.49-12.08-149.32,9.58-27.38,16.56-44.95,39.52-46.35,45.61,1.03-.21,2.6-.71,3.84-1.11,5.65-1.82,14.19-4.57,21.82-.27,10.39,5.85,12.49,20.89,13.38,27.31,1.12,7.99.36,14.5-.19,19.25-.54,4.65-.78,7.32.41,8.21.67.49,3.55,1.68,12.85-3.69,10.12-8.36,22.79-12.26,34.81-10.71,8.95,1.16,16.54,5.28,20.84,11.31,4.41,6.2,5.58,14.72,3.29,23.98-2.81,11.35-10.17,21.48-18.76,25.81-6.35,3.2-11.85,2.49-16.71,1.86-4.62-.6-8.26-1.07-12.12,1.6-5.32,3.68-5.83,9.86-6.41,17.02-.6,7.3-1.28,15.58-7.89,21.6-12.42,11.32-39.86,8.86-54.37-4.89-4.84-4.59-7.12-9.53-8.95-13.5-2.01-4.35-3.46-7.5-7.27-9.06-6.1-2.5-14.7.37-25.56,8.54Z"/><path class="cls-3" d="M.37,2.41c-.87,18.01,0,36.03.63,54.02s1.22,36.71,1.73,55.06c1.02,36.71,1.76,73.43,2.23,110.15.94,73.44.79,146.9-.45,220.34-.7,41.22-1.74,82.43-3.12,123.63-.11,3.22,4.89,3.21,5,0,2.46-73.41,3.84-146.86,4.13-220.31.28-73.45-.52-146.9-2.42-220.33-.53-20.6-1.15-41.21-1.86-61.81s-1.84-40.52-.87-60.77C5.52-.81.52-.8.37,2.41H.37Z"/><path class="cls-3" d="M774.83,8.07c-99.53-.72-199.06-1.44-298.59-2.15s-198.05-1.43-297.07-2.14c-55.86-.4-111.72-.81-167.58-1.21-3.22-.02-3.22,4.98,0,5,99.53.72,199.06,1.44,298.59,2.15l297.07,2.14c55.86.4,111.72.81,167.58,1.21,3.22.02,3.22-4.98,0-5h0Z"/><path class="cls-3" d="M775.23,20.78c-7.25,70.55,2.62,141.16,5.71,211.64,1.54,35.28.5,70.56-.43,105.84s-2.04,71.85-3.3,107.76c-1.41,40.27-3.01,80.53-4.81,120.79-.14,3.22,4.86,3.21,5,0,3.21-71.8,5.8-143.64,7.76-215.48.96-35.33,2.35-70.72,1.26-106.06s-4.25-70.66-6.47-105.98c-2.49-39.45-3.76-79.11.29-118.51.33-3.2-4.67-3.17-5,0h0Z"/><path class="cls-3" d="M760.26,567.03c-96.84.51-193.68.83-290.52.97-96.35.13-192.69.08-289.04-.16-54.35-.14-108.7-.33-163.05-.59-3.22-.02-3.22,4.98,0,5,96.84.45,193.68.72,290.52.8,96.35.08,192.69-.03,289.04-.33,54.35-.17,108.7-.4,163.05-.68,3.22-.02,3.22-5.02,0-5h0Z"/></g></g></svg>