<?xml version="1.0" encoding="UTF-8"?><svg id="Layer_2" xmlns="http://www.w3.org/2000/svg" width="422.62" height="422.62" viewBox="0 0 422.62 422.62"><defs><style>.cls-1{fill:#231f20;stroke-width:0px;}</style></defs><g id="Layer_9"><g id="Layer_8"><path class="cls-1" d="M80.77,206.36c-1.17-6.77-.84-13.76-1.01-20.52-.17-10.7-.34-21.4-.17-31.88.34-17.68.34-43.89,1.51-61.35.17-2.18-.33-4.59-.5-6.99-.17-5.02,2.01-8.73,5.36-9.39,3.35-.65,6.54,2.18,7.21,6.99.33,3.71.33,7.42.17,10.92-.5,17.69-1.84,44.1-1.17,62.45,3.86-3.71,7.04-7.64,10.56-11.35,9.72-9.83,21.79-21.83,32.02-31,6.2-5.9,12.24-12.23,18.44-18.34,1.17-1.09,2.35-2.4,3.86-2.84,2.68-1.09,5.53.65,6.87,3.71,1.34,3.27.84,6.77-1.68,9.61-6.04,6.11-12.07,12.45-18.27,18.12-7.04,6.55-16.6,14.63-23.64,21.62,2.85,4.15,5.53,8.08,8.05,12.01,7.88,11.57,17.1,21.62,25.82,32.1,1.51,1.75,2.85,3.93,3.35,6.77.84,3.49.17,6.77-2.18,8.95s-5.03,2.4-7.21-.22c-4.36-5.24-8.55-10.7-12.74-15.94-7.38-9.17-14.25-18.78-20.62-29.04-1.01-1.75-2.35-3.28-3.69-5.24-5.7,7.86-12.91,12.23-18.94,19.43v24.89c0,2.18,0,4.37-.17,6.33-.5,3.71-2.85,6.11-5.53,6.11-2.85.22-5.03-1.96-5.7-5.9Z"/><path class="cls-1" d="M195.6,192.17c-.67-6.55-.17-13.1-.67-19.65-.84-14.41-.17-28.82.5-43.23.33-7.42.84-14.85,1.01-22.05-.17-3.71,0-7.42.84-10.92.5-3.06,1.84-5.24,4.19-6.11,2.35-.87,4.36.44,6.04,2.62,3.35,4.37,3.86,10.92,1.51,16.38-.34.65-.5,1.75-.67,2.62-.33,12.66-1.17,25.33-1.17,38.21s.84,24.67,1.34,36.9c.17,4.59-.5,8.73-3.52,11.35-4.02,3.28-8.72.22-9.39-6.11Z"/><path class="cls-1" d="M248.74,210.95c0-3.06.17-5.89.17-8.95.34-8.95.5-18.12,1.01-27.07.34-8.3.84-16.81,1.51-25.11l.5-7.42c.5-6.11.84-12.45,1.68-18.56.67-3.93,1.34-7.86,1.34-12.01.17-4.15.67-8.3,1.34-12.45.5-3.49,1.01-6.77,1.17-10.26.33-3.49,2.01-6.33,4.86-7.42,2.35-.87,4.53-.22,6.87,2.4,2.51,3.49,4.19,7.86,5.7,12.23,2.35,6.11,4.69,12.45,6.87,18.78,2.68,7.64,5.36,15.07,8.21,22.49,3.52,9.17,6.71,18.78,9.89,28.38l3.52,10.92h.67c1.68-4.37,2.85-8.73,3.86-12.88l1.17-4.15c1.17-3.71,2.18-7.64,3.35-11.35,2.68-9.17,5.36-18.34,8.38-27.51,1.51-4.8,3.02-9.61,4.36-14.41l4.53-14.41c1.01-3.27,2.01-6.55,4.19-8.51,3.69-3.49,8.21-1.96,9.72,3.71,1.17,4.15,1.68,8.51,2.18,13.1.17,1.75.5,3.49.67,5.02.5,4.37,1.01,8.73,1.68,13.1l1.51,13.1c.33,3.06.67,5.9,1.01,8.73.67,5.46,1.17,11.14,2.01,16.38.84,5.9,1.17,11.79,1.51,17.69.17,5.46.5,10.7,1.17,15.94.17,2.4,0,4.15-.5,5.9-.84,3.71-3.19,6.33-6.04,6.11-2.68,0-5.36-3.06-5.7-6.55-1.17-9.61-1.68-19.65-2.18-29.48-.33-6.33-.84-12.66-1.51-18.56-.5-4.37-1.01-8.73-1.68-13.1l-1.51-13.1c-.17-.87-.34-1.96-.67-3.06h-.67c-1.84,3.06-2.85,6.55-3.69,10.04l-1.51,4.59c-4.69,15.28-9.39,30.79-13.92,46.07-.67,2.18-1.34,4.59-1.84,6.77-1.17,4.15-2.35,8.3-4.02,12.01l-2.01,3.93c-1.84,3.49-3.52,4.8-6.04,4.37-2.68-.65-4.69-2.84-6.04-7.42l-3.02-10.7c-1.01-3.49-2.01-6.99-2.85-10.7-2.85-10.92-6.54-21.4-10.23-31.66-1.68-4.37-3.19-8.95-4.69-13.32-2.18-6.33-4.19-12.45-7.04-19l-.67.22c-1.34,8.73-2.01,16.81-2.68,24.89-1.34,13.76-1.84,27.51-2.52,41.27l-.5,11.79c0,2.84-.17,5.68-.34,8.52-.17,2.84-.17,5.68-.33,8.51-.34,5.46-2.51,8.73-6.2,9.17-3.35.22-6.04-2.62-6.04-6.99Z"/><path class="cls-1" d="M78.98,350.15c-1.24-5.45-.62-11.09-.83-16.74-.62-14.4-1.86-28.61-2.49-43.01-.41-10.7-.62-21.41.21-32.11.21-3.11.21-6.42.21-9.73,0-3.11,1.66-5.25,4.97-6.03,11.18-3.11,22.58-6.03,34.18-5.06,15.95,1.56,30.03,7.01,38.73,20.43,4.35,6.81,5.39,14.79,2.9,22.58-3.52,11.48-11.6,19.46-23.61,23.74l-7.66,2.92c7.25,8.56,14.91,16.54,23.2,24.13,2.9,2.72,5.39,5.64,8.08,8.56,2.49,2.92,2.28,7.01-.21,9.15-2.9,2.53-7.25,2.72-10.36-.39-5.59-5.06-11.18-10.31-16.36-15.57-7.46-7.78-14.5-15.76-21.13-23.74-5.59-.39-10.77.58-16.36,0l1.86,32.11c.21,2.53.21,5.06,0,7.59-.21,4.28-3.11,7.2-7.25,7.39-3.73.39-7.25-2.33-8.08-6.23ZM119.37,294.1c6.84-1.36,12.84-3.89,17.61-8.56,5.59-5.25,7.66-11.48,5.18-18.68-2.48-7.59-9.53-10.51-16.57-13.23-7.25-2.92-15.12-2.53-22.58-1.36-4.35.58-8.91.58-12.43,2.92-1.04,13.43.62,26.66.83,39.7,1.66.78,3.31.78,4.76.97,7.87.58,15.53-.39,23.2-1.75Z"/><path class="cls-1" d="M170.71,350.96c0-.78.21-1.75.41-2.53,1.66-4.87,7.25-26.86,6.84-27.25-1.86-2.34-2.07-4.86-2.28-6.62-.21-2.53,1.45-4.09,5.39-6.23,9.53-34.64,14.29-55.08,25.27-71.23,3.73-5.64,8.7-8.95,14.5-8.95,2.69,0,5.8.78,9.11,2.34,18.02,9.34,28.79,77.46,33.14,110.93.83,6.23-2.9,10.31-7.46,10.31-4.97,0-8.08-3.5-8.28-8.17-.41-2.72.41-6.23.21-8.76-.41-4.09-1.24-8.37-2.69-12.65-14.91,1.17-40.18.58-51.99.97-1.24,4.09-4.97,22.38-7.66,28.22-1.24,2.72-3.11,5.06-6.84,5.06-4.14.19-7.25-2.14-7.66-5.45ZM243.2,307.36c-3.31-21.6-10.36-55.46-20.92-66.17-14.08,20.43-19.06,43.79-25.48,67.34,12.84-.97,30.66.39,46.4-1.17Z"/><path class="cls-1" d="M291.17,343.64c-1.45-1.96-2.9-3.93-2.69-6.55,0-3.71,1.66-6.33,4.76-7.64,3.31-1.53,6.63-.66,8.91,2.18,3.52,4.8,7.87,7.86,14.08,8.3,8.08.87,16.16-4.8,18.02-13.32,1.66-6.99-.21-11.57-6.63-15.94-5.8-4.15-12.43-6.55-18.43-10.04-11.81-6.33-19.68-15.5-21.54-29.69-1.04-9.39,2.07-17.03,6.63-24.23,7.66-12.01,27.55-17.68,38.32-13.54,9.94,3.49,17.19,10.48,21.75,20.52,1.66,3.93,0,8.3-3.52,10.26-3.73,1.96-8.08.44-10.15-3.71-2.69-5.46-7.04-8.73-12.22-10.92-7.04-2.84-16.57.66-21.75,7.64-4.56,5.89-4.76,15.28-.62,21.61,1.45,2.62,4.14,4.15,6.63,5.68,6.42,3.93,13.05,7.2,19.68,10.48,8.08,3.93,13.88,10.48,17.19,19.21,2.28,6.33,1.45,12.66-.21,18.78-3.31,12.88-12.22,20.09-23.82,23.8-2.07.66-4.35.44-5.39.44-12.43.22-21.75-3.93-29-13.32Z"/><path class="cls-1" d="M211.31,419.12C96.72,419.12,3.5,325.89,3.5,211.31S96.72,3.5,211.31,3.5s207.81,93.22,207.81,207.81-93.22,207.81-207.81,207.81ZM211.31,10.5C100.58,10.5,10.5,100.58,10.5,211.31s90.08,200.81,200.81,200.81,200.81-90.08,200.81-200.81S322.03,10.5,211.31,10.5Z"/><path class="cls-1" d="M211.31,422.62C94.79,422.62,0,327.82,0,211.31S94.79,0,211.31,0s211.31,94.79,211.31,211.31-94.79,211.31-211.31,211.31ZM7,211.31c0,112.66,91.65,204.31,204.31,204.31s204.31-91.65,204.31-204.31c0,112.66-91.65,204.31-204.31,204.31S7,323.96,7,211.31ZM211.31,14C102.51,14,14,102.51,14,211.31s88.51,197.31,197.31,197.31,197.31-88.51,197.31-197.31S320.1,14,211.31,14Z"/></g></g></svg>