<?xml version="1.0" encoding="UTF-8"?><svg id="Layer_2" xmlns="http://www.w3.org/2000/svg" width="790.63" height="572.81" viewBox="0 0 790.63 572.81"><defs><style>.cls-1{fill:#fdb831;}.cls-1,.cls-2,.cls-3{stroke-width:0px;}.cls-2{fill:#fff;}.cls-3{fill:#231f20;}</style></defs><g id="Layer_9"><path class="cls-1" d="M5.56,0c9.74,104.42,9.34,185.2,6.89,241.36-5.98,137-6.88,152.94-6.88,152.94-1.37,24.28-3.35,56.58-3.16,100.72.12,29.42,1.16,53.74,2.08,70.38,258.66-.42,517.31-.84,775.97-1.25,5.85-111.84,8.72-229.28,7.63-351.84-.63-70.67-2.54-139.52-5.53-206.46C599.65,3.71,416.74,2.11,233.84,1.05"/><path class="cls-3" d="M780.15,12.22c3.3,72.27,6.38,144.54,5.39,216.9s-3.1,144.51-4.73,216.76c-.92,40.65-1.83,81.3-2.75,121.95-.07,3.22,4.93,3.22,5,0,1.63-72.43,3.27-144.86,4.9-217.28,1.63-72.16,3.81-144.29,1.95-216.46-1.05-40.64-2.91-81.25-4.76-121.86-.15-3.2-5.15-3.22-5,0h0Z"/><path class="cls-3" d="M769.03,567.17c-99.05-1.63-198.1-2.59-297.16-2.88-98.55-.29-197.11.09-295.66,1.12-55.59.58-111.18,1.38-166.77,2.39-3.21.06-3.22,5.06,0,5,99.04-1.79,198.1-2.92,297.16-3.37s197.11-.24,295.66.63c55.59.49,111.18,1.2,166.77,2.11,3.22.05,3.22-4.95,0-5h0Z"/><path class="cls-3" d="M3.15,3.67c1.43,36.48,2.87,72.97,4.3,109.45,1.41,35.95,3.08,71.9,2.9,107.88-.35,72.23-6.2,144.26-8.96,216.4-1.55,40.61-2.1,81.27-.17,121.88.15,3.2,5.15,3.22,5,0-3.43-72.14,1.02-144.3,4.84-216.33,1.92-36.23,3.67-72.48,4.17-108.76.49-35.97-.85-71.87-2.26-107.8-1.61-40.91-3.22-81.81-4.83-122.72-.13-3.21-5.13-3.22-5,0h0Z"/><path class="cls-3" d="M776.38,3.13c-99.54.22-199.08.23-298.63.01-99.18-.22-198.36-.71-297.54-1.16-55.69-.26-111.38-.51-167.07-.77-3.22-.01-3.22,4.99,0,5,99.15.45,198.31.92,297.46,1.36,99.39.44,198.79.7,298.18.73,55.87.01,111.73-.05,167.6-.17,3.22,0,3.22-5.01,0-5h0Z"/><circle class="cls-2" cx="469.8" cy="219.46" r="112.25"/><path class="cls-3" d="M469.8,334.21c-63.27,0-114.75-51.48-114.75-114.75s51.48-114.75,114.75-114.75,114.75,51.48,114.75,114.75-51.48,114.75-114.75,114.75ZM469.8,109.72c-60.52,0-109.75,49.23-109.75,109.75s49.23,109.75,109.75,109.75,109.75-49.23,109.75-109.75-49.23-109.75-109.75-109.75Z"/><path class="cls-2" d="M357.56,204.25c-43.28,49.75-86.56,99.51-129.84,149.26-9.55,16.88-8.73,37.37,2.03,51.75,13.44,17.96,40.27,23.6,62.28,11.35,55.82-28.31,111.64-56.63,167.46-84.94-7.42-.78-48.59-5.83-77.89-42.76-28.93-36.46-24.93-77.08-24.04-84.66Z"/><path class="cls-3" d="M266.9,425.7c-15.26,0-29.91-6.61-39.14-18.95-11.42-15.27-12.29-36.66-2.21-54.48l.12-.22.17-.19,135.16-155.37-.94,8.04c-1.27,10.87-3.35,48.95,23.52,82.81,27.17,34.24,65.19,40.67,76.19,41.83l8.42.88-175.01,88.78c-8.33,4.63-17.4,6.87-26.27,6.87ZM229.77,354.96c-8.98,16.05-8.21,35.19,1.98,48.81,13.11,17.52,38.5,22.1,59.06,10.66l160.54-81.44c-16.49-3.07-48.05-12.7-71.72-42.53-23.51-29.63-25.8-62.37-25.15-78.88l-124.73,143.38Z"/><path class="cls-2" d="M249.56,421.46c-.59,3.12-18.92,7.37-27.91-2.43-8.94-9.74-3.3-27.53,0-27.91,2.55-.29,2.65,9.92,12.13,19.42,8.12,8.13,16.18,8.79,15.78,10.92Z"/><path class="cls-3" d="M237.64,427.62c-6.41,0-13.28-1.95-17.83-6.9-6.54-7.12-6.47-18.52-3.65-26.11,1.39-3.73,3.14-5.74,5.2-5.98,2.95-.34,4.03,2.43,5.29,5.64,1.44,3.67,3.62,9.21,8.9,14.5,4.37,4.38,8.76,6.46,11.67,7.83,2.74,1.3,5.33,2.52,4.79,5.32h0c-.38,1.98-2.46,3.53-6.2,4.6-2.46.7-5.27,1.1-8.18,1.1ZM221.51,394.85c-.78,1.57-1.73,4.31-2.05,7.88-.32,3.47-.22,9.97,4.04,14.61,4.18,4.55,10.54,5.26,13.96,5.27,3.53.03,6.38-.63,8.11-1.26-.16-.08-.32-.15-.48-.23-3.02-1.43-8.08-3.82-13.07-8.82-6.01-6.02-8.52-12.39-10.01-16.2-.16-.4-.33-.84-.5-1.26Z"/><path class="cls-3" d="M562.75,160.15c2.13,8.06,3.47,16.06,4.19,24.04,1.32,14.61.67,29.44-2.26,43.83-3.69,18.14-10.94,35.4-21.35,50.71-8.39,12.33-18.88,23.34-30.66,32.42-8,6.16-16.65,11.51-25.73,15.92-.72.35-1.43.69-2.16,1.03-1.22.57-1.53,2.33-.9,3.42.73,1.25,2.19,1.47,3.42.9,8.63-4.03,16.87-8.89,24.57-14.48,12.21-8.85,23.03-19.42,32.07-31.5,11.29-15.1,19.53-32.48,24.11-50.76,3.83-15.26,5.18-31.14,4.23-46.83-.58-9.55-1.96-19.1-4.3-28.38-.14-.54-.28-1.09-.42-1.63-.82-3.11-5.65-1.79-4.82,1.33h0Z"/><path class="cls-3" d="M544.89,141.77c.11.71.21,1.43.31,2.14.09.66-.05-.39,0,.05.03.2.05.4.08.6.06.47.12.95.18,1.43.25,2.09.47,4.19.64,6.29.47,5.61.69,11.23.66,16.86-.08,15.39-2.02,30.76-5.91,45.65-5,19.12-13.24,37.27-24.4,53.58-9.91,14.48-22.11,27.35-35.89,38.2-9.46,7.45-19.74,13.91-30.51,19.31-.91.46-1.82.9-2.74,1.34-1.22.59-1.54,2.32-.9,3.42.73,1.24,2.2,1.48,3.42.9,10.48-5.04,20.48-11.08,29.81-18.03,14.01-10.43,26.46-22.76,36.92-36.76,12.19-16.3,21.42-34.76,27.3-54.24,4.74-15.72,7.3-32.12,7.8-48.52.32-10.5-.23-21-1.66-31.41-.1-.71-.2-1.43-.31-2.14-.2-1.34-1.89-2.07-3.08-1.75-1.43.39-1.95,1.73-1.75,3.08h0Z"/><path class="cls-3" d="M518.78,119.24c1.11,8.73,1.57,17.54,1.49,26.34-.15,15.06-1.92,29.92-5.45,44.55-4.5,18.67-11.86,36.58-22.04,52.87-10.93,17.47-25.01,32.92-41.31,45.52-11.7,9.04-24.54,16.62-38.04,22.63-1.17.52-2.34,1.03-3.52,1.52-1.24.53-1.52,2.36-.9,3.42.75,1.29,2.17,1.42,3.42.9,12.99-5.48,25.38-12.39,36.83-20.64,16.77-12.07,31.44-26.86,43.23-43.84s20.01-35.04,25.43-54.4c4.31-15.42,6.68-31.41,7.24-47.41.34-9.86,0-19.76-1.14-29.56-.07-.63-.15-1.26-.23-1.9-.17-1.34-1.03-2.5-2.5-2.5-1.22,0-2.67,1.15-2.5,2.5h0Z"/><path class="cls-3" d="M495.53,115.58c-.61,10.6-1.94,20.32-4.17,30.72-3.31,15.41-8.35,30.46-15.11,44.7-8.07,16.99-18.51,32.85-30.98,46.93-10.21,11.52-21.73,21.9-34.28,30.81-8.88,6.3-18.25,11.91-28.01,16.73-.87.43-1.75.85-2.62,1.27-1.22.58-1.54,2.32-.9,3.42.73,1.25,2.2,1.48,3.42.9,9.41-4.49,18.48-9.69,27.1-15.55,12.66-8.6,24.41-18.57,34.89-29.73,13.02-13.88,24.14-29.58,32.85-46.5,7.62-14.82,13.46-30.57,17.35-46.77,2.68-11.19,4.46-22.61,5.28-34.09.07-.95.13-1.89.18-2.84.19-3.21-4.82-3.2-5,0h0Z"/><path class="cls-3" d="M473.56,108.82c-4.96,20.43-12.67,40.15-22.98,58.48-14.39,25.58-33.79,48.16-56.86,66.3-9.73,7.65-20.14,14.46-31,20.42-2.82,1.55-.3,5.87,2.52,4.32,9.67-5.31,18.97-11.31,27.79-17.95,11.55-8.7,22.29-18.43,32.01-29.15,10.29-11.35,19.45-23.75,27.27-36.93,6.49-10.94,12.04-22.42,16.66-34.27,3.47-8.87,6.39-17.95,8.74-27.18.23-.9.45-1.8.67-2.71.76-3.13-4.06-4.46-4.82-1.33h0Z"/><path class="cls-3" d="M439.14,113.55c-4.34,17.39-11.37,34.01-20.73,49.3s-20.88,29.03-34.24,40.87c-7.52,6.66-15.6,12.64-24.16,17.89-2.74,1.68-.23,6.01,2.52,4.32,15.67-9.62,29.84-21.68,41.89-35.57s21.95-29.33,29.36-46.03c4.22-9.51,7.66-19.35,10.18-29.45.78-3.12-4.04-4.45-4.82-1.33h0Z"/><path class="cls-3" d="M412.4,123.57c-7.62,20.79-20.14,39.71-36.17,54.97-4.51,4.3-9.3,8.31-14.34,11.97-1.09.79-1.63,2.17-.9,3.42.63,1.08,2.32,1.7,3.42.9,18.71-13.61,34.22-31.5,44.91-52.03,3.02-5.79,5.64-11.78,7.89-17.91.46-1.27-.52-2.74-1.75-3.08-1.39-.38-2.61.47-3.08,1.75h0Z"/><path class="cls-3" d="M583.86,207c-8.14-21.73-21.4-41.43-38.5-57.13-18.11-16.63-40.36-28.46-64.24-34.3-13.8-3.37-28.09-4.78-42.28-4.08-3.2.16-3.22,5.16,0,5,24.34-1.21,48.92,3.89,70.75,14.77,20.42,10.17,38.23,25.34,51.57,43.84,7.38,10.23,13.45,21.41,17.87,33.22.47,1.26,1.69,2.13,3.08,1.75,1.21-.33,2.22-1.8,1.75-3.08h0Z"/><path class="cls-3" d="M580.31,247.58c-4.11-9.03-8.92-17.73-14.35-26.03-8.37-12.78-18.19-24.64-29.26-35.18-14.26-13.58-30.58-25.03-48.24-33.75-16.38-8.09-33.87-13.9-51.84-17.21-11.96-2.2-24.13-3.37-36.3-3.34-.93,0-1.87.01-2.8.03-3.21.05-3.22,5.05,0,5,10.86-.17,21.87.58,32.47,2.24,16.98,2.65,33.68,7.48,49.37,14.51,18.02,8.07,34.79,18.9,49.49,32.08,11.47,10.28,21.71,21.93,30.43,34.63,5.93,8.64,11.18,17.74,15.64,27.22.36.78.72,1.55,1.08,2.33.56,1.23,2.34,1.53,3.42.9,1.26-.74,1.46-2.19.9-3.42h0Z"/><path class="cls-3" d="M565.28,274.44c-10.51-10.2-21.41-19.98-32.68-29.32s-22.87-18.22-34.8-26.65-24.17-16.37-36.72-23.83c-12.53-7.45-25.35-14.41-38.42-20.85-13.12-6.47-26.5-12.41-40.1-17.82-1.66-.66-3.32-1.31-4.98-1.95-1.26-.49-2.74.54-3.08,1.75-.39,1.41.48,2.59,1.75,3.08,13.37,5.18,26.53,10.89,39.45,17.12s25.75,13.04,38.23,20.29,24.7,15.02,36.59,23.23,23.5,16.91,34.72,26.05,22.13,18.73,32.62,28.73c1.3,1.24,2.59,2.48,3.88,3.73,2.31,2.24,5.85-1.29,3.54-3.54h0Z"/><path class="cls-3" d="M547.29,298.89c-13.61-3.82-27-8.4-40.1-13.72-12.96-5.27-25.62-11.29-37.91-17.98s-24.23-14.07-35.7-22.09-22.24-16.5-32.6-25.68c-10.36-9.17-20.19-18.94-29.4-29.26-1.16-1.3-2.31-2.61-3.45-3.92-.88-1.02-2.63-.91-3.54,0-1.01,1.01-.89,2.51,0,3.54,9.14,10.55,18.91,20.55,29.24,29.94s21.35,18.31,32.75,26.53,23.39,15.87,35.71,22.79,25.03,13.15,38.05,18.66c13.21,5.59,26.72,10.46,40.48,14.53,1.71.51,3.43,1,5.15,1.48,3.1.87,4.43-3.95,1.33-4.82h0Z"/><path class="cls-3" d="M504.29,322.98c-12.15-.57-24.17-2.8-35.71-6.61s-21.6-8.92-31.55-15.06-19.21-13-28.37-20.1c-8.66-6.72-17.48-13.38-25.51-20.86s-15.86-16.73-19.6-27.64c-.44-1.28-1.72-2.12-3.08-1.75-1.24.34-2.19,1.79-1.75,3.08,7.2,21.04,26.04,34.78,42.85,47.94,19,14.87,38.67,29.37,61.51,37.76,13.2,4.85,27.15,7.59,41.2,8.24,3.22.15,3.21-4.85,0-5h0Z"/></g></svg>