<?xml version="1.0" encoding="UTF-8"?><svg id="Layer_2" xmlns="http://www.w3.org/2000/svg" width="776.55" height="570.17" viewBox="0 0 776.55 570.17"><defs><style>.cls-1{fill:#fdb831;}.cls-1,.cls-2,.cls-3,.cls-4{stroke-width:0px;}.cls-3{fill:#fff;}.cls-4{fill:#231f20;}</style></defs><g id="Layer_9"><path class="cls-1" d="M2.5,3.09c4.3,93.72,6.09,176.61,6.64,246.27.57,71.27-.12,133.75-1.16,184.47-1.03,50.31-2.52,94.5-4,130.92,98.38-3.61,185.38-5.01,258.38-5.34,147.77-.67,221.65-1.01,277.85,3.49,23,1.84,70.16,6.1,134.72,4.76,42.98-.89,78.23-3.95,101.61-6.44-.72-185.97-1.44-371.94-2.16-557.91C634.46.95,494.52-.15,354.58.02,237.21.15,119.85,1.18,2.5,3.09Z"/><path class="cls-3" d="M415.4,92.65c17.11,1.95,44.02,7.29,72.7,23.14,60.91,33.67,84.04,89.47,88.34,100.4,6.44,16.35,18.53,53.52,11.66,100.32-12.1,82.49-73.12,127.01-81.54,132.94-11.41,8.04-61.88,41.79-132.31,35.06-16.45-1.57-61.09-7.94-103.7-41.86-61.97-49.32-71.59-118.66-73.04-130.44-7.11-58.11,14.02-102.1,21.76-116.59,5.27-9.88,37-67.17,106.82-92.53,38.65-14.04,72.59-12.35,89.31-10.44Z"/><g id="Layer_8"><path class="cls-4" d="M393.09,487.91c-110.01,0-199.51-89.5-199.51-199.51s89.5-199.51,199.51-199.51,199.51,89.5,199.51,199.51-89.5,199.51-199.51,199.51ZM393.09,93.9c-107.25,0-194.51,87.25-194.51,194.51s87.25,194.51,194.51,194.51,194.51-87.25,194.51-194.51-87.25-194.51-194.51-194.51Z"/><ellipse class="cls-2" cx="450.44" cy="251.62" rx="10.92" ry="28.97"/><ellipse class="cls-2" cx="329.1" cy="251.62" rx="10.92" ry="28.97"/><path class="cls-4" d="M390.99,398.68c-21.83,0-43.23-6.02-61.98-17.44-19.1-11.63-34.53-28.32-44.61-48.25l4.46-2.26c19.58,38.68,60.13,63.37,103.31,62.94,42.83-.44,81.51-24.56,100.94-62.94l4.46,2.26c-20.27,40.05-60.64,65.22-105.35,65.68-.41,0-.82,0-1.23,0Z"/><path class="cls-4" d="M0,3.09c3.35,73.04,5.48,146.14,6.37,219.26.89,73.11.54,146.24-1.05,219.35-.89,41.03-2.17,82.05-3.84,123.05-.13,3.22,4.87,3.21,5,0,2.97-73.06,4.71-146.17,5.21-219.29.5-73.12-.24-146.25-2.21-219.34C8.39,85.09,6.89,44.08,5,3.09,4.86-.12-.14-.14,0,3.09H0Z"/><path class="cls-4" d="M765.1,560.51c-48.8,6.72-98.21,4.88-147.27,2.82-49.08-2.07-98.16-3.75-147.27-4.86-98.35-2.21-196.75-2.34-295.1-.39-55.2,1.09-110.39,2.85-165.54,5.24-3.21.14-3.22,5.14,0,5,98.78-4.29,197.66-6.5,296.53-6.61,98.88-.1,197.76,1.89,296.55,5.99,54.48,2.26,109.21,5.09,163.43-2.37,3.17-.44,1.82-5.26-1.33-4.82h0Z"/></g></g></svg>