<?xml version="1.0" encoding="UTF-8"?><svg id="Layer_2" xmlns="http://www.w3.org/2000/svg" width="628.41" height="636.83" viewBox="0 0 628.41 636.83"><defs><style>.cls-1{fill:#fdb94c;}.cls-1,.cls-2,.cls-3,.cls-4,.cls-5,.cls-6{stroke-width:0px;}.cls-2{fill:#f15b65;}.cls-3{fill:#231f20;}.cls-4{fill:#3c2415;}.cls-5{fill:#b55c27;}.cls-6{fill:#381f15;}</style></defs><g id="Layer_5"><path class="cls-5" d="M364.61,87.93c13.05,7.24,26.18,14.61,39.37,22.11,20.5,11.66,40.63,23.35,60.4,35.06,2.85,10.53,5.71,21.05,8.56,31.58,2.07,1.01,5.31,2.23,9.27,2.19,4.72-.05,8.13-1.87,8.8-2.16,4.63-2.01,18.67,8.11,58.94,58.85-8.95,6.61-16.66,11.98-22.49,15.94-29.15,19.79-40.21,24-45.97,20.13-2.08-1.4-1.98-2.84-4.01-3.53-7.98-2.7-21.32,15.54-24.84,21.26-8.55,13.91-24.62,32.63-57.69,54.18-21.32-22.32-42.57-45.91-63.61-70.84-3.56-4.22-7.09-8.44-10.57-12.66-9.81,6.43-19.63,12.86-29.44,19.29-3.26-15.92-8.87-26.99-13.45-34.2-6.54-10.3-12.94-15.83-15.02-26.93-1.63-8.65.19-16.29,1.94-21.34,1.04.95,2.66,2.24,4.89,3.23,10.65,4.78,23.08-2.42,33.44-8.09,10.33-5.66,25.25-13.44,45.3-22.65-5.14-4.95-10.28-9.9-15.43-14.85l2.97-45.43c4.91,2.86,9.82,5.72,14.73,8.58,6.74-8.67,7.69-15.27,7.27-19.75-.46-4.85-2.72-9.27-.79-10.99,1.56-1.39,4.93-.17,7.43,1Z"/><path class="cls-6" d="M611.65,84.7c.67,2.42,2.17,8.25,2.73,15.63.71,9.22-.3,16.9-1.35,22.17-3.13-5.23-6.26-10.47-9.4-15.7-2.31,4.26-6.2,10.28-12.5,16.09-5.48,5.06-10.92,8.26-14.98,10.23,2.12-8.51,3.94-15.34,5.17-19.89,2.17-8.03,3.4-11.41,3.97-16.89.67-6.53.09-11.97-.5-15.53-2.11,1.18-5.25,2.93-9.05,5.08-18.69,10.58-21.53,12.68-27.16,15-5.34,2.2-13.21,4.6-23.81,5.04,3.17-3.98,6.35-7.96,9.52-11.93-2.69,1.01-6.84,1.99-11.15.58-3.41-1.11-5.73-3.32-8.77-6.22-3.53-3.36-3.01-3.95-5.33-5.83-2.79-2.26-7.82-4.86-13.83-4.12-.79.1-7.02.95-11.51,6.24-5.57,6.55-4.34,15.02-3.63,19.94.56,3.85,1.45,10.04,6.59,15.1,3.5,3.45,7.44,4.86,9.65,5.47-11.18,6.42-22.37,12.85-33.55,19.27-7.69-7.5-17.04-15.5-28.27-23.14-4.9-3.34-9.7-6.3-14.33-8.93-.41-7.15-.81-14.31-1.22-21.46,1.83,1.23,4.63,2.95,8.28,4.59,4,1.8,6,2.69,7.55,2.16,3.61-1.25,3.35-8.21,4.76-15.82,1.51-8.12,2.91-6.18,10.81-25.71,4.69-11.58,6.9-16.35,11.33-25.89,1.24-2.68,3.58-7.54,8.63-10.25,2.07-1.11,3.94-1.51,7.01-2.16,6.63-1.4,8.7-.44,12.94-1.62,5.18-1.44,8.29-4.61,9.21-5.36,5.04-4.13,25.61-2.09,87.29,20.1,5.03,3.1,8.42,6.43,10.51,8.78,1.72,1.94,4.08,5.15,5.35,9.77,1.09,3.98.62,6.56.59,9.57-.08,9.58,4.53,11.49,8.43,25.64Z"/><path class="cls-3" d="M462.73,144.73l-.14-.13c-8.72-8.52-18.22-16.29-28.24-23.12-4.62-3.15-9.43-6.15-14.31-8.92l-.12-.07-1.26-22.1.42.28c2.59,1.74,5.37,3.28,8.25,4.57,3.93,1.77,5.91,2.65,7.37,2.15,2.54-.88,3.07-4.9,3.75-10,.24-1.81.49-3.68.85-5.63.8-4.32,1.58-5.83,3.29-9.14,1.52-2.94,3.81-7.39,7.54-16.62,4.69-11.6,6.91-16.38,11.33-25.9,1.14-2.45,3.51-7.56,8.74-10.36,2.1-1.13,3.97-1.52,7.07-2.18,3.43-.73,5.63-.82,7.57-.91,1.79-.08,3.33-.14,5.36-.71,4.51-1.26,7.44-3.84,8.69-4.95.17-.15.32-.28.43-.37,6.52-5.35,35.15,1.21,87.54,20.05,4.05,2.49,7.6,5.46,10.61,8.85,2.58,2.91,4.4,6.23,5.4,9.87.86,3.13.76,5.44.66,7.67-.03.65-.06,1.3-.06,1.97-.04,5.3,1.36,8.22,3.3,12.26,1.51,3.15,3.4,7.06,5.12,13.32,1.4,5.06,2.34,10.48,2.74,15.68.57,7.41.11,14.89-1.35,22.24l-.13.64-9.5-15.89c-3.25,5.91-7.4,11.21-12.34,15.77-4.48,4.14-9.54,7.6-15.04,10.27l-.48.23.13-.52c1.67-6.69,3.41-13.38,5.17-19.9.48-1.77.92-3.32,1.31-4.72,1.38-4.92,2.21-7.89,2.65-12.14.52-4.99.37-10.07-.44-15.11-2.1,1.17-5.12,2.86-8.73,4.91-6.13,3.47-10.64,6.08-13.93,7.98-6.88,3.98-9.46,5.47-13.26,7.03-7.29,3-15.33,4.7-23.89,5.06l-.55.02,9.32-11.68c-2.75.91-6.57,1.57-10.49.29-3.47-1.13-5.85-3.4-8.87-6.28-1.83-1.74-2.58-2.75-3.19-3.57-.57-.76-1.01-1.36-2.12-2.25-1.85-1.5-6.88-4.9-13.64-4.07-1.14.14-7.05,1.09-11.35,6.15-5.49,6.46-4.29,14.78-3.58,19.74.54,3.72,1.44,9.95,6.52,14.96,2.57,2.53,5.87,4.4,9.54,5.4l.58.16-34.24,19.66ZM420.42,112.19c4.84,2.76,9.63,5.74,14.22,8.88,9.98,6.8,19.46,14.55,28.17,23.04l32.88-18.88c-3.53-1.06-6.69-2.91-9.19-5.37-5.2-5.12-6.11-11.45-6.66-15.24-.73-5.05-1.95-13.51,3.69-20.14,4.43-5.2,10.5-6.18,11.67-6.33,6.94-.85,12.12,2.64,14.02,4.18,1.15.93,1.62,1.55,2.2,2.34.6.8,1.34,1.79,3.14,3.5,2.97,2.83,5.32,5.07,8.68,6.16,4.19,1.37,8.29.44,10.99-.58l.85-.32-9.75,12.21c8.3-.41,16.09-2.09,23.17-5,3.77-1.55,6.34-3.04,13.2-7,3.29-1.9,7.8-4.51,13.93-7.98,3.8-2.15,6.94-3.91,9.05-5.08l.31-.17.06.35c.86,5.2,1.03,10.44.5,15.6-.44,4.29-1.28,7.28-2.67,12.22-.39,1.39-.83,2.94-1.31,4.71-1.72,6.34-3.41,12.85-5.04,19.36,5.27-2.62,10.12-5.97,14.44-9.95,5-4.62,9.19-10.02,12.45-16.03l.21-.39,9.29,15.52c1.36-7.1,1.76-14.31,1.22-21.46-.4-5.17-1.34-10.55-2.73-15.58-1.71-6.21-3.58-10.1-5.09-13.23-1.97-4.1-3.39-7.06-3.35-12.48,0-.68.03-1.33.06-1.99.1-2.3.19-4.47-.65-7.52-.98-3.56-2.76-6.82-5.29-9.67-2.98-3.35-6.49-6.29-10.45-8.73-51.43-18.49-80.72-25.27-87.01-20.12-.11.09-.24.21-.41.36-1.28,1.13-4.27,3.77-8.88,5.05-2.09.58-3.66.65-5.47.73-1.92.08-4.1.18-7.49.89-3.06.65-4.91,1.04-6.94,2.13-5.08,2.72-7.4,7.73-8.52,10.13-4.42,9.51-6.63,14.29-11.32,25.88-3.74,9.25-6.04,13.71-7.56,16.66-1.68,3.27-2.45,4.76-3.24,9-.36,1.94-.61,3.8-.84,5.6-.7,5.27-1.25,9.43-4.08,10.41-1.64.57-3.68-.35-7.74-2.17-2.75-1.24-5.41-2.69-7.9-4.34l1.18,20.82Z"/><path class="cls-4" d="M327.7,265.05c6.33,7.23,28.92,33.06,50.43,58.07,3.64,4.22,9.48,11.03,16.82,20.44,7.49,9.59,13.19,17.58,17.11,23.21,14.1,20.23,19.73,30.69,36.58,56.98,19.6,30.6,29.4,45.9,34.61,52.5,2.92,3.7,13.58,16.99,21.03,32.36,3.53,7.29,4.83,10.11,4.83,10.12,6.64,14.52,6.1,16,9.74,20.63,1.33,1.69,2.57,2.99,3.24,5.39.93,3.39.39,7.86-2.16,10.79-3.02,3.47-5.78,1.25-10.79,4.31-3.3,2.02-5.8,6.2-10.79,14.56-3.05,5.11-3.12,5.88-4.48,6.75-4.84,3.11-13-.73-19.96-5.21-3.48-4.97-8.58-11.99-15.11-20.08-10.98-13.6-28.63-33.48-71.52-68.22-18.78-15.21-43.16-33.89-72.84-54.01-2.49,5.81-6.47,14.72-11.87,25.35-20.62,40.61-26.66,36.73-44.22,70.65-7.06,13.63-11.03,23.81-22.65,29.66-7.93,3.99-15.96,4.23-21.57,3.78-2.94-.25-7.26-.87-12.18-2.52-14.26-4.8-20.54-13.94-30.92-24.5-21.22-21.57-28.72-17.66-42.11-36.63-10.55-14.95-9.99-23.2-8.64-27.58.79-2.56,1.7-3.34,3.84-8.68,4.01-10.02,3.85-15.19,5.26-18.43,2.46-5.62,12.04-10.81,43.36-8.84,14.44,7.23,28.87,14.46,43.31,21.69,2.92-8.52,7.12-20.78,12.13-35.6,11.14-32.88,12.48-37.38,13.41-40.71,3.78-13.48,8.01-32.97,9.24-57.99,10.24-9.32,19.1-16.95,25.89-22.65,18.53-15.58,26.66-21.07,29.1-22.7,8.77-5.86,16.45-10.1,21.87-12.9Z"/><path class="cls-2" d="M550.67,138.35c2.44-3.63-4.13-13.64-8.09-12.94-3.01.53-6.79,7.65-3.24,12.13,3.08,3.88,9.66,3.29,11.33.81Z"/></g><g id="Layer_4"><path class="cls-3" d="M516.03,85.63c-4.4-4-9.66-7.45-15.66-8.3-5.24-.74-10.97.54-14.82,4.35-4.2,4.17-5.39,10.49-5.8,16.16-.44,6.15.42,12.6,3.5,18.02s7.86,9.29,13.74,10.51c1.57.32,2.24-2.08.66-2.41-4.65-.96-8.61-3.9-11.27-7.79-3.09-4.52-4.26-10.01-4.25-15.42s.7-11.02,3.62-15.4,7.87-5.96,12.76-5.7c6.02.33,11.4,3.82,15.74,7.76,1.19,1.08,2.96-.68,1.77-1.77h0Z"/><path class="cls-3" d="M493.43,124.37c-9.6,4.93-18.81,10.59-27.53,16.95-1.29.94-.04,3.11,1.26,2.16,8.72-6.36,17.93-12.02,27.53-16.95,1.43-.73.17-2.89-1.26-2.16h0Z"/><path class="cls-3" d="M474.17,177.32c-4.15-8.86-2.7-19.15-6.41-28.15-3.5-8.48-10.77-14.38-18.16-19.4-17.65-12-35.36-24.11-54.07-34.4-10.62-5.84-21.51-11.18-32.64-15.98-1.46-.63-2.74,1.52-1.26,2.16,19.56,8.44,38.24,18.6,56.17,30.1,8.9,5.71,17.65,11.65,26.44,17.53,7.57,5.07,15.61,10.25,20.07,18.49,5.16,9.56,3.13,21.13,7.72,30.92.68,1.46,2.84.19,2.16-1.26h0Z"/><path class="cls-3" d="M472.02,180.53c9.93,5.28,18.51-4.16,26.61-8.59,2.02-1.1,4.23-2.06,6.55-2.24,2.75-.21,5.54.49,8.07,1.51,5.31,2.14,9.86,5.76,15.14,7.97,12.37,5.18,25.81-1.33,34.35-10.54,9.77-10.54,13.29-24.74,16.36-38.37,1.63-7.22,3.81-14.25,5.78-21.38,1.96-7.12,3.58-14.55,3.01-21.97-.13-1.76-.39-3.52-.77-5.25-.34-1.57-2.75-.91-2.41.66,3.15,14.48-3.62,28.78-6.95,42.59-3.21,13.28-5.53,27.29-13.9,38.51-7.11,9.53-20.12,18.16-32.44,14.23-9.75-3.11-18.51-13.26-29.62-9.81-5.22,1.62-9.51,5.3-14.06,8.18s-9.44,5.02-14.47,2.35c-1.42-.75-2.68,1.4-1.26,2.16h0Z"/><path class="cls-3" d="M579.79,81.73c-11.62,10.31-25.84,17.55-40.98,20.99-4.29.97-8.63,1.63-13.01,1.97l1.08,1.88c2.96-4.01,6.08-7.9,9.33-11.68.85-.99.02-2.29-1.22-2.09-6.26,1.03-15.35,2.07-18.51-5.07-.65-1.47-2.81-.2-2.16,1.26,1.45,3.27,4.56,5.43,7.92,6.42,4.37,1.29,9.01.52,13.41-.21l-1.22-2.09c-3.39,3.94-6.63,8.01-9.72,12.19-.55.74.19,1.95,1.08,1.88,15.99-1.25,31.57-6.57,44.97-15.4,3.79-2.5,7.4-5.28,10.79-8.29,1.21-1.07-.57-2.83-1.77-1.77h0Z"/><path class="cls-3" d="M602.43,49.15c-3.2,9.92,3.01,19.43,6.5,28.34,3.76,9.58,5.61,19.86,5.47,30.14-.08,5.83-.81,11.63-2.17,17.3l2.28-.3c-3.32-5.84-6.22-11.91-8.66-18.17-.37-.95-1.71-1.3-2.28-.3-5.59,9.82-13.49,18.19-23.01,24.29-1.35.87-.1,3.03,1.26,2.16,9.87-6.33,18.11-14.99,23.91-25.19l-2.28-.3c2.51,6.47,5.48,12.74,8.91,18.77.52.91,2.03.75,2.28-.3,2.37-9.91,2.87-20.19,1.49-30.29-.69-5.07-1.85-10.08-3.49-14.93s-3.95-9.43-5.86-14.17c-2.1-5.21-3.73-10.85-1.93-16.39.5-1.53-1.92-2.19-2.41-.66h0Z"/><path class="cls-3" d="M604.77,48.09c-5.46-13.99-20.02-20.98-32.89-26.72-16.21-7.24-33.02-13.12-50.21-17.52-4.31-1.1-8.64-2.12-13-3.04-3.32-.7-7.05-1.42-10.27.08-3.41,1.59-3.9,5.48-6.6,7.75s-6.26,2.64-9.52,2.56c-4.14-.11-8.18-1.25-12.3-1.54-2.08-.15-4.19-.07-6.24.4-1.15.26-1.37.64-1.82,1.69s-.91,2.18-1.35,3.27c-3.4,8.29-6.54,16.68-9.42,25.16-5.76,16.96-10.48,34.28-14.11,51.82-.45,2.15-.87,4.31-1.29,6.47l1.54-.87c-6.01-1.16-11.67-3.72-16.44-7.57-.81-.66-2.12-.28-2.13.88-.05,6.29.69,12.55,2.2,18.66.38,1.56,2.8.9,2.41-.66-1.45-5.9-2.15-11.92-2.11-17.99l-2.13.88c5.11,4.13,11.09,6.97,17.55,8.22.62.12,1.4-.17,1.54-.87,4.47-23.3,10.82-46.24,19.01-68.51,2.33-6.34,4.81-12.63,7.43-18.85l-.87.87c9.4-2.46,20.16,4.7,28.91-1.5,1.82-1.29,2.91-2.99,3.98-4.9,1.22-2.18,2.74-3.5,5.31-3.68s4.85.41,7.21.92c2.75.59,5.49,1.22,8.22,1.88,11.07,2.7,22,6,32.71,9.89,10.31,3.74,20.58,7.9,30.33,12.93,8.96,4.63,18.15,10.83,21.96,20.6.58,1.48,3,.84,2.41-.66h0Z"/><path class="cls-3" d="M552.62,122.06c3.87-1.2,7.87-.47,11.54,1.07,1.88.79,3.67,1.79,5.38,2.89,1.42.92,3.17,2.14,3.27,4.01s-2.29,2.77-3.78,3.29c-1.7.59-3.48.87-5.28.85-3.51-.03-7.14-1.22-9.79-3.59-1.43-1.28-2.76-3.05-2.73-5.06.03-1.79,1.17-3.46,2.98-3.76,1.58-.27.91-2.67-.66-2.41-2.12.35-3.7,2.01-4.41,3.98s-.36,4.27.69,6.13c2.26,4.03,7.03,6.38,11.45,7.01,2.29.32,4.62.23,6.87-.3,2.08-.49,4.66-1.38,6.09-3.05s1.3-4.32.06-6.15c-1.37-2.01-3.65-3.3-5.73-4.46-5.02-2.79-10.93-4.64-16.61-2.87-1.53.48-.88,2.89.66,2.41h0Z"/><path class="cls-3" d="M571.17,128.82c-.57.9-1.16,1.79-1.79,2.65-.15.21-.31.42-.46.63-.08.1-.15.21-.24.31.06-.08.1-.13.02-.02-.04.05-.08.1-.12.15-.34.43-.69.85-1.06,1.25l1.96,1.51c.57-1,1.2-1.97,1.85-2.93.32-.47.64-.94.97-1.41.16-.24.33-.47.49-.71.02-.02.09-.16.11-.17l-.09.12.05-.05s.04-.04.06-.05c.05-.04.02-.02-.08.06-.12.09-.13.14-.35.18l-.96-.13h0c-.19-.25-.38-.5-.57-.74,0,0-.08-.74.1-.86-.01,0-.04.08-.05.09-.04.08-.09.15-.14.23-.08.13-.17.26-.24.4-.29.59-.18,1.38.45,1.71.56.3,1.4.18,1.71-.45.23-.48.63-.88.63-1.46,0-1.01-1.13-1.57-1.96-1.05-.47.29-.75.78-1.05,1.22-1.06,1.54-2.14,3.08-3.07,4.71-.31.54-.17,1.23.32,1.61s1.22.37,1.64-.1c1.52-1.69,2.81-3.57,4.04-5.48.35-.55.13-1.4-.45-1.71-.62-.33-1.33-.14-1.71.45h0Z"/><path class="cls-3" d="M548.89,125.62c-1.08.36-2.16.72-3.24,1.08-.31.1-.54.44-.44.77.1.31.44.55.77.44,1.08-.36,2.16-.72,3.24-1.08.31-.1.54-.44.44-.77-.1-.31-.44-.55-.77-.44h0Z"/><path class="cls-3" d="M550.52,129.43l-3.24,1.06c-.31.1-.54.44-.44.77.1.31.44.55.77.44l3.24-1.06c.31-.1.54-.44.44-.77-.1-.31-.44-.55-.77-.44h0Z"/><path class="cls-3" d="M561.94,162.76c-.5-2.64-1.73-5.09-3.57-7.05-1.67-1.78-4.21-3.73-6.8-2.99s-4.19,3.29-5.21,5.48-1.61,4.81-1.59,7.33c.03,2.94.83,5.82,2.35,8.33.42.69,1.5.06,1.08-.63-2.96-4.87-2.9-11.31.18-16.11.81-1.26,1.9-2.66,3.37-3.16,1.68-.56,3.35.51,4.59,1.55,2.31,1.94,3.83,4.63,4.38,7.58.15.79,1.35.46,1.21-.33h0Z"/><path class="cls-3" d="M578.8,103.74c-3.02-4.26-9.56-5.38-13.74-2.16-.63.48,0,1.57.63,1.08,3.6-2.77,9.37-2.04,12.03,1.72.46.65,1.55.03,1.08-.63h0Z"/><path class="cls-3" d="M359.74,86c-2.55,10.09-5.2,20.15-7.94,30.18-1.37,5.02-2.77,10.03-4.19,15.03-.72,2.54-1.45,5.08-2.19,7.62-.64,2.21-1.2,4.5-2.17,6.59-2.12,4.61-6.44,7.01-10.74,9.28l1.88,1.08c1.54-13.97,2.5-28,2.88-42.06.04-1.61-2.46-1.61-2.5,0-.38,14.05-1.34,28.08-2.88,42.06-.11,1,1.13,1.48,1.88,1.08,3.77-1.99,7.62-4.12,10.17-7.64,2.79-3.86,3.69-9.05,4.98-13.53,2.98-10.4,5.86-20.82,8.63-31.28,1.56-5.91,3.09-11.82,4.59-17.74.39-1.56-2.02-2.23-2.41-.66h0Z"/><path class="cls-3" d="M368.38,84.86c1.61,0,1.61-2.5,0-2.5s-1.61,2.5,0,2.5h0Z"/><path class="cls-3" d="M229.03,86.88c17.93-4.77,35.96-9.19,54.07-13.23,8.8-1.97,17.74-3.89,26.82-3.32,8.19.52,16.15,3.01,23.6,6.38,8.54,3.87,16.52,8.84,24.43,13.83,1.37.86,2.62-1.3,1.26-2.16-14-8.83-28.74-17.97-45.47-20.17-8.94-1.18-17.84.14-26.6,2-9.28,1.97-18.52,4.16-27.74,6.39-10.37,2.51-20.72,5.13-31.03,7.88-1.55.41-.89,2.83.66,2.41h0Z"/><path class="cls-3" d="M214.36,104.96c20-3.32,40.12-6.64,60.45-6.76,17.54-.1,35.21,2.33,51.54,8.95,8.86,3.59,17.23,8.48,24.52,14.68,1.22,1.04,3-.72,1.77-1.77-13.26-11.27-29.64-18.14-46.6-21.54-19.08-3.83-38.68-3.28-57.92-1.08-11.53,1.32-22.98,3.21-34.43,5.11-1.58.26-.91,2.67.66,2.41h0Z"/><path class="cls-3" d="M170.7,91.22c9.97.14,19.94.28,29.91.41,8.61.12,17.51.12,25.41-3.79,1.44-.71.18-2.87-1.26-2.16-7.76,3.85-16.69,3.55-25.13,3.43-9.64-.13-19.28-.27-28.93-.4-1.61-.02-1.61,2.48,0,2.5h0Z"/><path class="cls-3" d="M164.8,89.03c-7.62-1.4-14.01,3.9-19.12,8.87-2.41,2.35-5.39,5.31-4.91,9,.19,1.47.91,2.9,2.06,3.86,1.04.87,2.76,1.51,4.02.76,1-.59,1.9-1.51,2.81-2.23,1.02-.81,2.05-1.62,3.08-2.43,2.05-1.62,4.11-3.23,6.17-4.84l-1.77-1.77c-2.23,2.56-5.53,3.76-8.1,5.91-2.97,2.49-3.9,6.09-3.53,9.85.4,4.01,1.31,8.3,2.88,12.02,1.47,3.51,3.99,6.55,7.64,7.89,1.72.63,3.62.74,5.38.25,2.05-.56,3.83-1.82,5.99-2.07,4.37-.52,8.56,1.74,12.35,3.58,1.95.95,4.04,1.86,6.24,1.87s3.98-1.05,5.7-2.31c3.85-2.83,7.69-5.67,11.52-8.53,1.69-1.26,3.35-2.57,4.6-4.28s1.81-3.63,2.06-5.67c.5-4.07-.59-8.72,1.82-12.32.9-1.34-1.27-2.59-2.16-1.26-3.94,5.88.35,13.95-4.96,19.2-2.89,2.85-6.54,5.09-9.79,7.5-1.73,1.28-3.44,2.61-5.21,3.84-1.89,1.31-3.66,1.62-5.87.93-1.99-.62-3.82-1.71-5.71-2.57-1.79-.82-3.63-1.58-5.55-2.04s-3.74-.62-5.62-.35-3.5,1.17-5.28,1.83c-3.45,1.27-6.96-.47-9.08-3.28-2.35-3.11-3.11-7.16-3.88-10.89-.8-3.87-1.36-8.15,1.86-11.08,2.62-2.38,6.12-3.53,8.48-6.24,1.08-1.24-.52-2.74-1.77-1.77-3.99,3.12-7.97,6.25-11.93,9.39l.88-.37c-2.73.31-3.28-3.17-2.4-5.07,1.14-2.47,3.57-4.44,5.54-6.24,3.98-3.65,9.15-7.59,14.9-6.53,1.57.29,2.25-2.12.66-2.41h0Z"/><path class="cls-3" d="M333.07,157.86c2.97,2.39,5.95,4.77,8.92,7.16.53.42,1.25.51,1.77,0,.44-.44.53-1.34,0-1.77-2.97-2.39-5.95-4.77-8.92-7.16-.53-.42-1.25-.51-1.77,0-.44.44-.53,1.34,0,1.77h0Z"/><path class="cls-3" d="M273.6,212.25c12.52,11.35,23.91,23.85,34.93,36.64s21.76,25.92,33.03,38.54c11.55,12.93,24.04,24.96,35.72,37.77,6,6.57,11.69,13.4,16.97,20.56,5.24,7.11,10.13,14.47,14.9,21.9,9.99,15.57,19.78,31.27,29.65,46.92,1.24,1.97,2.49,3.95,3.73,5.92.86,1.36,3.02.1,2.16-1.26-9.98-15.82-19.93-31.65-29.95-47.45-9.46-14.92-19.26-29.61-30.87-42.96-11.54-13.25-24.29-25.37-36.15-38.32-11.43-12.48-22.19-25.55-33.16-38.42-11-12.9-22.24-25.64-34.56-37.32-1.53-1.45-3.07-2.87-4.63-4.29-1.19-1.08-2.96.68-1.77,1.77h0Z"/><path class="cls-3" d="M263.87,199.21c-1.82,6.59-2.54,13.45-2.12,20.27.1,1.6,2.6,1.61,2.5,0-.42-6.62.26-13.22,2.03-19.61.43-1.55-1.98-2.22-2.41-.66h0Z"/><path class="cls-3" d="M261.32,221.52c1.51,3.76,3.71,7.1,6.02,10.41s4.56,6.66,6.67,10.1c4.26,6.97,8.02,14.24,11.25,21.75,1.85,4.31,3.51,8.7,4.99,13.14.51,1.52,2.92.87,2.41-.66-5.17-15.46-12.49-30.18-21.77-43.59-2.62-3.78-5.44-7.51-7.16-11.81-.59-1.47-3.01-.83-2.41.66h0Z"/><path class="cls-3" d="M490.83,179.19c9.84,3.58,17.58,11.74,24.85,18.95,7.78,7.72,15.15,15.87,22.04,24.39,3.93,4.86,7.69,9.84,11.3,14.93.92,1.3,3.09.05,2.16-1.26-6.53-9.21-13.57-18.07-21.09-26.5s-15.27-16.49-23.77-23.74c-4.46-3.8-9.28-7.16-14.82-9.18-1.51-.55-2.17,1.86-.66,2.41h0Z"/><path class="cls-3" d="M547.01,237.96c-7.74,6.71-16.62,11.91-25.55,16.85-4.75,2.63-9.53,5.23-14.29,7.85s-9.48,5.68-14.56,7.6c-4.62,1.74-10.43,2.16-14.1-1.76-1.1-1.18-2.87.59-1.77,1.77,3.12,3.33,7.87,4.25,12.24,3.57,5.47-.85,10.37-4.04,15.13-6.65,10-5.49,20.19-10.74,29.89-16.75,5.18-3.2,10.17-6.71,14.77-10.7,1.22-1.06-.56-2.82-1.77-1.77h0Z"/><path class="cls-3" d="M483.99,263.66c-6.89,1.19-12.74,5.21-17.71,9.97-5.48,5.25-10.13,11.33-15.14,17.01-10.99,12.46-22.75,24.25-35.17,35.29-7.09,6.3-14.4,12.35-21.92,18.14-1.26.97-.01,3.14,1.26,2.16,13.07-10.07,25.55-20.89,37.33-32.45,5.93-5.82,11.68-11.82,17.25-17.99,5.14-5.7,9.91-11.74,15.15-17.34s11.64-11.01,19.61-12.38c1.58-.27.91-2.68-.66-2.41h0Z"/><path class="cls-3" d="M341.41,166.3c-20.62,7.98-41.24,15.96-61.86,23.94-2.9,1.12-5.8,2.23-8.69,3.36-2.43.96-4.76,2.01-6.8,3.66-1.25,1.01.53,2.77,1.77,1.77,1.85-1.49,4.09-2.39,6.29-3.25,2.47-.96,4.94-1.91,7.4-2.87,5.04-1.95,10.08-3.9,15.12-5.85,10.08-3.9,20.15-7.8,30.23-11.7,5.74-2.22,11.47-4.44,17.21-6.66,1.48-.57.84-2.99-.66-2.41h0Z"/><path class="cls-3" d="M546.45,243.17c-.06,2.39,7.73,6.32,12.19,3.71,1.91-1.12,2.98-3.14,3.83-5.1,1.09-2.52,2.1-5.07,3.05-7.64,1.92-5.19,3.56-10.48,4.92-15.85.69-2.72,1.32-5.46,1.85-8.21.49-2.55.63-4.99-.37-7.44-1.15-2.81-2.85-5.45-4.35-8.08-.1-.18-1.73-2.99-4.97-8.61-3.18-5.51-4.55-8-4.64-7.95-.2.11,4.67,13.19,10.06,22.48.56.97,2.32,3.27,2.19,6.5-.11,2.5-.84,5.04-1.41,7.47-1.09,4.71-2.4,9.37-3.91,13.95-1.5,4.54-3.06,9.24-5.22,13.51-1.07,2.11-2.7,3.73-5.24,3.26-3.31-.61-4.3-4.03-6.22-3.76-.87.12-1.75.98-1.77,1.77Z"/><path class="cls-3" d="M597.43,163.35c4.13,7.06,3.72,14.53,3.55,16.8-.42,5.92-2.76,11.12-5.9,16.08-3.16,4.98-6.62,9.78-8.3,15.51-1.76,6.01-1.93,12.37-2.55,18.56-1.25,12.59-3.32,25.19-7.51,37.17-1.8,5.14-3.8,10.9-7.64,14.91-4.12,4.29-10.06,4.71-15.46,2.79-3.18-1.14-6.06-3.04-8.76-5.03-3.03-2.23-5.96-4.61-8.93-6.93-6.09-4.76-12.17-9.51-18.26-14.27-1.25-.98-3.03.78-1.77,1.77,5.76,4.5,11.52,9,17.28,13.5,5.13,4.01,10.17,8.57,15.94,11.65,5.12,2.73,11.38,4.1,16.9,1.71,5.11-2.21,8.12-7.28,10.26-12.17,5.3-12.11,8.03-25.14,9.68-38.2.83-6.6,1.04-13.31,2.13-19.88.54-3.29,1.41-6.53,2.88-9.54,1.33-2.72,3-5.26,4.65-7.8,3.75-5.74,6.91-11.47,7.71-18.38.21-1.82,1.6-11.13-3.76-19.51-6.94-10.84-20.42-12.8-20.6-12.41-.17.37,12.2,3.01,18.44,13.67Z"/><path class="cls-3" d="M496.73,92.88c1.8,3.5,3.29,7.14,4.46,10.9.14.45.28.9.41,1.35.1.33.16,1.11.38,1.36.02.29.09.27.22-.06.26-.23.24-.32-.05-.26-.16-.09-.55-.02-.73-.03-.49-.02-.97-.05-1.46-.09-2.07-.15-4.14-.39-6.19-.73-.67-.11-1.35.17-1.54.87-.16.6.2,1.43.87,1.54,2.46.4,4.94.7,7.43.86,1.05.07,2.46.35,3.32-.43.96-.86.59-2.07.29-3.15-1.3-4.63-3.08-9.11-5.28-13.39-.73-1.43-2.89-.17-2.16,1.26h0Z"/><path class="cls-3" d="M604.73,122.37c-3.12-1.46-6.41-2.36-9.84-2.72-.67-.07-1.25.62-1.25,1.25,0,.73.58,1.18,1.25,1.25,2.96.31,5.89,1.12,8.58,2.38.61.29,1.35.17,1.71-.45.32-.54.17-1.42-.45-1.71h0Z"/><path class="cls-3" d="M440.79,420.65c14.17,19.13,28.35,38.25,42.51,57.38,6.22,8.4,12.41,16.87,17.56,25.99,2.55,4.51,4.84,9.18,6.69,14.03,1.72,4.53,2.64,9.32,4.44,13.81.89,2.23,2.04,4.38,3.77,6.07.87.85,1.88,1.5,2.89,2.18.94.63,1.99,1.37,2.19,2.57.32,1.92-1.14,3.93-1.88,5.59-.82,1.83-1.46,3.83-.67,5.79.6,1.47,3.01.83,2.41-.66-.68-1.69.14-3.32.88-4.84.78-1.62,1.67-3.28,1.78-5.11.12-2.03-.98-3.67-2.55-4.85-1.84-1.39-3.62-2.42-4.9-4.41-2.55-3.97-3.26-8.89-4.72-13.3-1.63-4.92-3.71-9.69-6.1-14.28-4.85-9.35-10.94-17.99-17.16-26.47-6.97-9.49-14.01-18.92-21.01-28.38-7.99-10.79-15.98-21.57-23.97-32.36-.95-1.28-3.12-.03-2.16,1.26h0Z"/><path class="cls-3" d="M516.69,554.93c-7.54,1.08-14.27,5.94-18.11,12.46-.94,1.6-1.71,3.32-2.28,5.09-.27.84-.48,1.69-.65,2.55s-.44,1.79-.44,2.64c-.01,3.01,4.35,4.99,6.4,2.61,2.48-2.89-1.91-7.43-4.94-5.28-1.3.92-.05,3.09,1.26,2.16.71-.5,2.16.35,1.89,1.28-.29,1-2.01.06-2.11-.66-.07-.59.23-1.49.35-2.08.15-.75.33-1.5.55-2.24.51-1.69,1.23-3.29,2.12-4.81,3.54-6.02,9.68-10.32,16.62-11.31,1.59-.23.91-2.64-.66-2.41h0Z"/><path class="cls-3" d="M255.61,330.27c5.71,22.06,11.59,44.61,23.63,64.21,6.17,10.05,14.02,18.85,22.54,26.95,8.02,7.63,16.49,14.81,25.03,21.85,16.61,13.69,33.78,26.68,50.75,39.9,16.88,13.15,33.6,26.54,49.3,41.08,15.61,14.45,30.22,30.08,42.59,47.43,1.53,2.14,3.02,4.31,4.48,6.5.4.59,1.07.76,1.71.45,3.38-1.64,7.41-1.7,10.83-.14,1.45.66,2.72-1.49,1.26-2.16-4.3-1.97-9.09-1.93-13.35.14l1.71.45c-11.75-17.64-25.79-33.63-41.02-48.34-15.37-14.85-31.89-28.43-48.67-41.64-16.91-13.31-34.12-26.25-50.88-39.77-8.38-6.76-16.66-13.67-24.7-20.84-8.83-7.87-17.44-16.16-24.47-25.73-13.6-18.54-20.39-40.85-26.2-62.81-.72-2.73-1.43-5.47-2.14-8.21-.4-1.56-2.81-.9-2.41.66h0Z"/><path class="cls-3" d="M315.02,262.74c-18.01,12.07-35.57,24.8-52.64,38.17-4.87,3.81-9.7,7.68-14.49,11.6-1.25,1.02.53,2.78,1.77,1.77,16.68-13.64,33.86-26.66,51.5-39.02,5-3.5,10.04-6.95,15.11-10.35,1.33-.89.08-3.06-1.26-2.16h0Z"/><path class="cls-3" d="M242.52,323.09c-2.25,21.7-6.04,43.24-11.33,64.4s-12.26,41.7-20.24,61.97c-1.05,2.68-2.03,5.42-2.46,8.28s-.3,5.58.1,8.37c.83,5.83,2.82,11.49,2.69,17.44-.04,1.61,2.46,1.61,2.5,0,.12-5.19-1.31-10.21-2.29-15.26-.48-2.49-.84-5.01-.77-7.56.07-2.69.73-5.29,1.61-7.83,1.75-5.05,3.92-9.97,5.79-14.98s3.75-10.3,5.49-15.5c6.9-20.65,12.33-41.79,16.26-63.2,2.19-11.97,3.91-24.03,5.16-36.14.17-1.6-2.34-1.59-2.5,0h0Z"/><path class="cls-3" d="M311,436.09c-10.62,20.71-21.95,41.04-33.97,60.96-5.99,9.92-12.16,19.74-18.5,29.45-3.19,4.89-6.42,9.75-9.7,14.58-3.06,4.51-5.95,9.44-9.92,13.23-8.25,7.87-20.69,7.09-31.21,6.27-1.6-.12-1.6,2.38,0,2.5,9.55.74,20.18,1.36,28.73-3.76,4.51-2.7,7.64-6.89,10.58-11.15,3.39-4.92,6.73-9.88,10.04-14.87,13.06-19.73,25.42-39.92,37.05-60.53,6.59-11.68,12.94-23.49,19.06-35.42.73-1.43-1.42-2.7-2.16-1.26h0Z"/><path class="cls-3" d="M205.78,449.64c-8.39-4.25-16.78-8.5-25.17-12.76-3.9-1.98-7.8-4.15-12.02-5.38s-8.82-1.2-13.24-.79c-12.75,1.19-29.44,3.14-35.09,16.62-1.57,3.74-2.21,7.82-3.98,11.47s-4.27,6.77-4.05,10.92c.2,3.82,1.82,7.67,3.32,11.15s3.21,6.61,5.19,9.7c8.14,12.66,19.7,22.66,31.33,32.01,14.43,11.6,29.03,23.02,43.54,34.52,1.82,1.44,3.65,2.89,5.47,4.33,1.25.99,3.03-.77,1.77-1.77-14.32-11.35-28.64-22.69-42.96-34.04-11.47-9.09-23.13-18.29-32.31-29.79-4.4-5.52-8.17-11.65-10.69-18.26-1.38-3.62-2.99-7.68-1.56-11.51.69-1.85,1.83-3.51,2.74-5.26s1.54-3.41,2.11-5.19c1.16-3.63,2-7.4,4.15-10.61,1.71-2.55,4.12-4.54,6.79-6.04,5.62-3.16,12.23-4.31,18.55-5.11,4.09-.52,8.23-1.06,12.36-.88,4.45.19,8.47,1.65,12.43,3.59,8.09,3.97,16.09,8.14,24.13,12.21l5.96,3.02c1.43.73,2.7-1.43,1.26-2.16h0Z"/><path class="cls-3" d="M123.24,439.93c-7.66-4.06-14.94-8.83-21.69-14.27-1.24-1-3.02.76-1.77,1.77,6.92,5.58,14.34,10.5,22.2,14.66,1.42.75,2.69-1.4,1.26-2.16h0Z"/><path class="cls-3" d="M90.35,451.93c8.48,4.86,16.53,10.43,24.05,16.68,1.23,1.02,3.01-.74,1.77-1.77-7.68-6.38-15.89-12.1-24.56-17.07-1.4-.8-2.66,1.36-1.26,2.16h0Z"/><path class="cls-3" d="M515.83,561.73c2.97,5.63,7.2,10.48,12.31,14.26.54.4,1.4.09,1.71-.45.37-.64.1-1.31-.45-1.71-4.76-3.52-8.65-8.14-11.41-13.37-.75-1.42-2.91-.16-2.16,1.26h0Z"/><path class="cls-3" d="M529.65,573.39c-8.06,2.6-14.54,9.15-17.04,17.24-.48,1.54,1.94,2.2,2.41.66,2.24-7.24,8.08-13.17,15.3-15.5,1.52-.49.87-2.91-.66-2.41h0Z"/><path class="cls-3" d="M502.3,581.17c3.6,2.04,6.71,4.89,9.01,8.33.38.56,1.1.8,1.71.45.56-.33.83-1.15.45-1.71-2.54-3.79-5.93-6.97-9.91-9.22-1.4-.79-2.66,1.37-1.26,2.16h0Z"/><path class="cls-3" d="M513.32,593.31c4.33,8.24,8.94,16.33,13.84,24.24,2.28,3.68,4.45,7.64,7.29,10.91,2.59,2.98,6.4,5.07,10.42,4.05,1.56-.4.9-2.81-.66-2.41-4.09,1.04-7.37-2.32-9.48-5.37-2.35-3.4-4.5-6.95-6.65-10.48-4.44-7.26-8.63-14.67-12.59-22.21-.75-1.42-2.91-.16-2.16,1.26h0Z"/><path class="cls-3" d="M533.36,578.01c3.9,1.51,7.7,3.26,11.39,5.21,1.42.75,2.69-1.4,1.26-2.16-3.88-2.06-7.89-3.88-11.99-5.46-.63-.24-1.37.27-1.54.87-.19.71.24,1.29.87,1.54h0Z"/><path class="cls-3" d="M588.94,553.21c-14.62,7.91-28.71,16.77-42.19,26.5-1.29.93-.05,3.1,1.26,2.16,13.47-9.73,27.57-18.59,42.19-26.5,1.42-.77.15-2.93-1.26-2.16h0Z"/><path class="cls-3" d="M589.46,555.44c5.43-3.65,11.84-5.63,18.38-5.74,3.23-.05,6.44.33,9.55,1.19s6.56,2.14,8.89,4.57c1.12,1.16,2.88-.61,1.77-1.77-2.5-2.6-6.02-4.05-9.42-5.05s-6.89-1.47-10.39-1.45c-7.09.04-14.15,2.13-20.04,6.09-1.33.89-.08,3.06,1.26,2.16h0Z"/><path class="cls-3" d="M624.68,557.88c-7.63,12.38-11.72,26.97-21.03,38.3-2.32,2.82-4.95,5.4-7.94,7.5-3.3,2.32-6.93,4.1-10.49,5.98s-7.24,4.03-10.3,6.85c-3.21,2.96-5.75,6.55-8.63,9.81s-6.4,6.54-10.79,7.65c-3.65.93-8.15.09-10.45-3.12-.93-1.3-3.1-.05-2.16,1.26,2.11,2.94,5.4,4.47,8.97,4.68,3.92.24,7.68-1.32,10.78-3.63,3.56-2.65,6.3-6.11,9.11-9.5,2.9-3.51,5.97-6.65,9.85-9.08,3.65-2.29,7.57-4.08,11.31-6.21,3.45-1.97,6.66-4.29,9.48-7.1,5.38-5.38,9.24-12.05,12.61-18.81,3.89-7.8,7.24-15.9,11.83-23.34.85-1.37-1.32-2.63-2.16-1.26h0Z"/><path class="cls-3" d="M613.18,551.57c-5.85,2.95-11.73,5.96-16.92,10s-9.24,9.28-11.95,15.49-5.02,13.15-10.17,18.28c-4.83,4.81-10.82,8.25-15.69,13.02-5.38,5.28-9.44,11.78-11.92,18.89-.27.76.94,1.09,1.21.33,2.28-6.51,5.94-12.5,10.73-17.46,4.66-4.82,10.47-8.26,15.39-12.78,2.35-2.17,4.42-4.6,6.03-7.37s2.87-5.89,4.11-8.92c1.35-3.32,2.72-6.65,4.68-9.67,1.75-2.69,3.93-5.07,6.34-7.18,5.56-4.86,12.24-8.25,18.79-11.55.72-.36.09-1.44-.63-1.08h0Z"/><path class="cls-3" d="M602.23,553.73c-5.69,2.6-10.81,6.38-14.96,11.06s-6.8,10-9.32,15.61-5.18,11.41-10.09,15.36c-2.82,2.26-6.07,3.9-8.96,6.06-2.5,1.87-4.74,4.04-6.72,6.44-4.45,5.39-7.58,11.69-10.14,18.15-.3.75.91,1.07,1.21.33,2.35-5.94,5.22-11.78,9.19-16.82,1.93-2.45,4.12-4.71,6.59-6.64,2.71-2.12,5.78-3.71,8.55-5.74,10.01-7.35,11.62-20.69,19.06-30.06,4.32-5.45,9.91-9.79,16.23-12.68.73-.33.1-1.41-.63-1.08h0Z"/><path class="cls-3" d="M542.34,574.97c-.81-3.85-1.61-7.7-2.42-11.56-.19-.91-.42-1.82-.57-2.73-.09-.53,0-.81.53-.89.44-.07.96.04,1.41.05,1.65.02,3.29-.12,4.92-.38s3.36-.71,4.98-1.29c.71-.26,1.4-.56,2.09-.85.33-.14.69-.3,1.05-.32.56-.04.62.14.5.67-.37,1.65-1.14,3.31-1.77,4.88-.67,1.68-1.39,3.33-2.17,4.96-1.71,3.59-3.68,7.04-5.88,10.36-.45.67.64,1.3,1.08.63,2.34-3.53,4.42-7.22,6.21-11.05.83-1.79,1.61-3.61,2.32-5.46.37-.96.72-1.92,1.05-2.89.24-.71.7-1.6.43-2.37-.43-1.22-1.93-1.08-2.91-.72-1.89.7-3.66,1.48-5.63,1.93-2.12.48-4.29.7-6.46.66-1.33-.02-3.09-.17-3.06,1.67.02,1.08.41,2.23.63,3.29l.79,3.78,1.67,7.98c.16.79,1.37.45,1.21-.33h0Z"/><path class="cls-3" d="M546.35,569.45c1.46-1.91,2.53-4.11,3.15-6.43.08-.28-.06-.55-.29-.71-1.34-.93-3.29-.61-4.41.53-1.26,1.29-1.33,3.34-.52,4.88.38.71,1.45.08,1.08-.63-.55-1.04-.53-2.49.33-3.37.75-.77,2-.95,2.89-.34l-.29-.71c-.6,2.23-1.62,4.3-3.02,6.14-.2.27-.04.7.22.86.32.19.65.05.86-.22h0Z"/><path class="cls-3" d="M65.1,402.36c-5.62,1.93-11.46,4.05-16,8.01-2.22,1.94-3.97,4.32-5.1,7.05-1.37,3.31-1.9,6.93-3.45,10.17s-4.42,5.76-7.35,7.96-5.63,4.19-8.36,6.4c-5.45,4.42-10.62,9.43-14.09,15.6-3.65,6.47-5.42,14.14-3.53,21.45.2.78,1.41.45,1.21-.33-3.63-14.04,6.18-26.58,16.3-35,2.74-2.28,5.59-4.4,8.44-6.53,2.54-1.89,5.09-3.83,6.97-6.41,3.86-5.27,3.49-12.42,7.84-17.46s11.22-7.55,17.45-9.7c.76-.26.43-1.47-.33-1.21h0Z"/><path class="cls-3" d="M101.32,427.26c3.59-3.22-2.14-8.31-4.41-10.3-3.99-3.5-8.45-6.34-12.89-9.21s-9.07-5.91-13.39-9.17c-1.28-.97-2.53,1.2-1.26,2.16,6.13,4.64,12.73,8.56,19.08,12.88,3.49,2.37,7.06,4.97,9.82,8.2.58.68,1.18,1.44,1.49,2.29.26.7.26.96-.21,1.39-1.2,1.08.57,2.84,1.77,1.77h0Z"/><path class="cls-3" d="M5.16,487.63c-2.95-7.16-3.46-14.96-1.5-22.46,1.94-7.44,6.03-14.22,11.29-19.79,2.98-3.15,6.33-6.14,9.99-8.47,3.28-2.09,6.99-3.59,9.73-6.45,5.07-5.29,5.78-12.93,9.53-18.98,4.33-7,12.22-10.68,19.9-12.74,1.55-.42.89-2.83-.66-2.41-7.03,1.89-14.13,5.04-18.99,10.65-2.46,2.83-4.01,6.11-5.34,9.58s-2.51,7.12-4.65,10.24c-2.4,3.5-6.14,5.2-9.68,7.29s-7.1,5.05-10.15,8.07c-5.69,5.62-10.23,12.46-12.7,20.1-2.75,8.52-2.57,17.74.84,26.04.6,1.47,3.02.82,2.41-.66h0Z"/><path class="cls-3" d="M3.84,490.47c5.99,3.98,11.66-2.91,15.54-6.59,4.88-4.62,10.05-8.94,15.48-12.9,10.82-7.88,22.67-14.51,35.15-19.36,3.66-1.42,7.61-2.66,11.47-1.27,2.53.92,6.1,2.67,8.22.03,1-1.24-.76-3.02-1.77-1.77-.81,1.01-2,.66-3.09.32-1.45-.45-2.81-1.16-4.3-1.47-3.19-.66-6.46.05-9.48,1.1-6.03,2.1-11.9,4.9-17.55,7.86-11.31,5.92-21.9,13.22-31.49,21.64-2.67,2.35-5.22,4.81-7.76,7.29-2.32,2.26-5.86,5.13-9.16,2.94-1.34-.89-2.6,1.27-1.26,2.16h0Z"/><path class="cls-3" d="M67.61,457.5c.16,5.28.58,10.54,1.25,15.78.09.72.74,1.53,1.58,1.21,4.02-1.55,7.84-3.54,11.37-6,.53-.37.84-1.11.45-1.71-2.37-3.64-4.94-7.14-7.69-10.49-.43-.53-1.32-.44-1.77,0-.52.51-.43,1.25,0,1.77,2.62,3.19,5.05,6.52,7.3,9.98l.45-1.71c-3.35,2.34-6.96,4.28-10.78,5.75l1.58,1.21c-.67-5.24-1.09-10.5-1.25-15.78-.05-1.6-2.55-1.61-2.5,0h0Z"/><path class="cls-3" d="M61.35,461.72c-1.5,2.78-3.01,5.56-4.51,8.34-.15.27-.43.63-.5.93-.16.2-.13.23.09.1.21-.04.25-.07.12-.09-.05-.07-.34-.15-.42-.18-.71-.33-1.43-.66-2.14-.98-1.47-.67-2.94-1.35-4.4-2.02l.25,1.96c3.85-3.36,7.7-6.72,11.55-10.07,1.21-1.06-.56-2.82-1.77-1.77-3.85,3.36-7.7,6.72-11.55,10.07-.57.5-.45,1.64.25,1.96,1.67.77,3.33,1.53,5,2.3,1.52.7,3.68,2.17,4.98.32.47-.67.82-1.46,1.21-2.19l1.32-2.43c.9-1.66,1.8-3.32,2.69-4.98.77-1.42-1.39-2.68-2.16-1.26h0Z"/><path class="cls-3" d="M95.73,428.28c-5.61,3.24-8.98,9.81-8.26,16.26.09.79,1.34.8,1.25,0-.67-6.03,2.38-12.14,7.64-15.18.7-.4.07-1.48-.63-1.08h0Z"/><path class="cls-3" d="M361.05,79.78c-3.52.67-6.92,2.02-9.96,3.92-1.36.85-.11,3.02,1.26,2.16,2.87-1.8,6.03-3.04,9.36-3.67.66-.13,1.04-.92.87-1.54-.19-.69-.87-1-1.54-.87h0Z"/></g><g id="Layer_3"><path class="cls-1" d="M113.15,435.5c-1.81,1.41-4.4,3.8-6.2,7.43-3.77,7.6-.91,14.2-3.51,15.77-1.59.96-5.25.05-14.62-9.2-.65-2.17-1.7-6.85.1-12.01,2.07-5.94,7.66-11.83,11.75-10.96,1.83.39,2.04,1.85,5.47,4.67,2.74,2.24,5.34,3.56,7.01,4.3Z"/><path class="cls-1" d="M519.01,564.64c-1.79.58-5.53,2.08-8.79,5.72-3.98,4.44-4.8,9.36-5.01,11.19l8.6,9.43c.68-2.13,2.11-5.65,5.13-9.1,3.6-4.12,7.65-6.08,9.83-6.95-3.25-3.42-6.51-6.85-9.76-10.27Z"/></g></svg>