<?xml version="1.0" encoding="UTF-8"?><svg id="Layer_2" xmlns="http://www.w3.org/2000/svg" width="790.63" height="572.81" viewBox="0 0 790.63 572.81"><defs><style>.cls-1{fill:#fdb831;}.cls-1,.cls-2{stroke-width:0px;}.cls-2{fill:#231f20;}</style></defs><g id="Layer_9"><path class="cls-1" d="M5.56,0c9.74,104.42,9.34,185.2,6.89,241.36-5.98,137-6.88,152.94-6.88,152.94-1.37,24.28-3.35,56.58-3.16,100.72.12,29.42,1.16,53.74,2.08,70.38,258.66-.42,517.31-.84,775.97-1.25,5.85-111.84,8.72-229.28,7.63-351.84-.63-70.67-2.54-139.52-5.53-206.46C599.65,3.71,416.74,2.11,233.84,1.05"/><path class="cls-2" d="M780.15,12.22c3.3,72.27,6.38,144.54,5.39,216.9s-3.1,144.51-4.73,216.76c-.92,40.65-1.83,81.3-2.75,121.95-.07,3.22,4.93,3.22,5,0,1.63-72.43,3.27-144.86,4.9-217.28,1.63-72.16,3.81-144.29,1.95-216.46-1.05-40.64-2.91-81.25-4.76-121.86-.15-3.2-5.15-3.22-5,0h0Z"/><path class="cls-2" d="M769.03,567.17c-99.05-1.63-198.1-2.59-297.16-2.88-98.55-.29-197.11.09-295.66,1.12-55.59.58-111.18,1.38-166.77,2.39-3.21.06-3.22,5.06,0,5,99.04-1.79,198.1-2.92,297.16-3.37,98.55-.45,197.11-.24,295.66.63,55.59.49,111.18,1.2,166.77,2.11,3.22.05,3.22-4.95,0-5h0Z"/><path class="cls-2" d="M3.15,3.67c1.43,36.48,2.87,72.97,4.3,109.45,1.41,35.95,3.08,71.9,2.9,107.88-.35,72.23-6.2,144.26-8.96,216.4-1.55,40.61-2.1,81.27-.17,121.88.15,3.2,5.15,3.22,5,0-3.43-72.14,1.02-144.3,4.84-216.33,1.92-36.23,3.67-72.48,4.17-108.76.49-35.97-.85-71.87-2.26-107.8-1.61-40.91-3.22-81.81-4.83-122.72-.13-3.21-5.13-3.22-5,0h0Z"/><path class="cls-2" d="M776.38,3.13c-99.54.22-199.08.23-298.63.01-99.18-.22-198.36-.71-297.54-1.16-55.69-.26-111.38-.51-167.07-.77-3.22-.01-3.22,4.99,0,5,99.15.45,198.31.92,297.46,1.36,99.39.44,198.79.7,298.18.73,55.87.01,111.73-.05,167.6-.17,3.22,0,3.22-5.01,0-5h0Z"/><g id="Layer_8"><path class="cls-2" d="M114,295.93c-1.5-3.48-2.1-7.14-1.92-10.92.3-5.7,2.28-10.74,5.94-15.18,2.82-3.48,6.48-5.16,10.86-5.58,3.3-.24,5.76,1.26,7.86,3.54.72.78.72,1.86.12,2.64-.6.78-1.8,1.02-2.76.54-.48-.3-.84-.66-1.26-.96-2.76-2.1-5.52-1.26-8.22.06-1.38.6-2.46,1.56-3.3,2.7-4.86,6.12-6,13.02-3.48,20.4.84,2.4,2.22,4.56,4.14,6.42,3.54,3.24,9.12,2.34,11.22-2.28.9-1.86,1.56-5.16,1.44-7.38-1.86.12-3.6.6-5.4.84-1.02.18-2.04.48-3.12.48-1.32-.06-2.22-.78-2.4-1.86-.12-1.2.48-1.86,1.92-2.28,3.48-.96,7.02-1.32,10.5-1.86,1.2-.18,2.16.48,2.46,1.74.78,2.94.48,5.88-.24,8.76-.78,3.24-2.4,6.12-5.04,8.16-2.1,1.62-4.56,2.4-7.26,2.1-6.18-.78-9.78-4.68-12.06-10.08Z"/><path class="cls-2" d="M151.44,301.15c-.36-1.68-.18-3.42-.24-5.16-.18-4.44-.54-8.82-.72-13.26-.12-3.3-.18-6.6.06-9.9.06-.96.06-1.98.06-3,0-.96.48-1.62,1.44-1.86,3.24-.96,6.54-1.86,9.9-1.56,4.62.48,8.7,2.16,11.22,6.3,1.26,2.1,1.56,4.56.84,6.96-1.02,3.54-3.36,6-6.84,7.32l-2.22.9c2.1,2.64,4.32,5.1,6.72,7.44.84.84,1.56,1.74,2.34,2.64.72.9.66,2.16-.06,2.82-.84.78-2.1.84-3-.12-1.62-1.56-3.24-3.18-4.74-4.8-2.16-2.4-4.2-4.86-6.12-7.32-1.62-.12-3.12.18-4.74,0l.54,9.9c.06.78.06,1.56,0,2.34-.06,1.32-.9,2.22-2.1,2.28-1.08.12-2.1-.72-2.34-1.92ZM163.14,283.87c1.98-.42,3.72-1.2,5.1-2.64,1.62-1.62,2.22-3.54,1.5-5.76-.72-2.34-2.76-3.24-4.8-4.08-2.1-.9-4.38-.78-6.54-.42-1.26.18-2.58.18-3.6.9-.3,4.14.18,8.22.24,12.24.48.24.96.24,1.38.3,2.28.18,4.5-.12,6.72-.54Z"/><path class="cls-2" d="M192.12,300.73c-2.04-.96-3.42-2.76-4.38-4.74-1.56-3.06-2.4-6.36-2.64-9.78l-.84-12.72c-.06-1.14-.06-2.28,0-3.42.06-.78.48-1.44,1.02-1.98.36-.36.78-.54,1.2-.54.6,0,1.26.36,1.62.96.42.66.48,1.26.42,3.54.36,3,.36,6.54,1.02,14.22.24,2.58.9,5.1,1.98,7.44.78,1.74,1.92,3.12,3.78,3.72.42.18.9.24,1.32.24,2.28,0,3.24-.48,4.02-1.44,1.8-2.28,2.64-4.98,3.18-7.74.84-3.9.96-12.12,1.38-16.08.18-1.68.3-3.42.24-5.16,0-1.14.84-2.04,1.8-2.1.96-.12,1.92.66,2.22,1.68.18.42.18.9.18,1.38s0,.9-.06,1.38c-.24,4.92-.66,14.04-1.44,18.9-.6,3.36-1.68,6.54-3.6,9.36-1.8,2.76-4.08,4.08-7.92,4.08-1.38,0-2.94-.42-4.5-1.2Z"/><path class="cls-2" d="M220.62,300.07c0-1.26-.06-2.46-.12-3.72-.12-4.8.06-9.54.42-14.28.24-3.42.54-6.84.9-10.26.06-.84.18-1.68.24-2.52.18-1.26.84-2.16,1.86-2.4,1.02-.3,1.98.06,2.82,1.14,2.04,2.64,3.6,5.58,5.28,8.46,2.82,4.8,5.64,9.72,8.64,14.4.36.6.84,1.2,1.38,1.98.54-2.52.42-4.86.66-7.2.12-1.56.3-3.18.24-4.74-.06-3.12.36-6.24.36-9.3,0-.24-.12-.54-.18-.78-.24-1.08.06-2.04.9-2.52.78-.54,1.86-.42,2.7.3.9.78,1.38,1.68,1.32,3-.12,3.12-.36,6.3-.42,9.42-.06,5.46-.6,10.92-1.32,16.32-.12,1.14-.06,2.28-.66,3.3-1.08,1.8-3,1.92-4.26.3-1.44-1.92-2.46-4.02-3.66-6.06-3.72-6.12-7.38-12.36-10.86-18.6-.12-.3-.3-.48-.6-.96-.12.96-.18,1.74-.24,2.46-.3,4.44-.66,8.88-.78,13.32-.12,2.52.06,5.1.06,7.68,0,.6.06,1.2-.12,1.8-.42,1.26-1.56,2.16-2.7,1.98s-1.92-1.14-1.86-2.52Z"/><path class="cls-2" d="M263.1,302.05c-1.56-9.42-1.92-19.86-1.92-28.98v-2.1c-1.14-.66-2.04-1.38-1.98-2.7,0-1.26.78-2.04,2.04-1.98,1.68,0,5.82-.66,6.78-.66,10.74,0,20.1,6.36,20.1,16.08,0,10.5-6.42,14.28-15.66,19.2-2.52,1.32-3.78.84-5.82,2.52-.42.3-.84.48-1.26.48-.96,0-2.1-.66-2.28-1.86ZM283.8,281.71c0-7.8-7.56-11.94-15.36-11.94-.96,0-1.98.12-3,.36,0,8.46.6,20.52,1.5,27.96,9.36-2.58,16.86-7.74,16.86-16.38Z"/><path class="cls-2" d="M300.72,299.53c-.12-2.76-.42-5.4-.42-8.1,0-3.6-.18-8.22-.06-11.82.12-2.22.36-4.38.3-6.54-.06-1.62-.12-3.24-.06-4.86.06-1.56.9-2.58,2.22-2.64,1.5-.06,2.64,1.02,2.76,2.58.06.42.06.84.06,1.26-.06,1.02-.24,2.04-.3,3.12-.12,1.02-.18,2.1-.18,3.12-.06,1.08-.06,2.1-.12,3.18-.12,5.28-.12,11.58.06,16.86.12,1.08-.06,2.22.42,3.36,1.98-.18,3.9-.42,5.82-.6,1.02-.06,2.1-.24,3.12-.24.36,0,.72,0,1.08.06,1.5.18,2.16.9,2.16,2.04s-.84,1.98-2.22,2.1c-2.82.24-5.7.72-8.58.72-.78-.06-1.62.18-2.46.06-1.98-.24-3.42-1.62-3.6-3.66Z"/><path class="cls-2" d="M343.26,293.77h-12.48c-.54,2.4-.96,4.2-1.32,5.82-.48,2.52-2.22,4.02-3.84,3.18-1.8-1.02-.66-3.24.36-7.44,2.46-10.38,5.46-22.92,8.88-27.3,1.14-1.44,2.46-1.92,4.08-1.44,1.14.3,1.92.24,4.02.12.96,0,1.86,0,2.82.06,2.16.06,4.26.12,6.3-.42,1.14-.3,2.04.18,2.4,1.14.3,1.2-.18,2.16-1.38,2.64-.96.3-1.8.48-2.7.48-1.02.06-2.04.06-3.06.06s-2.04.06-3.06.06h-.66c-.6-.06-.9,0-1.2.12.54,1.86,1.02,3.66,1.5,5.46.54,1.8,1.02,3.66,1.56,5.46,2.52.36,4.98.12,7.5-.06,1.86-.12,2.88.42,3.06,1.62.18,1.26-.66,2.04-2.64,2.46-.9.18-1.74.18-2.58.18-.3.06-.6.06-.96.06h-3.6c1.02,4.44,1.92,8.76,2.82,13.08,3.06,0,5.34-.18,7.86-.9l1.2-.36c1.44-.24,2.52.18,2.82,1.14.36,1.02-.12,1.92-1.44,2.64-1.74.84-8.52,2.04-11.1,1.68-3.96-.54-4.14-4.5-5.16-9.54ZM342.36,289.45c-1.14-6.36-2.58-12.6-4.5-18.66-2.4,4.98-3.78,10.26-5.16,15.54-.24,1.02-.54,2.04-.78,3.12h10.44Z"/><path class="cls-2" d="M367.44,295.93c-1.5-3.48-2.1-7.14-1.92-10.92.3-5.7,2.28-10.74,5.94-15.18,2.82-3.48,6.48-5.16,10.86-5.58,3.3-.24,5.76,1.26,7.86,3.54.72.78.72,1.86.12,2.64-.6.78-1.8,1.02-2.76.54-.48-.3-.84-.66-1.26-.96-2.76-2.1-5.52-1.26-8.22.06-1.38.6-2.46,1.56-3.3,2.7-4.86,6.12-6,13.02-3.48,20.4.84,2.4,2.22,4.56,4.14,6.42,3.54,3.24,9.12,2.34,11.22-2.28.9-1.86,1.56-5.16,1.44-7.38-1.86.12-3.6.6-5.4.84-1.02.18-2.04.48-3.12.48-1.32-.06-2.22-.78-2.4-1.86-.12-1.2.48-1.86,1.92-2.28,3.48-.96,7.02-1.32,10.5-1.86,1.2-.18,2.16.48,2.46,1.74.78,2.94.48,5.88-.24,8.76-.78,3.24-2.4,6.12-5.04,8.16-2.1,1.62-4.56,2.4-7.26,2.1-6.18-.78-9.78-4.68-12.06-10.08Z"/><path class="cls-2" d="M403.44,295.93c-1.5-3.48-2.1-7.14-1.92-10.92.3-5.7,2.28-10.74,5.94-15.18,2.82-3.48,6.48-5.16,10.86-5.58,3.3-.24,5.76,1.26,7.86,3.54.72.78.72,1.86.12,2.64-.6.78-1.8,1.02-2.76.54-.48-.3-.84-.66-1.26-.96-2.76-2.1-5.52-1.26-8.22.06-1.38.6-2.46,1.56-3.3,2.7-4.86,6.12-6,13.02-3.48,20.4.84,2.4,2.22,4.56,4.14,6.42,3.54,3.24,9.12,2.34,11.22-2.28.9-1.86,1.56-5.16,1.44-7.38-1.86.12-3.6.6-5.4.84-1.02.18-2.04.48-3.12.48-1.32-.06-2.22-.78-2.4-1.86-.12-1.2.48-1.86,1.92-2.28,3.48-.96,7.02-1.32,10.5-1.86,1.2-.18,2.16.48,2.46,1.74.78,2.94.48,5.88-.24,8.76-.78,3.24-2.4,6.12-5.04,8.16-2.1,1.62-4.56,2.4-7.26,2.1-6.18-.78-9.78-4.68-12.06-10.08Z"/><path class="cls-2" d="M441.96,301.21c-1.2-3.24-1.5-6.6-1.74-10.02-.24-4.38-.3-8.7-.18-13.08.06-1.92.24-5.1.18-8.28-1.68-1.5-1.5-2.58.3-3.72.96-.66,1.86-.9,3-.48.42.12.9,0,1.38-.06,3-.24,6-.6,9-.84.9-.06,1.8.06,2.7.24,1.02.12,1.74,1.02,1.74,1.86.06.96-.66,1.92-1.74,2.04-2.28.18-4.56.18-6.84.36-1.74.12-3.42.36-5.28.54v12.18c1.74-.24,3.48-.54,5.22-.72,2.22-.18,4.44-.48,6.66-.36,1.32.06,2.04.84,2.1,1.98,0,1.14-.78,1.92-2.1,2.04-2.28.24-4.62.18-6.96.48-1.74.24-3.42.66-5.1.78.3,3.78.24,7.98,1.2,12,.66,2.58,1.38,3.42,4.32,2.58,1.74-.48,3.42-1.14,5.16-1.68,1.32-.42,2.52-.06,2.88,1.02.42,1.08-.12,2.34-1.38,2.88-2.7,1.08-5.34,2.22-8.28,2.46-2.34.12-5.4-1.92-6.24-4.2Z"/><path class="cls-2" d="M468.84,300.07c0-1.26-.06-2.46-.12-3.72-.12-4.8.06-9.54.42-14.28.24-3.42.54-6.84.9-10.26.06-.84.18-1.68.24-2.52.18-1.26.84-2.16,1.86-2.4,1.02-.3,1.98.06,2.82,1.14,2.04,2.64,3.6,5.58,5.28,8.46,2.82,4.8,5.64,9.72,8.64,14.4.36.6.84,1.2,1.38,1.98.54-2.52.42-4.86.66-7.2.12-1.56.3-3.18.24-4.74-.06-3.12.36-6.24.36-9.3,0-.24-.12-.54-.18-.78-.24-1.08.06-2.04.9-2.52.78-.54,1.86-.42,2.7.3.9.78,1.38,1.68,1.32,3-.12,3.12-.36,6.3-.42,9.42-.06,5.46-.6,10.92-1.32,16.32-.12,1.14-.06,2.28-.66,3.3-1.08,1.8-3,1.92-4.26.3-1.44-1.92-2.46-4.02-3.66-6.06-3.72-6.12-7.38-12.36-10.86-18.6-.12-.3-.3-.48-.6-.96-.12.96-.18,1.74-.24,2.46-.3,4.44-.66,8.88-.78,13.32-.12,2.52.06,5.1.06,7.68,0,.6.06,1.2-.12,1.8-.42,1.26-1.56,2.16-2.7,1.98s-1.92-1.14-1.86-2.52Z"/><path class="cls-2" d="M511.32,302.05c-1.56-9.42-1.92-19.86-1.92-28.98v-2.1c-1.14-.66-2.04-1.38-1.98-2.7,0-1.26.78-2.04,2.04-1.98,1.68,0,5.82-.66,6.78-.66,10.74,0,20.1,6.36,20.1,16.08,0,10.5-6.42,14.28-15.66,19.2-2.52,1.32-3.78.84-5.82,2.52-.42.3-.84.48-1.26.48-.96,0-2.1-.66-2.28-1.86ZM532.02,281.71c0-7.8-7.56-11.94-15.36-11.94-.96,0-1.98.12-3,.36,0,8.46.6,20.52,1.5,27.96,9.36-2.58,16.86-7.74,16.86-16.38Z"/><path class="cls-2" d="M547.56,301.21c-1.2-3.24-1.5-6.6-1.74-10.02-.24-4.38-.3-8.7-.18-13.08.06-1.92.24-5.1.18-8.28-1.68-1.5-1.5-2.58.3-3.72.96-.66,1.86-.9,3-.48.42.12.9,0,1.38-.06,3-.24,6-.6,9-.84.9-.06,1.8.06,2.7.24,1.02.12,1.74,1.02,1.74,1.86.06.96-.66,1.92-1.74,2.04-2.28.18-4.56.18-6.84.36-1.74.12-3.42.36-5.28.54v12.18c1.74-.24,3.48-.54,5.22-.72,2.22-.18,4.44-.48,6.66-.36,1.32.06,2.04.84,2.1,1.98,0,1.14-.78,1.92-2.1,2.04-2.28.24-4.62.18-6.96.48-1.74.24-3.42.66-5.1.78.3,3.78.24,7.98,1.2,12,.66,2.58,1.38,3.42,4.32,2.58,1.74-.48,3.42-1.14,5.16-1.68,1.32-.42,2.52-.06,2.88,1.02.42,1.08-.12,2.34-1.38,2.88-2.7,1.08-5.34,2.22-8.28,2.46-2.34.12-5.4-1.92-6.24-4.2Z"/><path class="cls-2" d="M598.97,300.73c-2.04-.96-3.42-2.76-4.38-4.74-1.56-3.06-2.4-6.36-2.64-9.78l-.84-12.72c-.06-1.14-.06-2.28,0-3.42.06-.78.48-1.44,1.02-1.98.36-.36.78-.54,1.2-.54.6,0,1.26.36,1.62.96.42.66.48,1.26.42,3.54.36,3,.36,6.54,1.02,14.22.24,2.58.9,5.1,1.98,7.44.78,1.74,1.92,3.12,3.78,3.72.42.18.9.24,1.32.24,2.28,0,3.24-.48,4.02-1.44,1.8-2.28,2.64-4.98,3.18-7.74.84-3.9.96-12.12,1.38-16.08.18-1.68.3-3.42.24-5.16,0-1.14.84-2.04,1.8-2.1.96-.12,1.92.66,2.22,1.68.18.42.18.9.18,1.38s0,.9-.06,1.38c-.24,4.92-.66,14.04-1.44,18.9-.6,3.36-1.68,6.54-3.6,9.36-1.8,2.76-4.08,4.08-7.92,4.08-1.38,0-2.94-.42-4.5-1.2Z"/><path class="cls-2" d="M625.43,299.11c1.02-1.5,1.92-3.12,2.82-4.68,1.8-3.18,3.96-6.06,5.94-9.12-1.92-3.66-3.96-7.08-5.7-10.74-.42-.84-.72-1.74-1.2-2.58-.9-1.32-.6-2.7.54-3.3,1.08-.54,2.4.06,3,1.44.72,1.74,1.56,3.42,2.46,5.04,1.2,2.04,2.22,4.14,3.6,6.24.84-1.2,1.68-2.28,2.4-3.42,1.38-2.22,3.3-4.02,4.68-6.18.78-1.32,1.74-2.52,2.58-3.78.72-1.02,1.86-1.44,2.82-1.02,1.26.54,1.68,2.04.84,3.3-1.56,2.4-3.18,4.74-4.92,7.02-2.16,2.7-4.2,5.52-6,8.4,2.28,3.84,4.74,7.44,7.14,11.1.48.72.72,1.5.3,2.28-.66,1.44-2.46,1.62-3.48.3-1.02-1.26-1.92-2.64-2.88-4.02-1.26-1.92-2.52-3.78-3.66-5.94-1.2,1.86-2.34,3.66-3.54,5.34-1.44,1.98-2.4,4.26-3.84,6.24-.12.12-.18.3-.3.42-.84,1.2-2.16,1.56-3.18.96-1.08-.66-1.32-2.1-.42-3.3Z"/><path class="cls-2" d="M656.69,302.71c0-1.44.9-3.42,1.14-4.62,3.96-11.82,7.92-23.28,12.06-34.98.24-.54.48-.96,1.02-1.26.36-.18.72-.3,1.02-.3.96,0,1.38,1.02,1.38,2.22,0,.66-.12,1.38-.36,1.98-.18.48-1.56,4.26-5.16,14.94-7.08,21.18-7.44,23.1-8.22,23.58-.48.3-.9.36-1.44.24-1.08-.18-1.44-.9-1.44-1.8Z"/><path class="cls-2" d="M686.15,300.73c-2.04-.96-3.42-2.76-4.38-4.74-1.56-3.06-2.4-6.36-2.64-9.78l-.84-12.72c-.06-1.14-.06-2.28,0-3.42.06-.78.48-1.44,1.02-1.98.36-.36.78-.54,1.2-.54.6,0,1.26.36,1.62.96.42.66.48,1.26.42,3.54.36,3,.36,6.54,1.02,14.22.24,2.58.9,5.1,1.98,7.44.78,1.74,1.92,3.12,3.78,3.72.42.18.9.24,1.32.24,2.28,0,3.24-.48,4.02-1.44,1.8-2.28,2.64-4.98,3.18-7.74.84-3.9.96-12.12,1.38-16.08.18-1.68.3-3.42.24-5.16,0-1.14.84-2.04,1.8-2.1.96-.12,1.92.66,2.22,1.68.18.42.18.9.18,1.38s0,.9-.06,1.38c-.24,4.92-.66,14.04-1.44,18.9-.6,3.36-1.68,6.54-3.6,9.36-1.8,2.76-4.08,4.08-7.92,4.08-1.38,0-2.94-.42-4.5-1.2Z"/><path class="cls-2" d="M717.53,296.95c-.24-1.8-.06-3.6-.24-5.4-.3-3.96-.06-7.92.18-11.88.12-2.04.3-4.08.36-6.06-.06-1.02,0-2.04.3-3,.18-.84.66-1.44,1.5-1.68.84-.24,1.56.12,2.16.72,1.2,1.2,1.38,3,.54,4.5-.12.18-.18.48-.24.72-.12,3.48-.42,6.96-.42,10.5s.3,6.78.48,10.14c.06,1.26-.18,2.4-1.26,3.12-1.44.9-3.12.06-3.36-1.68Z"/></g></g></svg>