<?xml version="1.0" encoding="UTF-8"?><svg id="Layer_2" xmlns="http://www.w3.org/2000/svg" width="785.03" height="576.47" viewBox="0 0 785.03 576.47"><defs><style>.cls-1{fill:#fdb831;}.cls-1,.cls-2{stroke-width:0px;}.cls-2{fill:#231f20;}</style></defs><g id="Layer_9"><g id="Layer_8"><path class="cls-1" d="M4.2,4.31c-.51,187.68-1.03,375.35-1.54,563.03,5.37,2.55,10.74,5.11,16.11,7.66,254.53-1.74,509.07-3.49,763.6-5.23-.12-187.27-.24-374.54-.36-561.82C522.74,6.74,263.47,5.52,4.2,4.31Z"/><path class="cls-2" d="M181.52,279.53c-1.5-3.48-2.1-7.14-1.92-10.92.3-5.7,2.28-10.74,5.94-15.18,2.82-3.48,6.48-5.16,10.86-5.58,3.3-.24,5.76,1.26,7.86,3.54.72.78.72,1.86.12,2.64-.6.78-1.8,1.02-2.76.54-.48-.3-.84-.66-1.26-.96-2.76-2.1-5.52-1.26-8.22.06-1.38.6-2.46,1.56-3.3,2.7-4.86,6.12-6,13.02-3.48,20.4.84,2.4,2.22,4.56,4.14,6.42,3.54,3.24,9.12,2.34,11.22-2.28.9-1.86,1.56-5.16,1.44-7.38-1.86.12-3.6.6-5.4.84-1.02.18-2.04.48-3.12.48-1.32-.06-2.22-.78-2.4-1.86-.12-1.2.48-1.86,1.92-2.28,3.48-.96,7.02-1.32,10.5-1.86,1.2-.18,2.16.48,2.46,1.74.78,2.94.48,5.88-.24,8.76-.78,3.24-2.4,6.12-5.04,8.16-2.1,1.62-4.56,2.4-7.26,2.1-6.18-.78-9.78-4.68-12.06-10.08Z"/><path class="cls-2" d="M218.96,284.75c-.36-1.68-.18-3.42-.24-5.16-.18-4.44-.54-8.82-.72-13.26-.12-3.3-.18-6.6.06-9.9.06-.96.06-1.98.06-3,0-.96.48-1.62,1.44-1.86,3.24-.96,6.54-1.86,9.9-1.56,4.62.48,8.7,2.16,11.22,6.3,1.26,2.1,1.56,4.56.84,6.96-1.02,3.54-3.36,6-6.84,7.32l-2.22.9c2.1,2.64,4.32,5.1,6.72,7.44.84.84,1.56,1.74,2.34,2.64.72.9.66,2.16-.06,2.82-.84.78-2.1.84-3-.12-1.62-1.56-3.24-3.18-4.74-4.8-2.16-2.4-4.2-4.86-6.12-7.32-1.62-.12-3.12.18-4.74,0l.54,9.9c.06.78.06,1.56,0,2.34-.06,1.32-.9,2.22-2.1,2.28-1.08.12-2.1-.72-2.34-1.92ZM230.66,267.47c1.98-.42,3.72-1.2,5.1-2.64,1.62-1.62,2.22-3.54,1.5-5.76-.72-2.34-2.76-3.24-4.8-4.08-2.1-.9-4.38-.78-6.54-.42-1.26.18-2.58.18-3.6.9-.3,4.14.18,8.22.24,12.24.48.24.96.24,1.38.3,2.28.18,4.5-.12,6.72-.54Z"/><path class="cls-2" d="M259.64,284.33c-2.04-.96-3.42-2.76-4.38-4.74-1.56-3.06-2.4-6.36-2.64-9.78l-.84-12.72c-.06-1.14-.06-2.28,0-3.42.06-.78.48-1.44,1.02-1.98.36-.36.78-.54,1.2-.54.6,0,1.26.36,1.62.96.42.66.48,1.26.42,3.54.36,3,.36,6.54,1.02,14.22.24,2.58.9,5.1,1.98,7.44.78,1.74,1.92,3.12,3.78,3.72.42.18.9.24,1.32.24,2.28,0,3.24-.48,4.02-1.44,1.8-2.28,2.64-4.98,3.18-7.74.84-3.9.96-12.12,1.38-16.08.18-1.68.3-3.42.24-5.16,0-1.14.84-2.04,1.8-2.1.96-.12,1.92.66,2.22,1.68.18.42.18.9.18,1.38s0,.9-.06,1.38c-.24,4.92-.66,14.04-1.44,18.9-.6,3.36-1.68,6.54-3.6,9.36-1.8,2.76-4.08,4.08-7.92,4.08-1.38,0-2.94-.42-4.5-1.2Z"/><path class="cls-2" d="M288.14,283.67c0-1.26-.06-2.46-.12-3.72-.12-4.8.06-9.54.42-14.28.24-3.42.54-6.84.9-10.26.06-.84.18-1.68.24-2.52.18-1.26.84-2.16,1.86-2.4,1.02-.3,1.98.06,2.82,1.14,2.04,2.64,3.6,5.58,5.28,8.46,2.82,4.8,5.64,9.72,8.64,14.4.36.6.84,1.2,1.38,1.98.54-2.52.42-4.86.66-7.2.12-1.56.3-3.18.24-4.74-.06-3.12.36-6.24.36-9.3,0-.24-.12-.54-.18-.78-.24-1.08.06-2.04.9-2.52.78-.54,1.86-.42,2.7.3.9.78,1.38,1.68,1.32,3-.12,3.12-.36,6.3-.42,9.42-.06,5.46-.6,10.92-1.32,16.32-.12,1.14-.06,2.28-.66,3.3-1.08,1.8-3,1.92-4.26.3-1.44-1.92-2.46-4.02-3.66-6.06-3.72-6.12-7.38-12.36-10.86-18.6-.12-.3-.3-.48-.6-.96-.12.96-.18,1.74-.24,2.46-.3,4.44-.66,8.88-.78,13.32-.12,2.52.06,5.1.06,7.68,0,.6.06,1.2-.12,1.8-.42,1.26-1.56,2.16-2.7,1.98-1.14-.18-1.92-1.14-1.86-2.52Z"/><path class="cls-2" d="M330.62,285.65c-1.56-9.42-1.92-19.86-1.92-28.98v-2.1c-1.14-.66-2.04-1.38-1.98-2.7,0-1.26.78-2.04,2.04-1.98,1.68,0,5.82-.66,6.78-.66,10.74,0,20.1,6.36,20.1,16.08,0,10.5-6.42,14.28-15.66,19.2-2.52,1.32-3.78.84-5.82,2.52-.42.3-.84.48-1.26.48-.96,0-2.1-.66-2.28-1.86ZM351.32,265.31c0-7.8-7.56-11.94-15.36-11.94-.96,0-1.98.12-3,.36,0,8.46.6,20.52,1.5,27.96,9.36-2.58,16.86-7.74,16.86-16.38Z"/><path class="cls-2" d="M368.24,283.13c-.12-2.76-.42-5.4-.42-8.1,0-3.6-.18-8.22-.06-11.82.12-2.22.36-4.38.3-6.54-.06-1.62-.12-3.24-.06-4.86.06-1.56.9-2.58,2.22-2.64,1.5-.06,2.64,1.02,2.76,2.58.06.42.06.84.06,1.26-.06,1.02-.24,2.04-.3,3.12-.12,1.02-.18,2.1-.18,3.12-.06,1.08-.06,2.1-.12,3.18-.12,5.28-.12,11.58.06,16.86.12,1.08-.06,2.22.42,3.36,1.98-.18,3.9-.42,5.82-.6,1.02-.06,2.1-.24,3.12-.24.36,0,.72,0,1.08.06,1.5.18,2.16.9,2.16,2.04s-.84,1.98-2.22,2.1c-2.82.24-5.7.72-8.58.72-.78-.06-1.62.18-2.46.06-1.98-.24-3.42-1.62-3.6-3.66Z"/><path class="cls-2" d="M410.77,277.37h-12.48c-.54,2.4-.96,4.2-1.32,5.82-.48,2.52-2.22,4.02-3.84,3.18-1.8-1.02-.66-3.24.36-7.44,2.46-10.38,5.46-22.92,8.88-27.3,1.14-1.44,2.46-1.92,4.08-1.44,1.14.3,1.92.24,4.02.12.96,0,1.86,0,2.82.06,2.16.06,4.26.12,6.3-.42,1.14-.3,2.04.18,2.4,1.14.3,1.2-.18,2.16-1.38,2.64-.96.3-1.8.48-2.7.48-1.02.06-2.04.06-3.06.06s-2.04.06-3.06.06h-.66c-.6-.06-.9,0-1.2.12.54,1.86,1.02,3.66,1.5,5.46.54,1.8,1.02,3.66,1.56,5.46,2.52.36,4.98.12,7.5-.06,1.86-.12,2.88.42,3.06,1.62.18,1.26-.66,2.04-2.64,2.46-.9.18-1.74.18-2.58.18-.3.06-.6.06-.96.06h-3.6c1.02,4.44,1.92,8.76,2.82,13.08,3.06,0,5.34-.18,7.86-.9l1.2-.36c1.44-.24,2.52.18,2.82,1.14.36,1.02-.12,1.92-1.44,2.64-1.74.84-8.52,2.04-11.1,1.68-3.96-.54-4.14-4.5-5.16-9.54ZM409.87,273.05c-1.14-6.36-2.58-12.6-4.5-18.66-2.4,4.98-3.78,10.26-5.16,15.54-.24,1.02-.54,2.04-.78,3.12h10.44Z"/><path class="cls-2" d="M434.95,279.53c-1.5-3.48-2.1-7.14-1.92-10.92.3-5.7,2.28-10.74,5.94-15.18,2.82-3.48,6.48-5.16,10.86-5.58,3.3-.24,5.76,1.26,7.86,3.54.72.78.72,1.86.12,2.64-.6.78-1.8,1.02-2.76.54-.48-.3-.84-.66-1.26-.96-2.76-2.1-5.52-1.26-8.22.06-1.38.6-2.46,1.56-3.3,2.7-4.86,6.12-6,13.02-3.48,20.4.84,2.4,2.22,4.56,4.14,6.42,3.54,3.24,9.12,2.34,11.22-2.28.9-1.86,1.56-5.16,1.44-7.38-1.86.12-3.6.6-5.4.84-1.02.18-2.04.48-3.12.48-1.32-.06-2.22-.78-2.4-1.86-.12-1.2.48-1.86,1.92-2.28,3.48-.96,7.02-1.32,10.5-1.86,1.2-.18,2.16.48,2.46,1.74.78,2.94.48,5.88-.24,8.76-.78,3.24-2.4,6.12-5.04,8.16-2.1,1.62-4.56,2.4-7.26,2.1-6.18-.78-9.78-4.68-12.06-10.08Z"/><path class="cls-2" d="M470.95,279.53c-1.5-3.48-2.1-7.14-1.92-10.92.3-5.7,2.28-10.74,5.94-15.18,2.82-3.48,6.48-5.16,10.86-5.58,3.3-.24,5.76,1.26,7.86,3.54.72.78.72,1.86.12,2.64-.6.78-1.8,1.02-2.76.54-.48-.3-.84-.66-1.26-.96-2.76-2.1-5.52-1.26-8.22.06-1.38.6-2.46,1.56-3.3,2.7-4.86,6.12-6,13.02-3.48,20.4.84,2.4,2.22,4.56,4.14,6.42,3.54,3.24,9.12,2.34,11.22-2.28.9-1.86,1.56-5.16,1.44-7.38-1.86.12-3.6.6-5.4.84-1.02.18-2.04.48-3.12.48-1.32-.06-2.22-.78-2.4-1.86-.12-1.2.48-1.86,1.92-2.28,3.48-.96,7.02-1.32,10.5-1.86,1.2-.18,2.16.48,2.46,1.74.78,2.94.48,5.88-.24,8.76-.78,3.24-2.4,6.12-5.04,8.16-2.1,1.62-4.56,2.4-7.26,2.1-6.18-.78-9.78-4.68-12.06-10.08Z"/><path class="cls-2" d="M509.47,284.81c-1.2-3.24-1.5-6.6-1.74-10.02-.24-4.38-.3-8.7-.18-13.08.06-1.92.24-5.1.18-8.28-1.68-1.5-1.5-2.58.3-3.72.96-.66,1.86-.9,3-.48.42.12.9,0,1.38-.06,3-.24,6-.6,9-.84.9-.06,1.8.06,2.7.24,1.02.12,1.74,1.02,1.74,1.86.06.96-.66,1.92-1.74,2.04-2.28.18-4.56.18-6.84.36-1.74.12-3.42.36-5.28.54v12.18c1.74-.24,3.48-.54,5.22-.72,2.22-.18,4.44-.48,6.66-.36,1.32.06,2.04.84,2.1,1.98,0,1.14-.78,1.92-2.1,2.04-2.28.24-4.62.18-6.96.48-1.74.24-3.42.66-5.1.78.3,3.78.24,7.98,1.2,12,.66,2.58,1.38,3.42,4.32,2.58,1.74-.48,3.42-1.14,5.16-1.68,1.32-.42,2.52-.06,2.88,1.02.42,1.08-.12,2.34-1.38,2.88-2.7,1.08-5.34,2.22-8.28,2.46-2.34.12-5.4-1.92-6.24-4.2Z"/><path class="cls-2" d="M536.35,283.67c0-1.26-.06-2.46-.12-3.72-.12-4.8.06-9.54.42-14.28.24-3.42.54-6.84.9-10.26.06-.84.18-1.68.24-2.52.18-1.26.84-2.16,1.86-2.4,1.02-.3,1.98.06,2.82,1.14,2.04,2.64,3.6,5.58,5.28,8.46,2.82,4.8,5.64,9.72,8.64,14.4.36.6.84,1.2,1.38,1.98.54-2.52.42-4.86.66-7.2.12-1.56.3-3.18.24-4.74-.06-3.12.36-6.24.36-9.3,0-.24-.12-.54-.18-.78-.24-1.08.06-2.04.9-2.52.78-.54,1.86-.42,2.7.3.9.78,1.38,1.68,1.32,3-.12,3.12-.36,6.3-.42,9.42-.06,5.46-.6,10.92-1.32,16.32-.12,1.14-.06,2.28-.66,3.3-1.08,1.8-3,1.92-4.26.3-1.44-1.92-2.46-4.02-3.66-6.06-3.72-6.12-7.38-12.36-10.86-18.6-.12-.3-.3-.48-.6-.96-.12.96-.18,1.74-.24,2.46-.3,4.44-.66,8.88-.78,13.32-.12,2.52.06,5.1.06,7.68,0,.6.06,1.2-.12,1.8-.42,1.26-1.56,2.16-2.7,1.98s-1.92-1.14-1.86-2.52Z"/><path class="cls-2" d="M578.83,285.65c-1.56-9.42-1.92-19.86-1.92-28.98v-2.1c-1.14-.66-2.04-1.38-1.98-2.7,0-1.26.78-2.04,2.04-1.98,1.68,0,5.82-.66,6.78-.66,10.74,0,20.1,6.36,20.1,16.08,0,10.5-6.42,14.28-15.66,19.2-2.52,1.32-3.78.84-5.82,2.52-.42.3-.84.48-1.26.48-.96,0-2.1-.66-2.28-1.86ZM599.53,265.31c0-7.8-7.56-11.94-15.36-11.94-.96,0-1.98.12-3,.36,0,8.46.6,20.52,1.5,27.96,9.36-2.58,16.86-7.74,16.86-16.38Z"/><path class="cls-2" d="M615.07,284.81c-1.2-3.24-1.5-6.6-1.74-10.02-.24-4.38-.3-8.7-.18-13.08.06-1.92.24-5.1.18-8.28-1.68-1.5-1.5-2.58.3-3.72.96-.66,1.86-.9,3-.48.42.12.9,0,1.38-.06,3-.24,6-.6,9-.84.9-.06,1.8.06,2.7.24,1.02.12,1.74,1.02,1.74,1.86.06.96-.66,1.92-1.74,2.04-2.28.18-4.56.18-6.84.36-1.74.12-3.42.36-5.28.54v12.18c1.74-.24,3.48-.54,5.22-.72,2.22-.18,4.44-.48,6.66-.36,1.32.06,2.04.84,2.1,1.98,0,1.14-.78,1.92-2.1,2.04-2.28.24-4.62.18-6.96.48-1.74.24-3.42.66-5.1.78.3,3.78.24,7.98,1.2,12,.66,2.58,1.38,3.42,4.32,2.58,1.74-.48,3.42-1.14,5.16-1.68,1.32-.42,2.52-.06,2.88,1.02.42,1.08-.12,2.34-1.38,2.88-2.7,1.08-5.34,2.22-8.28,2.46-2.34.12-5.4-1.92-6.24-4.2Z"/><path class="cls-2" d="M253.88,358.13c0-.24.06-.54.12-.78.48-1.5,2.1-8.28,1.98-8.4-.54-.72-.6-1.5-.66-2.04-.06-.78.42-1.26,1.56-1.92,2.76-10.68,4.14-16.98,7.32-21.96,1.08-1.74,2.52-2.76,4.2-2.76.78,0,1.68.24,2.64.72,5.22,2.88,8.34,23.88,9.6,34.2.24,1.92-.84,3.18-2.16,3.18-1.44,0-2.34-1.08-2.4-2.52-.12-.84.12-1.92.06-2.7-.12-1.26-.36-2.58-.78-3.9-4.32.36-11.64.18-15.06.3-.36,1.26-1.44,6.9-2.22,8.7-.36.84-.9,1.56-1.98,1.56-1.2.06-2.1-.66-2.22-1.68ZM274.87,344.69c-.96-6.66-3-17.1-6.06-20.4-4.08,6.3-5.52,13.5-7.38,20.76,3.72-.3,8.88.12,13.44-.36Z"/><path class="cls-2" d="M290.72,355.67c0-1.26-.06-2.46-.12-3.72-.12-4.8.06-9.54.42-14.28.24-3.42.54-6.84.9-10.26.06-.84.18-1.68.24-2.52.18-1.26.84-2.16,1.86-2.4,1.02-.3,1.98.06,2.82,1.14,2.04,2.64,3.6,5.58,5.28,8.46,2.82,4.8,5.64,9.72,8.64,14.4.36.6.84,1.2,1.38,1.98.54-2.52.42-4.86.66-7.2.12-1.56.3-3.18.24-4.74-.06-3.12.36-6.24.36-9.3,0-.24-.12-.54-.18-.78-.24-1.08.06-2.04.9-2.52.78-.54,1.86-.42,2.7.3.9.78,1.38,1.68,1.32,3-.12,3.12-.36,6.3-.42,9.42-.06,5.46-.6,10.92-1.32,16.32-.12,1.14-.06,2.28-.66,3.3-1.08,1.8-3,1.92-4.26.3-1.44-1.92-2.46-4.02-3.66-6.06-3.72-6.12-7.38-12.36-10.86-18.6-.12-.3-.3-.48-.6-.96-.12.96-.18,1.74-.24,2.46-.3,4.44-.66,8.88-.78,13.32-.12,2.52.06,5.1.06,7.68,0,.6.06,1.2-.12,1.8-.42,1.26-1.56,2.16-2.7,1.98s-1.92-1.14-1.86-2.52Z"/><path class="cls-2" d="M333.19,352.55c-.24-1.8-.06-3.6-.24-5.4-.3-3.96-.06-7.92.18-11.88.12-2.04.3-4.08.36-6.06-.06-1.02,0-2.04.3-3,.18-.84.66-1.44,1.5-1.68.84-.24,1.56.12,2.16.72,1.2,1.2,1.38,3,.54,4.5-.12.18-.18.48-.24.72-.12,3.48-.42,6.96-.42,10.5s.3,6.78.48,10.14c.06,1.26-.18,2.4-1.26,3.12-1.44.9-3.12.06-3.36-1.68Z"/><path class="cls-2" d="M352.21,357.71c0-.84.06-1.62.06-2.46.12-2.46.18-4.98.36-7.44.12-2.28.3-4.62.54-6.9l.18-2.04c.18-1.68.3-3.42.6-5.1.24-1.08.48-2.16.48-3.3.06-1.14.24-2.28.48-3.42.18-.96.36-1.86.42-2.82.12-.96.72-1.74,1.74-2.04.84-.24,1.62-.06,2.46.66.9.96,1.5,2.16,2.04,3.36.84,1.68,1.68,3.42,2.46,5.16.96,2.1,1.92,4.14,2.94,6.18,1.26,2.52,2.4,5.16,3.54,7.8l1.26,3h.24c.6-1.2,1.02-2.4,1.38-3.54l.42-1.14c.42-1.02.78-2.1,1.2-3.12.96-2.52,1.92-5.04,3-7.56.54-1.32,1.08-2.64,1.56-3.96l1.62-3.96c.36-.9.72-1.8,1.5-2.34,1.32-.96,2.94-.54,3.48,1.02.42,1.14.6,2.34.78,3.6.06.48.18.96.24,1.38.18,1.2.36,2.4.6,3.6l.54,3.6c.12.84.24,1.62.36,2.4.24,1.5.42,3.06.72,4.5.3,1.62.42,3.24.54,4.86.06,1.5.18,2.94.42,4.38.06.66,0,1.14-.18,1.62-.3,1.02-1.14,1.74-2.16,1.68-.96,0-1.92-.84-2.04-1.8-.42-2.64-.6-5.4-.78-8.1-.12-1.74-.3-3.48-.54-5.1-.18-1.2-.36-2.4-.6-3.6l-.54-3.6c-.06-.24-.12-.54-.24-.84h-.24c-.66.84-1.02,1.8-1.32,2.76l-.54,1.26c-1.68,4.2-3.36,8.46-4.98,12.66-.24.6-.48,1.26-.66,1.86-.42,1.14-.84,2.28-1.44,3.3l-.72,1.08c-.66.96-1.26,1.32-2.16,1.2-.96-.18-1.68-.78-2.16-2.04l-1.08-2.94c-.36-.96-.72-1.92-1.02-2.94-1.02-3-2.34-5.88-3.66-8.7-.6-1.2-1.14-2.46-1.68-3.66-.78-1.74-1.5-3.42-2.52-5.22l-.24.06c-.48,2.4-.72,4.62-.96,6.84-.48,3.78-.66,7.56-.9,11.34l-.18,3.24c0,.78-.06,1.56-.12,2.34s-.06,1.56-.12,2.34c-.12,1.5-.9,2.4-2.22,2.52-1.2.06-2.16-.72-2.16-1.92Z"/><path class="cls-2" d="M397.57,358.13c0-.24.06-.54.12-.78.48-1.5,2.1-8.28,1.98-8.4-.54-.72-.6-1.5-.66-2.04-.06-.78.42-1.26,1.56-1.92,2.76-10.68,4.14-16.98,7.32-21.96,1.08-1.74,2.52-2.76,4.2-2.76.78,0,1.68.24,2.64.72,5.22,2.88,8.34,23.88,9.6,34.2.24,1.92-.84,3.18-2.16,3.18-1.44,0-2.34-1.08-2.4-2.52-.12-.84.12-1.92.06-2.7-.12-1.26-.36-2.58-.78-3.9-4.32.36-11.64.18-15.06.3-.36,1.26-1.44,6.9-2.22,8.7-.36.84-.9,1.56-1.98,1.56-1.2.06-2.1-.66-2.22-1.68ZM418.57,344.69c-.96-6.66-3-17.1-6.06-20.4-4.08,6.3-5.52,13.5-7.38,20.76,3.72-.3,8.88.12,13.44-.36Z"/><path class="cls-2" d="M441.49,355.25c-.12-2.88-.24-5.82-.24-8.76-.06-4.32-.06-10.38,0-14.64,0-1.32.06-2.64-.06-4.08-1.86.3-3.66.54-5.46.96-.72.18-1.5.42-2.28.48-1.5.24-2.76-.6-2.94-1.86-.18-1.38.66-2.4,2.28-2.7,2.76-.42,5.52-.96,8.28-1.44.06,0,.18-.06.3-.12.18-1.32.12-2.94,2.04-3.12,1.02-.12,1.8.9,2.1,2.64,3-.24,6.06-.72,9.06-.84,1.02,0,1.86.12,2.4,1.08.9,1.44.06,3.06-1.74,3.3-2.04.24-4.08.42-6.12.6-1.14.12-2.34.3-3.6.42-.12,2.22-.06,4.38-.06,6.54.06,3.06-.06,7.92,0,11.04.06,3.12.24,6.24.36,9.36,0,.72,0,1.38-.3,2.04-.42.96-1.38,1.44-2.4,1.2-.96-.18-1.62-.96-1.62-2.1Z"/><path class="cls-2" d="M468.79,352.55c-.24-1.8-.06-3.6-.24-5.4-.3-3.96-.06-7.92.18-11.88.12-2.04.3-4.08.36-6.06-.06-1.02,0-2.04.3-3,.18-.84.66-1.44,1.5-1.68.84-.24,1.56.12,2.16.72,1.2,1.2,1.38,3,.54,4.5-.12.18-.18.48-.24.72-.12,3.48-.42,6.96-.42,10.5s.3,6.78.48,10.14c.06,1.26-.18,2.4-1.26,3.12-1.44.9-3.12.06-3.36-1.68Z"/><path class="cls-2" d="M486.97,342.77c0-8.58,3.42-15,12-17.88.6-.24,1.08-.42,2.04-.42.72,0,1.44.3,2.16.9,6.9.24,12.9,8.04,12.9,15.54.06,9.6-5.7,16.74-15.36,16.74-7.44,0-13.68-6.48-13.74-14.88ZM511.75,340.79c-.24-6.18-4.14-9.84-8.1-10.8-.9-.24-1.98-.3-2.82-.84-7.14,1.02-9.36,7.56-9.36,12.48.06,7.8,5.16,11.7,10.38,11.7,6.18,0,10.08-6.54,9.9-12.54Z"/><path class="cls-2" d="M526.51,355.67c0-1.26-.06-2.46-.12-3.72-.12-4.8.06-9.54.42-14.28.24-3.42.54-6.84.9-10.26.06-.84.18-1.68.24-2.52.18-1.26.84-2.16,1.86-2.4,1.02-.3,1.98.06,2.82,1.14,2.04,2.64,3.6,5.58,5.28,8.46,2.82,4.8,5.64,9.72,8.64,14.4.36.6.84,1.2,1.38,1.98.54-2.52.42-4.86.66-7.2.12-1.56.3-3.18.24-4.74-.06-3.12.36-6.24.36-9.3,0-.24-.12-.54-.18-.78-.24-1.08.06-2.04.9-2.52.78-.54,1.86-.42,2.7.3.9.78,1.38,1.68,1.32,3-.12,3.12-.36,6.3-.42,9.42-.06,5.46-.6,10.92-1.32,16.32-.12,1.14-.06,2.28-.66,3.3-1.08,1.8-3,1.92-4.26.3-1.44-1.92-2.46-4.02-3.66-6.06-3.72-6.12-7.38-12.36-10.86-18.6-.12-.3-.3-.48-.6-.96-.12.96-.18,1.74-.24,2.46-.3,4.44-.66,8.88-.78,13.32-.12,2.52.06,5.1.06,7.68,0,.6.06,1.2-.12,1.8-.42,1.26-1.56,2.16-2.7,1.98-1.14-.18-1.92-1.14-1.86-2.52Z"/><path class="cls-2" d="M1.93,6.93c-.25,73.74-.5,147.48-.76,221.22s-.5,146.73-.75,220.09C.28,489.61.14,531,0,572.38c-.01,3.22,4.99,3.22,5,0,.25-73.74.5-147.48.76-221.22s.5-146.73.75-220.09c.14-41.38.28-82.77.42-124.15.01-3.22-4.99-3.22-5,0h0Z"/><path class="cls-2" d="M774.91,5.05c-98.5-.39-196.99-.79-295.49-1.31-97.99-.51-195.99-1.15-293.98-2.02C130.17,1.23,74.89.66,19.62,0c-3.22-.04-3.22,4.96,0,5,98.49,1.18,196.98,2.06,295.48,2.75,97.99.68,195.99,1.18,293.98,1.61,55.28.24,110.56.46,165.84.69,3.22.01,3.22-4.99,0-5h0Z"/><path class="cls-2" d="M780.03,12.99c-.04,72.47-.08,144.95-.11,217.42-.04,72.1-.08,144.21-.11,216.31-.02,40.67-.04,81.35-.06,122.02,0,3.22,5,3.22,5,0,.04-72.47.08-144.95.11-217.42.04-72.1.08-144.21.11-216.31.02-40.67.04-81.35.06-122.02,0-3.22-5-3.22-5,0h0Z"/><path class="cls-2" d="M770.95,567.07c-98.11.57-196.21,1.15-294.32,1.72-97.61.57-195.21,1.14-292.82,1.71-55.06.32-110.12.64-165.18.97-3.22.02-3.22,5.02,0,5,98.11-.57,196.21-1.15,294.32-1.72,97.61-.57,195.21-1.14,292.82-1.71,55.06-.32,110.12-.64,165.18-.97,3.22-.02,3.22-5.02,0-5h0Z"/></g></g></svg>