<?xml version="1.0" encoding="UTF-8"?><svg id="Layer_2" xmlns="http://www.w3.org/2000/svg" width="781.32" height="573.96" viewBox="0 0 781.32 573.96"><defs><style>.cls-1{fill:#fdb831;}.cls-1,.cls-2{stroke-width:0px;}.cls-2{fill:#231f20;}</style></defs><g id="Layer_9"><g id="Layer_8"><path class="cls-1" d="M4.65,8.28c4.3,93.72,6.09,176.61,6.64,246.27.57,71.27-.12,133.75-1.16,184.47-1.03,50.31-2.52,94.5-4,130.92,98.38-3.61,185.38-5.01,258.38-5.34,147.77-.67,221.65-1.01,277.85,3.49,23,1.84,70.16,6.1,134.72,4.76,42.98-.89,78.23-3.95,101.61-6.44-.72-185.97-1.44-371.94-2.16-557.91-139.93-2.35-279.87-3.45-419.81-3.28-117.37.14-234.73,1.16-352.08,3.07Z"/><path class="cls-2" d="M0,5.61c3.35,73.04,5.48,146.14,6.37,219.26.89,73.11.54,146.24-1.05,219.35-.89,41.03-2.17,82.05-3.84,123.05-.13,3.22,4.87,3.21,5,0,2.97-73.06,4.71-146.17,5.21-219.29.5-73.12-.24-146.25-2.21-219.34-1.11-41.02-2.61-82.03-4.49-123.03C4.86,2.4-.14,2.39,0,5.61H0Z"/><path class="cls-2" d="M774.39,3.32c-99.52-1.4-199.05-2.36-298.57-2.88C376.79-.07,277.77-.14,178.75.24,122.89.44,67.04.8,11.18,1.29c-3.22.03-3.22,5.03,0,5,99.53-.87,199.06-1.3,298.58-1.29,99.02.02,198.04.48,297.06,1.38,55.86.51,111.71,1.16,167.56,1.94,3.22.05,3.22-4.95,0-5h0Z"/><path class="cls-2" d="M775.98,17.68c.31,71.21.41,142.42.28,213.63-.13,70.85-.47,141.69-1.04,212.53-.32,39.96-.71,79.93-1.17,119.89-.04,3.22,4.96,3.22,5,0,.82-71.2,1.42-142.41,1.79-213.62s.53-141.69.46-212.54c-.04-39.96-.15-79.93-.32-119.89-.01-3.22-5.01-3.22-5,0h0Z"/><path class="cls-2" d="M770.21,564.31c-48.8,6.72-98.21,4.88-147.27,2.82-49.08-2.07-98.16-3.75-147.27-4.86-98.35-2.21-196.75-2.34-295.1-.39-55.2,1.09-110.39,2.85-165.54,5.24-3.21.14-3.22,5.14,0,5,98.78-4.29,197.66-6.5,296.53-6.61,98.88-.1,197.76,1.89,296.55,5.99,54.48,2.26,109.21,5.09,163.43-2.37,3.17-.44,1.82-5.26-1.33-4.82h0Z"/><path class="cls-2" d="M115.92,274.56c-1.8-4.18-2.52-8.57-2.3-13.1.36-6.84,2.74-12.89,7.13-18.22,3.38-4.18,7.78-6.19,13.03-6.7,3.96-.29,6.91,1.51,9.43,4.25.86.94.86,2.23.14,3.17-.72.94-2.16,1.22-3.31.65-.58-.36-1.01-.79-1.51-1.15-3.31-2.52-6.62-1.51-9.86.07-1.66.72-2.95,1.87-3.96,3.24-5.83,7.34-7.2,15.63-4.18,24.48,1.01,2.88,2.66,5.47,4.97,7.71,4.25,3.89,10.95,2.81,13.47-2.74,1.08-2.23,1.87-6.19,1.73-8.86-2.23.14-4.32.72-6.48,1.01-1.22.22-2.45.58-3.74.58-1.58-.07-2.66-.94-2.88-2.23-.14-1.44.58-2.23,2.3-2.74,4.18-1.15,8.42-1.58,12.6-2.23,1.44-.22,2.59.58,2.95,2.09.94,3.53.58,7.06-.29,10.51-.94,3.89-2.88,7.34-6.05,9.79-2.52,1.94-5.47,2.88-8.71,2.52-7.42-.94-11.74-5.62-14.47-12.1Z"/><path class="cls-2" d="M160.85,280.82c-.43-2.02-.22-4.1-.29-6.19-.22-5.33-.65-10.58-.86-15.91-.14-3.96-.22-7.92.07-11.88.07-1.15.07-2.38.07-3.6,0-1.15.58-1.94,1.73-2.23,3.89-1.15,7.85-2.23,11.88-1.87,5.54.58,10.44,2.59,13.47,7.56,1.51,2.52,1.87,5.47,1.01,8.35-1.22,4.25-4.03,7.2-8.21,8.78l-2.66,1.08c2.52,3.17,5.18,6.12,8.06,8.93,1.01,1.01,1.87,2.09,2.81,3.17.86,1.08.79,2.59-.07,3.38-1.01.94-2.52,1.01-3.6-.14-1.94-1.87-3.89-3.82-5.69-5.76-2.59-2.88-5.04-5.83-7.34-8.78-1.94-.14-3.74.22-5.69,0l.65,11.88c.07.94.07,1.87,0,2.81-.07,1.58-1.08,2.66-2.52,2.74-1.3.14-2.52-.86-2.81-2.3ZM174.89,260.09c2.38-.5,4.46-1.44,6.12-3.17,1.94-1.94,2.66-4.25,1.8-6.91-.86-2.81-3.31-3.89-5.76-4.9-2.52-1.08-5.26-.94-7.85-.5-1.51.22-3.1.22-4.32,1.08-.36,4.97.22,9.86.29,14.69.58.29,1.15.29,1.66.36,2.74.22,5.4-.14,8.06-.65Z"/><path class="cls-2" d="M209.67,280.32c-2.45-1.15-4.1-3.31-5.26-5.69-1.87-3.67-2.88-7.63-3.17-11.74l-1.01-15.27c-.07-1.37-.07-2.74,0-4.1.07-.94.58-1.73,1.22-2.38.43-.43.94-.65,1.44-.65.72,0,1.51.43,1.94,1.15.5.79.58,1.51.5,4.25.43,3.6.43,7.85,1.22,17.07.29,3.1,1.08,6.12,2.38,8.93.94,2.09,2.3,3.74,4.54,4.46.5.22,1.08.29,1.58.29,2.74,0,3.89-.58,4.82-1.73,2.16-2.74,3.17-5.98,3.82-9.29,1.01-4.68,1.15-14.55,1.66-19.3.22-2.02.36-4.1.29-6.19,0-1.37,1.01-2.45,2.16-2.52,1.15-.14,2.3.79,2.66,2.02.22.5.22,1.08.22,1.66s0,1.08-.07,1.66c-.29,5.9-.79,16.85-1.73,22.68-.72,4.03-2.02,7.85-4.32,11.23-2.16,3.31-4.9,4.9-9.5,4.9-1.66,0-3.53-.5-5.4-1.44Z"/><path class="cls-2" d="M243.87,279.53c0-1.51-.07-2.95-.14-4.46-.14-5.76.07-11.45.5-17.14.29-4.1.65-8.21,1.08-12.31.07-1.01.22-2.02.29-3.02.22-1.51,1.01-2.59,2.23-2.88,1.22-.36,2.38.07,3.38,1.37,2.45,3.17,4.32,6.7,6.34,10.15,3.38,5.76,6.77,11.67,10.37,17.28.43.72,1.01,1.44,1.66,2.38.65-3.02.5-5.83.79-8.64.14-1.87.36-3.82.29-5.69-.07-3.74.43-7.49.43-11.16,0-.29-.14-.65-.22-.94-.29-1.3.07-2.45,1.08-3.02.94-.65,2.23-.5,3.24.36,1.08.94,1.66,2.02,1.58,3.6-.14,3.74-.43,7.56-.5,11.31-.07,6.55-.72,13.1-1.58,19.59-.14,1.37-.07,2.74-.79,3.96-1.3,2.16-3.6,2.3-5.11.36-1.73-2.3-2.95-4.82-4.39-7.27-4.46-7.34-8.86-14.83-13.03-22.32-.14-.36-.36-.58-.72-1.15-.14,1.15-.22,2.09-.29,2.95-.36,5.33-.79,10.66-.94,15.99-.14,3.02.07,6.12.07,9.22,0,.72.07,1.44-.14,2.16-.5,1.51-1.87,2.59-3.24,2.38s-2.3-1.37-2.23-3.02Z"/><path class="cls-2" d="M294.84,281.9c-1.87-11.31-2.3-23.83-2.3-34.78v-2.52c-1.37-.79-2.45-1.66-2.38-3.24,0-1.51.94-2.45,2.45-2.38,2.02,0,6.98-.79,8.14-.79,12.89,0,24.12,7.63,24.12,19.3,0,12.6-7.7,17.14-18.79,23.04-3.02,1.58-4.54,1.01-6.98,3.02-.5.36-1.01.58-1.51.58-1.15,0-2.52-.79-2.74-2.23ZM319.68,257.49c0-9.36-9.07-14.33-18.43-14.33-1.15,0-2.38.14-3.6.43,0,10.15.72,24.63,1.8,33.56,11.23-3.1,20.23-9.29,20.23-19.66Z"/><path class="cls-2" d="M339.98,278.88c-.14-3.31-.5-6.48-.5-9.72,0-4.32-.22-9.86-.07-14.19.14-2.66.43-5.26.36-7.85-.07-1.94-.14-3.89-.07-5.83.07-1.87,1.08-3.1,2.66-3.17,1.8-.07,3.17,1.22,3.31,3.1.07.5.07,1.01.07,1.51-.07,1.22-.29,2.45-.36,3.74-.14,1.22-.22,2.52-.22,3.74-.07,1.3-.07,2.52-.14,3.82-.14,6.34-.14,13.9.07,20.23.14,1.3-.07,2.66.5,4.03,2.38-.22,4.68-.5,6.98-.72,1.22-.07,2.52-.29,3.74-.29.43,0,.86,0,1.3.07,1.8.22,2.59,1.08,2.59,2.45s-1.01,2.38-2.66,2.52c-3.38.29-6.84.86-10.3.86-.94-.07-1.94.22-2.95.07-2.38-.29-4.1-1.94-4.32-4.39Z"/><path class="cls-2" d="M391.03,271.97h-14.98c-.65,2.88-1.15,5.04-1.58,6.98-.58,3.02-2.66,4.82-4.61,3.82-2.16-1.22-.79-3.89.43-8.93,2.95-12.46,6.55-27.51,10.66-32.76,1.37-1.73,2.95-2.3,4.9-1.73,1.37.36,2.3.29,4.82.14,1.15,0,2.23,0,3.38.07,2.59.07,5.11.14,7.56-.5,1.37-.36,2.45.22,2.88,1.37.36,1.44-.22,2.59-1.66,3.17-1.15.36-2.16.58-3.24.58-1.22.07-2.45.07-3.67.07s-2.45.07-3.67.07h-.79c-.72-.07-1.08,0-1.44.14.65,2.23,1.22,4.39,1.8,6.55.65,2.16,1.22,4.39,1.87,6.55,3.02.43,5.98.14,9-.07,2.23-.14,3.46.5,3.67,1.94.22,1.51-.79,2.45-3.17,2.95-1.08.22-2.09.22-3.1.22-.36.07-.72.07-1.15.07h-4.32c1.22,5.33,2.3,10.51,3.38,15.7,3.67,0,6.41-.22,9.43-1.08l1.44-.43c1.73-.29,3.02.22,3.38,1.37.43,1.22-.14,2.3-1.73,3.17-2.09,1.01-10.22,2.45-13.32,2.02-4.75-.65-4.97-5.4-6.19-11.45ZM389.95,266.78c-1.37-7.63-3.1-15.12-5.4-22.39-2.88,5.98-4.54,12.31-6.19,18.65-.29,1.22-.65,2.45-.94,3.74h12.53Z"/><path class="cls-2" d="M420.05,274.56c-1.8-4.18-2.52-8.57-2.3-13.1.36-6.84,2.74-12.89,7.13-18.22,3.38-4.18,7.78-6.19,13.03-6.7,3.96-.29,6.91,1.51,9.43,4.25.86.94.86,2.23.14,3.17-.72.94-2.16,1.22-3.31.65-.58-.36-1.01-.79-1.51-1.15-3.31-2.52-6.62-1.51-9.86.07-1.66.72-2.95,1.87-3.96,3.24-5.83,7.34-7.2,15.63-4.18,24.48,1.01,2.88,2.66,5.47,4.97,7.71,4.25,3.89,10.95,2.81,13.47-2.74,1.08-2.23,1.87-6.19,1.73-8.86-2.23.14-4.32.72-6.48,1.01-1.22.22-2.45.58-3.74.58-1.58-.07-2.66-.94-2.88-2.23-.14-1.44.58-2.23,2.3-2.74,4.18-1.15,8.42-1.58,12.6-2.23,1.44-.22,2.59.58,2.95,2.09.94,3.53.58,7.06-.29,10.51-.94,3.89-2.88,7.34-6.05,9.79-2.52,1.94-5.47,2.88-8.71,2.52-7.42-.94-11.74-5.62-14.47-12.1Z"/><path class="cls-2" d="M463.25,274.56c-1.8-4.18-2.52-8.57-2.3-13.1.36-6.84,2.74-12.89,7.13-18.22,3.38-4.18,7.78-6.19,13.03-6.7,3.96-.29,6.91,1.51,9.43,4.25.86.94.86,2.23.14,3.17-.72.94-2.16,1.22-3.31.65-.58-.36-1.01-.79-1.51-1.15-3.31-2.52-6.62-1.51-9.86.07-1.66.72-2.95,1.87-3.96,3.24-5.83,7.34-7.2,15.63-4.18,24.48,1.01,2.88,2.66,5.47,4.97,7.71,4.25,3.89,10.95,2.81,13.47-2.74,1.08-2.23,1.87-6.19,1.73-8.86-2.23.14-4.32.72-6.48,1.01-1.22.22-2.45.58-3.74.58-1.58-.07-2.66-.94-2.88-2.23-.14-1.44.58-2.23,2.3-2.74,4.18-1.15,8.42-1.58,12.6-2.23,1.44-.22,2.59.58,2.95,2.09.94,3.53.58,7.06-.29,10.51-.94,3.89-2.88,7.34-6.05,9.79-2.52,1.94-5.47,2.88-8.71,2.52-7.42-.94-11.74-5.62-14.47-12.1Z"/><path class="cls-2" d="M509.47,280.89c-1.44-3.89-1.8-7.92-2.09-12.02-.29-5.26-.36-10.44-.22-15.7.07-2.3.29-6.12.22-9.94-2.02-1.8-1.8-3.1.36-4.46,1.15-.79,2.23-1.08,3.6-.58.5.14,1.08,0,1.66-.07,3.6-.29,7.2-.72,10.8-1.01,1.08-.07,2.16.07,3.24.29,1.22.14,2.09,1.22,2.09,2.23.07,1.15-.79,2.3-2.09,2.45-2.74.22-5.47.22-8.21.43-2.09.14-4.1.43-6.34.65v14.62c2.09-.29,4.18-.65,6.26-.86,2.66-.22,5.33-.58,7.99-.43,1.58.07,2.45,1.01,2.52,2.38,0,1.37-.94,2.3-2.52,2.45-2.74.29-5.54.22-8.35.58-2.09.29-4.1.79-6.12.94.36,4.54.29,9.58,1.44,14.4.79,3.1,1.66,4.1,5.18,3.1,2.09-.58,4.1-1.37,6.19-2.02,1.58-.5,3.02-.07,3.46,1.22.5,1.3-.14,2.81-1.66,3.46-3.24,1.3-6.41,2.66-9.94,2.95-2.81.14-6.48-2.3-7.49-5.04Z"/><path class="cls-2" d="M541.72,279.53c0-1.51-.07-2.95-.14-4.46-.14-5.76.07-11.45.5-17.14.29-4.1.65-8.21,1.08-12.31.07-1.01.22-2.02.29-3.02.22-1.51,1.01-2.59,2.23-2.88,1.22-.36,2.38.07,3.38,1.37,2.45,3.17,4.32,6.7,6.34,10.15,3.38,5.76,6.77,11.67,10.37,17.28.43.72,1.01,1.44,1.66,2.38.65-3.02.5-5.83.79-8.64.14-1.87.36-3.82.29-5.69-.07-3.74.43-7.49.43-11.16,0-.29-.14-.65-.22-.94-.29-1.3.07-2.45,1.08-3.02.94-.65,2.23-.5,3.24.36,1.08.94,1.66,2.02,1.58,3.6-.14,3.74-.43,7.56-.5,11.31-.07,6.55-.72,13.1-1.58,19.59-.14,1.37-.07,2.74-.79,3.96-1.3,2.16-3.6,2.3-5.11.36-1.73-2.3-2.95-4.82-4.39-7.27-4.46-7.34-8.86-14.83-13.03-22.32-.14-.36-.36-.58-.72-1.15-.14,1.15-.22,2.09-.29,2.95-.36,5.33-.79,10.66-.94,15.99-.14,3.02.07,6.12.07,9.22,0,.72.07,1.44-.14,2.16-.5,1.51-1.87,2.59-3.24,2.38s-2.3-1.37-2.23-3.02Z"/><path class="cls-2" d="M592.7,281.9c-1.87-11.31-2.3-23.83-2.3-34.78v-2.52c-1.37-.79-2.45-1.66-2.38-3.24,0-1.51.94-2.45,2.45-2.38,2.02,0,6.98-.79,8.14-.79,12.89,0,24.12,7.63,24.12,19.3,0,12.6-7.7,17.14-18.79,23.04-3.02,1.58-4.54,1.01-6.98,3.02-.5.36-1.01.58-1.51.58-1.15,0-2.52-.79-2.74-2.23ZM617.54,257.49c0-9.36-9.07-14.33-18.43-14.33-1.15,0-2.38.14-3.6.43,0,10.15.72,24.63,1.8,33.56,11.23-3.1,20.23-9.29,20.23-19.66Z"/><path class="cls-2" d="M636.19,280.89c-1.44-3.89-1.8-7.92-2.09-12.02-.29-5.26-.36-10.44-.22-15.7.07-2.3.29-6.12.22-9.94-2.02-1.8-1.8-3.1.36-4.46,1.15-.79,2.23-1.08,3.6-.58.5.14,1.08,0,1.66-.07,3.6-.29,7.2-.72,10.8-1.01,1.08-.07,2.16.07,3.24.29,1.22.14,2.09,1.22,2.09,2.23.07,1.15-.79,2.3-2.09,2.45-2.74.22-5.47.22-8.21.43-2.09.14-4.1.43-6.34.65v14.62c2.09-.29,4.18-.65,6.26-.86,2.66-.22,5.33-.58,7.99-.43,1.58.07,2.45,1.01,2.52,2.38,0,1.37-.94,2.3-2.52,2.45-2.74.29-5.54.22-8.35.58-2.09.29-4.1.79-6.12.94.36,4.54.29,9.58,1.44,14.4.79,3.1,1.66,4.1,5.18,3.1,2.09-.58,4.1-1.37,6.19-2.02,1.58-.5,3.02-.07,3.46,1.22.5,1.3-.14,2.81-1.66,3.46-3.24,1.3-6.41,2.66-9.94,2.95-2.81.14-6.48-2.3-7.49-5.04Z"/><path class="cls-2" d="M344.19,367.87c-.86-1.58-1.22-3.24-1.66-4.9-1.15-4.75-2.09-9.58-3.31-14.26-.72-3.17-1.73-6.34-2.38-9.5-.5-2.52-.94-5.04-1.37-7.63-.22-1.44.72-2.81,2.02-3.02,1.37-.29,2.66.58,3.02,2.16.58,2.52,1.22,5.04,1.66,7.63.5,2.45,1.22,4.82,1.8,7.2.94,3.89,1.87,7.78,3.1,11.67.65-1.8,1.22-3.6,1.8-5.47,1.3-3.82,2.59-7.63,4.03-11.38.58-1.66,1.01-3.31,1.66-4.9.79-1.66,2.38-2.38,3.96-2.66,1.37-.29,2.16.79,2.74,1.94,1.66,3.24,2.81,6.7,3.96,10.08,1.44,3.96,3.02,7.78,4.61,11.67.07.22.22.43.43.86.72-2.23,1.01-4.39,1.51-6.48,1.01-4.03,2.16-7.99,3.17-12.02.72-2.66,1.15-5.4,1.94-7.99.5-1.94,1.73-2.74,3.53-2.3,1.37.29,2.09,1.94,1.73,3.67-1.22,5.18-2.52,10.3-3.96,15.41-1.22,4.46-2.23,9-3.38,13.47-.43,1.58-.79,3.1-1.51,4.54-.58,1.08-1.37,1.8-2.66,1.73-1.3,0-2.16-.72-2.66-1.87-3.46-7.85-6.77-15.77-9.29-23.98-.07-.22-.07-.5-.5-.65-.65,1.73-1.3,3.53-1.87,5.26-2.38,6.91-4.46,13.9-6.7,20.88l-.22.72c-.5,1.08-1.3,1.8-2.59,1.87-1.22,0-2.02-.65-2.59-1.73Z"/><path class="cls-2" d="M397.19,367.29c-1.44-3.89-1.8-7.92-2.09-12.02-.29-5.26-.36-10.44-.22-15.7.07-2.3.29-6.12.22-9.94-2.02-1.8-1.8-3.1.36-4.46,1.15-.79,2.23-1.08,3.6-.58.5.14,1.08,0,1.66-.07,3.6-.29,7.2-.72,10.8-1.01,1.08-.07,2.16.07,3.24.29,1.22.14,2.09,1.22,2.09,2.23.07,1.15-.79,2.3-2.09,2.45-2.74.22-5.47.22-8.21.43-2.09.14-4.1.43-6.34.65v14.62c2.09-.29,4.18-.65,6.26-.86,2.66-.22,5.33-.58,7.99-.43,1.58.07,2.45,1.01,2.52,2.38,0,1.37-.94,2.3-2.52,2.45-2.74.29-5.54.22-8.35.58-2.09.29-4.1.79-6.12.94.36,4.54.29,9.58,1.44,14.4.79,3.1,1.66,4.1,5.18,3.1,2.09-.58,4.1-1.37,6.19-2.02,1.58-.5,3.02-.07,3.46,1.22.5,1.3-.14,2.81-1.66,3.46-3.24,1.3-6.41,2.66-9.94,2.95-2.81.14-6.48-2.3-7.49-5.04Z"/><path class="cls-2" d="M430.95,371.76c-.65-.94-.65-1.94.07-2.88.36-.58.22-1.15.14-1.73-1.01-6.84-.58-13.68-.79-20.59-.07-2.16-.29-4.39-.29-6.62.07-2.45-.29-4.9-.07-7.34.14-1.51.29-3.02-1.01-4.39-1.08-1.15-.22-3.24,1.44-3.67,7.2-2.02,14.04-1.44,20.16,3.31,1.94,1.44,3.46,3.17,4.18,5.4,1.3,4.25-.29,7.85-3.17,10.87-1.44,1.51-3.1,2.74-4.97,3.89,1.51.79,3.02,1.37,4.18,2.45,4.1,3.89,5.76,7.92,3.53,13.1-1.15,2.52-3.17,4.1-5.62,5.33-3.89,1.87-7.99,3.17-12.31,3.46-.86.07-1.73.29-2.59.43-1.15.22-2.16-.07-2.88-1.01ZM447.66,340.65c2.81-2.88,3.46-5.62.14-8.5-.72-.65-1.58-1.15-2.45-1.58-3.24-1.66-6.55-2.23-10.3-1.73.14,5.69-.14,11.16.43,16.71,4.61-.5,8.93-1.44,12.17-4.9ZM447.59,363.91c3.31-1.73,4.03-6.12,1.08-9-1.44-1.37-3.1-2.09-4.82-2.81-2.59-1.15-5.33-1.01-8.14-.72.07,5.47-.07,10.8.86,16.27,3.82-1.01,7.56-1.94,11.02-3.74Z"/></g></g></svg>