<?xml version="1.0" encoding="UTF-8"?><svg id="Layer_2" xmlns="http://www.w3.org/2000/svg" width="790.63" height="571.6" viewBox="0 0 790.63 571.6"><defs><style>.cls-1{fill:#fdb831;}.cls-1,.cls-2{stroke-width:0px;}.cls-2{fill:#231f20;}</style></defs><g id="Layer_9"><g id="Layer_8"><path class="cls-1" d="M782.56,9.36c-182.92-2.13-365.82-3.73-548.73-4.79-76.08-.44-152.18-.79-228.28-1.05,9.74,104.42,9.34,185.2,6.89,241.36-5.98,137-6.88,152.94-6.88,152.94-1.37,24.28-3.35,56.58-3.16,100.72.12,29.42,1.16,53.74,2.08,70.38,258.66-.42,517.31-.84,775.97-1.25,5.85-111.84,8.72-229.28,7.63-351.84-.63-70.67-2.54-139.52-5.53-206.46Z"/><path class="cls-2" d="M780.15,11.01c3.3,72.27,6.38,144.54,5.39,216.9s-3.1,144.51-4.73,216.76c-.92,40.65-1.83,81.3-2.75,121.95-.07,3.22,4.93,3.22,5,0,1.63-72.43,3.27-144.86,4.9-217.28,1.63-72.16,3.81-144.29,1.95-216.46-1.05-40.64-2.91-81.25-4.76-121.86-.15-3.2-5.15-3.22-5,0h0Z"/><path class="cls-2" d="M769.03,565.96c-99.05-1.63-198.1-2.59-297.16-2.88-98.55-.29-197.11.09-295.66,1.12-55.59.58-111.18,1.38-166.77,2.39-3.21.06-3.22,5.06,0,5,99.04-1.79,198.1-2.92,297.16-3.37s197.11-.24,295.66.63c55.59.49,111.18,1.2,166.77,2.11,3.22.05,3.22-4.95,0-5h0Z"/><path class="cls-2" d="M3.15,2.46c1.43,36.48,2.87,72.97,4.3,109.45,1.41,35.95,3.08,71.9,2.9,107.88-.35,72.23-6.2,144.26-8.96,216.4-1.55,40.61-2.1,81.27-.17,121.88.15,3.2,5.15,3.22,5,0-3.43-72.14,1.02-144.3,4.84-216.33,1.92-36.23,3.67-72.48,4.17-108.76.49-35.97-.85-71.87-2.26-107.8-1.61-40.91-3.22-81.81-4.83-122.72-.13-3.21-5.13-3.22-5,0h0Z"/><path class="cls-2" d="M776.38,1.92c-99.54.22-199.08.23-298.63.01-99.18-.22-198.36-.71-297.54-1.16C124.53.51,68.84.26,13.14,0c-3.22-.01-3.22,4.99,0,5,99.15.45,198.31.92,297.46,1.36,99.39.44,198.79.7,298.18.73,55.87.01,111.73-.05,167.6-.17,3.22,0,3.22-5.01,0-5h0Z"/><path class="cls-2" d="M169.22,298.36c-.22-.5-.36-1.08-.36-1.58-.58-5.76-1.08-11.52-1.37-17.35-.36-6.98-.14-13.97-.14-20.95,0-2.16,1.01-3.1,3.24-3.1.58,0,1.15-.14,1.8-.22,5.4-.43,10.66.58,14.91,4.03,4.1,3.31,6.26,8.28,4.97,13.97-1.22,5.62-5.26,8.21-10.08,10.08-2.74,1.01-5.47,2.16-8.71,2.09.29,3.82.58,7.49.94,11.09.07.58.07,1.08-.07,1.66-.36,1.22-1.37,2.23-2.59,2.16-1.22,0-2.09-.72-2.52-1.87ZM174.55,279.78c3.46-.29,6.48-1.94,9.58-3.53,1.37-.72,2.3-1.87,2.81-3.38.79-2.81.65-5.47-1.3-7.85-3.31-4.18-7.92-4.82-12.96-4.82.43,6.7-.22,13.18.58,19.66.5,0,.86,0,1.3-.07Z"/><path class="cls-2" d="M205.58,295.63c-.43-2.02-.22-4.1-.29-6.19-.22-5.33-.65-10.58-.86-15.91-.14-3.96-.22-7.92.07-11.88.07-1.15.07-2.38.07-3.6,0-1.15.58-1.94,1.73-2.23,3.89-1.15,7.85-2.23,11.88-1.87,5.54.58,10.44,2.59,13.47,7.56,1.51,2.52,1.87,5.47,1.01,8.35-1.22,4.25-4.03,7.2-8.21,8.78l-2.66,1.08c2.52,3.17,5.18,6.12,8.06,8.93,1.01,1.01,1.87,2.09,2.81,3.17.86,1.08.79,2.59-.07,3.38-1.01.94-2.52,1.01-3.6-.14-1.94-1.87-3.89-3.82-5.69-5.76-2.59-2.88-5.04-5.83-7.34-8.78-1.94-.14-3.74.22-5.69,0l.65,11.88c.07.94.07,1.87,0,2.81-.07,1.58-1.08,2.66-2.52,2.74-1.3.14-2.52-.86-2.81-2.3ZM219.62,274.89c2.38-.5,4.46-1.44,6.12-3.17,1.94-1.94,2.66-4.25,1.8-6.91-.86-2.81-3.31-3.89-5.76-4.9-2.52-1.08-5.26-.94-7.85-.5-1.51.22-3.1.22-4.32,1.08-.36,4.97.22,9.86.29,14.69.58.29,1.15.29,1.66.36,2.74.22,5.4-.14,8.06-.65Z"/><path class="cls-2" d="M264.19,286.77h-14.98c-.65,2.88-1.15,5.04-1.58,6.98-.58,3.02-2.66,4.82-4.61,3.82-2.16-1.22-.79-3.89.43-8.93,2.95-12.46,6.55-27.51,10.66-32.76,1.37-1.73,2.95-2.3,4.9-1.73,1.37.36,2.3.29,4.82.14,1.15,0,2.23,0,3.38.07,2.59.07,5.11.14,7.56-.5,1.37-.36,2.45.22,2.88,1.37.36,1.44-.22,2.59-1.66,3.17-1.15.36-2.16.58-3.24.58-1.22.07-2.45.07-3.67.07s-2.45.07-3.67.07h-.79c-.72-.07-1.08,0-1.44.14.65,2.23,1.22,4.39,1.8,6.55.65,2.16,1.22,4.39,1.87,6.55,3.02.43,5.98.14,9-.07,2.23-.14,3.46.5,3.67,1.94.22,1.51-.79,2.45-3.17,2.95-1.08.22-2.09.22-3.1.22-.36.07-.72.07-1.15.07h-4.32c1.22,5.33,2.3,10.51,3.38,15.7,3.67,0,6.41-.22,9.43-1.08l1.44-.43c1.73-.29,3.02.22,3.38,1.37.43,1.22-.14,2.3-1.73,3.17-2.09,1.01-10.22,2.45-13.32,2.02-4.75-.65-4.97-5.4-6.19-11.45ZM263.11,281.58c-1.37-7.63-3.1-15.12-5.4-22.39-2.88,5.98-4.54,12.31-6.19,18.65-.29,1.22-.65,2.45-.94,3.74h12.53Z"/><path class="cls-2" d="M292.62,293.75c-.5-.65-1.01-1.3-.94-2.16,0-1.22.58-2.09,1.66-2.52,1.15-.5,2.3-.22,3.1.72,1.22,1.58,2.74,2.59,4.9,2.74,2.81.29,5.62-1.58,6.26-4.39.58-2.3-.07-3.82-2.3-5.26-2.02-1.37-4.32-2.16-6.41-3.31-4.1-2.09-6.84-5.11-7.49-9.79-.36-3.1.72-5.62,2.3-7.99,2.66-3.96,9.58-5.83,13.32-4.46,3.46,1.15,5.98,3.46,7.56,6.77.58,1.3,0,2.74-1.22,3.38-1.3.65-2.81.14-3.53-1.22-.94-1.8-2.45-2.88-4.25-3.6-2.45-.94-5.76.22-7.56,2.52-1.58,1.94-1.66,5.04-.22,7.13.5.86,1.44,1.37,2.3,1.87,2.23,1.3,4.54,2.38,6.84,3.46,2.81,1.3,4.82,3.46,5.98,6.34.79,2.09.5,4.18-.07,6.19-1.15,4.25-4.25,6.62-8.28,7.85-.72.22-1.51.14-1.87.14-4.32.07-7.56-1.3-10.08-4.39Z"/><path class="cls-2" d="M329.06,295.7c-1.44-3.89-1.8-7.92-2.09-12.02-.29-5.26-.36-10.44-.22-15.7.07-2.3.29-6.12.22-9.94-2.02-1.8-1.8-3.1.36-4.46,1.15-.79,2.23-1.08,3.6-.58.5.14,1.08,0,1.66-.07,3.6-.29,7.2-.72,10.8-1.01,1.08-.07,2.16.07,3.24.29,1.22.14,2.09,1.22,2.09,2.23.07,1.15-.79,2.3-2.09,2.45-2.74.22-5.47.22-8.21.43-2.09.14-4.1.43-6.34.65v14.62c2.09-.29,4.18-.65,6.26-.86,2.66-.22,5.33-.58,7.99-.43,1.58.07,2.45,1.01,2.52,2.38,0,1.37-.94,2.3-2.52,2.45-2.74.29-5.54.22-8.35.58-2.09.29-4.1.79-6.12.94.36,4.54.29,9.58,1.44,14.4.79,3.1,1.66,4.1,5.18,3.1,2.09-.58,4.1-1.37,6.19-2.02,1.58-.5,3.02-.07,3.46,1.22.5,1.3-.14,2.81-1.66,3.46-3.24,1.3-6.41,2.66-9.94,2.95-2.81.14-6.48-2.3-7.49-5.04Z"/><path class="cls-2" d="M361.31,294.33c0-1.51-.07-2.95-.14-4.46-.14-5.76.07-11.45.5-17.14.29-4.1.65-8.21,1.08-12.31.07-1.01.22-2.02.29-3.02.22-1.51,1.01-2.59,2.23-2.88,1.22-.36,2.38.07,3.38,1.37,2.45,3.17,4.32,6.7,6.34,10.15,3.38,5.76,6.77,11.67,10.37,17.28.43.72,1.01,1.44,1.66,2.38.65-3.02.5-5.83.79-8.64.14-1.87.36-3.82.29-5.69-.07-3.74.43-7.49.43-11.16,0-.29-.14-.65-.22-.94-.29-1.3.07-2.45,1.08-3.02.94-.65,2.23-.5,3.24.36,1.08.94,1.66,2.02,1.58,3.6-.14,3.74-.43,7.56-.5,11.31-.07,6.55-.72,13.1-1.58,19.59-.14,1.37-.07,2.74-.79,3.96-1.3,2.16-3.6,2.3-5.11.36-1.73-2.3-2.95-4.82-4.39-7.27-4.46-7.34-8.86-14.83-13.03-22.32-.14-.36-.36-.58-.72-1.15-.14,1.15-.22,2.09-.29,2.95-.36,5.33-.79,10.66-.94,15.99-.14,3.02.07,6.12.07,9.22,0,.72.07,1.44-.14,2.16-.5,1.51-1.87,2.59-3.24,2.38s-2.3-1.37-2.23-3.02Z"/><path class="cls-2" d="M417.33,293.82c-.14-3.46-.29-6.98-.29-10.51-.07-5.18-.07-12.46,0-17.57,0-1.58.07-3.17-.07-4.9-2.23.36-4.39.65-6.55,1.15-.86.22-1.8.5-2.74.58-1.8.29-3.31-.72-3.53-2.23-.22-1.66.79-2.88,2.74-3.24,3.31-.5,6.62-1.15,9.94-1.73.07,0,.22-.07.36-.14.22-1.58.14-3.53,2.45-3.74,1.22-.14,2.16,1.08,2.52,3.17,3.6-.29,7.27-.86,10.87-1.01,1.22,0,2.23.14,2.88,1.3,1.08,1.73.07,3.67-2.09,3.96-2.45.29-4.9.5-7.34.72-1.37.14-2.81.36-4.32.5-.14,2.66-.07,5.26-.07,7.85.07,3.67-.07,9.5,0,13.25.07,3.74.29,7.49.43,11.23,0,.86,0,1.66-.36,2.45-.5,1.15-1.66,1.73-2.88,1.44-1.15-.22-1.94-1.15-1.94-2.52Z"/><path class="cls-2" d="M439.07,297.28c0-.29.07-.65.14-.94.58-1.8,2.52-9.94,2.38-10.08-.65-.86-.72-1.8-.79-2.45-.07-.94.5-1.51,1.87-2.3,3.31-12.82,4.97-20.38,8.78-26.35,1.3-2.09,3.02-3.31,5.04-3.31.94,0,2.02.29,3.17.86,6.26,3.46,10.01,28.66,11.52,41.04.29,2.3-1.01,3.82-2.59,3.82-1.73,0-2.81-1.3-2.88-3.02-.14-1.01.14-2.3.07-3.24-.14-1.51-.43-3.1-.94-4.68-5.18.43-13.97.22-18.07.36-.43,1.51-1.73,8.28-2.66,10.44-.43,1.01-1.08,1.87-2.38,1.87-1.44.07-2.52-.79-2.66-2.02ZM464.27,281.15c-1.15-7.99-3.6-20.52-7.27-24.48-4.9,7.56-6.62,16.2-8.86,24.91,4.46-.36,10.66.14,16.13-.43Z"/><path class="cls-2" d="M491.77,293.82c-.14-3.46-.29-6.98-.29-10.51-.07-5.18-.07-12.46,0-17.57,0-1.58.07-3.17-.07-4.9-2.23.36-4.39.65-6.55,1.15-.86.22-1.8.5-2.74.58-1.8.29-3.31-.72-3.53-2.23-.22-1.66.79-2.88,2.74-3.24,3.31-.5,6.62-1.15,9.94-1.73.07,0,.22-.07.36-.14.22-1.58.14-3.53,2.45-3.74,1.22-.14,2.16,1.08,2.52,3.17,3.6-.29,7.27-.86,10.87-1.01,1.22,0,2.23.14,2.88,1.3,1.08,1.73.07,3.67-2.09,3.96-2.45.29-4.9.5-7.34.72-1.37.14-2.81.36-4.32.5-.14,2.66-.07,5.26-.07,7.85.07,3.67-.07,9.5,0,13.25.07,3.74.29,7.49.43,11.23,0,.86,0,1.66-.36,2.45-.5,1.15-1.66,1.73-2.88,1.44-1.15-.22-1.94-1.15-1.94-2.52Z"/><path class="cls-2" d="M524.53,290.58c-.29-2.16-.07-4.32-.29-6.48-.36-4.75-.07-9.5.22-14.26.14-2.45.36-4.9.43-7.27-.07-1.22,0-2.45.36-3.6.22-1.01.79-1.73,1.8-2.02,1.01-.29,1.87.14,2.59.86,1.44,1.44,1.66,3.6.65,5.4-.14.22-.22.58-.29.86-.14,4.18-.5,8.35-.5,12.6s.36,8.14.58,12.17c.07,1.51-.22,2.88-1.51,3.74-1.73,1.08-3.74.07-4.03-2.02Z"/><path class="cls-2" d="M546.35,278.85c0-10.3,4.1-18,14.4-21.46.72-.29,1.3-.5,2.45-.5.86,0,1.73.36,2.59,1.08,8.28.29,15.48,9.65,15.48,18.65.07,11.52-6.84,20.09-18.43,20.09-8.93,0-16.42-7.78-16.49-17.86ZM576.09,276.47c-.29-7.42-4.97-11.81-9.72-12.96-1.08-.29-2.38-.36-3.38-1.01-8.57,1.22-11.23,9.07-11.23,14.98.07,9.36,6.19,14.04,12.46,14.04,7.42,0,12.1-7.85,11.88-15.05Z"/><path class="cls-2" d="M593.8,294.33c0-1.51-.07-2.95-.14-4.46-.14-5.76.07-11.45.5-17.14.29-4.1.65-8.21,1.08-12.31.07-1.01.22-2.02.29-3.02.22-1.51,1.01-2.59,2.23-2.88,1.22-.36,2.38.07,3.38,1.37,2.45,3.17,4.32,6.7,6.34,10.15,3.38,5.76,6.77,11.67,10.37,17.28.43.72,1.01,1.44,1.66,2.38.65-3.02.5-5.83.79-8.64.14-1.87.36-3.82.29-5.69-.07-3.74.43-7.49.43-11.16,0-.29-.14-.65-.22-.94-.29-1.3.07-2.45,1.08-3.02.94-.65,2.23-.5,3.24.36,1.08.94,1.66,2.02,1.58,3.6-.14,3.74-.43,7.56-.5,11.31-.07,6.55-.72,13.1-1.58,19.59-.14,1.37-.07,2.74-.79,3.96-1.3,2.16-3.6,2.3-5.11.36-1.73-2.3-2.95-4.82-4.39-7.27-4.46-7.34-8.86-14.83-13.03-22.32-.14-.36-.36-.58-.72-1.15-.14,1.15-.22,2.09-.29,2.95-.36,5.33-.79,10.66-.94,15.99-.14,3.02.07,6.12.07,9.22,0,.72.07,1.44-.14,2.16-.5,1.51-1.87,2.59-3.24,2.38s-2.3-1.37-2.23-3.02Z"/></g></g></svg>