<?xml version="1.0" encoding="UTF-8"?><svg id="Layer_2" xmlns="http://www.w3.org/2000/svg" width="790.63" height="572.81" viewBox="0 0 790.63 572.81"><defs><style>.cls-1{fill:#fdb831;}.cls-1,.cls-2{stroke-width:0px;}.cls-2{fill:#231f20;}</style></defs><g id="Layer_9"><path class="cls-1" d="M5.56,0c9.74,104.42,9.34,185.2,6.89,241.36-5.98,137-6.88,152.94-6.88,152.94-1.37,24.28-3.35,56.58-3.16,100.72.12,29.42,1.16,53.74,2.08,70.38,258.66-.42,517.31-.84,775.97-1.25,5.85-111.84,8.72-229.28,7.63-351.84-.63-70.67-2.54-139.52-5.53-206.46C599.65,3.71,416.74,2.11,233.84,1.05"/><path class="cls-2" d="M780.15,12.22c3.3,72.27,6.38,144.54,5.39,216.9-.99,72.26-3.1,144.51-4.73,216.76-.92,40.65-1.83,81.3-2.75,121.95-.07,3.22,4.93,3.22,5,0,1.63-72.43,3.27-144.86,4.9-217.28,1.63-72.16,3.81-144.29,1.95-216.46-1.05-40.64-2.91-81.25-4.76-121.86-.15-3.2-5.15-3.22-5,0h0Z"/><path class="cls-2" d="M769.03,567.17c-99.05-1.63-198.1-2.59-297.16-2.88-98.55-.29-197.11.09-295.66,1.12-55.59.58-111.18,1.38-166.77,2.39-3.21.06-3.22,5.06,0,5,99.04-1.79,198.1-2.92,297.16-3.37,98.55-.45,197.11-.24,295.66.63,55.59.49,111.18,1.2,166.77,2.11,3.22.05,3.22-4.95,0-5h0Z"/><path class="cls-2" d="M3.15,3.67c1.43,36.48,2.87,72.97,4.3,109.45,1.41,35.95,3.08,71.9,2.9,107.88-.35,72.23-6.2,144.26-8.96,216.4-1.55,40.61-2.1,81.27-.17,121.88.15,3.2,5.15,3.22,5,0-3.43-72.14,1.02-144.3,4.84-216.33,1.92-36.23,3.67-72.48,4.17-108.76.49-35.97-.85-71.87-2.26-107.8-1.61-40.91-3.22-81.81-4.83-122.72-.13-3.21-5.13-3.22-5,0h0Z"/><path class="cls-2" d="M776.38,3.13c-99.54.22-199.08.23-298.63.01-99.18-.22-198.36-.71-297.54-1.16-55.69-.26-111.38-.51-167.07-.77-3.22-.01-3.22,4.99,0,5,99.15.45,198.31.92,297.46,1.36,99.39.44,198.79.7,298.18.73,55.87.01,111.73-.05,167.6-.17,3.22,0,3.22-5.01,0-5h0Z"/><g id="Layer_8"><path class="cls-2" d="M250.58,299.61c-2.02-4.03-3.67-8.21-5.33-12.31-1.15-2.59-2.95-6.62-4.18-9.07-1.73-3.74-3.24-7.42-4.54-11.23-.5-1.58.07-2.95,1.3-3.46,1.22-.5,2.66.07,3.31,1.51,1.08,2.23,1.8,4.61,2.88,6.84,2.38,4.75,4.97,11.31,9.58,20.02,5.04-15.7,7.34-22.9,9.79-30.17.58-1.66,1.58-2.45,3.17-2.02,1.3.36,2.09,1.58,1.8,3.1-.29,2.66-1.51,5.04-2.38,7.42-1.87,4.82-4.68,14.62-6.55,19.37-1.3,3.17-2.16,6.62-3.53,9.79-.58,1.3-.86,2.3-2.45,2.38-1.51.07-2.09-.58-2.88-2.16Z"/><path class="cls-2" d="M282.91,296.15c-.29-2.16-.07-4.32-.29-6.48-.36-4.75-.07-9.5.22-14.26.14-2.45.36-4.9.43-7.27-.07-1.22,0-2.45.36-3.6.22-1.01.79-1.73,1.8-2.02,1.01-.29,1.87.14,2.59.86,1.44,1.44,1.66,3.6.65,5.4-.14.22-.22.58-.29.86-.14,4.18-.5,8.35-.5,12.6s.36,8.14.58,12.17c.07,1.51-.22,2.88-1.51,3.74-1.73,1.08-3.74.07-4.03-2.02Z"/><path class="cls-2" d="M310.62,302.27c-1.87-11.31-2.3-23.83-2.3-34.78v-2.52c-1.37-.79-2.45-1.66-2.38-3.24,0-1.51.94-2.45,2.45-2.38,2.02,0,6.98-.79,8.14-.79,12.89,0,24.12,7.63,24.12,19.3,0,12.6-7.7,17.14-18.79,23.04-3.02,1.58-4.54,1.01-6.98,3.02-.5.36-1.01.58-1.51.58-1.15,0-2.52-.79-2.74-2.23ZM335.47,277.86c0-9.36-9.07-14.33-18.43-14.33-1.15,0-2.38.14-3.6.43,0,10.15.72,24.63,1.8,33.56,11.23-3.1,20.23-9.29,20.23-19.66Z"/><path class="cls-2" d="M354.11,301.27c-1.44-3.89-1.8-7.92-2.09-12.02-.29-5.26-.36-10.44-.22-15.7.07-2.3.29-6.12.22-9.94-2.02-1.8-1.8-3.1.36-4.46,1.15-.79,2.23-1.08,3.6-.58.5.14,1.08,0,1.66-.07,3.6-.29,7.2-.72,10.8-1.01,1.08-.07,2.16.07,3.24.29,1.22.14,2.09,1.22,2.09,2.23.07,1.15-.79,2.3-2.09,2.45-2.74.22-5.47.22-8.21.43-2.09.14-4.1.43-6.34.65v14.62c2.09-.29,4.18-.65,6.26-.86,2.66-.22,5.33-.58,7.99-.43,1.58.07,2.45,1.01,2.52,2.38,0,1.37-.94,2.3-2.52,2.45-2.74.29-5.54.22-8.35.58-2.09.29-4.1.79-6.12.94.36,4.54.29,9.58,1.44,14.4.79,3.1,1.66,4.1,5.18,3.1,2.09-.58,4.1-1.37,6.19-2.02,1.58-.5,3.02-.07,3.46,1.22.5,1.3-.14,2.81-1.66,3.46-3.24,1.3-6.41,2.66-9.94,2.95-2.81.14-6.48-2.3-7.49-5.04Z"/><path class="cls-2" d="M383.92,284.42c0-10.3,4.1-18,14.4-21.46.72-.29,1.3-.5,2.45-.5.86,0,1.73.36,2.59,1.08,8.28.29,15.48,9.65,15.48,18.65.07,11.52-6.84,20.09-18.43,20.09-8.93,0-16.42-7.78-16.49-17.86ZM413.66,282.04c-.29-7.42-4.97-11.81-9.72-12.96-1.08-.29-2.38-.36-3.38-1.01-8.57,1.22-11.23,9.07-11.23,14.98.07,9.36,6.19,14.04,12.46,14.04,7.42,0,12.1-7.85,11.88-15.05Z"/><path class="cls-2" d="M430.29,299.32c-.5-.65-1.01-1.3-.94-2.16,0-1.22.58-2.09,1.66-2.52,1.15-.5,2.3-.22,3.1.72,1.22,1.58,2.74,2.59,4.9,2.74,2.81.29,5.62-1.58,6.26-4.39.58-2.3-.07-3.82-2.3-5.26-2.02-1.37-4.32-2.16-6.41-3.31-4.1-2.09-6.84-5.11-7.49-9.79-.36-3.1.72-5.62,2.3-7.99,2.66-3.96,9.58-5.83,13.32-4.46,3.46,1.15,5.98,3.46,7.56,6.77.58,1.3,0,2.74-1.22,3.38-1.3.65-2.81.14-3.53-1.22-.94-1.8-2.45-2.88-4.25-3.6-2.45-.94-5.76.22-7.56,2.52-1.58,1.94-1.66,5.04-.22,7.13.5.86,1.44,1.37,2.3,1.87,2.23,1.3,4.54,2.38,6.84,3.46,2.81,1.3,4.82,3.46,5.98,6.34.79,2.09.5,4.18-.07,6.19-1.15,4.25-4.25,6.62-8.28,7.85-.72.22-1.51.14-1.87.14-4.32.07-7.56-1.3-10.08-4.39Z"/><path class="cls-2" d="M467.65,296.15c-.29-2.16-.07-4.32-.29-6.48-.36-4.75-.07-9.5.22-14.26.14-2.45.36-4.9.43-7.27-.07-1.22,0-2.45.36-3.6.22-1.01.79-1.73,1.8-2.02,1.01-.29,1.87.14,2.59.86,1.44,1.44,1.66,3.6.65,5.4-.14.22-.22.58-.29.86-.14,4.18-.5,8.35-.5,12.6s.36,8.14.58,12.17c.07,1.51-.22,2.88-1.51,3.74-1.73,1.08-3.74.07-4.03-2.02Z"/><path class="cls-2" d="M500.42,299.39c-.14-3.46-.29-6.98-.29-10.51-.07-5.18-.07-12.46,0-17.57,0-1.58.07-3.17-.07-4.9-2.23.36-4.39.65-6.55,1.15-.86.22-1.8.5-2.74.58-1.8.29-3.31-.72-3.53-2.23-.22-1.66.79-2.88,2.74-3.24,3.31-.5,6.62-1.15,9.94-1.73.07,0,.22-.07.36-.14.22-1.58.14-3.53,2.45-3.74,1.22-.14,2.16,1.08,2.52,3.17,3.6-.29,7.27-.86,10.87-1.01,1.22,0,2.23.14,2.88,1.3,1.08,1.73.07,3.67-2.09,3.96-2.45.29-4.9.5-7.34.72-1.37.14-2.81.36-4.32.5-.14,2.66-.07,5.26-.07,7.85.07,3.67-.07,9.5,0,13.25.07,3.74.29,7.49.43,11.23,0,.86,0,1.66-.36,2.45-.5,1.15-1.66,1.73-2.88,1.44-1.15-.22-1.94-1.15-1.94-2.52Z"/><path class="cls-2" d="M532.24,301.27c-1.44-3.89-1.8-7.92-2.09-12.02-.29-5.26-.36-10.44-.22-15.7.07-2.3.29-6.12.22-9.94-2.02-1.8-1.8-3.1.36-4.46,1.15-.79,2.23-1.08,3.6-.58.5.14,1.08,0,1.66-.07,3.6-.29,7.2-.72,10.8-1.01,1.08-.07,2.16.07,3.24.29,1.22.14,2.09,1.22,2.09,2.23.07,1.15-.79,2.3-2.09,2.45-2.74.22-5.47.22-8.21.43-2.09.14-4.1.43-6.34.65v14.62c2.09-.29,4.18-.65,6.26-.86,2.66-.22,5.33-.58,7.99-.43,1.58.07,2.45,1.01,2.52,2.38,0,1.37-.94,2.3-2.52,2.45-2.74.29-5.54.22-8.35.58-2.09.29-4.1.79-6.12.94.36,4.54.29,9.58,1.44,14.4.79,3.1,1.66,4.1,5.18,3.1,2.09-.58,4.1-1.37,6.19-2.02,1.58-.5,3.02-.07,3.46,1.22.5,1.3-.14,2.81-1.66,3.46-3.24,1.3-6.41,2.66-9.94,2.95-2.81.14-6.48-2.3-7.49-5.04Z"/></g></g></svg>