<?xml version="1.0" encoding="UTF-8"?><svg id="Layer_2" xmlns="http://www.w3.org/2000/svg" width="783.6" height="582.73" viewBox="0 0 783.6 582.73"><defs><style>.cls-1{fill:#fdb831;}.cls-1,.cls-2,.cls-3,.cls-4{stroke-width:0px;}.cls-3{fill:#fff;}.cls-4{fill:#231f20;}</style></defs><g id="Layer_9"><path class="cls-1" d="M2.5,8.88c5.7,141.09,7.91,286.77,5.91,436.77-.56,42.05-1.44,83.74-2.63,125.04,5.82,2.02,11.65,4.04,17.47,6.07,252.26-.42,504.53-.83,756.79-1.25.13-188.49.25-376.98.38-565.48-52.37-6.44-94.75-6.23-123.77-4.85-43.39,2.06-63.73,7.06-109.21,8.49-45.57,1.44-82.73-1.77-106.75-4.65C358.35,4.01,270.8,1.5,178.57,2.56,117.65,3.26,58.91,5.48,2.5,8.88Z"/><path class="cls-3" d="M432.11,104.22c45.01,13.68,73.31,39.91,85.78,53.08,12.36,13.05,35.13,40.66,46.76,82.45,18.12,65.13-3.59,118.84-8.79,130.91-4.31,10-35.6,79.38-114.93,107.74-53.3,19.06-99.41,9.28-115.44,5.12-61.44-15.91-95.8-56.6-105.77-69.34-8.9-11.38-43.88-58.68-41.76-127.56.52-16.8,3.97-58.78,31.91-101.52,6.2-9.48,45.66-67.79,122.88-84.83,45.57-10.06,82.96-1.04,99.37,3.95Z"/><g id="Layer_8"><path class="cls-4" d="M374.87,492.27c-110.01,0-199.51-89.5-199.51-199.51s89.5-199.51,199.51-199.51,199.51,89.5,199.51,199.51-89.5,199.51-199.51,199.51ZM374.87,98.26c-107.25,0-194.51,87.25-194.51,194.51s87.25,194.51,194.51,194.51,194.51-87.25,194.51-194.51-87.25-194.51-194.51-194.51Z"/><path class="cls-2" d="M446,305.87c-35.33,16.45-70.65,32.9-105.98,49.35-2.55,2.33-6.25,2.93-9.41,1.52-3.15-1.4-5.18-4.55-5.16-8-.2-62.63.44-108.44,1.62-116.49.26-1.76.85-6.06,4.04-8.09,4.21-2.67,10.51.15,13.5,1.72,33.52,20.73,67.05,41.46,100.57,62.19,4.57,1.19,7.6,5.37,7.28,9.71-.26,3.63-2.82,6.84-6.47,8.09Z"/><path class="cls-4" d="M778.6,3.89c-.49,75.2-.99,150.39-1.46,225.59-.47,74.77-.83,149.54-.6,224.3.13,42.18.46,84.35,1.07,126.52.05,3.21,5.05,3.22,5,0-1.08-75.14-1.28-150.3-1.08-225.45.2-74.78.75-149.56,1.24-224.35.27-42.21.55-84.42.82-126.63.02-3.22-4.98-3.22-5,0h0Z"/><path class="cls-4" d="M770.81,5.45c-49.69-2.49-99.43-.27-149.11,1.36-49.34,1.61-98.67,1.68-148.02.57C375.72,5.18,277.83-.59,179.82.05,124.75.4,69.67,2.83,14.93,8.99c-3.16.36-3.2,5.36,0,5C112.72,2.99,211.29,4.01,309.5,7.1c98.01,3.08,196.03,8.01,294.12,5.27,55.71-1.55,111.46-4.7,167.19-1.91,3.22.16,3.21-4.84,0-5h0Z"/><path class="cls-4" d="M0,8.88c2.95,73.22,4.93,146.48,5.9,219.75.97,72.9.97,145.81-.02,218.71-.56,41.12-1.43,82.24-2.61,123.35-.09,3.22,4.91,3.22,5,0,2.1-73.25,3.22-146.53,3.34-219.81.12-72.91-.73-145.81-2.57-218.7-1.04-41.11-2.39-82.22-4.05-123.31C4.87,5.67-.13,5.65,0,8.88H0Z"/><path class="cls-4" d="M765.86,576.02c-98.42-.23-196.85-.47-295.27-.7-97.92-.23-195.84-.46-293.76-.7-55.24-.13-110.47-.26-165.71-.39-3.22,0-3.22,4.99,0,5,98.42.23,196.85.47,295.27.7,97.92.23,195.84.46,293.76.7,55.24.13,110.47.26,165.71.39,3.22,0,3.22-4.99,0-5h0Z"/></g></g></svg>