<?xml version="1.0" encoding="UTF-8"?><svg id="Layer_2" xmlns="http://www.w3.org/2000/svg" width="790.63" height="572.81" viewBox="0 0 790.63 572.81"><defs><style>.cls-1{fill:#fdb831;}.cls-1,.cls-2,.cls-3,.cls-4{stroke-width:0px;}.cls-3{fill:#fff;}.cls-4{fill:#231f20;}</style></defs><g id="Layer_9"><path class="cls-1" d="M5.56,0c9.74,104.42,9.34,185.2,6.89,241.36-5.98,137-6.88,152.94-6.88,152.94-1.37,24.28-3.35,56.58-3.16,100.72.12,29.42,1.16,53.74,2.08,70.38,258.66-.42,517.31-.84,775.97-1.25,5.85-111.84,8.72-229.28,7.63-351.84-.63-70.67-2.54-139.52-5.53-206.46C599.65,3.71,416.74,2.11,233.84,1.05"/><path class="cls-4" d="M780.15,12.22c3.3,72.27,6.38,144.54,5.39,216.9s-3.1,144.51-4.73,216.76c-.92,40.65-1.83,81.3-2.75,121.95-.07,3.22,4.93,3.22,5,0,1.63-72.43,3.27-144.86,4.9-217.28,1.63-72.16,3.81-144.29,1.95-216.46-1.05-40.64-2.91-81.25-4.76-121.86-.15-3.2-5.15-3.22-5,0h0Z"/><path class="cls-4" d="M769.03,567.17c-99.05-1.63-198.1-2.59-297.16-2.88-98.55-.29-197.11.09-295.66,1.12-55.59.58-111.18,1.38-166.77,2.39-3.21.06-3.22,5.06,0,5,99.04-1.79,198.1-2.92,297.16-3.37s197.11-.24,295.66.63c55.59.49,111.18,1.2,166.77,2.11,3.22.05,3.22-4.95,0-5h0Z"/><path class="cls-4" d="M3.15,3.67c1.43,36.48,2.87,72.97,4.3,109.45,1.41,35.95,3.08,71.9,2.9,107.88-.35,72.23-6.2,144.26-8.96,216.4-1.55,40.61-2.1,81.27-.17,121.88.15,3.2,5.15,3.22,5,0-3.43-72.14,1.02-144.3,4.84-216.33,1.92-36.23,3.67-72.48,4.17-108.76.49-35.97-.85-71.87-2.26-107.8-1.61-40.91-3.22-81.81-4.83-122.72-.13-3.21-5.13-3.22-5,0h0Z"/><path class="cls-4" d="M776.38,3.13c-99.54.22-199.08.23-298.63.01-99.18-.22-198.36-.71-297.54-1.16-55.69-.26-111.38-.51-167.07-.77-3.22-.01-3.22,4.99,0,5,99.15.45,198.31.92,297.46,1.36,99.39.44,198.79.7,298.18.73,55.87.01,111.73-.05,167.6-.17,3.22,0,3.22-5.01,0-5h0Z"/><path class="cls-3" d="M432.92,94.13c45.01,13.68,73.31,39.91,85.78,53.08,12.36,13.05,35.13,40.66,46.76,82.45,18.12,65.13-3.59,118.84-8.79,130.91-4.31,10-35.6,79.38-114.93,107.74-53.3,19.06-99.41,9.28-115.44,5.12-61.44-15.91-95.8-56.6-105.77-69.34-8.9-11.38-43.88-58.68-41.76-127.56.52-16.8,3.97-58.78,31.91-101.52,6.2-9.48,45.66-67.79,122.88-84.83,45.57-10.06,82.96-1.04,99.37,3.95Z"/><g id="Layer_8"><path class="cls-4" d="M375.67,482.18c-110.01,0-199.51-89.5-199.51-199.51s89.5-199.51,199.51-199.51,199.51,89.5,199.51,199.51-89.5,199.51-199.51,199.51ZM375.67,88.17c-107.25,0-194.51,87.25-194.51,194.51s87.25,194.51,194.51,194.51,194.51-87.25,194.51-194.51-87.25-194.51-194.51-194.51Z"/><path class="cls-2" d="M446.81,295.78c-35.33,16.45-70.65,32.9-105.98,49.35-2.55,2.33-6.25,2.93-9.41,1.52-3.15-1.4-5.18-4.55-5.16-8-.2-62.63.44-108.44,1.62-116.49.26-1.76.85-6.06,4.04-8.09,4.21-2.67,10.51.15,13.5,1.72,33.52,20.73,67.05,41.46,100.57,62.19,4.57,1.19,7.6,5.37,7.28,9.71-.26,3.63-2.82,6.84-6.47,8.09Z"/></g></g></svg>