<?xml version="1.0" encoding="UTF-8"?><svg id="Layer_2" xmlns="http://www.w3.org/2000/svg" width="790.63" height="571.6" viewBox="0 0 790.63 571.6"><defs><style>.cls-1{fill:#fdb831;}.cls-1,.cls-2{stroke-width:0px;}.cls-2{fill:#231f20;}</style></defs><g id="Layer_9"><g id="Layer_8"><path class="cls-1" d="M782.56,9.36c-182.92-2.13-365.82-3.73-548.73-4.79-76.08-.44-152.18-.79-228.28-1.05,9.74,104.42,9.34,185.2,6.89,241.36-5.98,137-6.88,152.94-6.88,152.94-1.37,24.28-3.35,56.58-3.16,100.72.12,29.42,1.16,53.74,2.08,70.38,258.66-.42,517.31-.84,775.97-1.25,5.85-111.84,8.72-229.28,7.63-351.84-.63-70.67-2.54-139.52-5.53-206.46Z"/><path class="cls-2" d="M780.15,11.01c3.3,72.27,6.38,144.54,5.39,216.9s-3.1,144.51-4.73,216.76c-.92,40.65-1.83,81.3-2.75,121.95-.07,3.22,4.93,3.22,5,0,1.63-72.43,3.27-144.86,4.9-217.28,1.63-72.16,3.81-144.29,1.95-216.46-1.05-40.64-2.91-81.25-4.76-121.86-.15-3.2-5.15-3.22-5,0h0Z"/><path class="cls-2" d="M769.03,565.96c-99.05-1.63-198.1-2.59-297.16-2.88-98.55-.29-197.11.09-295.66,1.12-55.59.58-111.18,1.38-166.77,2.39-3.21.06-3.22,5.06,0,5,99.04-1.79,198.1-2.92,297.16-3.37s197.11-.24,295.66.63c55.59.49,111.18,1.2,166.77,2.11,3.22.05,3.22-4.95,0-5h0Z"/><path class="cls-2" d="M3.15,2.46c1.43,36.48,2.87,72.97,4.3,109.45,1.41,35.95,3.08,71.9,2.9,107.88-.35,72.23-6.2,144.26-8.96,216.4-1.55,40.61-2.1,81.27-.17,121.88.15,3.2,5.15,3.22,5,0-3.43-72.14,1.02-144.3,4.84-216.33,1.92-36.23,3.67-72.48,4.17-108.76.49-35.97-.85-71.87-2.26-107.8-1.61-40.91-3.22-81.81-4.83-122.72-.13-3.21-5.13-3.22-5,0h0Z"/><path class="cls-2" d="M776.38,1.92c-99.54.22-199.08.23-298.63.01-99.18-.22-198.36-.71-297.54-1.16C124.53.51,68.84.26,13.14,0c-3.22-.01-3.22,4.99,0,5,99.15.45,198.31.92,297.46,1.36,99.39.44,198.79.7,298.18.73,55.87.01,111.73-.05,167.6-.17,3.22,0,3.22-5.01,0-5h0Z"/><path class="cls-2" d="M203.29,295.79c-.53-.12-.89-.35-1.12-.83-.41-.77-.53-1.89-.59-3.13-.06-2.48.3-5.43.24-6.79v-.47c.24-5.61.35-10.98.59-16.64-2.89,2.95-4.9,3.89-6.14,3.89-1,0-1.48-.65-1.48-1.53-.06-1,.53-2.18,1.65-2.77,2.66-1.71,3.89-4.07,6.25-6.25.41-.41.83-.59,1.42-.59,2.06.06,2.6,1.77,2.66,3.84.06,1.95-.24,4.19-.12,5.61-1.06,19.47.59,25.84-2.3,25.84-.29,0-.65-.06-1.06-.18Z"/><path class="cls-2" d="M214.67,283.4c-.3-8.79,4.84-19.24,11.45-23.43.47-.35.83-.47,1.24-.47.18-.06.41-.06.59-.06.41,0,.83.06,1.24.24.53.24.71.53.94.94,0,0,.29.77.12,1.24-.18.53-.47.94-1,1.24-5.96,3.01-10.03,12.92-10.09,17.11,3.3-5.25,7.49-7.14,11.15-7.14,3.95,0,7.32,2.18,8.61,4.78.41,1.24.65,2.54.71,3.89.3,7.67-5.9,15.93-13.57,15.4-7.91-1.53-11.15-7.2-11.39-13.75ZM235.56,281.39c-.06-.53-.12-1.12-.24-1.59-1.3-2.01-3.01-2.77-4.72-2.77-4.48,0-9.32,5.55-9.38,10.15-.06.53-.06.88-.06,1.42.12,2.42,2.3,3.72,4.48,4.37.41.12.88.12,1.3.12,5.43,0,8.79-6.73,8.61-11.68Z"/><path class="cls-2" d="M261.52,296.44c0-.24.06-.53.12-.77.47-1.48,2.07-8.14,1.95-8.26-.53-.71-.59-1.48-.65-2.01-.06-.77.41-1.24,1.53-1.89,2.71-10.5,4.07-16.7,7.2-21.6,1.06-1.71,2.48-2.71,4.13-2.71.77,0,1.65.24,2.6.71,5.13,2.83,8.2,23.48,9.44,33.63.24,1.89-.83,3.13-2.12,3.13-1.42,0-2.3-1.06-2.36-2.48-.12-.83.12-1.89.06-2.66-.12-1.24-.35-2.54-.77-3.84-4.25.35-11.45.18-14.81.3-.35,1.24-1.42,6.79-2.18,8.56-.35.83-.88,1.53-1.95,1.53-1.18.06-2.07-.65-2.18-1.65ZM282.17,283.22c-.94-6.55-2.95-16.82-5.96-20.06-4.01,6.2-5.43,13.28-7.26,20.42,3.66-.29,8.73.12,13.22-.35Z"/><path class="cls-2" d="M297.74,294.02c0-1.24-.06-2.42-.12-3.66-.12-4.72.06-9.38.41-14.04.24-3.36.53-6.73.89-10.09.06-.83.18-1.65.24-2.48.18-1.24.83-2.12,1.83-2.36,1-.29,1.95.06,2.77,1.12,2.01,2.6,3.54,5.49,5.19,8.32,2.77,4.72,5.55,9.56,8.5,14.16.35.59.83,1.18,1.36,1.95.53-2.48.41-4.78.65-7.08.12-1.53.29-3.13.24-4.66-.06-3.07.35-6.14.35-9.15,0-.24-.12-.53-.18-.77-.24-1.06.06-2.01.89-2.48.77-.53,1.83-.41,2.66.29.88.77,1.36,1.65,1.3,2.95-.12,3.07-.35,6.2-.41,9.26-.06,5.37-.59,10.74-1.3,16.05-.12,1.12-.06,2.24-.65,3.25-1.06,1.77-2.95,1.89-4.19.29-1.42-1.89-2.42-3.95-3.6-5.96-3.66-6.02-7.26-12.16-10.68-18.29-.12-.29-.29-.47-.59-.94-.12.94-.18,1.71-.24,2.42-.3,4.37-.65,8.73-.77,13.1-.12,2.48.06,5.02.06,7.55,0,.59.06,1.18-.12,1.77-.41,1.24-1.53,2.12-2.66,1.95s-1.89-1.12-1.83-2.48Z"/><path class="cls-2" d="M339.51,290.95c-.24-1.77-.06-3.54-.24-5.31-.29-3.89-.06-7.79.18-11.68.12-2.01.29-4.01.35-5.96-.06-1,0-2.01.29-2.95.18-.83.65-1.42,1.48-1.65.83-.24,1.53.12,2.12.71,1.18,1.18,1.36,2.95.53,4.43-.12.18-.18.47-.24.71-.12,3.42-.41,6.84-.41,10.33s.29,6.67.47,9.97c.06,1.24-.18,2.36-1.24,3.07-1.42.89-3.07.06-3.3-1.65Z"/><path class="cls-2" d="M358.22,296.03c0-.83.06-1.59.06-2.42.12-2.42.18-4.9.35-7.32.12-2.24.29-4.54.53-6.79l.18-2.01c.18-1.65.29-3.36.59-5.02.24-1.06.47-2.12.47-3.25.06-1.12.24-2.24.47-3.36.18-.94.35-1.83.41-2.77.12-.94.71-1.71,1.71-2.01.83-.24,1.59-.06,2.42.65.88.94,1.48,2.12,2.01,3.3.83,1.65,1.65,3.36,2.42,5.07.94,2.06,1.89,4.07,2.89,6.08,1.24,2.48,2.36,5.07,3.48,7.67l1.24,2.95h.24c.59-1.18,1-2.36,1.36-3.48l.41-1.12c.41-1,.77-2.07,1.18-3.07.94-2.48,1.89-4.96,2.95-7.43.53-1.3,1.06-2.6,1.53-3.89l1.59-3.89c.35-.88.71-1.77,1.48-2.3,1.3-.94,2.89-.53,3.42,1,.41,1.12.59,2.3.77,3.54.06.47.18.94.24,1.36.18,1.18.35,2.36.59,3.54l.53,3.54c.12.83.24,1.59.35,2.36.24,1.48.41,3.01.71,4.43.29,1.59.41,3.19.53,4.78.06,1.48.18,2.89.41,4.31.06.65,0,1.12-.18,1.59-.29,1-1.12,1.71-2.12,1.65-.94,0-1.89-.83-2.01-1.77-.41-2.6-.59-5.31-.77-7.97-.12-1.71-.29-3.42-.53-5.02-.18-1.18-.35-2.36-.59-3.54l-.53-3.54c-.06-.24-.12-.53-.24-.83h-.24c-.65.83-1,1.77-1.3,2.71l-.53,1.24c-1.65,4.13-3.3,8.32-4.9,12.45-.24.59-.47,1.24-.65,1.83-.41,1.12-.83,2.24-1.42,3.25l-.71,1.06c-.65.94-1.24,1.3-2.12,1.18-.94-.18-1.65-.77-2.12-2.01l-1.06-2.89c-.35-.94-.71-1.89-1-2.89-1-2.95-2.3-5.78-3.6-8.56-.59-1.18-1.12-2.42-1.65-3.6-.77-1.71-1.48-3.36-2.48-5.13l-.24.06c-.47,2.36-.71,4.54-.94,6.73-.47,3.72-.65,7.43-.89,11.15l-.18,3.19c0,.77-.06,1.53-.12,2.3s-.06,1.53-.12,2.3c-.12,1.48-.88,2.36-2.18,2.48-1.18.06-2.12-.71-2.12-1.89Z"/><path class="cls-2" d="M402.82,296.44c0-.24.06-.53.12-.77.47-1.48,2.06-8.14,1.95-8.26-.53-.71-.59-1.48-.65-2.01-.06-.77.41-1.24,1.53-1.89,2.71-10.5,4.07-16.7,7.2-21.6,1.06-1.71,2.48-2.71,4.13-2.71.77,0,1.65.24,2.6.71,5.13,2.83,8.2,23.48,9.44,33.63.24,1.89-.83,3.13-2.12,3.13-1.42,0-2.3-1.06-2.36-2.48-.12-.83.12-1.89.06-2.66-.12-1.24-.35-2.54-.77-3.84-4.25.35-11.45.18-14.81.3-.35,1.24-1.42,6.79-2.18,8.56-.35.83-.89,1.53-1.95,1.53-1.18.06-2.06-.65-2.18-1.65ZM423.47,283.22c-.94-6.55-2.95-16.82-5.96-20.06-4.01,6.2-5.43,13.28-7.26,20.42,3.66-.29,8.73.12,13.22-.35Z"/><path class="cls-2" d="M446.01,293.61c-.12-2.83-.24-5.72-.24-8.62-.06-4.25-.06-10.21,0-14.4,0-1.3.06-2.6-.06-4.01-1.83.29-3.6.53-5.37.94-.71.18-1.48.41-2.24.47-1.48.24-2.71-.59-2.89-1.83-.18-1.36.65-2.36,2.24-2.66,2.71-.41,5.43-.94,8.14-1.42.06,0,.18-.06.29-.12.18-1.3.12-2.89,2.01-3.07,1-.12,1.77.88,2.06,2.6,2.95-.24,5.96-.71,8.91-.83,1,0,1.83.12,2.36,1.06.89,1.42.06,3.01-1.71,3.25-2.01.24-4.01.41-6.02.59-1.12.12-2.3.29-3.54.41-.12,2.18-.06,4.31-.06,6.43.06,3.01-.06,7.79,0,10.86.06,3.07.24,6.14.35,9.21,0,.71,0,1.36-.29,2.01-.41.94-1.36,1.42-2.36,1.18-.94-.18-1.59-.94-1.59-2.06Z"/><path class="cls-2" d="M472.85,290.95c-.24-1.77-.06-3.54-.24-5.31-.29-3.89-.06-7.79.18-11.68.12-2.01.29-4.01.35-5.96-.06-1,0-2.01.29-2.95.18-.83.65-1.42,1.48-1.65.83-.24,1.53.12,2.12.71,1.18,1.18,1.36,2.95.53,4.43-.12.18-.18.47-.24.71-.12,3.42-.41,6.84-.41,10.33s.29,6.67.47,9.97c.06,1.24-.18,2.36-1.24,3.07-1.42.89-3.07.06-3.3-1.65Z"/><path class="cls-2" d="M490.73,281.34c0-8.44,3.36-14.75,11.8-17.58.59-.24,1.06-.41,2.01-.41.71,0,1.42.29,2.12.88,6.79.24,12.69,7.91,12.69,15.28.06,9.44-5.61,16.46-15.11,16.46-7.32,0-13.45-6.37-13.51-14.63ZM515.1,279.39c-.24-6.08-4.07-9.68-7.97-10.62-.89-.24-1.95-.29-2.77-.83-7.02,1-9.21,7.43-9.21,12.27.06,7.67,5.07,11.51,10.21,11.51,6.08,0,9.91-6.43,9.74-12.33Z"/><path class="cls-2" d="M529.61,294.02c0-1.24-.06-2.42-.12-3.66-.12-4.72.06-9.38.41-14.04.24-3.36.53-6.73.89-10.09.06-.83.18-1.65.24-2.48.18-1.24.83-2.12,1.83-2.36,1-.29,1.95.06,2.77,1.12,2.01,2.6,3.54,5.49,5.19,8.32,2.77,4.72,5.55,9.56,8.5,14.16.35.59.83,1.18,1.36,1.95.53-2.48.41-4.78.65-7.08.12-1.53.29-3.13.24-4.66-.06-3.07.35-6.14.35-9.15,0-.24-.12-.53-.18-.77-.24-1.06.06-2.01.89-2.48.77-.53,1.83-.41,2.66.29.88.77,1.36,1.65,1.3,2.95-.12,3.07-.35,6.2-.41,9.26-.06,5.37-.59,10.74-1.3,16.05-.12,1.12-.06,2.24-.65,3.25-1.06,1.77-2.95,1.89-4.19.29-1.42-1.89-2.42-3.95-3.6-5.96-3.66-6.02-7.26-12.16-10.68-18.29-.12-.29-.29-.47-.59-.94-.12.94-.18,1.71-.24,2.42-.3,4.37-.65,8.73-.77,13.1-.12,2.48.06,5.02.06,7.55,0,.59.06,1.18-.12,1.77-.41,1.24-1.53,2.12-2.66,1.95s-1.89-1.12-1.83-2.48Z"/><path class="cls-2" d="M570.61,295.14c-1.18-3.19-1.48-6.49-1.71-9.85-.24-4.31-.29-8.56-.18-12.86.06-1.89.24-5.02.18-8.14-1.65-1.48-1.48-2.54.29-3.66.94-.65,1.83-.89,2.95-.47.41.12.88,0,1.36-.06,2.95-.24,5.9-.59,8.85-.83.88-.06,1.77.06,2.66.24,1,.12,1.71,1,1.71,1.83.06.94-.65,1.89-1.71,2.01-2.24.18-4.48.18-6.73.35-1.71.12-3.36.35-5.19.53v11.98c1.71-.24,3.42-.53,5.13-.71,2.18-.18,4.37-.47,6.55-.35,1.3.06,2.01.83,2.07,1.95,0,1.12-.77,1.89-2.07,2.01-2.24.24-4.54.18-6.84.47-1.71.24-3.36.65-5.02.77.29,3.72.24,7.85,1.18,11.8.65,2.54,1.36,3.36,4.25,2.54,1.71-.47,3.36-1.12,5.07-1.65,1.3-.41,2.48-.06,2.83,1,.41,1.06-.12,2.3-1.36,2.83-2.66,1.06-5.25,2.18-8.14,2.42-2.3.12-5.31-1.89-6.14-4.13Z"/><path class="cls-2" d="M598.05,295.08c-.35-1.65-.18-3.36-.24-5.07-.18-4.37-.53-8.67-.71-13.04-.12-3.25-.18-6.49.06-9.74.06-.94.06-1.95.06-2.95,0-.94.47-1.59,1.42-1.83,3.19-.94,6.43-1.83,9.74-1.53,4.54.47,8.56,2.12,11.03,6.2,1.24,2.06,1.53,4.48.83,6.84-1,3.48-3.3,5.9-6.73,7.2l-2.18.88c2.07,2.6,4.25,5.02,6.61,7.32.83.83,1.53,1.71,2.3,2.6.71.89.65,2.12-.06,2.77-.83.77-2.07.83-2.95-.12-1.59-1.53-3.19-3.13-4.66-4.72-2.12-2.36-4.13-4.78-6.02-7.2-1.59-.12-3.07.18-4.66,0l.53,9.74c.06.77.06,1.53,0,2.3-.06,1.3-.89,2.18-2.07,2.24-1.06.12-2.06-.71-2.3-1.89ZM609.55,278.09c1.95-.41,3.66-1.18,5.02-2.6,1.59-1.59,2.18-3.48,1.48-5.66-.71-2.3-2.71-3.19-4.72-4.01-2.06-.88-4.31-.77-6.43-.41-1.24.18-2.54.18-3.54.89-.29,4.07.18,8.08.24,12.04.47.24.94.24,1.36.29,2.24.18,4.43-.12,6.61-.53Z"/></g></g></svg>