<?xml version="1.0" encoding="UTF-8"?><svg id="Layer_2" xmlns="http://www.w3.org/2000/svg" width="680.26" height="667.37" viewBox="0 0 680.26 667.37"><defs><style>.cls-1{fill:#fdb94c;}.cls-1,.cls-2,.cls-3,.cls-4,.cls-5{stroke-width:0px;}.cls-2{fill:#f36f5b;}.cls-3{fill:#231f20;}.cls-4{fill:#381f15;}.cls-5{fill:#b45b27;}</style></defs><g id="Layer_3"><path class="cls-5" d="M334.47,60.72c-6.03,14.67-12.08,32.01-17.02,51.8-4.8,19.22-7.6,36.88-9.21,52.31,7.85,3.02,14.26,5.89,18.91,8.09,11.15,5.28,13.57,7.36,15.34,9.48,5.21,6.24,5.48,13.76,5.76,16.92.85,9.85,5.83,24.4,24.21,44.79,11.08,4.81,25.1,11.74,40.41,21.64,21.63,13.99,36.62,27.95,43.84,35.07,34.48,34.03,45.61,64.22,51.08,61.95,3.05-1.26,3.86-11.06-5.58-47.87,11.04,15.23,22.08,30.47,33.12,45.7,7.49-6.4,13.33-12.32,17.57-16.92,5.27-5.72,15.62-17.61,25.83-34.81,4.64-7.81,8.02-14.65,10.32-19.66-5.41-5.96-10.82-11.91-16.23-17.87,1-3.84,3.99-13.11,12.73-20.68,5.49-4.75,11.12-6.98,14.68-8.06-5.09-5.59-10.47-11.21-16.16-16.81-28.89-28.44-58.88-49.78-86.71-65.89-.18,1.64-.71,4.46-2.58,7.3-.62.94-2.33,3.31-6.14,5.49-8.78,5.03-19.26,3.61-26.35,2.56-5.67-.84-4.57-1.31-9.67-2.03-11.3-1.6-16.09.8-24.58.6-11.22-.26-19.64-4.85-23.31-6.85-4.82-2.62-15.74-8.78-22.1-22.07-5.06-10.56-4.76-20.47-4.22-25.52-1.76-11.48-1.9-20.45-1.64-26.82.13-3.35.43-7.19-1.62-11.33-2.72-5.5-8.01-8.38-11.75-9.88-9.64-3.55-19.29-7.09-28.93-10.64Z"/><path class="cls-4" d="M489.59,42.36c3.75,1.81,5.05,6.29,5.74,8.58,4.18,13.88,10.59,27.04,14.56,40.99,1.61,5.66,4.11,14.15,7.52,24.55,3.2-1.37,6.39-2.73,9.59-4.1-.59,11.55-1.17,23.09-1.76,34.64-.94,1.75-2.87,4.79-6.4,7.33-1.88,1.35-5.29,3.8-9.59,3.77-5.36-.04-9.28-3.92-16.08-10.64-2.71-2.68-4.79-5.1-6.19-6.82,1.17.13,8.92.83,14.55-4.77,7.74-7.69,3.5-19.32,3.29-19.88-.53-1.39-3.87-10.09-11.21-10.82-4.22-.42-8.35,1.94-10.66,4.94-4.23,5.51-1.27,11.82-3.55,13.29-2.33,1.51-9.22-2.67-27-22.64,2.96,8.96,2.23,11.77.97,12.64-4.02,2.79-18.43-10.61-26.5-19.85-6.1-6.98-10.24-13.5-12.86-18.09.52,2.54-1.21,4.86-3.35,5.13-1.72.22-3.55-.91-4.26-2.8-1.45,5.75-4.51,14.52-11.31,22.71-2.58,3.11-7.7,9.28-14.61,11.22-.29.08-1.84.46-4.95,1.22-8.26,2.03-9.03,2.13-9.97,2.1-1.95-.06-5.38-.73-9.51-4.82-.8-7.02.54-11.9,2.03-15.16,1.87-4.09,4.73-7.27,3.71-8.53-.9-1.11-3.62.72-7.89-.08-2.31-.43-4.06-1.45-5.13-2.2,2.98-1.72,6.57-4.28,9.84-8.1,6.01-7.03,5.9-12.47,13.36-27.07,4.33-8.47,6.22-10.27,8.18-11.49,4.92-3.08,9.85-2.3,16.47-1.86,2.74.18,13.15-.28,33.99-1.33,19.72-.99,29.39-2.77,32.92,2.66,1.41,2.17,1.17,4.47,3.48,5.76,3.12,1.75,6.26-1.47,12.71-1.47.04,0,6.17-.8,9.86.99Z"/><path class="cls-3" d="M509.33,158.37s-.05,0-.08,0c-5.47-.04-9.53-4.05-16.25-10.71-2.18-2.16-4.27-4.46-6.21-6.84l-.38-.47.6.06c2.04.22,9.09.52,14.35-4.7,7.69-7.65,3.42-19.13,3.23-19.61-1.15-2.99-4.51-10.02-11-10.66-4.31-.43-8.35,2.13-10.44,4.85-2.39,3.1-2.44,6.42-2.48,9.08-.03,1.99-.06,3.57-1.14,4.26-3,1.94-11.68-5.2-26.54-21.8,2.11,6.71,2.27,10.58.51,11.8-4.46,3.08-20-12.07-26.83-19.89-4.63-5.3-8.78-11.08-12.33-17.17-.04.92-.33,1.82-.87,2.57-.69.96-1.7,1.59-2.78,1.72-1.66.21-3.34-.74-4.22-2.31-2.22,8.42-5.98,15.86-11.19,22.13-2.52,3.03-7.75,9.34-14.73,11.31-.29.08-1.81.46-4.96,1.23-8.37,2.05-9.08,2.14-10.04,2.11-3.25-.1-6.5-1.75-9.68-4.89l-.06-.06v-.09c-.66-5.75.03-10.89,2.04-15.29.67-1.47,1.47-2.82,2.18-4.01,1.18-2,2.12-3.58,1.57-4.25-.34-.42-1.1-.29-2.27-.1-1.35.22-3.2.53-5.47.1-1.83-.34-3.58-1.1-5.22-2.24l-.32-.22.34-.2c3.79-2.19,7.08-4.9,9.78-8.05,3.48-4.07,4.86-7.52,6.94-12.74,1.46-3.65,3.27-8.18,6.38-14.27,4.46-8.72,6.39-10.41,8.27-11.59,4.45-2.79,8.89-2.46,14.5-2.05.69.05,1.39.1,2.12.15,2.75.18,13.6-.31,33.96-1.33,3.39-.17,6.54-.37,9.31-.54,13.87-.87,20.84-1.31,23.83,3.31.53.82.83,1.65,1.12,2.44.48,1.32.89,2.46,2.27,3.23,1.6.89,3.2.41,5.41-.25,1.86-.56,4.18-1.25,7.18-1.25,1.07-.12,6.54-.64,9.97,1.01,3.8,1.84,5.13,6.27,5.85,8.65l.03.09c1.99,6.62,4.54,13.18,7,19.53,2.7,6.96,5.49,14.16,7.56,21.46,2.27,7.99,4.77,16.16,7.43,24.28l9.71-4.15-.02.4-1.79,34.75c-1.58,2.94-3.82,5.5-6.48,7.41-1.86,1.34-5.32,3.81-9.66,3.81ZM487.56,140.96c1.82,2.21,3.76,4.34,5.79,6.35,6.86,6.79,10.64,10.53,15.9,10.56.03,0,.05,0,.08,0,4.18,0,7.55-2.42,9.36-3.72,2.58-1.85,4.76-4.34,6.3-7.2l1.74-34.18-9.47,4.04-.08-.26c-2.7-8.22-5.23-16.48-7.53-24.56-2.07-7.28-4.86-14.47-7.55-21.42-2.46-6.36-5.01-12.93-7.01-19.57l-.03-.09c-.69-2.31-1.99-6.6-5.59-8.34h0c-3.3-1.59-8.65-1.08-9.68-.97h-.07c-2.92,0-5.2.69-7.03,1.24-2.24.67-4.02,1.2-5.8.2-1.54-.86-2-2.14-2.5-3.5-.28-.77-.57-1.57-1.07-2.34-2.84-4.38-10.14-3.92-23.38-3.09-2.77.17-5.92.37-9.31.54-20.39,1.03-31.24,1.51-34.02,1.33-.73-.05-1.43-.1-2.12-.15-5.52-.4-9.88-.72-14.19,1.98-1.83,1.14-3.69,2.79-8.09,11.4-3.1,6.07-4.91,10.6-6.37,14.23-2.03,5.08-3.5,8.75-7.03,12.88-2.65,3.1-5.86,5.77-9.56,7.96,1.49.98,3.07,1.63,4.7,1.94,2.19.41,3.98.11,5.3-.1,1.29-.21,2.22-.37,2.74.28.77.95-.2,2.57-1.53,4.82-.7,1.18-1.49,2.52-2.15,3.97-1.97,4.3-2.65,9.33-2.02,14.94,3.07,3.01,6.19,4.59,9.28,4.68.88.02,1.61-.06,9.9-2.1,3.14-.77,4.66-1.14,4.94-1.22,6.83-1.93,12-8.15,14.48-11.14,5.3-6.39,9.09-13.99,11.26-22.62l.2-.77.28.75c.65,1.74,2.32,2.85,3.99,2.64.94-.12,1.83-.67,2.44-1.52.68-.94.93-2.15.7-3.31l-.31-1.53.77,1.35c3.66,6.42,7.98,12.5,12.83,18.05,8.32,9.53,22.4,22.43,26.17,19.81,1.61-1.11,1.24-5.39-1.06-12.36l-.38-1.15.8.9c18.61,20.89,24.78,23.82,26.68,22.59.85-.55.88-2.01.91-3.85.04-2.59.1-6.14,2.58-9.38,2.17-2.83,6.38-5.49,10.88-5.04,6.77.67,10.24,7.9,11.42,10.98.19.5,4.58,12.27-3.34,20.15-4.98,4.95-11.52,5.08-14.16,4.9Z"/><path class="cls-2" d="M467.62,139.64c-3.42.6-10.01,1.76-10.21,4.08-.15,1.78,3.43,4.13,6.81,4.22,5.96.17,10.94-6.66,9.96-8.42-.53-.94-2.82-.54-6.56.12Z"/><path class="cls-2" d="M398.73,138.12c.08-3.04-9.57-7.67-13.46-4.4-1.22,1.03-1.93,2.89-1.51,4.4.87,3.11,6.42,4.45,10.52,3.24.43-.13,4.4-1.31,4.45-3.24Z"/><path class="cls-1" d="M451.44,226.09c.24,1.94-6.06,5.43-35.17,12.25-2.62,2.33-5.04,5.4-5.23,9.14-.27,5.24,4,8.62,3.21,9.51-1.46,1.63-13.89-11.91-33.23-17.16-8.86-2.4-16.17-2.25-20.92-2.12-17.23.48-29.42,6.29-32.3,7.72-2.26,1.12-6.77,3.4-11.94,7.45-6.84,5.37-11.86,11.53-11.93,11.47-.1-.09,11.53-8.86,13.5-22.29.4-2.7.87-5.92-.5-9.53-.71-1.87-3.21-7.31-22.89-14.84-4.62-1.77-11.05-3.98-18.98-5.94,5.5,1.11,14.98,2.19,25.82-.98,22.32-6.51,32.49-25.74,34.47-29.68,3.83,3.8,11.48,10.29,23.02,13.7,18.92,5.58,34.86-1.12,39.33-3.18-1.59,2.82-3.59,7.5-2.12,12.08,1.83,5.71,8.13,8.39,16.99,11.33,24.33,8.06,38.53,8.25,38.87,11.07Z"/><path class="cls-1" d="M537.14,38.84c5.55,8.31,17.31,28.35,18.18,56.38.7,22.43-5.9,39.71-10.05,48.61,5.15-6.79,18.58-22.59,42.03-30.99,29.53-10.58,55.1-2.34,62.44.32-6.64-5.88-20.88-20.12-28.15-43.42-8.48-27.19-2.3-50.14.35-58.38-1.26,3.77-8.21,23.22-28.69,32.87-28.07,13.23-54.87-4.54-56.11-5.39Z"/><path class="cls-1" d="M165.81,356.86c-.86-.94-12.63,9.94-32.75,21.13-21.49,11.95-29.76,11.62-34.37,10.79-7.65-1.37-13.45-5.56-15.21-3.52-1.89,2.18,3.34,8.7,5.35,12.87,12.57,26.18-43.99,81.34-42.92,82.3.52.47,12.88-13.52,32-26.08,16.77-11.01,24.07-11.29,28.72-10.5,10.85,1.85,14.53,10.74,18.89,9.02,6.74-2.65-1.82-23.94,3.9-46.67,7.75-30.8,37.65-47.99,36.4-49.35Z"/><path class="cls-1" d="M584.22,453.98c-1.61.2,2.71,14.95-3.9,29.59-5.82,12.9-17.18,19.22-15.42,22.09,1.29,2.11,7.08-1.85,12.94-.39,16.65,4.14,20.08,48.48,20.78,48.36.51-.09-7.28-22.33,1.6-39.5,5.39-10.43,15.33-15.89,21.93-18.7-5.56,0-14.42-.87-21.76-6.66-14.49-11.42-14.19-35.04-16.18-34.79Z"/><path class="cls-4" d="M437.72,274.64c9.54,8.1,23.45,20.61,38.86,37.34,20.9,22.68,31.43,34.33,34.9,49.29,4.96,21.34-.17,49.05-18.5,65.13-5.13,4.5-10.26,7.18-13.91,8.77-16.62-17.5-27.29-28.74-27.29-28.74,0,0-3.64,2.5-11.06,7.6-2.35-2.89-4.71-5.8-7.07-8.72-4.64-5.76-9.23-11.5-13.77-17.22-8.76,8.98-20.33,19.32-35.02,29.24-12.95,8.74-25.23,15.06-35.75,19.65-4.48-7.69-8.95-15.38-13.43-23.07-5.66,1.2-11.5,2.61-17.52,4.27-17.18,4.75-32.42,10.65-45.65,16.79l-67.11,92.99c-15.47-5.2-35.91-14.43-55.72-31.32-6.37-5.43-11.84-10.94-16.52-16.25,27.52-49.17,42.25-79.14,50.19-98.53,2.01-4.92,7.55-18.84,19.72-33.43,4.7-5.63,11.76-13.96,23.42-21.03,10.74-6.51,20.1-8.7,38.38-12.81,12.4-2.79,23.01-4.34,30.88-5.25-1.52-6.48-3.16-16.5-2.23-28.68.68-8.97,1.1-14.39,4.25-20.28,7.03-13.15,21.89-17.78,35.48-22.02,8.64-2.69,17.44-5.44,29.12-4.85,22.3,1.12,38.05,13.51,44.36,19.14,10.32,7.33,20.65,14.66,30.97,21.99Z"/><path class="cls-1" d="M447.04,424.51c.22,5.61-4,9.81-6.01,11.82-.57.57-9.13,8.82-20.39,6.7-3.81-.72-6.44-2.34-7.83-3.23-8.08-5.11-11.02-13.29-11.98-16.51,10.47,1.24,17.12-.93,21.43-4.53,6.39-5.35,7.23-13.52,11.4-13.46,2.04.03,3.95,2.77,7.76,8.24,3.67,5.26,5.5,7.89,5.62,10.97Z"/><path class="cls-1" d="M150.33,527.58c1.72-.04.75,10.77,6.58,16.57,5.46,5.44,15.28,4.87,24.35,2.78-3.64,13.05-7.29,26.1-10.93,39.15-.87.42-8.68,3.99-15.09-.02-3.65-2.28-5.16-5.97-5.64-7.17-2.62-6.64,1.33-9.56-1.32-14.61,0,0-1.38-2.63-9.22-8.01h0s-1.57-1.9-4-4.84c2.98-1.67,6.84-4.42,9.71-8.9,4.63-7.23,4.11-14.92,5.56-14.96Z"/></g><g id="Layer_2-2"><path class="cls-3" d="M498.8,153.34c13.87,9.54,27.75,19.08,41.33,29.03s26.75,20.26,39.3,31.39c7.07,6.27,13.93,12.79,20.49,19.59,1.12,1.16,2.89-.61,1.77-1.77-11.71-12.14-24.35-23.35-37.49-33.91-13.14-10.56-26.77-20.49-40.57-30.18-7.82-5.49-15.69-10.9-23.57-16.31-1.33-.91-2.58,1.25-1.26,2.16h0Z"/><path class="cls-3" d="M597.26,233.32c-11.33,7.57-19.44,18.72-26.05,30.45-3.49,6.2-6.62,12.59-9.75,18.98-3.76,7.66-7.49,15.34-11.19,23.02-3.42,7.11-6.94,14.2-9.82,21.56-1.44,3.68-2.71,7.43-3.67,11.27-.46,1.84-.86,3.7-1.16,5.57-.27,1.66-.77,3.58-.05,5.19,1.23,2.77,4.48,2.29,6.67,1.06,1.38-.78,2.49-1.91,3.61-3.01,1.29-1.26,2.56-2.54,3.82-3.84,5.18-5.33,10.1-10.91,14.75-16.72,9.22-11.53,17.36-23.9,24.25-36.96.87-1.66,1.73-3.33,2.56-5.01.71-1.44-1.44-2.7-2.16-1.26-6.3,12.67-13.74,24.76-22.24,36.07-4.18,5.57-8.63,10.94-13.3,16.11-2.32,2.57-4.71,5.09-7.14,7.55-1.22,1.23-2.43,2.47-3.7,3.65-.95.88-2.24,1.83-3.57,1.94-1.63.15-1.45-1.58-1.29-2.75.27-1.96.65-3.9,1.1-5.82.83-3.55,1.94-7.03,3.21-10.45,2.66-7.15,6.03-14,9.33-20.87,6.48-13.49,12.8-27.12,19.87-40.32,6.8-12.68,15.03-25.13,27.19-33.26,1.33-.89.08-3.06-1.26-2.16h0Z"/><path class="cls-3" d="M600,232.49c1.3,2.42,1.82,5.29,1.42,7.95-.1.67.17,1.34.87,1.54.59.16,1.44-.2,1.54-.87.51-3.41-.04-6.83-1.67-9.88-.32-.59-1.14-.78-1.71-.45-.6.35-.77,1.11-.45,1.71h0Z"/><path class="cls-3" d="M595.93,237.77c12.95,11.81,24.64,24.98,35.03,39.09s19.55,29.17,27.62,44.74c4.07,7.87,7.87,15.88,11.42,23.99,1.72,3.93,3.44,7.87,4.97,11.87,1.27,3.32,2.3,6.83,2.61,10.39.27,3.15.05,6.53-1.71,9.25-2.21,3.41-6.24,4.38-10.09,4.24-7.62-.27-17.87-4.6-23.33,3.12-1.78,2.52-2.52,6.16-.72,8.87,1.06,1.59,2.73,2.44,4.33,3.39,1.47.87,2.67,1.95,2.72,3.76.11,3.58-3.09,6.07-6.48,5.85-4.41-.28-7.64-3.81-9.62-7.45-1.05-1.95-1.86-4.01-2.66-6.07-.58-1.48-2.99-.84-2.41.66,1.62,4.17,3.32,8.58,6.66,11.71,2.9,2.72,7.17,4.45,11.13,3.31,3.28-.94,5.64-4.05,5.87-7.43.11-1.65-.4-3.29-1.47-4.55-1.3-1.54-3.23-2.18-4.81-3.35-3-2.22-1.77-6.28.57-8.51,3.43-3.28,9.07-2.38,13.29-1.68s8.79,1.54,12.99.13c3.41-1.14,6.02-3.67,7.32-7.01,2.63-6.78.08-14.81-2.52-21.19-3.46-8.49-7.17-16.89-11.17-25.14-7.95-16.43-17.04-32.34-27.46-47.34s-22.2-29.15-35.39-41.84c-1.62-1.55-3.26-3.09-4.91-4.6-1.19-1.08-2.96.68-1.77,1.77h0Z"/><path class="cls-3" d="M629.61,402.5c-2.77,1.36-6.05-.83-8.32-2.31-2.41-1.57-4.67-3.4-6.6-5.54-1.82-2.03-3.34-4.42-3.98-7.1-.67-2.83-.1-5.61,1.1-8.21s3.04-5.17,3.75-7.98c.31-1.21-.05-2.57-1.32-3.04-1.11-.41-2.32.13-3.2.81-2.4,1.86-4.39,4.63-6.15,7.08s-3.16,5.16-4.76,7.74c-1.39,2.26-3.34,4.92-6.2,5.23-2,.22-4.88-.66-5-3.04-.08-1.6-2.58-1.61-2.5,0,.25,4.97,6.41,6.71,10.34,4.78,2.65-1.3,4.46-3.89,5.92-6.36,1.64-2.78,3.19-5.58,5.16-8.16,1.01-1.33,2.1-2.6,3.24-3.82.53-.57,1.08-1.29,1.76-1.68l.29-.15c.33-.08.33-.1,0-.05-.14.55-.39,1.1-.62,1.61-1.28,2.87-3.04,5.53-3.98,8.55-1.81,5.85.65,11.53,4.63,15.84,2.26,2.45,4.97,4.52,7.81,6.26s6.5,3.36,9.88,1.7c1.44-.71.18-2.87-1.26-2.16h0Z"/><path class="cls-3" d="M589.85,384.38c1.23-8.5,4.45-16.54,9.45-23.52.94-1.31-1.23-2.56-2.16-1.26-5.1,7.13-8.44,15.44-9.7,24.12-.23,1.57,2.18,2.25,2.41.66h0Z"/><path class="cls-3" d="M643.98,350.86c-15.44,2.01-30.75,4.87-45.86,8.6-1.56.38-.9,2.8.66,2.41,14.89-3.67,29.99-6.52,45.2-8.51,1.57-.21,1.59-2.71,0-2.5h0Z"/><path class="cls-3" d="M574.01,264.58c9.96,11.4,19.93,22.8,29.89,34.2s19.66,22.09,29.14,33.42c4.76,5.69,9.22,11.79,11.94,18.74.58,1.48,3,.84,2.41-.66-5.05-12.92-15.34-23.08-24.32-33.35-10.07-11.53-20.15-23.05-30.22-34.58-5.69-6.51-11.39-13.03-17.08-19.54-1.06-1.21-2.82.56-1.77,1.77h0Z"/><path class="cls-3" d="M472.62,149.77c-2.85,8.17-9.31,14.64-16.96,18.48-8.84,4.43-19.11,5.33-28.81,4.2-17.87-2.08-35.28-11.92-43.29-28.49-4.34-8.97-5.68-19.4-2.99-29.05.43-1.55-1.98-2.21-2.41-.66-2.53,9.09-1.71,18.87,1.77,27.6s9.59,16.38,17.31,21.97,16.91,9.15,26.3,10.68c10.12,1.65,20.88,1.2,30.45-2.75s17.62-11.44,21.06-21.31c.53-1.52-1.88-2.18-2.41-.66h0Z"/><path class="cls-3" d="M415.68,118.76c-8.12-6.26-21.32-6.36-28.87.99-1.85,1.8-3.11,4.22-2.78,6.85s2.2,4.31,4.63,5.07c2.91.9,6.16,1.15,9.17,1.57s6.24.72,9.36.18c5.72-.98,11.12-5.85,10.13-12.05-.25-1.58-2.66-.91-2.41.66.71,4.45-3.61,7.9-7.5,8.8-5.15,1.19-10.84-.24-15.95-1.1-1.97-.33-4.43-.81-4.92-3.11s.98-4.24,2.6-5.62c3.26-2.79,7.68-4.21,11.93-4.33,4.82-.15,9.52,1.31,13.34,4.26,1.27.98,2.52-1.19,1.26-2.16h0Z"/><path class="cls-3" d="M468.36,123.37c-6.13-3.2-12.5-6.45-19.52-6.94-5.26-.37-11.94,1.59-12.99,7.55-1.14,6.41,4.02,11.19,9.51,13.25,6.06,2.26,13.75,2.45,19.62-.52,2.69-1.36,4.98-3.72,5.48-6.78.46-2.84-.5-5.81-3.03-7.35-1.38-.84-2.63,1.32-1.26,2.16,1.74,1.06,2.21,3.27,1.76,5.16-.55,2.3-2.49,3.86-4.54,4.82-5.04,2.36-11.45,2.1-16.62.36-4.46-1.49-9.46-5.27-8.46-10.62.91-4.84,6.67-5.84,10.77-5.52,6.46.51,12.39,3.64,18.04,6.58,1.42.74,2.69-1.41,1.26-2.16h0Z"/><path class="cls-3" d="M458.03,125.92c-.68.35-1.25.92-1.65,1.56s-.62,1.43-.63,2.2c0,.32.14.66.37.88s.57.38.88.37.66-.12.88-.37.36-.54.37-.88c0-.12,0-.24.02-.35l-.04.33c.04-.28.11-.54.22-.8l-.13.3c.11-.24.24-.47.4-.68l-.2.25c.16-.21.35-.4.55-.56l-.25.2c.15-.11.3-.21.47-.29.27-.14.5-.46.57-.75s.05-.7-.13-.96-.43-.5-.75-.57c-.34-.08-.65-.03-.96.13h0Z"/><path class="cls-3" d="M404.04,123.04l-1.46,2.78c-.16.3-.22.64-.13.96.08.29.3.6.57.75.29.15.64.23.96.13.3-.1.59-.29.75-.57l1.46-2.78c.16-.3.22-.64.13-.96-.08-.29-.3-.6-.57-.75-.29-.15-.64-.23-.96-.13-.3.1-.59.29-.75.57h0Z"/><path class="cls-3" d="M473.77,131.74c-.32-.42-.63-.74-1.06-1.05-.33-.24-.72-.41-1.11-.53-.78-.25-1.68-.26-2.46,0-.31.1-.58.29-.75.57-.16.27-.22.66-.13.96.2.62.87,1.09,1.54.87.16-.05.32-.09.49-.11l-.33.04c.26-.03.51-.03.77,0l-.33-.04c.27.04.54.11.79.22l-.3-.13c.22.1.43.22.63.37l-.25-.2c.19.15.37.32.52.51l-.2-.25.03.04c.2.27.41.48.75.57.3.08.7.05.96-.13s.5-.43.57-.75.07-.7-.13-.96h0Z"/><path class="cls-3" d="M465.57,136.18c.35.15.68.35.99.58l-.25-.2c.3.24.57.51.81.81l-.2-.25c.17.22.32.45.45.7.14.27.46.5.75.57s.7.05.96-.13.5-.43.57-.75c.08-.34.03-.65-.13-.96-.12-.24-.26-.46-.43-.68-.22-.29-.44-.57-.71-.82-.46-.43-.98-.8-1.56-1.04-.14-.09-.3-.14-.46-.15-.17-.04-.33-.03-.5.02-.29.08-.6.3-.75.57-.15.29-.23.64-.13.96.09.29.28.62.57.75h0Z"/><path class="cls-3" d="M384.67,128.05l-2.7,1.61c-.27.16-.49.44-.57.75s-.05.7.13.96.43.5.75.57.67.05.96-.13l2.7-1.61c.27-.16.49-.44.57-.75s.05-.7-.13-.96-.43-.5-.75-.57-.67-.05-.96.13h0Z"/><path class="cls-3" d="M390.3,130.9l-2.2,2.66c-.22.26-.37.53-.37.88,0,.31.14.67.37.88s.55.38.88.37c.31-.01.68-.11.88-.37l2.2-2.66c.22-.26.37-.53.37-.88,0-.31-.14-.67-.37-.88s-.55-.38-.88-.37c-.31.01-.68.11-.88.37h0Z"/><path class="cls-3" d="M410.61,80.12c.8-2.81-2.75-4.61-4.99-3.3-1.34.79-2.04,2.23-2.54,3.64-.62,1.74-1.13,3.52-1.76,5.26-2.48,6.85-5.9,13.51-11.22,18.59-2.86,2.73-6.2,4.92-9.94,6.23l1.58,1.21c0-.79,0-1.58,0-2.36,0-.88-.79-1.33-1.58-1.21-1.94.31-3.27,1.74-4.6,3.06-1.57,1.57-3.45,2.52-5.67,2.78-4.82.57-9.29-1.84-13.39-4.03-1.42-.76-2.68,1.4-1.26,2.16,4.39,2.34,9.13,4.81,14.26,4.41,2.22-.17,4.42-.82,6.23-2.15,1.67-1.23,2.94-3.48,5.1-3.82l-1.58-1.21c0,.79,0,1.58,0,2.36s.8,1.48,1.58,1.21c7.33-2.57,13.14-8.04,17.23-14.54,2.25-3.57,3.99-7.45,5.45-11.4.7-1.89,1.27-3.81,1.93-5.71.26-.76.6-1.75,1.3-2.23.36-.24,1.67-.3,1.47.39-.44,1.55,1.97,2.21,2.41.66h0Z"/><path class="cls-3" d="M358.86,73.81c-2.83,3.91-6.35,7.27-10.72,9.39-.88.43-.74,1.69,0,2.16,4.17,2.62,9.17,3.45,13.98,2.41l-1.41-1.84c-4.15,7.4-6.23,15.83-5.91,24.32.06,1.6,2.56,1.61,2.5,0-.3-8.06,1.62-16.02,5.57-23.06.55-.98-.36-2.07-1.41-1.84-4.17.91-8.45.11-12.05-2.15v2.16c4.76-2.31,8.54-6.04,11.61-10.29.94-1.31-1.22-2.55-2.16-1.26h0Z"/><path class="cls-3" d="M468.27,42.84c.01-2.87-1.53-5.14-3.87-6.69-2.18-1.45-5.11-2.58-7.72-2.82-8.72-.83-17.54-.58-26.28-.15-8.78.44-17.55,1.12-26.34,1.3-4.4.09-8.86.19-13.22-.38-1.97-.26-3.96-.09-5.89.37s-4.11,1.12-5.66,2.25c-3.16,2.31-5.52,6.14-7.3,9.55-1.91,3.65-3.37,7.52-4.85,11.36-.58,1.5,1.84,2.15,2.41.66,2.38-6.22,4.77-12.83,9.39-17.79.52-.56,1.06-1.16,1.67-1.63.85-.66,2-1.04,3-1.4,1.83-.64,3.72-1.05,5.67-1.01.99.02,1.92.28,2.89.39,1.04.12,2.12.08,3.17.11,2.02.05,4.04.06,6.06.05,16.17-.14,32.28-2.21,48.47-1.62,3.69.14,7.31.21,10.78,1.6,2.58,1.04,5.14,2.78,5.13,5.83,0,1.61,2.49,1.61,2.5,0h0Z"/><path class="cls-3" d="M411.74,81.23c1.12-1.71,2.23-3.42,3.35-5.13h-2.16c6.91,12.85,16.95,23.92,29.01,32.12,3.45,2.34,7.06,4.43,10.8,6.27.78.38,1.96-.06,1.88-1.08-.32-4.21-.64-8.43-.97-12.64l-1.88,1.08c9.58,6.65,18.53,14.17,26.75,22.44.71.72,2.23.23,2.13-.88-.45-5.17.9-10.88,5.04-14.33,3.85-3.2,10.03-3.8,13.82-.2,2,1.9,3.18,4.48,3.99,7.07.91,2.88,1.44,5.89,1.33,8.92-.19,5.12-2.59,9.63-6.99,12.31s-9.74,3.28-14.31,1.11c-1.45-.69-2.72,1.47-1.26,2.16,4.86,2.31,10.46,2.04,15.27-.26,5.23-2.5,8.76-7.3,9.58-13.04.51-3.56.09-7.2-.85-10.65-.82-3.01-2.03-5.99-4.06-8.4-3.97-4.72-10.73-5.27-15.96-2.4-6.21,3.41-8.69,10.98-8.1,17.7l2.13-.88c-8.37-8.42-17.5-16.06-27.26-22.83-.75-.52-1.95.17-1.88,1.08.32,4.21.64,8.43.97,12.64l1.88-1.08c-12.82-6.3-24.07-15.7-32.48-27.25-2.38-3.26-4.52-6.69-6.43-10.24-.47-.87-1.67-.75-2.16,0-1.12,1.71-2.23,3.42-3.35,5.13-.88,1.35,1.28,2.61,2.16,1.26h0Z"/><path class="cls-3" d="M496.41,156.21c1.8,4.19-.86,8.55-3.75,11.46-3.06,3.07-6.71,5.98-11.04,6.84-4.61.92-9.71.52-14.36.1s-9.61-1.33-14.29-2.59c-1.56-.42-2.22,1.99-.66,2.41,8.27,2.23,16.91,3.31,25.48,2.97,4-.16,7.66-1.04,11.01-3.29,3.04-2.04,5.99-4.6,8.11-7.6,2.41-3.39,3.34-7.67,1.67-11.57-.63-1.47-2.79-.2-2.16,1.26h0Z"/><path class="cls-3" d="M471.94,44.55c2.92-.41,5.69-1.4,8.55-2.08,2.45-.58,5.28-1.05,7.56.32,2.54,1.53,3.61,4.9,4.79,7.46,1.41,3.05,2.77,6.11,4.1,9.2,5.29,12.31,9.9,24.91,13.83,37.71,2.2,7.16,4.18,14.39,5.95,21.67.21.85,1.13,1.06,1.84.75,3.47-1.55,6.61-3.68,9.34-6.31l-2.13-.88c-.26,8.23-.53,16.46-.79,24.69-.12,3.62.22,7.72-1.53,11.02-1.34,2.51-3.58,4.3-6.03,5.66-2.95,1.63-6.2,2.66-9.43,3.59-1.54.44-.89,2.86.66,2.41,5.79-1.67,12.26-3.8,15.99-8.86,2.15-2.92,2.59-6.39,2.72-9.92.16-4.42.28-8.85.43-13.28.16-5.1.33-10.2.49-15.31.04-1.11-1.38-1.61-2.13-.88-2.59,2.48-5.56,4.46-8.84,5.92l1.84.75c-3.32-13.65-7.39-27.12-12.21-40.32-2.39-6.55-4.97-13.04-7.72-19.45-1.42-3.3-2.88-6.58-4.39-9.84-1.25-2.7-2.39-5.71-4.88-7.52-5.5-4-12.82.27-18.65,1.1-1.59.23-.91,2.63.66,2.41h0Z"/><path class="cls-3" d="M335.33,52.74c-9.73,26.39-18.51,53.29-23.29,81.06-1.33,7.74-2.35,15.55-2.98,23.38-.13,1.6,2.37,1.6,2.5,0,2.27-27.88,9.46-55.1,18.32-81.54,2.5-7.45,5.14-14.86,7.86-22.24.56-1.51-1.86-2.16-2.41-.66h0Z"/><path class="cls-3" d="M316.45,162.8c7.46,2.93,14.76,6.26,21.86,9.98,1.75.92,3.48,1.85,5.2,2.82.75.42,1.61.81,2.18,1.47.6.7.77,1.62.95,2.5.85,4.14,1.64,8.3,2.46,12.44.31,1.58,2.72.91,2.41-.66-.86-4.33-1.56-8.73-2.59-13.02-.45-1.88-1.39-3.2-3.02-4.23-1.76-1.11-3.66-2.05-5.5-3.03-7.55-4-15.34-7.56-23.3-10.68-1.5-.59-2.15,1.83-.66,2.41h0Z"/><path class="cls-3" d="M431.72,157.66c1.62-1.22,3.05-2.61,4.26-4.25,1.02-1.38,2.33-3.5.64-4.93-1.38-1.17-3.69-.56-5.26-.21-2.04.46-4.05,1.21-6.15,1.37-3.59.27-8-2.5-10.88.92-1.09,1.3-1.15,3.11-.18,4.48s2.56,2.04,4.07,2.53c4.17,1.35,8.92,2.28,12.98.11,1.42-.76.16-2.92-1.26-2.16-3.38,1.8-7.48.77-10.93-.32-1-.32-3.12-.98-3.07-2.34.06-1.53,2.34-1.67,3.4-1.53,1.99.27,3.82.95,5.86.8s3.84-.71,5.73-1.19c.96-.25,1.94-.49,2.93-.58.2-.02.9-.15,1.08,0,.03.03-.43.76-.51.89-1.06,1.63-2.44,3.07-3.99,4.24-1.27.96-.02,3.13,1.26,2.16h0Z"/><path class="cls-3" d="M406.96,91.95c-4.14-2.74-9.87-2.24-13.58,1-.51.44-.45,1.31,0,1.77.51.51,1.26.45,1.77,0,2.89-2.52,7.38-2.7,10.55-.61,1.35.89,2.6-1.27,1.26-2.16h0Z"/><path class="cls-3" d="M461.82,94.74c-5.08-4.74-12.28-3-18.08-.8-1.49.57-.84,2.98.66,2.41,4.83-1.84,11.31-3.89,15.64.16,1.18,1.1,2.95-.67,1.77-1.77h0Z"/><path class="cls-3" d="M503.2,307.89c9.36,14.92,19.96,29.05,31.65,42.22,1.07,1.21,2.83-.57,1.77-1.77-11.56-13.02-22.01-26.97-31.26-41.72-.85-1.36-3.02-.11-2.16,1.26h0Z"/><path class="cls-3" d="M503.83,310.69c2.1,13.31,4.19,26.63,6.29,39.94.25,1.58,2.66.91,2.41-.66-2.1-13.31-4.19-26.63-6.29-39.94-.25-1.58-2.66-.91-2.41.66h0Z"/><path class="cls-3" d="M500.46,341.26c-9.44-14.19-20.1-27.56-31.83-39.92s-24.43-23.61-38.02-33.78-28.22-19.27-43.46-26.96c-8.46-4.28-17.22-8.13-26.88-8.02-5,.06-9.95.93-14.83,1.93-4.59.94-9.17,1.9-13.71,3.05-8.68,2.19-17.43,5.22-24.63,10.69-6.19,4.7-11.37,11.13-13.46,18.72-.51,1.85-.81,3.76-.93,5.68-.1,1.61,2.4,1.6,2.5,0,.51-7.82,4.8-14.78,10.47-19.98,6.35-5.82,14.44-9.23,22.62-11.6,4.36-1.26,8.8-2.25,13.24-3.19,4.7-1,9.41-2.06,14.2-2.54s9.63-.29,14.34.92,8.87,3.07,13.08,5.13c14.84,7.26,29.03,15.87,42.41,25.54,13.41,9.7,26,20.55,37.61,32.35,11.61,11.8,22.23,24.58,31.68,38.17,1.16,1.68,2.31,3.36,3.44,5.06.89,1.33,3.05.08,2.16-1.26h0Z"/><path class="cls-3" d="M292.28,280.65c-.1,21.1,3.84,42.04,10.2,62.1,6.45,20.35,15.37,39.82,25.13,58.77,5.52,10.72,11.33,21.29,17.15,31.85.78,1.41,2.94.15,2.16-1.26-10.27-18.6-20.48-37.27-29.17-56.67-8.57-19.12-15.62-39.02-19.6-59.63-2.23-11.58-3.43-23.35-3.38-35.15,0-1.61-2.49-1.61-2.5,0h0Z"/><path class="cls-3" d="M422.96,383.04c-16.28,17.56-35.35,32.44-56.34,43.96-5.9,3.24-11.96,6.2-18.13,8.9-1.47.64-.2,2.8,1.26,2.16,22.06-9.63,42.53-22.83,60.44-38.92,5.06-4.55,9.91-9.33,14.54-14.32,1.09-1.18-.67-2.95-1.77-1.77h0Z"/><path class="cls-3" d="M382.06,301.82c10.2,20.21,20.4,40.42,30.6,60.63l8.63,17.1c.73,1.44,2.88.17,2.16-1.26-10.2-20.21-20.4-40.42-30.6-60.63l-8.63-17.1c-.73-1.44-2.88-.17-2.16,1.26h0Z"/><path class="cls-3" d="M504.49,349.16c8.87,10.26,8.98,24.77,6.24,37.34-2.77,12.72-7.23,26.19-15.92,36.15-4.36,4.99-9.77,9.09-16.06,11.3-1.51.53-.86,2.94.66,2.41,12.42-4.35,21.13-14.98,26.42-26.66,2.99-6.61,5.2-13.61,6.88-20.67,1.68-7.04,2.68-14.38,1.85-21.61-.84-7.33-3.44-14.41-8.31-20.04-1.05-1.22-2.82.56-1.77,1.77h0Z"/><path class="cls-3" d="M421.81,391.46c5.69,8.06,11.7,15.88,18.03,23.44,1.03,1.24,2.79-.54,1.77-1.77-6.19-7.4-12.07-15.05-17.64-22.93-.92-1.3-3.09-.06-2.16,1.26h0Z"/><path class="cls-3" d="M390.87,413.19c7.51,8.64,14.47,17.74,20.85,27.24.89,1.33,3.06.08,2.16-1.26-6.5-9.68-13.59-18.95-21.24-27.75-1.06-1.22-2.82.56-1.77,1.77h0Z"/><path class="cls-3" d="M443.76,410.64c-.81-1.51.29-2.87,1.59-3.65,1.47-.88,3.06-.9,4.61-.18,3.45,1.59,5.94,5.37,8.4,8.13,6.54,7.33,12.87,14.81,19.22,22.3,2.87,3.39,5.84,6.7,8.51,10.25,2.52,3.37,4.97,7.03,6.29,11.07,2.66,8.15-2.06,16.88-5.51,24.04-3.78,7.85-8.48,15.24-15.23,20.88-7.04,5.89-15.37,9.99-22.52,15.74-3.26,2.63-6.27,5.63-8.57,9.15s-3.72,7.73-4.75,11.9-1.82,8.59-3.49,12.65c-1.49,3.62-3.81,6.92-6.51,9.75-9.98,10.49-25.44,14.01-39.43,11.81-1.77-.28-3.52-.65-5.25-1.1-1.56-.4-2.22,2.01-.66,2.41,14.66,3.78,31.27,1.74,43.32-7.88,2.98-2.38,5.58-5.22,7.74-8.37,2.59-3.79,4.13-8,5.23-12.43s1.94-9.4,3.91-13.76c1.85-4.1,4.74-7.56,8.08-10.55,7.27-6.51,16.21-10.77,23.81-16.86s12.35-13.5,16.32-21.75c3.69-7.67,8.44-16.58,6.2-25.36-1.11-4.34-3.69-8.35-6.31-11.93s-5.76-7.18-8.75-10.68c-6.75-7.9-13.44-15.85-20.36-23.61-2.62-2.93-5.16-6.59-8.89-8.18-3.22-1.37-7.21-.39-9.1,2.7-.93,1.52-.89,3.21-.06,4.76.76,1.42,2.92.16,2.16-1.26h0Z"/><path class="cls-3" d="M406.87,435.91c-4.51,18.99-7.72,38.25-11.55,57.38-1.9,9.47-3.95,18.92-6.39,28.27-1.23,4.72-2.57,9.42-4.02,14.08-1.33,4.25-2.66,8.57-4.39,12.68-3.08,7.28-8.41,15.93-5.62,24.09.52,1.51,2.93.86,2.41-.66-1.19-3.49-.53-7.15.56-10.58,1.16-3.66,2.86-7.12,4.4-10.63,3.62-8.25,6.08-17.11,8.42-25.8,4.99-18.52,8.35-37.43,11.95-56.26,2.04-10.67,4.15-21.33,6.66-31.9.37-1.56-2.04-2.23-2.41-.66h0Z"/><path class="cls-3" d="M491.4,449.87c.37-2.45,3.41-.87,4.44.06,1.67,1.5,3.22,3.18,4.75,4.83,3.01,3.25,5.92,6.83,7.51,11.02,1.81,4.76,1.58,9.83.49,14.72-.98,4.42-2.44,8.75-4.15,12.94-6.49,15.83-17.64,29.84-31.69,39.62-3.88,2.7-8,5.13-11.44,8.41-3.11,2.96-5.47,6.6-7.36,10.44-3.76,7.64-5.95,15.98-10.61,23.17-8.36,12.92-22.57,21.64-37.67,24.12-3.83.63-7.74.82-11.61.59s-8.34-.65-11.78-2.5c-2.12-1.14-3.38-3.04-4.41-5.16-1.08-2.24-2.01-4.58-2.91-6.9s-1.81-4.87-2.61-7.35c-.6-1.86-1.19-3.71-1.18-5.69.01-1.58.42-3.04,1.96-3.72s.2-2.81-1.26-2.16c-3.65,1.62-3.52,6.31-2.73,9.59,1.25,5.15,3.4,10.23,5.49,15.09.96,2.23,1.95,4.49,3.6,6.31,1.55,1.7,3.65,2.72,5.82,3.37,3.99,1.2,8.31,1.65,12.46,1.7,16.56.21,33.14-7.22,44.09-19.62,2.76-3.12,5.17-6.55,7.12-10.23,2.19-4.14,3.81-8.55,5.55-12.9s3.6-8.6,6.3-12.39c2.99-4.19,7.13-7.12,11.36-9.95,7.81-5.22,14.92-11.23,20.97-18.45s10.82-15.01,14.42-23.52c1.87-4.42,3.47-9,4.55-13.69,1.18-5.11,1.62-10.51-.05-15.56-1.47-4.48-4.27-8.35-7.38-11.85-1.64-1.85-3.37-3.62-5.13-5.35-1.5-1.48-3.33-2.97-5.57-2.79-1.76.14-3.51,1.31-3.78,3.14-.24,1.57,2.17,2.25,2.41.66h0Z"/><path class="cls-3" d="M445.42,417.62c-.53,6.41-1.82,13.09-5.7,18.39-3.42,4.68-9.37,8.12-15.29,7.1-1.57-.27-2.25,2.14-.66,2.41,6.7,1.15,13.33-2.16,17.46-7.39,4.6-5.81,6.1-13.3,6.69-20.52.13-1.6-2.37-1.59-2.5,0h0Z"/><path class="cls-3" d="M396.36,463.01c-7.77,2.68-15.81,4.52-23.98,5.4-.72.08-1.19.51-1.25,1.25-.74,8.81-1.4,17.85,1.28,26.43.28.91,1.39,1.21,2.09.55,6.99-6.56,13.85-13.27,20.56-20.12,1.13-1.15-.64-2.92-1.77-1.77-6.71,6.85-13.57,13.56-20.56,20.12l2.09.55c-2.61-8.36-1.91-17.17-1.19-25.76l-1.25,1.25c8.4-.91,16.66-2.73,24.65-5.49,1.51-.52.86-2.94-.66-2.41h0Z"/><path class="cls-3" d="M386.07,473.61c-2.52.46-5.23,1.03-7.15,2.86s-2.68,4.49-1.53,6.84c.29.6,1.16.77,1.71.45,3.73-2.22,6.9-5.3,9.24-8.96.36-.57.12-1.38-.45-1.71-.6-.35-1.35-.12-1.71.45-2.1,3.29-4.98,6.07-8.34,8.06l1.71.45c-.11-.23-.21-.69-.21-.96,0-.1,0-.2,0-.3,0-.35-.06.19.02-.15.05-.22.1-.44.17-.66.03-.1.07-.2.11-.29-.08.19.07-.13.09-.16.12-.23.26-.44.4-.65.11-.16,0-.02.08-.1.07-.08.14-.16.21-.24.17-.19.36-.36.55-.53-.13.11.07-.06.12-.09.12-.08.24-.16.36-.24.22-.14.45-.27.69-.39.42-.21.8-.35,1.31-.51,1.07-.33,2.18-.54,3.28-.74.66-.12,1.04-.93.87-1.54-.19-.7-.87-.99-1.54-.87h0Z"/><path class="cls-3" d="M420.36,469.9c11.22.18,22.41.99,33.53,2.43l-1.21-.92c.95,4.91-.53,10.06-2.01,14.73-.52,1.63-1.15,3.34-2.29,4.65-1.5,1.72-3.61,2.09-5.77,1.54-2.4-.61-4.6-1.93-6.77-3.08s-4.26-2.27-6.37-3.43c-4.5-2.48-8.96-5.06-13.36-7.72-1.38-.83-2.64,1.33-1.26,2.16,7.64,4.62,15.42,9.23,23.47,13.09,3.34,1.6,7.36,2.73,10.62.31,2.59-1.93,3.68-5.2,4.54-8.18,1.37-4.8,2.58-9.73,1.62-14.73-.11-.59-.68-.85-1.21-.92-11.12-1.44-22.32-2.25-33.53-2.43-1.61-.03-1.61,2.47,0,2.5h0Z"/><path class="cls-3" d="M423.81,474.98c3.78.59,7.52,1.39,11.22,2.4,1.73.47,3.45.99,5.15,1.55.33.11,1.12.22,1.36.46-.29-.29-.02.09-.04.23-.06.49-.15.87-.47,1.28-2.02,2.56-5.69-.5-7.49-1.82-3.14-2.3-6.29-4.61-9.43-6.91-1.3-.95-2.55,1.22-1.26,2.16,2.9,2.12,5.8,4.25,8.7,6.37,2.42,1.77,5.16,4.07,8.38,3.59,2.23-.33,4.27-2.55,4.06-4.87-.05-.56-.23-1.11-.55-1.58-.52-.77-1.4-.93-2.24-1.21-1.64-.55-3.3-1.06-4.97-1.52-3.86-1.08-7.78-1.92-11.73-2.54-.67-.11-1.34.17-1.54.87-.17.59.21,1.43.87,1.54h0Z"/><path class="cls-3" d="M288.66,309.76c-14.12,1.81-28.32,3.76-41.99,7.88s-26.15,10.3-36.15,20.16c-11.37,11.22-18.76,25.98-26.31,39.86-8.34,15.34-16.31,30.88-24.09,46.51s-15.36,31.37-22.92,47.11c-.95,1.98-1.9,3.95-2.85,5.93-.69,1.44,1.46,2.71,2.16,1.26,7.45-15.53,14.9-31.05,22.52-46.49,7.62-15.44,15.4-30.8,23.52-45.98,3.96-7.41,7.97-14.8,12.15-22.09,3.84-6.7,7.92-13.31,12.89-19.24,9.17-10.93,21.32-18.31,34.69-22.98s27.34-6.91,41.27-8.77c1.7-.23,3.4-.45,5.1-.67,1.57-.2,1.59-2.7,0-2.5h0Z"/><path class="cls-3" d="M321.23,416.06c-13.26,3.47-26.27,7.81-38.96,12.99-1.47.6-.83,3.02.66,2.41,12.69-5.18,25.7-9.52,38.96-12.99,1.56-.41.9-2.82-.66-2.41h0Z"/><path class="cls-3" d="M271.64,434.08c-19.41,24.22-37.85,49.22-55.21,74.95-4.88,7.23-9.68,14.52-14.39,21.86-.87,1.36,1.29,2.61,2.16,1.26,16.63-25.89,34.31-51.11,52.99-75.57,5.33-6.97,10.74-13.88,16.23-20.73,1-1.24-.76-3.02-1.77-1.77h0Z"/><path class="cls-3" d="M132.1,481.02c5.56,8.26,13.37,14.51,21.66,19.88,9.38,6.07,19.22,11.48,28.87,17.12,5.86,3.43,11.73,6.85,17.59,10.28,1.39.81,2.65-1.35,1.26-2.16-10.23-5.98-20.45-11.95-30.68-17.93-8.66-5.06-17.57-9.95-25.33-16.37-4.25-3.52-8.12-7.49-11.21-12.08-.89-1.33-3.06-.08-2.16,1.26h0Z"/><path class="cls-3" d="M155.75,504.06c-2.38,16.51-9.41,32.2-20.23,44.9-1.04,1.22.72,2.99,1.77,1.77,11.1-13.02,18.43-29.06,20.88-46.01.23-1.57-2.18-2.25-2.41-.66h0Z"/><path class="cls-3" d="M190.32,523.15c-8.74,18-15.8,36.79-21.04,56.1-.42,1.55,1.99,2.22,2.41.66,5.18-19.1,12.14-37.7,20.79-55.5.7-1.44-1.46-2.71-2.16-1.26h0Z"/><path class="cls-3" d="M175.19,571.27c6.38,3.25,5.87,12.17,4.9,18.16-1.59,9.75-3.84,19.39-6.66,28.86-1.6,5.38-3.4,10.69-5.37,15.95-.57,1.51,1.85,2.16,2.41.66,3.73-9.91,6.81-20.06,9.18-30.39,1.15-4.98,2.18-10,2.95-15.06.55-3.64.77-7.35.12-10.99-.69-3.89-2.65-7.51-6.27-9.36-1.43-.73-2.7,1.43-1.26,2.16h0Z"/><path class="cls-3" d="M132.39,547.85c-3.39-2.08-7.38-.99-10.9.15-4.34,1.41-8.69,2.77-13.06,4.08-8.66,2.58-17.39,4.94-26.17,7.08s-17.62,4.05-26.5,5.73c-4.48.85-8.97,1.64-13.47,2.37s-8.61,1.18-12.83,2.17-8.4,2.69-11.49,5.83c-2.75,2.8-4.57,6.59-4.21,10.57.14,1.59,2.65,1.6,2.5,0-.72-7.86,7.07-12.35,13.65-13.94,3.97-.96,8.06-1.42,12.1-2.07s8.36-1.4,12.53-2.17c16.91-3.14,33.66-7.11,50.19-11.88,4.61-1.33,9.2-2.72,13.78-4.18,2.14-.68,4.27-1.47,6.45-2.01s4.27-.74,6.17.43c1.37.84,2.63-1.32,1.26-2.16h0Z"/><path class="cls-3" d="M15.98,595.62c10.79,16.67,23.8,35.86,44.98,39.34,11.17,1.83,21.99-1.91,32.39-5.55,2.64-.92,5.37-2.12,8.16-2.46s5.41.65,7.89,1.8c4.89,2.27,9.76,4.55,14.83,6.41,11.22,4.11,23.67,6.42,35.25,2.33,1.51-.53.86-2.95-.66-2.41-10.14,3.58-20.92,2.02-30.91-1.28-5.08-1.68-9.99-3.79-14.83-6.06-2.35-1.1-4.7-2.36-7.24-2.97s-4.94-.39-7.38.3c-5.33,1.51-10.46,3.69-15.77,5.27s-10.72,2.73-16.25,2.64c-9.84-.17-19.03-4.76-26.41-11.05-9.01-7.67-15.5-17.72-21.87-27.56-.87-1.35-3.04-.09-2.16,1.26h0Z"/><path class="cls-3" d="M174.72,626.36c3.5-.31,5.08,3.38,5.04,6.33-.05,3.43-1.18,6.98-2.25,10.21-2.14,6.43-5.41,12.44-9.54,17.81-.98,1.27,1.19,2.52,2.16,1.26,4.79-6.22,8.39-13.32,10.55-20.87,1.05-3.66,2.25-7.87,1.19-11.66-.87-3.13-3.75-5.88-7.15-5.57-1.59.14-1.6,2.64,0,2.5h0Z"/><path class="cls-3" d="M16.48,572.59c-6.45,1.18-10.93,6.51-13.41,12.27-2.7,6.28-3.42,13.39-2.94,20.17,1.01,14.17,7.6,27.83,17.84,37.64,10.64,10.18,24.94,15.94,39.5,17.29,7.69.71,15.33.05,22.88-1.52,4.25-.89,8.49-1.96,12.81-2.49s8.61-.43,12.87.42c15.64,3.12,30.42,13.92,46.98,10.25,1.89-.42,3.71-1.08,5.47-1.9,1.46-.68.19-2.84-1.26-2.16-7.04,3.28-15.08,2.54-22.38.62-7.68-2.02-14.88-5.49-22.47-7.78-3.77-1.14-7.64-1.98-11.57-2.23s-8.14.24-12.13.98c-7.75,1.43-15.26,3.45-23.19,3.61-14.14.28-28.44-3.71-39.96-12.03-11.12-8.03-19.02-20.26-21.89-33.66-1.41-6.58-1.58-13.53-.19-20.13,1.24-5.89,4.13-12.36,9.58-15.47,1.29-.73,2.66-1.2,4.12-1.46,1.58-.29.91-2.7-.66-2.41h0Z"/><path class="cls-3" d="M363.88,60.81c-8.6-4.3-17.68-7.56-27.06-9.67-1.57-.35-2.24,2.06-.66,2.41,9.17,2.07,18.05,5.22,26.46,9.42,1.44.72,2.7-1.44,1.26-2.16h0Z"/><path class="cls-3" d="M331.16,56.56c-6.44-3.03-13.22-6.1-20.45-6.43-6.56-.3-12.5,2.25-17.26,6.67s-7.94,9.66-11.21,14.92c-3.97,6.39-7.74,12.91-11.3,19.55-4,7.46-7.72,15.07-11.18,22.81-.65,1.46,1.5,2.73,2.16,1.26,5.82-13.03,12.42-25.71,19.77-37.94,3.25-5.4,6.47-10.99,10.6-15.78s9.07-8.4,15.34-8.93c7.82-.66,15.36,2.79,22.26,6.03,1.45.68,2.72-1.47,1.26-2.16h0Z"/><path class="cls-3" d="M251.54,116.28c-9,4.04-18.01,8.08-27.01,12.13-3.63,1.63-6.75,3.57-8.44,7.32-1.48,3.28-1.88,6.92-1.97,10.48-.13,4.92.09,9.84.44,14.74s.66,9.45,1.3,14.12c.38,2.77,1.43,6.35,4.26,7.54,3.27,1.37,6.43-1.65,8.49-3.86,4.48-4.79,6.97-10.96,10.11-16.62,1.55-2.79,3.27-5.53,5.54-7.8,2.01-2.01,6.39-5.64,9.36-3.68.64.42,1.22,1.18,1.24,1.97.03.98-.88,1.56-1.57,2.11-1.43,1.14-2.52,2.49-3.25,4.18-1.46,3.37-1.53,7.34-1.09,10.93.47,3.83,2.18,7.7,6.06,9.08,3.44,1.23,6.71-.84,8.4-3.8,2.08-3.65,1.57-7.9,2.79-11.8,1.1-3.52,4.09-5.9,6.41-8.6,2.52-2.93,3.97-6.19,3.69-10.13-.33-4.55-1.92-9.08-3.06-13.48-.62-2.4-1.24-4.8-1.87-7.21-.4-1.56-2.81-.9-2.41.66,1.16,4.48,2.32,8.97,3.48,13.45,1.01,3.88,2.36,8.28.38,12.09-1.55,2.97-4.28,5.09-6.34,7.68-1.04,1.3-1.9,2.68-2.48,4.25-.7,1.89-.9,3.92-1.15,5.9-.39,3.08-1.17,7.67-4.7,8.7-4.23,1.23-6.39-3.99-6.75-7.23-.38-3.43-.37-7.45,1.43-10.5.93-1.58,2.55-2.34,3.65-3.74.97-1.24,1.1-2.82.48-4.26-1.5-3.46-5.5-3.77-8.61-2.46-2.83,1.19-5.28,3.28-7.24,5.61-3.96,4.69-6.3,10.43-9.28,15.74-1.5,2.69-3.17,5.31-5.33,7.52-1.08,1.11-2.49,2.6-4.02,3.03-1.41.39-2.38-.59-3.01-1.74-.69-1.27-1.03-2.74-1.21-4.17-.28-2.27-.46-4.55-.67-6.82-.43-4.61-.79-9.24-.95-13.87-.14-4.09-.32-8.33.35-12.38.56-3.4,1.84-6.8,4.81-8.79,1.71-1.15,3.68-1.9,5.55-2.74l6.36-2.85,12.71-5.71,6.36-2.85c1.47-.66.2-2.81-1.26-2.16h0Z"/><path class="cls-3" d="M322.26,87.55c-8.72-2.68-18.02.07-25.43,4.93-3.75,2.46-7.14,5.42-10.35,8.53s-6.49,6.45-9.46,9.92c-3.3,3.85-6.25,8-8.29,12.66-.64,1.46,1.51,2.73,2.16,1.26,3.46-7.89,9.47-14.2,15.48-20.22s12.66-11.91,20.95-14.42c4.66-1.41,9.58-1.68,14.26-.24,1.54.47,2.2-1.94.66-2.41h0Z"/><path class="cls-3" d="M161.89,357.38c-17.79,19.67-36.07,41.35-39.1,68.76-.81,7.3-.38,14.72,1.51,21.83l2.28-.96c-3.29-4.74-8.42-7.77-14.01-8.99-6.4-1.4-13.03-.35-19.13,1.84-12.68,4.56-23.94,12.9-34.13,21.54-5.85,4.96-11.44,10.21-17.03,15.45l1.77,1.77c11.15-11.18,20.91-23.74,28.98-37.3,4.08-6.86,7.73-13.98,10.91-21.3,2.81-6.48,5.2-13.14,5.99-20.2s-.49-15.01-5.59-20.68l-1.51,1.96c9.38,5.88,21.11,3.82,31.04.6,11.14-3.62,21.96-8.48,32.22-14.13,5.92-3.26,11.65-6.84,17.2-10.7,1.31-.91.06-3.08-1.26-2.16-9.43,6.56-19.42,12.29-29.85,17.09-5.29,2.43-10.69,4.61-16.18,6.55-4.96,1.75-10.08,3.28-15.33,3.81-5.76.58-11.59-.08-16.57-3.2-1.24-.78-2.44.94-1.51,1.96,9.25,10.27,4.25,26.14-.54,37.26-6,13.95-13.7,27.16-22.85,39.27-5.18,6.85-10.84,13.33-16.91,19.42-1.14,1.14.6,2.87,1.77,1.77,9.35-8.78,18.75-17.62,29.29-25,5.19-3.63,10.65-6.95,16.42-9.58s12.26-4.57,18.73-4.11c6.13.44,12.36,3.18,15.93,8.34.78,1.13,2.67.47,2.28-.96-6.91-26,6.54-51.61,22.41-71.36,4.64-5.77,9.57-11.3,14.54-16.8,1.08-1.19-.69-2.96-1.77-1.77h0Z"/><path class="cls-3" d="M119.71,546.87c-2.38-5.13-5.3-10.03-8.8-14.48-1.48-1.89-3.22-3.67-5.49-4.59-2.56-1.04-5.31-.63-7.86.22-4.12,1.36-8.77,3.15-11.78,6.41-3.22,3.48-3.53,8.29-1.21,12.37,3.02,5.32,9,7.47,14.48,9.3,1.53.51,2.19-1.9.66-2.41-4.23-1.41-8.89-2.92-11.84-6.48-2.64-3.19-3.34-7.65-.44-10.89,2.54-2.84,6.44-4.32,9.94-5.59,2.23-.81,4.72-1.54,7.03-.66,1.97.75,3.47,2.47,4.74,4.09,3.35,4.28,6.13,9.05,8.41,13.97.68,1.46,2.83.19,2.16-1.26h0Z"/><path class="cls-3" d="M109.23,545.72c-1.66-1.79-3.63-3.32-5.78-4.48-1.82-.98-4.2-2.13-6.31-1.41-1.11.38-1.97,1.27-2.18,2.45-.23,1.27.23,2.56.92,3.62,1.16,1.75,2.91,2.86,4.85,3.58,2.17.8,4.52,1.06,6.8,1.24.67.05,1.25-.61,1.25-1.25,0-.72-.57-1.2-1.25-1.25-2.95-.23-6.56-.6-8.77-2.72-.52-.5-.96-1.07-1.22-1.77-.13-.36-.24-.78-.1-1.15.08-.2.27-.3.35-.34.57-.23,1.24-.11,1.89.07.84.24,1.64.64,2.41,1.04,2.02,1.07,3.81,2.46,5.37,4.14,1.1,1.18,2.86-.59,1.77-1.77h0Z"/><path class="cls-3" d="M128.08,572.07c4.19,5.13,7.87,10.67,10.96,16.53,1.52,2.88,2.91,5.83,4.13,8.85.86,2.11,2.6,5.58,1.04,7.75-.83,1.17-2.46,1.36-3.77,1.46-1.73.12-3.46.17-5.19.26-3.7.18-7.4.36-11.1.53-1.73.08-3.45.17-5.18.25s-3.68.3-5.1-.91c-2.56-2.18-2-6.03-1.38-8.91,1.72-8.1,3.61-16.16,5.41-24.24.35-1.57-2.06-2.24-2.41-.66-1.82,8.16-3.75,16.3-5.46,24.48-.71,3.4-1.03,7.14,1.17,10.08,2.34,3.14,6,2.75,9.51,2.58,4.11-.2,8.22-.4,12.33-.59,2.14-.1,4.28-.2,6.41-.31,1.54-.08,3.12-.17,4.55-.79,3-1.31,3.63-4.46,3.02-7.41-.68-3.29-2.34-6.53-3.76-9.55-3.57-7.58-8.11-14.67-13.41-21.16-1.02-1.25-2.78.53-1.77,1.77h0Z"/><path class="cls-3" d="M126.88,585.13c1.36,1.92,2.53,3.95,3.49,6.1.37.84,2.04,4.01.53,4.53-.96.33-1.91.36-2.81.9-.79.47-1.52,1.24-2.42,1.47-1.55.39-2.98-1.11-3.46-2.45-.86-2.45.55-5.21,1.59-7.37.7-1.44-1.46-2.71-2.16-1.26-1.28,2.66-2.61,5.57-2.03,8.6.44,2.29,2.34,4.53,4.7,4.96,1.28.24,2.5-.09,3.58-.8.46-.3.9-.65,1.37-.94.57-.35,1.13-.45,1.77-.58,1.26-.25,2.31-.94,2.74-2.19.39-1.14.17-2.45-.21-3.57-1.05-3.09-2.64-6.03-4.52-8.68-.39-.55-1.09-.81-1.71-.45-.54.32-.84,1.16-.45,1.71h0Z"/><path class="cls-3" d="M137.99,556.91c1.55,3.19,5.34,3.24,7.69,5.47,2.52,2.38,1.93,6.57,1.86,9.69-.09,3.68.38,7.17,2.39,10.34s4.87,5.38,8.33,6.44c4.24,1.3,8.95.65,12.71-1.68,1.37-.84.11-3.01-1.26-2.16-6.39,3.95-14.79,1.71-18.25-4.97-1.61-3.1-1.44-6.42-1.36-9.8.07-3.04.01-6.39-1.98-8.88-1.05-1.32-2.49-2.11-3.99-2.81s-3.2-1.31-3.97-2.89c-.7-1.45-2.86-.18-2.16,1.26h0Z"/><path class="cls-3" d="M612.75,2.44c-2.68,12.67-10.28,24.14-20.82,31.67-11.17,7.98-25.23,10.98-38.73,8.57-7.71-1.38-15.03-4.41-21.39-8.99-1.01-.73-2.4.71-1.71,1.71,8.03,11.66,13.46,24.95,16.14,38.84,2.68,13.87,2.61,28.33-.31,42.16-1.66,7.85-4.22,15.5-7.71,22.73-.69,1.43,1.32,2.66,2.16,1.26,6.97-11.68,17.82-20.5,30.07-26.2,13.99-6.5,29.59-8.6,44.9-7.91,9.47.43,18.86,1.9,28.09,4.02,1.3.3,2.33-1.71.96-2.28-12.85-5.44-19.99-18.6-24.29-31.2-5.27-15.43-7.35-31.87-6.25-48.13.63-9.2,2.31-18.3,4.98-27.13.47-1.54-1.94-2.2-2.41-.66-4.87,16.09-6.45,33.16-4.63,49.88.91,8.34,2.62,16.58,5.18,24.57,2.21,6.88,5.01,13.66,9.01,19.72,4.27,6.46,9.93,12.07,17.14,15.12l.96-2.28c-16.68-3.82-34.01-5.59-51.01-2.99-14.31,2.18-28.13,7.71-39.5,16.77-6.11,4.86-11.37,10.76-15.37,17.47l2.16,1.26c6.31-13.11,9.72-27.47,10.23-42,.5-14.46-1.86-29.07-7.02-42.59-2.92-7.64-6.7-14.93-11.34-21.67l-1.71,1.71c11.82,8.52,27.03,11.79,41.35,9.33s25.71-10.26,33.88-21.32c4.55-6.15,7.79-13.26,9.38-20.75.33-1.57-2.08-2.24-2.41-.66h0Z"/><path class="cls-3" d="M390.57,187.17c-15.15,8.69-34.75,7.85-49.64-.99-4.21-2.5-7.98-5.64-11.19-9.33-.65-.75-1.81-.28-2.09.55-5.96,17.76-23.63,28.37-41.61,30.18-5.7.57-11.48.41-17.15-.4-1.54-.22-2.27,2.03-.66,2.41,10.31,2.41,20.31,6.01,29.76,10.8,3.97,2.01,8.37,4.27,10.74,8.22s1.78,9.2-.42,13.23c-2.65,4.84-7.35,8.14-11.98,10.91-1.38.83-.12,2.99,1.26,2.16,4.47-2.67,8.81-5.78,11.82-10.11,2.8-4.02,4.2-9.31,2.91-14.13s-5.29-8.11-9.44-10.51c-4.83-2.8-10.01-5.08-15.19-7.13-6.11-2.41-12.39-4.36-18.78-5.86l-.66,2.41c19.78,2.83,41.42-2.02,54.44-18.16,3.23-4,5.75-8.49,7.39-13.37l-2.09.55c12.04,13.85,31.81,19.73,49.63,16.09,4.99-1.02,9.81-2.84,14.24-5.37,1.4-.8.14-2.96-1.26-2.16h0Z"/><path class="cls-3" d="M389.43,188.28c-4.03,8.53.9,19.72,10.02,22.35,1.55.45,2.21-1.97.66-2.41-7.47-2.15-11.87-11.6-8.52-18.67.68-1.45-1.47-2.72-2.16-1.26h0Z"/><path class="cls-3" d="M404.06,213.02c13.03,5.24,26.65,8.91,40.55,10.91,1.57.23,2.25-2.18.66-2.41-13.9-2-27.52-5.67-40.55-10.91-1.49-.6-2.14,1.82-.66,2.41h0Z"/><path class="cls-3" d="M437.32,225.87l-13.77,3.25c-4.04.95-8.21,1.71-12.01,3.45-3.32,1.52-6.25,4.07-7.6,7.54-1.12,2.89-1.08,7.53,2.52,8.59,1.55.46,2.21-1.96.66-2.41-1.43-.42-1.47-2.52-1.28-3.72.24-1.53.98-2.97,1.95-4.16,2.09-2.57,5.18-3.94,8.29-4.87,3.45-1.03,7-1.74,10.51-2.57l11.39-2.69c1.57-.37.9-2.78-.66-2.41h0Z"/><path class="cls-3" d="M587.59,455.61c2.53,13.04,12.18,23.97,24.74,28.22,3.63,1.23,7.45,1.84,11.27,1.89l-.63-2.33c-7.57,3.66-15.39,7.87-20.18,15.05-2.57,3.86-3.8,8.31-4.48,12.85-.78,5.24-.86,10.54-.59,15.82.3,5.93,1.03,11.82,1.74,17.7l2.46-.33c-3.28-10.96-6.03-22.08-9.75-32.9-1.44-4.18-2.94-8.21-5.57-11.81-2.3-3.15-5.19-6.1-8.81-7.7-4.31-1.9-8.65-1.11-12.31,1.75l1.77,1.77c7.08-6.1,12.37-13.95,15.74-22.64.58-1.5-1.83-2.15-2.41-.66-3.21,8.29-8.36,15.73-15.1,21.54-1.24,1.07.53,2.73,1.77,1.77,6.66-5.19,13.87.55,17.77,6.26,2.37,3.47,3.71,7.33,5.05,11.28,1.67,4.94,3.15,9.93,4.58,14.95,1.62,5.69,3.18,11.39,4.87,17.06.38,1.29,2.63,1.12,2.46-.33-1.21-10.05-2.55-20.25-1.54-30.38.45-4.54,1.34-9.21,3.61-13.23,1.97-3.48,4.83-6.37,8.04-8.72,3.78-2.77,7.97-4.91,12.17-6.94,1.16-.56.54-2.31-.63-2.33-12.5-.16-24.13-7.32-30.07-18.3-1.69-3.13-2.86-6.49-3.53-9.98-.31-1.58-2.72-.91-2.41.66h0Z"/><path class="cls-3" d="M493.3,120.64c-1.61,1.29-2.92,2.94-3.84,4.78-.14.28-.1.71.22.86,2.31,1.02,4.74,1.66,7.26,1.91.34.03.62-.31.62-.62,0-.37-.29-.59-.62-.62-2.28-.23-4.53-.82-6.63-1.74l.22.86c.88-1.76,2.11-3.29,3.64-4.53.26-.21.22-.66,0-.88-.26-.26-.62-.21-.88,0h0Z"/></g></svg>