<?xml version="1.0" encoding="UTF-8"?><svg id="Layer_2" xmlns="http://www.w3.org/2000/svg" width="517.31" height="592.73" viewBox="0 0 517.31 592.73"><defs><style>.cls-1{fill:#fdb83c;}.cls-1,.cls-2,.cls-3,.cls-4,.cls-5,.cls-6{stroke-width:0px;}.cls-2{fill:#fff;}.cls-3{fill:#f15c65;}.cls-4{fill:#231f20;}.cls-5{fill:#3c2415;}.cls-6{fill:#b55c27;}</style></defs><g id="Layer_7"><path class="cls-6" d="M297.83,208.37c-18.23.55-32.93,3.81-43.05,6.75-11.79,3.43-47.15,13.71-62.96,33.54-1.4,1.76-4.94,6.46-11.34,10.08-8.24,4.65-17.2,4.46-21.58,4.39-5.5-.09-9.99-.99-13.01-1.78-26.32,15-52.65,29.99-78.97,44.99-18.29,29.52-36.57,59.04-54.86,88.56,6.04,7.19,13.85,15.31,23.75,23.32,14.13,11.42,27.88,18.86,38.79,23.7,4.44-12.54,8.88-25.07,13.31-37.61-2.17,16.79-4.47,33.74-6.9,50.84-3.3,23.21-6.77,46.07-10.37,68.58,1.72,2.77,3.91,7.11,4.69,12.7.86,6.2-.61,9.74-.36,11.21,1.08,6.13,38.11,7.68,165.88-5.07,31.06-12.7,62.12-25.4,93.18-38.11-6.4-22.39-12.79-44.78-19.19-67.16-4.42-.97-8.84-1.95-13.25-2.92-1.25-75.33-2.49-150.67-3.74-226Z"/><path class="cls-5" d="M212.86,12.43c-6.75-7.29-18.51-6-30.99-5-41.89,3.36-35.42-1.02-60.98,3-11.21,1.76-25.97,4.73-42.99,10-3.99,4.48-9.66,11.5-14.99,20.99-5.57,9.93-6.95,15.74-10,21.99-4.21,8.63-12.54,19.97-30.82,30.26,8.61,1.92,17.22,3.84,25.82,5.77-5.52,8.87-7.33,16.49-7.94,21.89,0,0-1.06,9.29,7.04,39.67-1.84,5.4-3.68,10.79-5.53,16.19,5.49-.08,10.97-.17,16.46-.25,4.53,8.95,8.09,16.71,10.74,22.79,3.86,8.85,5.09,12.49,3.78,16.46-2,6.04-8.59,8.91-11.55,9.98,19.86,5.36,39.72,10.71,59.58,16.07,6.73,1.82,13.46,3.63,20.19,5.45.07-2.77.13-5.55.2-8.32-7.52-.87-22.24-3.6-36.99-14-19.05-13.42-26.37-31.32-28.99-37.99-8.7-22.12-6.06-42.45-5-49.98,1.22-8.61,5-26.99,5-26.99.19.89.75,2.75,2.33,3.64,2.42,1.37,6.58.06,9.23-3.93.07,6.24.14,12.47.21,18.71,7.81-2.84,18.2-7.66,28.77-16,18.39-14.52,27.38-31.88,31.44-41.41,9.22,8.84,20.12,18.28,32.84,27.68,10.72,7.92,21.08,14.57,30.68,20.15.86-4.29,1.72-8.58,2.57-12.88,7.49,9.09,13.86,10.6,17.44,10.78,1.55.08,3.96-.03,20.38-6.43,10.56-4.12,10.86-4.58,12.91-4.5,10.59.44,14.96,12.94,20.44,11.8,3.07-.64,6.27-5.54,7.69-22.61-2.48-6.02-6.63-15.27-13-25.99-5.65-9.52-6.7-9.51-13.43-20.34-12.69-20.42-12.21-26.38-18.66-27.9-9.71-2.29-18,7.77-25.89,3.26-4.7-2.68-3.69-7.34-8-12Z"/><path class="cls-5" d="M257.96,185.45c-.83-1.74-4.73-3.04-19.86.29-7.33,16.76-16.46,24.85-23.75,29.12-5.06,2.97-9.72,4.39-14.94,9.54-7.03,6.93-9.92,15.52-11.25,21.91,9.89-7.04,22.61-14.77,38.19-21.44,10.23-4.38,19.85-7.5,28.42-9.75-2.22-1.97-5.41-5.42-5.8-10.03-.81-9.44,10.73-15.96,8.99-19.64Z"/><path class="cls-3" d="M212.53,175.38c-2-3.87-13.24-1.46-17.99,0-3.91,1.2-7.15,2.2-7.33,4-.35,3.47,10.62,10.48,18.66,6.66,4.63-2.2,8.1-7.89,6.66-10.66Z"/><path class="cls-3" d="M97.9,168.71c-.3-4.89-18.39-10.07-22.04-5.38-2.12,2.72.22,9.3,4.71,12.04,7.3,4.46,17.56-2.87,17.33-6.66Z"/><path class="cls-1" d="M353.91,129.89c-19.52,1-39.05,2-58.57,3.01,2.12,101.68,4.24,203.35,6.36,305.03,3.36.41,8.57.87,14.93.7,10.89-.29,18.91-2.26,20.68-2.67,20.38-4.69,70.35.42,81.49,1.36,22.3,1.88,54.99.95,98.12-12.68-.71-95.91-1.43-191.83-2.14-287.74-19.99.33-39.99.67-59.98,1-.33,13.16-.67,26.32-1,39.49-.4.99-2.73,6.49-8.5,8.5-5.99,2.08-13.22-.46-17.49-6.5.08,1.14.27,5.77-3,9.5-3.84,4.39-9.96,4.68-14,3.5-6.04-1.77-10.47-7.74-10.88-14.9-.74,1.47-2.2,3.76-4.62,4.4-5.26,1.4-10.83-6.08-11.5-7-6.41-8.81-3.97-18.97-7.25-19.62-1.43-.28-1.98,1.62-5.74,4.12-1.35.9-8.19,5.44-12,3.5-2.53-1.29-2.67-4.91-3.56-16.53-.55-7.21-1.04-12.98-1.35-16.46Z"/><path class="cls-2" d="M351.15,132.11c-17.55.62-35.1,1.23-52.66,1.85"/><path class="cls-2" d="M355.55,149.54c-15.01,1.31-30.03,2.61-45.04,3.92.24,13.12-.07,27.13-1.15,41.92-.48,6.49-1.08,12.79-1.78,18.9,10.67-1.58,22.45-2.81,35.19-3.35,9.4-.4,18.29-.39,26.58-.09-1.05-16.62-2.11-33.24-3.16-49.86-.24.11-4.55,2.06-8.15-.32-3.25-2.15-4.5-6.92-2.49-11.12Z"/></g><g id="Layer_6"><path class="cls-4" d="M73.6,110.95c-4.14,14.9-6.4,30.47-5.97,45.95s3.58,30.99,11.36,44.4c7.74,13.34,19.99,23.68,34.04,29.9,14.14,6.26,29.91,8.63,45.28,7.16,17.77-1.7,34.91-8.28,50.06-17.58,1.93-1.19,3.83-2.42,5.71-3.7,1.32-.9.07-3.07-1.26-2.16-14.68,9.97-31.23,17.34-48.82,20.2-14.91,2.42-30.48,1.08-44.69-4.07s-26.88-14.25-35.41-26.67-12.52-27.56-13.53-42.54c-1.02-15.11.71-30.38,4.3-45.07.42-1.72.87-3.44,1.35-5.15.43-1.55-1.98-2.22-2.41-.66h0Z"/><path class="cls-4" d="M251.68,111.6c6.32-6.1,16.27-4.9,22.98-.11,7.63,5.45,12.1,14.66,13.54,23.75,2.73,17.19-6.31,34.57-21.85,42.33-5.05,2.52-10.82,4.2-16.5,4.15-4.41-.04-9.4-.5-12.63,3.14-1.07,1.2.7,2.97,1.77,1.77,3.04-3.41,8.15-2.29,12.2-2.42,5.39-.17,10.84-1.82,15.68-4.12,8.16-3.88,15-10.41,19.25-18.39s5.87-17.23,4.62-26.21c-1.33-9.59-5.9-19.21-13.63-25.27s-19.62-7.72-27.21-.4c-1.16,1.12.61,2.89,1.77,1.77h0Z"/><path class="cls-4" d="M139.64,240.05c.16,2.18.14,4.38-.08,6.56-.1,1.04-.26,2.08-.46,3.11-.1.51-.21,1.01-.32,1.51-.06.25-.12.5-.18.75-.04.17-.09.33-.13.5-.12.3-.03.24.28-.18h.66l-.09-.03.55.32-.06-.06.32.55-.25.8-.55.32h.06c-.32-.05-.64-.09-.96-.13l.07.05c1.35.88,2.61-1.29,1.26-2.16-1.78-1.15-3.08,2.12-1.11,2.72s2.46-2.34,2.73-3.67c.76-3.6,1.01-7.29.75-10.96-.05-.67-.54-1.25-1.25-1.25-.64,0-1.3.57-1.25,1.25h0Z"/><path class="cls-4" d="M134.86,255.18c-19.87,11.13-39.78,22.29-58.53,35.25-5.26,3.64-10.43,7.42-15.47,11.36-1.27.99.51,2.75,1.77,1.77,17.82-13.91,37.21-25.64,56.82-36.82,5.54-3.16,11.11-6.28,16.67-9.4,1.4-.79.14-2.95-1.26-2.16h0Z"/><path class="cls-4" d="M288.09,207.99c-14,1.3-27.87,3.99-41.32,8.1-14.74,4.5-28.98,10.66-42.35,18.33-5.8,3.33-11.43,6.94-16.88,10.81l1.84,1.41c2.62-6.5,5.23-13,7.85-19.51.6-1.49-1.82-2.14-2.41-.66-2.62,6.5-5.23,13-7.85,19.51-.4.99.98,2.02,1.84,1.41,10.38-7.37,21.43-13.79,32.99-19.12,14.31-6.6,29.39-11.5,44.83-14.62,7.1-1.43,14.26-2.49,21.47-3.16,1.59-.15,1.6-2.65,0-2.5h0Z"/><path class="cls-4" d="M55.61,308.11c-13.72,20.1-27.05,40.47-39.98,61.09-3.62,5.77-7.21,11.57-10.77,17.38-.21.35-.26.92,0,1.26,13.91,18.62,31.5,34.39,51.55,46.17,5.67,3.33,11.53,6.32,17.54,8.99,1.46.65,2.73-1.51,1.26-2.16-20.96-9.28-39.99-22.73-55.71-39.41-4.44-4.71-8.61-9.66-12.48-14.84v1.26c12.71-20.76,25.81-41.27,39.31-61.52,3.78-5.67,7.59-11.32,11.43-16.95.91-1.33-1.26-2.58-2.16-1.26h0Z"/><path class="cls-4" d="M190.93,247.77c-3.03,3.18-6.1,6.4-9.7,8.95-3.79,2.69-7.85,4.2-12.47,4.7-8.85.96-19.59,1.2-25.61-6.59-.98-1.27-2.74.51-1.77,1.77,4.71,6.1,12.71,7.9,20.05,7.82,4.12-.05,8.5-.3,12.49-1.37,3.49-.93,6.69-2.72,9.55-4.89,3.36-2.55,6.31-5.57,9.22-8.62,1.11-1.16-.65-2.93-1.77-1.77h0Z"/><path class="cls-4" d="M91.79,355.3c-1.51,22.01-4.05,43.93-7.06,65.78-3.01,21.88-6.49,43.69-9.85,65.52-1.89,12.26-3.74,24.52-5.46,36.8-.22,1.57,2.19,2.25,2.41.66,3.08-21.96,6.58-43.85,9.94-65.76,3.35-21.86,6.56-43.75,9.07-65.72,1.41-12.4,2.59-24.83,3.45-37.28.11-1.61-2.39-1.6-2.5,0h0Z"/><path class="cls-4" d="M91.37,353.16c-5.35-6.87-10.71-13.74-16.06-20.61-.99-1.27-2.75.51-1.77,1.77,5.35,6.87,10.71,13.74,16.06,20.61.99,1.27,2.75-.51,1.77-1.77h0Z"/><path class="cls-4" d="M260.48,534.83c-4.71,2.9-9.96,4.46-15.33,5.59-2.78.59-5.45.96-8.29,1.15-3.14.21-6.28.42-9.43.63-12.58.85-25.16,1.73-37.75,2.53-24.96,1.58-49.96,2.83-74.98,2.84-13.92,0-27.84-.39-41.74-1.31-1.61-.11-1.6,2.39,0,2.5,25.08,1.66,50.23,1.58,75.34.63,25.41-.95,50.78-2.76,76.15-4.49,6.65-.45,13.47-.47,20.01-1.8,6.03-1.22,11.98-2.86,17.26-6.12,1.37-.84.11-3.01-1.26-2.16h0Z"/><path class="cls-4" d="M298.1,358.64c.53,20.61,1.12,41.22,1.77,61.83.18,5.82.37,11.63.57,17.45.05,1.6,2.55,1.61,2.5,0-.68-20.61-1.31-41.21-1.87-61.82-.16-5.82-.31-11.63-.46-17.45-.04-1.61-2.54-1.61-2.5,0h0Z"/><path class="cls-4" d="M294.75,135.39c.73,27.45,1,54.92,1.18,82.38s.3,54.44.73,81.65c.25,15.43.6,30.86,1.11,46.29.05,1.6,2.55,1.61,2.5,0-.92-27.47-1.31-54.96-1.54-82.45-.23-27.21-.3-54.43-.63-81.64-.18-15.41-.45-30.83-.86-46.24-.04-1.61-2.54-1.61-2.5,0h0Z"/><path class="cls-4" d="M512.94,155.08c0,36.85.1,73.7.29,110.55.19,36.66.47,73.32.85,109.98.21,20.68.46,41.36.73,62.04.02,1.61,2.52,1.61,2.5,0-.49-36.85-.88-73.7-1.18-110.55-.3-36.66-.5-73.32-.6-109.99-.06-20.68-.09-41.36-.09-62.04,0-1.61-2.5-1.61-2.5,0h0Z"/><path class="cls-4" d="M509.31,426.76c-24.93,4.8-50.19,7.86-75.56,8.92-12.6.52-25.22.53-37.83.07-12.56-.47-25.1-1.29-37.67-1.49-14.05-.22-28.15.41-41.96,3.16-1.58.31-.91,2.72.66,2.41,24.82-4.94,50.25-2.78,75.33-1.72,25.23,1.06,50.47.26,75.57-2.53,14.12-1.56,28.17-3.71,42.12-6.4,1.58-.3.91-2.71-.66-2.41h0Z"/><path class="cls-4" d="M383.52,86.03c-3.98-2.62-8.39-4.5-13.03-5.57-.42-.1-.92-.02-1.22.32-2.45,2.81-4.9,5.62-7.35,8.43-2.28,2.61-4.69,5.15-6.76,7.93s-3.04,5.69-3.29,9.04c-.28,3.65-.03,7.37.1,11.02.28,7.6.82,15.18,1.46,22.75.32,3.79.67,7.57,1.03,11.36.16,1.72.29,3.45.5,5.17.17,1.41.44,2.86,1.26,4.05,1.98,2.86,6.19,2.44,9.18,1.89,3.52-.64,6.75-2.25,9.5-4.52,1.24-1.03-.54-2.79-1.77-1.77-2.31,1.91-5.05,3.2-7.98,3.8-2.37.49-6.36,1.12-7.33-1.79-.43-1.31-.47-2.75-.59-4.11-.16-1.73-.33-3.46-.49-5.18-.32-3.46-.63-6.91-.92-10.37-.56-6.75-1.03-13.51-1.3-20.28-.13-3.39-.29-6.8-.22-10.2.06-3.09.58-5.96,2.31-8.57,1.92-2.91,4.49-5.46,6.77-8.08,2.56-2.93,5.12-5.87,7.67-8.8l-1.22.32c4.45,1.03,8.62,2.81,12.43,5.32,1.35.89,2.6-1.28,1.26-2.16h0Z"/><path class="cls-4" d="M372.59,120.7c.38,5.9.77,11.79,1.15,17.69.36,5.56.64,11.15,1.51,16.66s2.36,10.53,4.96,15.27c2.26,4.14,5.43,8.87,9.67,11.19,2.08,1.13,4.49,1.6,6.78.85,2.15-.7,3.95-2.3,4.47-4.55l-2.46-.33c.11,6.11,4.06,11.8,9.63,14.27s12.14,1.05,16.63-3.12c2.52-2.34,4.29-5.48,4.82-8.88l-2.09.55c4.14,3.77,9.67,5.87,15.28,5.67,2.62-.09,5.48-.59,7.71-2.04,2.38-1.54,3.5-4.03,3.89-6.77.45-3.21.37-6.52.45-9.75.08-3.46.14-6.92.16-10.38.04-7.09-.04-14.17-.26-21.26-.24-7.91-.65-15.81-1.21-23.7-.11-1.6-2.61-1.61-2.5,0,.92,12.9,1.42,25.84,1.48,38.77.03,6.43-.05,12.85-.24,19.28-.08,2.77.1,5.77-.73,8.45s-3.27,4.02-5.97,4.57c-5.76,1.18-11.98-.67-16.3-4.61-.62-.57-1.94-.44-2.09.55-1.01,6.54-7.14,11.8-13.83,11.44s-12.21-6.49-12.34-13.04c-.03-1.37-2.13-1.75-2.46-.33-.4,1.75-1.96,2.79-3.68,3.04-2.06.31-4.05-.72-5.6-1.99-3.45-2.81-6.05-6.93-7.97-10.89-4.33-8.96-4.59-19.18-5.22-28.92-.38-5.9-.77-11.79-1.15-17.69-.1-1.6-2.6-1.61-2.5,0h0Z"/><path class="cls-4" d="M394.18,118.04c1.26,16,2.51,32,3.77,48,.13,1.59,2.63,1.61,2.5,0-1.26-16-2.51-32-3.77-48-.13-1.59-2.63-1.61-2.5,0h0Z"/><path class="cls-4" d="M430.06,120.07c-.33,15.77-.65,31.54-.98,47.31-.03,1.61,2.47,1.61,2.5,0,.33-15.77.65-31.54.98-47.31.03-1.61-2.47-1.61-2.5,0h0Z"/><path class="cls-4" d="M385.03,86.37c1.95-.87,2.98-2.72,4.64-3.95,1.88-1.39,4.31-1.11,6.41-.42,4.5,1.47,8.12,5.19,13.07,5.31,2.5.06,4.78-1,7.21-1.36s4.72.17,6.72,1.39,3.22,3.33,5.12,4.7,4.36,1.62,6.69,1.7c4.75.16,12.04-.1,14.01,5.45.53,1.51,2.95.86,2.41-.66-1.68-4.75-6.54-6.64-11.2-7.07-2.73-.25-5.62.1-8.31-.52s-3.94-3-5.95-4.67c-1.82-1.51-4-2.48-6.35-2.81-2.68-.37-5.09.4-7.66,1.01-2.73.64-5.11.11-7.58-1.14-2.32-1.17-4.48-2.64-6.93-3.54s-5.29-1.28-7.75-.18-3.49,3.57-5.8,4.6c-1.47.66-.2,2.81,1.26,2.16h0Z"/><path class="cls-4" d="M452.03,97.76c2.46-.98,4.91-1.96,7.37-2.93,1.07-.42,2.2-1.05,3.11-.04.7.78,1.14,1.88,1.63,2.79,2.3,4.3,4.38,8.72,6.2,13.24,3.62,8.97,6.31,18.29,8.04,27.81.29,1.58,2.7.91,2.41-.66-1.47-8.1-3.64-16.07-6.49-23.79-1.42-3.86-3.01-7.65-4.76-11.37-.87-1.85-1.77-3.67-2.72-5.48-.79-1.52-1.53-3.33-2.78-4.54-1.57-1.52-3.47-1.08-5.3-.36-2.46.97-4.92,1.95-7.37,2.93-1.48.59-.83,3.01.66,2.41h0Z"/><path class="cls-4" d="M508.42,136.63c-17.34-.25-34.68.15-52,1.19-1.6.1-1.61,2.6,0,2.5,17.31-1.04,34.66-1.44,52-1.19,1.61.02,1.61-2.48,0-2.5h0Z"/><path class="cls-4" d="M351.15,130.86c-17.57-.15-35.14.47-52.66,1.85-1.59.13-1.61,2.63,0,2.5,17.52-1.38,35.09-2,52.66-1.85,1.61.01,1.61-2.49,0-2.5h0Z"/><path class="cls-4" d="M147.42,70.46c-9.18,20.4-24.78,37.68-44.03,49.05-5.43,3.21-11.13,5.93-17.04,8.12l1.58,1.21c-.07-6.24-.14-12.47-.21-18.71,0-.88-1.08-1.65-1.88-1.08-2.69,1.92-5.68,3.19-8.93,3.8-1.58.3-.91,2.71.66,2.41,3.44-.64,6.68-2.02,9.53-4.05l-1.88-1.08c.07,6.24.14,12.47.21,18.71,0,.75.8,1.49,1.58,1.21,21.43-7.94,40.09-22.61,53.05-41.42,3.67-5.33,6.86-10.99,9.52-16.9.66-1.46-1.5-2.73-2.16-1.26h0Z"/><path class="cls-4" d="M151.66,74.3c12.86,14.5,27.7,27.22,43.99,37.7,4.59,2.96,9.31,5.73,14.12,8.32.87.47,1.82-.13,1.88-1.08.29-4.28,1.15-8.48,2.53-12.54l-2.09.55c5.33,5.59,12.03,10.46,19.9,11.4,6.79.81,14.05-1.71,18.02-7.45.92-1.33-1.25-2.58-2.16-1.26-3.52,5.1-10.29,7.06-16.23,6.16-7.03-1.07-12.98-5.59-17.76-10.61-.68-.72-1.8-.31-2.09.55-1.45,4.28-2.31,8.7-2.62,13.21l1.88-1.08c-16.87-9.1-32.48-20.47-46.27-33.8-3.93-3.8-7.71-7.75-11.33-11.84-1.07-1.21-2.83.57-1.77,1.77h0Z"/><path class="cls-4" d="M220.11,26.17c4.7-.82,9.39-1.65,14.09-2.47l7.04-1.24c2.14-.38,4.44-1.14,5.98.83,2.75,3.52,5.1,7.48,7.54,11.22s4.96,7.7,7.37,11.59c4.82,7.79,9.45,15.69,13.88,23.71,2.21,4.01,4.38,8.04,6.5,12.1s4.11,7.81,5.57,11.96c2.67,7.62,2.96,17.98-4.56,23.06-1.33.9-.08,3.06,1.26,2.16,6.47-4.37,8.42-12.63,7.24-19.99-.75-4.67-2.64-9.08-4.72-13.3s-4.43-8.63-6.74-12.89c-9.35-17.27-19.55-34.16-30.76-50.29-1.28-1.84-2.7-3.14-5.06-3.15-2.65-.01-5.44.81-8.05,1.26-5.75,1.01-11.5,2.02-17.25,3.02-1.58.28-.91,2.69.66,2.41h0Z"/><path class="cls-4" d="M256.88,184.82c-4.01,5.99-8.19,12.31-9.09,19.63-.19,1.56-.23,3.23.66,4.6s2.3,2.18,3.66,2.91c3.22,1.72,6.73,2.68,10.35,3.02,1.6.15,1.59-2.35,0-2.5-3.09-.29-6.15-1.14-8.9-2.58-1.22-.64-2.87-1.41-3.29-2.85-.39-1.34.04-3.05.34-4.37,1.35-6.13,4.99-11.47,8.42-16.6.9-1.34-1.27-2.59-2.16-1.26h0Z"/><path class="cls-4" d="M132.02,246.11c-17.05-5.29-34.12-10.5-51.22-15.63-4.85-1.46-9.7-2.91-14.56-4.35-1.55-.46-2.21,1.95-.66,2.41,17.11,5.09,34.2,10.26,51.26,15.5,4.84,1.49,9.68,2.98,14.52,4.48,1.54.48,2.2-1.93.66-2.41h0Z"/><path class="cls-4" d="M218.74,13.4c-.15-3.28-1.72-6.3-4.21-8.43-2.83-2.42-6.42-3.35-10.06-3.73-4.16-.44-8.38-.5-12.56-.67s-8.67-.32-13-.42c-17.41-.39-34.86-.08-52.21,1.43-8.58.75-17.14,1.79-25.64,3.18-4.36.71-8.71,1.52-13.04,2.42-3.97.83-8.11,1.53-11.93,2.91-3.5,1.27-6.12,3.48-8.13,6.61-2.25,3.51-3.96,7.42-5.84,11.14-4.03,7.96-8.07,15.92-12.1,23.88-3.88,7.65-7.65,15.37-11.66,22.95-3.08,5.84-6.68,12.17-12.38,15.83-1.32.85-2.72,1.51-4.22,1.97-1.25.39-1.12,1.97,0,2.41,8.37,3.28,17.18,5.24,26.16,5.81,1.61.1,1.6-2.4,0-2.5-8.75-.56-17.33-2.53-25.49-5.72v2.41c6.15-1.89,10.58-6.75,14.03-11.97,4.2-6.36,7.36-13.42,10.79-20.21,3.92-7.74,7.84-15.48,11.77-23.22,1.98-3.91,3.96-7.81,5.94-11.72,1.78-3.51,3.37-7.24,5.62-10.48s5.42-4.72,9.14-5.67c4.06-1.03,8.18-1.89,12.29-2.7,8.4-1.65,16.86-2.94,25.36-3.9,16.83-1.91,33.78-2.59,50.7-2.51,8.51.04,17.03.27,25.53.63,4.06.17,8.24.13,12.26.78,3.47.56,6.85,1.96,8.87,4.98.91,1.36,1.45,2.87,1.52,4.51s2.58,1.61,2.5,0h0Z"/><path class="cls-4" d="M44.98,98.66c-4.71,9.64-6.94,20.4-6.43,31.12.26,5.47,1.24,10.87,2.89,16.09s4.04,10.72,4.43,16.39c.35,4.98-.86,10.66-5.03,13.85-.89.68-.74,2.4.63,2.33,2.63-.13,5.26-.26,7.9-.39,1.15-.06,2.3-.11,3.45-.17,1.22-.06,2.6-.3,3.82-.06,2.05.41,2.75,3.51,3.46,5.15,1.05,2.44,2.1,4.88,3.16,7.33,2.02,4.68,4.18,9.32,5.99,14.09,1.63,4.28,3.01,9.24,1.45,13.75-1.33,3.83-5.11,7.61-9.46,6.83-1.57-.28-2.25,2.13-.66,2.41,4.38.78,8.29-1.53,10.76-5.05,2.92-4.18,2.96-9.38,1.75-14.17-1.41-5.58-4.12-10.87-6.39-16.14-1.18-2.75-2.37-5.49-3.55-8.24-.56-1.3-1.12-2.59-1.68-3.89-.48-1.12-.96-2.28-1.82-3.17-2.01-2.07-5.23-1.4-7.81-1.28-3.45.17-6.91.34-10.36.52l.63,2.33c3.72-2.84,5.61-7.07,6.16-11.65.65-5.38-.83-10.68-2.52-15.73-1.8-5.4-3.58-10.72-4.29-16.39s-.66-11.14.15-16.64c.92-6.22,2.77-12.29,5.53-17.94.7-1.44-1.45-2.71-2.16-1.26h0Z"/><path class="cls-4" d="M14.04,398.29c-10.94,13.94-15.24,32.03-13.76,49.53,1.53,18.11,9.27,35.06,20.2,49.41,6.25,8.21,13.47,15.62,21.33,22.3,1.22,1.04,3-.72,1.77-1.77-13.48-11.46-25.3-25.2-32.89-41.29-7.38-15.63-10.22-33.42-6.67-50.44,1.96-9.4,5.85-18.4,11.79-25.97.98-1.25-.78-3.03-1.77-1.77h0Z"/><path class="cls-4" d="M40.1,424.12c-9.35,9.76-14.87,23.36-11.76,36.87,1.56,6.76,4.59,13.32,7.77,19.45,3,5.8,6.51,11.32,10.6,16.41,4.56,5.68,9.89,10.7,15.93,14.77,1.34.9,2.59-1.26,1.26-2.16-10.37-6.99-18.33-16.93-24.31-27.81-3.11-5.65-5.92-11.62-7.86-17.78s-2.4-12.98-.63-19.5c1.89-6.98,5.79-13.29,10.77-18.49,1.11-1.16-.65-2.93-1.77-1.77h0Z"/><path class="cls-4" d="M41.66,520.92c-3.93,11-7.99,22.33-15.41,31.54-1.74,2.15-3.7,4.2-4.76,6.8s-.88,5.72-.03,8.48c1.53,4.99,4.48,9.64,7.81,13.62,3.85,4.6,8.64,8.41,13.93,11.21,1.42.75,2.69-1.4,1.26-2.16-8.87-4.7-16.6-12.56-20.16-22.07-1.02-2.73-1.62-5.77-.35-8.53,1.15-2.49,3.21-4.47,4.87-6.61,3.33-4.31,6.03-9.06,8.31-13.99,2.66-5.73,4.81-11.68,6.93-17.63.54-1.52-1.87-2.17-2.41-.66h0Z"/><path class="cls-4" d="M44.83,546.6c-.27,4.67-1.9,9.09-2.6,13.68-.62,4.1-.37,8.2,1.08,12.1,1.28,3.46,3.27,6.56,5.29,9.63.91,1.38,2.58,3.19,2.72,4.89.18,2.1-3.08,3.29-4.75,3.33s-1.61,2.54,0,2.5c2.82-.06,6.77-1.89,7.2-5.03.23-1.68-.58-3.17-1.45-4.55s-1.71-2.62-2.57-3.93c-1.76-2.7-3.44-5.5-4.42-8.59-1.17-3.68-1.17-7.45-.44-11.22.82-4.28,2.16-8.44,2.42-12.82.09-1.61-2.41-1.6-2.5,0h0Z"/><path class="cls-4" d="M59.77,548.45c-2.67,7.07-1.07,14.81-.55,22.1.27,3.78.32,7.64-.64,11.33-.34,1.3-.51,2.41-1.48,3.4-.88.89-2.09,1.65-3.22.79-1.28-.97-2.53,1.2-1.26,2.16,2.64,2,6.18-.33,7.49-2.83.32-.61.44-1.23.61-1.89.27-1.04.55-2.06.73-3.13.33-2.04.46-4.1.43-6.16-.09-8.26-2.73-17.11.3-25.12.57-1.51-1.85-2.16-2.41-.66h0Z"/><path class="cls-4" d="M64.15,513.67c.33.42.77,1.06,1.11,1.64s.69,1.27.9,1.79c.5,1.19.9,2.66,1.13,4.01.11.65.94,1.07,1.54.87.7-.23.99-.85.87-1.54-.53-3.13-1.8-6.07-3.79-8.55-.42-.53-1.33-.44-1.77,0-.52.52-.42,1.24,0,1.77h0Z"/><path class="cls-4" d="M70.98,525.61c5.02,9.19,3.39,20.61,1.25,30.38-.56,2.57-1.2,5.12-1.87,7.66-.6,2.27-1.1,4.63-1.97,6.81-.28.7-1.34,3.52-2.38,3.44-.73-.05-1.36-2.08-1.51-2.54-.39-1.17-.52-2.38-.53-3.61-.05-5.1,1.89-10.97-1.35-15.51-.93-1.3-3.1-.05-2.16,1.26,3.18,4.45.61,10.65,1.08,15.66.21,2.24.9,5.28,2.87,6.66,1.65,1.16,3.38.25,4.5-1.16,1.45-1.84,2.19-4.15,2.8-6.38.74-2.7,1.47-5.41,2.13-8.13,1.42-5.81,2.58-11.74,2.85-17.74s-.52-12.55-3.53-18.07c-.77-1.41-2.93-.15-2.16,1.26h0Z"/><path class="cls-4" d="M75,530.3c-1.43-4.25-3.14-8.42-5.1-12.45-.3-.61-1.16-.77-1.71-.45-.62.36-.74,1.1-.45,1.71,1.87,3.85,3.48,7.8,4.85,11.86.51,1.52,2.93.87,2.41-.66h0Z"/><path class="cls-4" d="M76.5,441.64c2.99-12.4,7-24.55,12.01-36.28.63-1.46-1.53-2.74-2.16-1.26-5.1,11.94-9.22,24.26-12.27,36.88-.38,1.56,2.03,2.23,2.41.66h0Z"/><path class="cls-4" d="M169.53,145.97c2.07-3.44,5.97-5.04,9.73-5.88,4.06-.91,8.33-1.02,12.44-.41,7.86,1.18,16.57,5.08,21.2,11.81,2.27,3.31,3.35,7.48,1.06,11.08s-6.42,5.23-10.33,5.91c-9.07,1.58-18.56-2.44-26.71-5.96-4.05-1.75-8.02-4.09-9.1-8.68-.9-3.8.3-7.95,3.24-10.54,1.21-1.07-.56-2.83-1.77-1.77-2.99,2.64-4.5,6.72-4.22,10.68.3,4.34,2.59,7.85,6.2,10.2,2.05,1.34,4.34,2.26,6.6,3.2,2.45,1.01,4.92,2,7.43,2.86,5,1.72,10.32,3.04,15.65,2.79,4.66-.22,9.48-1.64,12.98-4.84s4.65-7.52,3.29-11.85c-1.43-4.55-4.95-8.11-8.75-10.83s-8.21-4.7-12.77-5.82c-5.14-1.26-10.52-1.46-15.73-.53-4.87.87-9.93,2.88-12.59,7.3-.83,1.38,1.33,2.64,2.16,1.26h0Z"/><path class="cls-4" d="M198.94,148.07c-.02-1.46-1.29-2.78-2.79-2.66-.41.03-.89.21-1.08.62-1.65,3.63-1.42,7.97.8,11.32.53.81,1.62.8,2.16,0,2.16-3.23,2.32-7.52.56-10.96-.31-.6-1.15-.78-1.71-.45-.61.36-.76,1.11-.45,1.71,1.37,2.67,1.11,5.94-.56,8.44h2.16c-1.71-2.58-2.08-5.97-.8-8.8l-1.08.62c.14-.01.19-.05.27.06-.06-.08,0-.06.04.07-.02-.07-.01-.24,0,.03.02,1.61,2.52,1.61,2.5,0h0Z"/><path class="cls-4" d="M145.69,190.94c-1.04,3.33-4.47,5.69-7.96,5.41s-6.39-3.29-6.92-6.7c-.1-.67-.94-1.03-1.54-.87-.71.19-.98.87-.87,1.54.71,4.55,4.76,8.2,9.33,8.54s9.01-2.91,10.37-7.25c.48-1.54-1.93-2.2-2.41-.66h0Z"/><path class="cls-4" d="M198.36,99.14c-9.86-4.15-21.55-2.39-29.93,4.18-1.26.99.52,2.75,1.77,1.77,7.71-6.05,18.51-7.32,27.49-3.54,1.48.62,2.13-1.8.66-2.41h0Z"/><path class="cls-4" d="M115.11,100.43c-8.15-5.36-19.27-4.72-26.89,1.27-1.26.99.52,2.75,1.77,1.77,6.76-5.31,16.73-5.57,23.86-.87,1.35.89,2.6-1.28,1.26-2.16h0Z"/><path class="cls-4" d="M262.26,136.28c-3.96,2.71-7.92,5.42-11.87,8.12-.54.37-.3,1.09.32,1.16,6.26.73,12.4,2.27,18.26,4.57.75.29,1.07-.92.33-1.21-5.98-2.34-12.22-3.87-18.59-4.61l.32,1.16c3.96-2.71,7.92-5.42,11.87-8.12.66-.45.04-1.54-.63-1.08h0Z"/><path class="cls-4" d="M213.99,166.36c1.11,1.56,2.22,3.11,3.33,4.67.2.27.54.41.86.22.27-.16.42-.58.22-.86-1.11-1.56-2.22-3.11-3.33-4.67-.2-.27-.54-.41-.86-.22-.27.16-.42.58-.22.86h0Z"/><path class="cls-4" d="M203.76,169.84c-.53,2.21-.22,4.55.86,6.54.38.71,1.46.08,1.08-.63-.92-1.7-1.18-3.7-.73-5.58.19-.78-1.02-1.12-1.21-.33h0Z"/><path class="cls-4" d="M308.72,157.34c-1.8,18.88,2.11,38.04-1.75,56.77-.08.41.18.78.6.79,16.1.6,31.78-3.96,47.82-4.39,4.62-.12,9.24.13,13.79.94.49.09.86-.28.77-.77-3.01-15.57-4.16-31.45-3.44-47.29.04-.8-1.21-.8-1.25,0-.73,15.95.45,31.94,3.48,47.62l.77-.77c-16.07-2.86-32.09,1.27-48.05,2.88-4.62.47-9.25.71-13.89.54l.6.79c3.88-18.85-.02-38.1,1.79-57.1.08-.8-1.17-.8-1.25,0h0Z"/><path class="cls-4" d="M352.49,149.63c-14.12-.23-28.23.86-42.15,3.22-.79.13-.46,1.34.33,1.21,13.81-2.35,27.81-3.4,41.82-3.18.8.01.8-1.24,0-1.25h0Z"/><path class="cls-4" d="M473.29,163.85c-6.5-.21-13-.42-19.5-.62-.8-.03-.8,1.22,0,1.25,6.5.21,13,.42,19.5.62.8.03.8-1.22,0-1.25h0Z"/><path class="cls-4" d="M375.82,164.91c-1.78.21-3.56.43-5.33.64-.34.04-.62.26-.62.62,0,.31.29.67.62.62,1.78-.21,3.56-.43,5.33-.64.34-.04.62-.26.62-.62,0-.31-.29-.67-.62-.62h0Z"/><path class="cls-4" d="M473.66,178.52c-7.07.13-14.14.25-21.21.38-.8.01-.81,1.26,0,1.25,7.07-.13,14.14-.25,21.21-.38.8-.01.81-1.26,0-1.25h0Z"/><path class="cls-4" d="M385.14,178.75c-5.34.16-10.68-.1-15.98-.79-.8-.1-.79,1.15,0,1.25,5.3.69,10.64.95,15.98.79.8-.02.81-1.27,0-1.25h0Z"/><path class="cls-4" d="M473.78,199.22c-24.96.12-49.92-.35-74.85-1.41-7.04-.3-14.08-.65-21.12-1.04-.8-.04-.8,1.21,0,1.25,24.92,1.39,49.87,2.2,74.83,2.41,7.05.06,14.1.07,21.14.04.8,0,.81-1.25,0-1.25h0Z"/><path class="cls-4" d="M474.46,239.54c-19.39-.35-38.78-.75-58.17-1.13s-39.02-.75-58.53-1.03c-10.92-.16-21.84-.29-32.77-.38-.8,0-.81,1.24,0,1.25,19.44.17,38.89.45,58.33.79s38.99.74,58.48,1.13c10.89.22,21.77.43,32.66.62.8.01.8-1.24,0-1.25h0Z"/><path class="cls-4" d="M475.23,259.79c-19.78.92-39.56,1.66-59.36,2.1s-39.67.58-59.5.28c-11.08-.17-22.16-.47-33.23-.94-.8-.03-.8,1.22,0,1.25,19.79.84,39.59,1.15,59.4,1.09s39.67-.5,59.49-1.18c11.07-.38,22.14-.84,33.2-1.36.8-.04.81-1.29,0-1.25h0Z"/><path class="cls-4" d="M472.47,286.08c-19.04.86-38.11,1.29-57.17,1.28-19.06-.01-38.13-.46-57.17-1.35-10.76-.5-21.52-1.15-32.27-1.93-.8-.06-.8,1.19,0,1.25,19.01,1.38,38.06,2.33,57.11,2.84,19.06.51,38.12.58,57.18.21,10.77-.21,21.54-.56,32.31-1.05.8-.04.81-1.29,0-1.25h0Z"/><path class="cls-4" d="M476.42,332.14c-19.91.65-39.82,1.6-59.71,2.61-19.77,1-39.54,2.06-59.32,2.9-11.12.47-22.23.88-33.36,1.17-.8.02-.81,1.27,0,1.25,19.73-.52,39.45-1.4,59.16-2.37s39.65-2.06,59.47-2.97c11.25-.52,22.5-.98,33.75-1.34.8-.03.81-1.28,0-1.25h0Z"/><path class="cls-4" d="M475.12,356.16c-19.52,1.4-39.08,2.25-58.65,2.77-19.48.52-38.97.7-58.46.75-10.84.03-21.67.02-32.51.01-.8,0-.81,1.25,0,1.25,19.33.02,38.65.03,57.98-.17,19.55-.21,39.11-.63,58.65-1.48,11.01-.48,22.01-1.1,33-1.88.8-.06.8-1.31,0-1.25h0Z"/><path class="cls-4" d="M476.47,385.24c-19.25,1.15-38.53,2.03-57.81,2.61-19.44.58-38.89.86-58.34.78-10.89-.04-21.77-.2-32.65-.47-.8-.02-.8,1.23,0,1.25,19.37.49,38.76.59,58.14.37,19.42-.22,38.84-.77,58.25-1.61,10.81-.47,21.61-1.03,32.41-1.67.8-.05.8-1.3,0-1.25h0Z"/><path class="cls-4" d="M125.68,146.9c-.59-8.38-10.77-11.12-17.61-11.99-8.99-1.15-18.57.52-26.5,4.97-3.41,1.92-6.64,4.69-7.87,8.52-1.07,3.34-.51,7.5,2.25,9.88,1.68,1.45,3.86,2.12,5.95,2.72,2.32.66,4.69,1.14,7.08,1.46,4.79.64,9.63.59,14.41-.11,8.91-1.31,22.14-5.46,22.36-16.47.03-1.61-2.47-1.61-2.5,0-.17,8.54-10.32,11.96-17.19,13.45-8.17,1.78-16.83,1.4-24.8-1.13-1.78-.56-3.61-1.29-4.64-2.94-.8-1.29-1.04-2.85-.91-4.35.32-3.53,2.94-6.24,5.78-8.07,6.54-4.22,14.78-6.01,22.49-5.76,4.14.13,8.51.77,12.35,2.4,3.14,1.33,6.58,3.71,6.85,7.42.11,1.6,2.61,1.61,2.5,0h0Z"/><path class="cls-4" d="M107.75,145.23c-.65,1.38-.83,2.91-.4,4.39.25.88,1.43,1.25,2.09.55,2.2-2.35,2.21-6.2.04-8.57-.52-.57-1.61-.45-1.96.25-.97,1.96-1.23,4.2-.64,6.32.24.88,1.44,1.25,2.09.55.29-.31.57-.62.86-.92.45-.48.51-1.3,0-1.77s-1.29-.51-1.77,0c-.29.31-.57.62-.86.92l2.09.55c-.06-.21-.11-.42-.15-.63-.02-.1-.03-.19-.05-.29.04.27,0-.11,0-.13-.04-.43-.03-.86,0-1.29,0-.03.04-.34.02-.18s.03-.15.03-.18c.04-.23.1-.46.16-.68.05-.19.11-.37.18-.56,0-.02.15-.36.05-.14.05-.11.1-.21.15-.32l-1.96.25c.05.06.1.12.15.18.12.12-.12-.17-.02-.03.08.11.16.23.23.35.08.13.15.27.22.41s.03.03-.01-.04c.04.07.06.15.08.22.09.26.16.53.21.81.04.24-.04.05,0,0-.02.02.02.15.02.19.01.16.02.31.02.47,0,.14,0,.28-.02.42,0,.04-.01.25,0,.07.01-.2-.01.07-.02.11-.05.27-.12.55-.21.81,0,0-.11.29-.04.11s-.05.09-.05.1c-.06.12-.13.25-.2.37s-.15.23-.23.35c.05-.08.12-.14.02-.03-.06.07-.12.14-.19.21l2.09.55c-.04-.15-.07-.3-.11-.46-.07-.26,0,.16-.02-.13-.02-.25-.03-.51,0-.76,0-.06,0-.12.01-.18-.02.14-.02.13,0-.02.02-.11.05-.23.08-.34s.06-.23.1-.34c.03-.07.05-.15.08-.22-.05.12-.04.11.02-.02.28-.59.18-1.38-.45-1.71-.56-.29-1.41-.18-1.71.45h0Z"/><path class="cls-4" d="M78.89,159.85c-1.16,1.01-2.31,2.03-3.47,3.04-.25.22-.24.67,0,.88.26.24.62.23.88,0,1.16-1.01,2.31-2.03,3.47-3.04.25-.22.24-.67,0-.88-.26-.24-.62-.23-.88,0h0Z"/><path class="cls-4" d="M87.43,161.41c-1.22,1.39-2.12,3.03-2.61,4.81-.09.33.11.68.44.77s.68-.11.77-.44c.43-1.57,1.21-3.04,2.28-4.26.22-.25.25-.63,0-.88-.23-.23-.66-.25-.88,0h0Z"/><path class="cls-4" d="M240.08,168.38c-.05,4.39-.73,8.74-1.99,12.95-.23.77.97,1.1,1.21.33,1.29-4.31,1.99-8.78,2.04-13.28,0-.8-1.24-.81-1.25,0h0Z"/><path class="cls-4" d="M238.65,176.05c-2.08,12.96-9.88,24.02-19.8,32.31-1.24,1.03.54,2.79,1.77,1.77,10.2-8.53,18.3-20.09,20.44-33.41.25-1.57-2.16-2.25-2.41-.66h0Z"/><path class="cls-4" d="M313.01,438.07c5.95,20.03,11.91,40.05,17.86,60.08.46,1.54,2.87.88,2.41-.66-5.95-20.03-11.91-40.05-17.86-60.08-.46-1.54-2.87-.88-2.41.66h0Z"/><path class="cls-4" d="M333.39,503.37c-19.73,8.72-39.46,17.44-59.18,26.15l-16.84,7.44c-1.47.65-.2,2.8,1.26,2.16,19.73-8.72,39.46-17.44,59.18-26.15l16.84-7.44c1.47-.65.2-2.8-1.26-2.16h0Z"/></g></svg>